<svg width="102" height="68" viewBox="0 0 102 68" fill="none" xmlns="http://www.w3.org/2000/svg">
<rect width="101.58" height="68" rx="12" fill="white"/>
<g clip-path="url(#clip0_680_7775)">
<path d="M93.6997 27.8308C93.8873 27.6267 93.9999 27.367 93.9999 27.0701C93.9999 26.7733 93.8873 26.4765 93.6997 26.2539C93.4745 26.0312 93.2117 25.9199 92.8927 25.9199C92.5925 25.9199 92.3485 26.0498 92.0858 26.2539C91.8794 26.4765 91.7855 26.7362 91.7855 27.0701C91.7855 27.367 91.8794 27.6267 92.0858 27.8308C92.3297 28.0534 92.5737 28.1276 92.8927 28.1276C93.193 28.1276 93.4745 28.0348 93.6997 27.8308ZM93.756 39.036V29.185H92.0858L92.1233 39.036H93.756ZM89.9089 29.6859L89.6274 29.5561C88.8955 29.1294 87.9948 28.9253 86.9063 28.9253C85.7428 28.9253 84.7857 29.2036 84.0726 29.7416C83.6973 30.0199 83.4533 30.2981 83.2657 30.6506C83.078 30.9846 82.9842 31.3185 82.9842 31.7081C82.9842 32.3759 83.2844 32.9325 83.8474 33.4148C84.3729 33.8786 85.1423 34.2311 86.1557 34.5465C87.0189 34.8248 87.6007 35.103 87.976 35.3628C88.2762 35.6596 88.4639 35.9935 88.4639 36.4202C88.4639 36.884 88.2199 37.2365 87.7883 37.5519C87.3567 37.793 86.7374 37.9415 85.968 37.9415C85.1423 37.9415 84.2978 37.7188 83.4346 37.3293L83.2094 37.1808L82.4963 38.4609L82.7402 38.5908C83.6973 39.0546 84.7482 39.2586 85.8929 39.2586C87.1315 39.2586 88.1449 39.0175 88.9518 38.4609C89.3459 38.2197 89.6274 37.8858 89.8526 37.5519C90.059 37.1623 90.1529 36.7356 90.1529 36.3089V36.2718C90.1529 35.5483 89.8526 34.899 89.2521 34.3795C88.7642 33.9528 87.9572 33.5818 86.9063 33.285C86.0994 33.0067 85.5176 32.7284 85.1798 32.5243C84.8045 32.2461 84.6544 31.9492 84.6544 31.6153C84.6544 31.2257 84.8045 30.9103 85.1423 30.6321C85.5176 30.3909 86.0055 30.2425 86.6436 30.2425C87.5444 30.2425 88.2762 30.3909 88.858 30.7619L89.0832 30.9103L89.9089 29.6859ZM79.8502 30.4094C78.7055 29.4262 77.298 28.9253 75.6654 28.9253C74.0702 28.9253 72.7379 29.4077 71.6682 30.3538C70.4671 31.4298 69.8479 32.8768 69.8479 34.8062V42.4495H71.443V37.5148C71.9309 38.0713 72.5502 38.498 73.3008 38.7948C74.0327 39.1288 74.8397 39.2772 75.7029 39.2772C77.3356 39.2772 78.7243 38.7948 79.869 37.7559C81.0325 36.7542 81.633 35.5297 81.633 34.1012C81.6143 32.6357 81.0325 31.4112 79.8502 30.4094ZM75.6654 30.2981C76.8664 30.2981 77.9173 30.6692 78.7243 31.3927C79.55 32.1162 79.9816 33.0438 79.9816 34.1384C79.9816 35.1773 79.6063 36.0306 78.8744 36.7542C78.0674 37.5148 76.9978 37.9044 75.7029 37.9044C74.408 37.9044 73.3571 37.5148 72.5314 36.7542C71.762 35.9935 71.3867 35.1401 71.3867 34.1384C71.3867 33.1366 71.762 32.2461 72.5314 31.5226C73.3196 30.7248 74.3705 30.2981 75.6654 30.2981ZM67.2769 30.8918C66.2072 29.5561 64.6496 28.9068 62.5854 28.9068C61.0465 28.9068 59.7141 29.3334 58.5694 30.2425C57.3308 31.1886 56.7115 32.4687 56.7115 34.0456C56.7115 34.9361 56.9555 35.808 57.4809 36.6428C57.9501 37.4406 58.6445 38.0713 59.6015 38.5537C60.5586 39.0175 61.572 39.2215 62.6792 39.2215C63.7301 39.2215 64.7059 39.0175 65.663 38.5537C66.6201 38.0713 67.3332 37.422 67.7836 36.6428L68.0838 36.1234H66.3011C65.9257 36.6428 65.4003 37.0695 64.7247 37.4035C64.0491 37.7374 63.2985 37.8858 62.6041 37.8858C61.6095 37.8858 60.7838 37.6446 60.0519 37.1623C59.32 36.6428 58.8133 36.0121 58.5131 35.1587C59.5265 34.7691 60.5398 34.5465 61.6658 34.5465L63.336 34.732L65.9257 34.9732C66.7327 34.9732 67.4083 34.8433 68.0275 34.6764C68.2715 34.5836 68.4216 34.4537 68.4967 34.3053C68.5905 34.1755 68.5905 33.9714 68.5342 33.7302C68.3653 32.6357 67.9525 31.6895 67.2769 30.8918ZM66.8453 33.3963L66.8828 33.4519L65.982 33.5818L64.0491 33.3963L61.328 33.1737H60.8589C59.9956 33.2293 59.1887 33.3963 58.4193 33.656C58.5506 32.5243 59.0948 31.6524 60.0144 31.0031C60.7838 30.5208 61.647 30.2425 62.5666 30.2425C64.0116 30.2425 65.1188 30.7063 65.9633 31.6153C66.4137 32.1719 66.7327 32.7655 66.8453 33.3963ZM49.5616 28.9253C47.9853 28.9253 46.6341 29.4077 45.5457 30.3538C44.3446 31.4298 43.7629 32.8768 43.7629 34.8062L43.7253 42.4495H45.3955L45.358 37.5148C45.8459 38.0713 46.4652 38.498 47.1783 38.7948C47.9477 39.1288 48.7547 39.2772 49.6179 39.2772C51.2506 39.2772 52.6393 38.7948 53.784 37.7559C54.9475 36.7542 55.5105 35.5297 55.5105 34.1012C55.5105 32.6357 54.9475 31.4112 53.8215 30.4094C52.6393 29.4448 51.2506 28.9253 49.5616 28.9253ZM46.4089 31.504C47.2346 30.7063 48.2668 30.2796 49.5616 30.2796C50.8002 30.2796 51.8136 30.6506 52.6393 31.3741C53.465 32.0977 53.8778 33.0252 53.8778 34.1198C53.8778 35.1587 53.5025 36.0121 52.8082 36.7356C52.0012 37.4962 50.9503 37.8858 49.5992 37.8858C48.3418 37.8858 47.2534 37.4962 46.4277 36.7356C45.6958 35.975 45.3205 35.1216 45.3205 34.1198C45.3017 33.118 45.677 32.2461 46.4089 31.504Z" fill="#004983"/>
<path d="M32.0904 22.1538C31.9402 22.0425 31.8089 21.9312 31.6963 21.8013C29.0503 19.9832 25.8975 19 22.6698 19C14.0186 19 7 25.9384 7 34.4907C7 37.83 8.08844 41.0766 10.0964 43.7481C15.3322 42.2083 19.9111 39.5554 23.8333 35.6966C27.7554 31.8749 30.514 27.3483 32.0904 22.1538Z" fill="#E42B35"/>
<path d="M22.6698 49.9999C31.321 49.9999 38.3396 43.0615 38.3396 34.5092C38.3396 31.4852 37.4576 28.6468 35.9375 26.2722C35.9 26.2351 35.8624 26.198 35.8249 26.1423C36.1439 27.1812 36.3128 28.2572 36.3128 29.3518C36.3128 31.1142 35.9 32.7839 35.093 34.3422C34.2861 35.8264 33.1789 37.1064 31.8089 38.1082C30.7205 38.9059 29.4069 39.5924 27.8493 40.1304C26.6107 40.5756 25.0156 41.0394 23.0264 41.4846L17.3027 42.7647C14.8631 43.3213 12.6487 43.9149 10.6782 44.5086C13.5682 47.8479 17.8657 49.9999 22.6698 49.9999Z" fill="#004983"/>
</g>
<defs>
<clipPath id="clip0_680_7775">
<rect width="87" height="31" fill="white" transform="translate(7 19)"/>
</clipPath>
</defs>
</svg>
