<svg width="102" height="68" viewBox="0 0 102 68" fill="none" xmlns="http://www.w3.org/2000/svg">
<rect width="101.58" height="68" rx="12" fill="white"/>
<path d="M30.0174 42C25.4962 42 21.5229 40.229 21.5229 35.5C21.5229 30.7126 25.5744 29 30.0174 29C34.5582 29 38.4728 30.771 38.4728 35.5C38.4728 40.3847 34.3234 42 30.0174 42ZM30.0174 31.5105C26.4944 31.5105 24.7916 33.0674 24.7916 35.5C24.7916 37.8548 26.3769 39.4895 30.0174 39.4895C33.8145 39.4895 35.2041 37.7186 35.2041 35.5C35.2041 33.0284 33.5209 31.5105 30.0174 31.5105Z" fill="#007AFF"/>
<path fill-rule="evenodd" clip-rule="evenodd" d="M51.7821 41.5134L49.0028 38.3802C48.2003 37.5434 48.0633 37.4072 46.5758 37.4072H43.7378V41.2021C43.7378 41.4551 43.5421 41.6497 43.2876 41.6497H40.9584C40.704 41.6497 40.5083 41.4551 40.5083 41.2021V30.3039C40.5083 29.759 40.9389 29.3308 41.4869 29.3308H49.8053C52.9956 29.3308 54.7376 30.7515 54.7376 33.3593C54.7376 35.0913 53.5828 36.6093 51.8996 37.0763L55.4226 41.494C55.4618 41.5329 55.4422 41.5913 55.403 41.6302C55.3835 41.6497 55.3638 41.6497 55.3443 41.6497H52.0953C51.9779 41.6691 51.8604 41.6107 51.7821 41.5134ZM49.3355 34.9356H43.7378V32.0943H49.3355C51.1166 32.0943 51.4885 32.8727 51.4885 33.5149C51.4885 34.1572 51.1166 34.9356 49.3355 34.9356Z" fill="#007AFF"/>
<path d="M20.9357 29.7785V31.9387C20.9357 32.036 20.8574 32.1138 20.7596 32.1138H10.2491C10.2491 32.6004 10.2491 32.8144 11.0516 32.8728L17.3735 33.4372C19.7809 33.6513 19.7809 37.4462 17.3735 37.6602C15.4358 37.8354 12.3433 38.0884 11.3451 38.1857C10.6405 38.2441 10.2491 38.4581 10.2491 38.9641V41.2022C10.2491 41.4552 10.0534 41.6498 9.79893 41.6498H7.46982C7.23495 41.6498 7.01959 41.4552 7.01959 41.2022V38.1468C7.01959 37.0569 7.39145 36.3563 8.27222 36.2785C9.30956 36.1812 15.7686 35.8114 15.7686 35.8114C15.886 35.7531 15.9447 35.6168 15.886 35.5001C15.8664 35.4417 15.8077 35.4027 15.749 35.3833C15.749 35.3833 9.48573 35.0719 8.29181 34.9746C7.27403 34.8773 7 34.1183 7 33.0869V30.3234C7 29.7785 7.45019 29.3504 7.99822 29.3504H20.466C20.74 29.3309 20.9357 29.545 20.9357 29.7785Z" fill="#007AFF"/>
<path d="M73.9186 29.3308C73.3705 29.3308 72.9399 29.759 72.9399 30.3039V41.2021C72.9399 41.4551 73.1356 41.6497 73.3901 41.6497H75.7192C75.9736 41.6497 76.1694 41.4551 76.1694 41.2021V29.7784C76.1694 29.5254 75.9736 29.3308 75.7192 29.3308H73.9186Z" fill="#007AFF"/>
<path d="M81.1409 41.4162L82.1978 39.295H89.3026L89.7528 40.2096C90.2029 41.0854 91.1033 41.6497 92.1015 41.6497H93.9021C93.9608 41.6497 94 41.6108 94 41.5524C94 41.533 94 41.5135 93.9805 41.5135L87.6977 29.5839C87.6194 29.4282 87.4628 29.3503 87.3062 29.3503H84.4878C84.1159 29.3503 83.7831 29.545 83.6265 29.8758L77.5003 41.533C77.4808 41.5719 77.5004 41.6497 77.5395 41.6692C77.5591 41.6692 77.5786 41.6887 77.5786 41.6887H80.7298C80.906 41.6692 81.0626 41.5719 81.1409 41.4162ZM83.3329 37.0375L85.7795 32.1527L88.2066 37.0375H83.3329Z" fill="#007AFF"/>
<path d="M68.0664 29.5839C68.1447 29.4282 68.3013 29.3309 68.4775 29.3309H71.6287C71.6874 29.3309 71.7265 29.3698 71.7265 29.4282C71.7265 29.4477 71.7265 29.4671 71.707 29.4671L65.4241 41.3968C65.3459 41.5525 65.1893 41.6303 65.0327 41.6303H62.2143C61.8424 41.6303 61.5097 41.4357 61.3531 41.1049L55.2269 29.4477C55.2074 29.3893 55.2269 29.3309 55.266 29.3115C55.2856 29.3115 55.3052 29.292 55.3052 29.292H58.4564C58.6326 29.292 58.7891 29.3893 58.8673 29.545L63.5061 38.8085L68.0664 29.5839Z" fill="#007AFF"/>
</svg>
