<svg width="102" height="68" viewBox="0 0 102 68" fill="none" xmlns="http://www.w3.org/2000/svg">
<rect width="101.58" height="68" rx="12" fill="white"/>
<path d="M50.6303 29.0774C49.7662 27.9632 48.6747 27.3946 47.4012 27.3946C46.8327 27.3946 46.3096 27.5084 45.8321 27.713C45.3546 27.9404 44.9452 28.2133 44.5814 28.5999C44.2403 28.9637 43.9674 29.4185 43.7627 29.9416C43.5581 30.4646 43.4671 31.0104 43.4671 31.6016C43.4671 32.2156 43.5581 32.7841 43.7627 33.2844C43.9674 33.8075 44.2403 34.2395 44.5814 34.6261C44.9452 35.0127 45.3546 35.3083 45.8321 35.513C46.3096 35.7404 46.8327 35.8314 47.3785 35.8314C48.5837 35.8314 49.6752 35.2856 50.6303 34.2168V38.9241L50.2437 39.0605C49.6752 39.2879 49.1295 39.4471 48.6292 39.5381C48.1289 39.629 47.6286 39.6972 47.151 39.6972C46.1505 39.6972 45.1954 39.4926 44.263 39.106C43.3534 38.6967 42.5347 38.1509 41.8298 37.4232C41.1248 36.6955 40.5563 35.8314 40.147 34.8535C39.7149 33.8529 39.5103 32.7614 39.5103 31.6016C39.5103 30.4191 39.7149 29.3503 40.147 28.3497C40.5563 27.3719 41.1248 26.5305 41.8298 25.8028C42.5347 25.0979 43.3534 24.5294 44.263 24.1428C45.1954 23.7334 46.1505 23.5515 47.1738 23.5515C47.7423 23.5515 48.3108 23.6197 48.8793 23.7334C49.4478 23.8699 50.0163 24.0518 50.6531 24.3247V29.0774H50.6303Z" fill="#606464"/>
<path d="M61.0001 27.8952C60.5907 27.5541 60.1814 27.2812 59.7721 27.122C59.3627 26.9629 58.9534 26.8719 58.5668 26.8719C58.0893 26.8719 57.6799 26.9856 57.3616 27.2357C57.0432 27.4859 56.9068 27.8043 56.9068 28.1908C56.9068 28.4637 56.975 28.6911 57.1342 28.8503C57.2934 29.0322 57.498 29.1687 57.7482 29.3051C57.9983 29.4416 58.2712 29.5553 58.5896 29.6462C58.9079 29.7372 59.2263 29.8509 59.5219 29.9419C60.7499 30.3739 61.6595 30.9652 62.228 31.6701C62.7965 32.3978 63.0922 33.3302 63.0922 34.5127C63.0922 35.3086 62.9557 36.0136 62.7056 36.6503C62.4554 37.287 62.0916 37.8328 61.614 38.2876C61.1365 38.7424 60.5452 39.0835 59.8403 39.3337C59.1353 39.5838 58.3394 39.7203 57.4525 39.7203C55.6106 39.7203 53.905 39.1517 52.3359 37.992L53.9505 34.7856C54.519 35.3086 55.0648 35.7179 55.6333 35.9681C56.1791 36.2182 56.7248 36.3547 57.2706 36.3547C57.8846 36.3547 58.3394 36.1955 58.6578 35.8999C58.9534 35.6042 59.1126 35.2631 59.1126 34.8765C59.1126 34.6491 59.0671 34.4445 58.9989 34.2853C58.9307 34.1261 58.7942 33.9669 58.6123 33.8077C58.4304 33.6713 58.203 33.5349 57.9073 33.4211C57.6117 33.3074 57.2706 33.171 56.8613 33.0118C56.3837 32.8526 55.8834 32.6707 55.4286 32.466C54.9511 32.2614 54.5418 32.0112 54.1779 31.6929C53.8141 31.3745 53.5184 30.9652 53.291 30.4649C53.0636 29.9646 52.9499 29.3506 52.9499 28.5774C52.9499 27.827 53.0636 27.122 53.3138 26.5081C53.5412 25.8941 53.8823 25.371 54.3144 24.9162C54.7464 24.4842 55.2695 24.143 55.8834 23.8929C56.4974 23.6428 57.2024 23.5291 57.9756 23.5291C58.7033 23.5291 59.4537 23.6428 60.2269 23.8474C61.0001 24.0521 61.7732 24.3704 62.4782 24.7798L61.0001 27.8952Z" fill="#606464"/>
<path d="M64.8203 39.288L67.299 23.9609H71.0285L73.9392 32.1248L76.8273 23.9609H80.5567L83.0354 39.288H79.2832L78.0325 30.4647L74.5987 39.288H73.0978L69.846 30.4647L68.5952 39.288H64.8203Z" fill="#606464"/>
<path d="M89.6075 31.1242L85.0822 23.9609H89.744L91.6996 27.9178L94.1329 23.9609H98.7947L93.9964 31.1242L99.4086 39.288H94.7923L91.8816 34.2851L88.4705 39.288H83.8997L89.6075 31.1242Z" fill="#606464"/>
<path d="M6.87801 50.3171V51.1357C6.46868 50.7946 6.05935 50.6354 5.62728 50.6354C5.14974 50.6354 4.76315 50.8174 4.42204 51.1357C4.10367 51.4768 3.92175 51.8862 3.92175 52.3865C3.92175 52.864 4.08093 53.2733 4.42204 53.6144C4.74041 53.9555 5.14974 54.1147 5.62728 54.1147C5.87743 54.1147 6.08209 54.0692 6.24128 54.001C6.33224 53.9555 6.44594 53.9101 6.5369 53.8418C6.65061 53.7736 6.74157 53.6827 6.85527 53.5917V54.4331C6.44594 54.6605 6.03661 54.7742 5.60454 54.7742C4.94507 54.7742 4.37656 54.5468 3.92175 54.092C3.46694 53.6372 3.2168 53.0687 3.2168 52.4092C3.2168 51.8179 3.42146 51.2949 3.80805 50.8401C4.2856 50.2716 4.89959 49.9987 5.67277 49.9987C6.08209 49.976 6.49142 50.0897 6.87801 50.3171Z" fill="#606464"/>
<path d="M7.49219 53.205C7.49219 52.7956 7.65137 52.4318 7.947 52.1362C8.24262 51.8405 8.60647 51.7041 9.03854 51.7041C9.47061 51.7041 9.83445 51.8633 10.1528 52.1589C10.4484 52.4545 10.6076 52.8184 10.6076 53.2505C10.6076 53.6825 10.4484 54.0464 10.1528 54.342C9.85719 54.6376 9.47061 54.7741 9.03854 54.7741C8.60647 54.7741 8.24262 54.6149 7.947 54.3193C7.62863 54.0236 7.49219 53.637 7.49219 53.205ZM8.1744 53.205C8.1744 53.5006 8.24262 53.728 8.40181 53.8872C8.56099 54.0691 8.76565 54.1373 9.03854 54.1373C9.31142 54.1373 9.51609 54.0464 9.67527 53.8872C9.83445 53.728 9.90268 53.5006 9.90268 53.205C9.90268 52.9321 9.83445 52.7047 9.67527 52.5228C9.51609 52.3408 9.31142 52.2726 9.03854 52.2726C8.78839 52.2726 8.58373 52.3636 8.42455 52.5228C8.26536 52.7274 8.1744 52.9321 8.1744 53.205Z" fill="#606464"/>
<path d="M11.3125 51.7723H11.9947V52.0452C12.2221 51.8178 12.495 51.7041 12.7906 51.7041C13.1317 51.7041 13.4046 51.8178 13.5865 52.0225C13.7457 52.2044 13.8367 52.5 13.8367 52.9093V54.6831H13.1545V53.0458C13.1545 52.7502 13.109 52.5682 13.0408 52.4545C12.9726 52.3408 12.8134 52.2954 12.6087 52.2954C12.3813 52.2954 12.2221 52.3636 12.1312 52.5228C12.0402 52.6592 11.9947 52.9321 11.9947 53.2959V54.7058H11.3125V51.7723Z" fill="#606464"/>
<path d="M16.9295 51.8863V52.7732C16.7703 52.5913 16.6339 52.4548 16.5202 52.3866C16.4065 52.3184 16.2701 52.2729 16.0881 52.2729C15.838 52.2729 15.6333 52.3639 15.4514 52.5458C15.2922 52.7277 15.2013 52.9551 15.2013 53.2053C15.2013 53.4781 15.2922 53.7055 15.4514 53.8875C15.6106 54.0694 15.8152 54.1603 16.0654 54.1603C16.2246 54.1603 16.361 54.1149 16.4975 54.0466C16.6112 53.9784 16.7476 53.842 16.9295 53.6601V54.5469C16.6566 54.6834 16.3838 54.7516 16.1109 54.7516C15.6561 54.7516 15.2922 54.6152 14.9739 54.3195C14.6782 54.0239 14.519 53.6601 14.519 53.228C14.519 52.7959 14.6782 52.4321 14.9739 52.1364C15.2695 51.8408 15.6561 51.6816 16.1109 51.6816C16.4065 51.6816 16.6794 51.7499 16.9295 51.8863Z" fill="#606464"/>
<path d="M17.5887 51.7726H18.2709V52.0227C18.3846 51.8863 18.4983 51.7953 18.5892 51.7499C18.6802 51.7044 18.7939 51.6816 18.9303 51.6816C19.1123 51.6816 19.2942 51.7499 19.4761 51.8636L19.1577 52.4776C19.0213 52.3866 18.9076 52.3411 18.7939 52.3411C18.4301 52.3411 18.2481 52.614 18.2481 53.1825V54.6834H17.5659V51.7726H17.5887Z" fill="#606464"/>
<path d="M22.478 53.3871H20.3859C20.4086 53.6372 20.4769 53.8192 20.6133 53.9556C20.7497 54.0921 20.9317 54.1603 21.1363 54.1603C21.2955 54.1603 21.432 54.1148 21.5457 54.0466C21.6594 53.9556 21.7731 53.8192 21.9095 53.6145L22.478 53.9329C22.3871 54.0921 22.2961 54.2058 22.2051 54.3195C22.1142 54.4332 22.0005 54.5241 21.8868 54.5923C21.7731 54.6606 21.6594 54.7061 21.5229 54.7515C21.3865 54.7743 21.25 54.797 21.0909 54.797C20.6588 54.797 20.3177 54.6606 20.0448 54.3877C19.7719 54.1148 19.6582 53.7282 19.6582 53.2734C19.6582 52.8186 19.7946 52.432 20.0448 52.1591C20.2949 51.8862 20.636 51.7271 21.0681 51.7271C21.5002 51.7271 21.8413 51.8635 22.0914 52.1364C22.3416 52.4093 22.4553 52.7731 22.4553 53.2734L22.478 53.3871ZM21.7958 52.8186C21.7048 52.4547 21.4774 52.2728 21.1136 52.2728C21.0226 52.2728 20.9544 52.2956 20.8862 52.3183C20.818 52.341 20.7497 52.3865 20.6815 52.432C20.6133 52.4775 20.5678 52.5457 20.5223 52.5912C20.4769 52.6367 20.4541 52.7276 20.4314 52.8186H21.7958Z" fill="#606464"/>
<path d="M23.9564 52.3864V54.6605H23.2741V52.3864H22.9785V51.7497H23.2741V50.6809H23.9564V51.7497H24.4794V52.3864H23.9564Z" fill="#606464"/>
<path d="M24.8433 53.205C24.8433 52.7956 25.0024 52.4318 25.2981 52.1362C25.5937 51.8405 25.9575 51.7041 26.3896 51.7041C26.8217 51.7041 27.1855 51.8633 27.5039 52.1589C27.7995 52.4545 27.9587 52.8184 27.9587 53.2505C27.9587 53.6825 27.7995 54.0464 27.5039 54.342C27.2083 54.6376 26.8217 54.7741 26.3896 54.7741C25.9575 54.7741 25.5937 54.6149 25.2981 54.3193C25.0024 54.0236 24.8433 53.637 24.8433 53.205ZM25.5482 53.205C25.5482 53.5006 25.6164 53.728 25.7756 53.8872C25.9348 54.0691 26.1395 54.1373 26.4124 54.1373C26.6852 54.1373 26.8899 54.0464 27.0491 53.8872C27.2083 53.728 27.2765 53.5006 27.2765 53.205C27.2765 52.9321 27.2083 52.7047 27.0491 52.5228C26.8899 52.3408 26.6852 52.2726 26.4124 52.2726C26.1622 52.2726 25.9575 52.3636 25.7984 52.5228C25.6164 52.7274 25.5482 52.9321 25.5482 53.205Z" fill="#606464"/>
<path d="M30.3689 52.2502L29.8231 52.5458C29.7322 52.3639 29.6185 52.2729 29.5048 52.2729C29.4365 52.2729 29.3911 52.2956 29.3456 52.3411C29.3001 52.3866 29.2774 52.4321 29.2774 52.5003C29.2774 52.614 29.4138 52.7277 29.6639 52.8414C30.0278 53.0006 30.2552 53.137 30.3916 53.2735C30.5053 53.4099 30.5736 53.5691 30.5736 53.7965C30.5736 54.0694 30.4599 54.3195 30.2552 54.5015C30.0505 54.6834 29.8004 54.7743 29.5275 54.7743C29.05 54.7743 28.6861 54.5469 28.4814 54.0694L29.05 53.7965C29.1409 53.9329 29.1864 54.0239 29.2319 54.0694C29.3228 54.1376 29.4138 54.1831 29.5275 54.1831C29.7549 54.1831 29.8686 54.0694 29.8686 53.8647C29.8686 53.751 29.7777 53.6373 29.5957 53.5236C29.5275 53.5009 29.4593 53.4554 29.3911 53.4327C29.3228 53.4099 29.2546 53.3644 29.1864 53.3417C28.9817 53.2507 28.8453 53.1598 28.7771 53.0461C28.6861 52.9324 28.6179 52.7732 28.6179 52.5685C28.6179 52.3184 28.7088 52.1137 28.868 51.9318C29.05 51.7726 29.2546 51.6816 29.5048 51.6816C29.8914 51.6816 30.187 51.8863 30.3689 52.2502Z" fill="#606464"/>
<path d="M35.7813 50.7491L35.2128 51.0902C35.0991 50.9083 35.0081 50.7946 34.9172 50.7264C34.8262 50.6581 34.6898 50.6354 34.5306 50.6354C34.3259 50.6354 34.1667 50.6809 34.053 50.7946C33.9166 50.9083 33.8711 51.0447 33.8711 51.2039C33.8711 51.4313 34.0303 51.6132 34.3714 51.7497L34.8262 51.9316C35.1901 52.0908 35.4857 52.2727 35.6449 52.4774C35.8268 52.7048 35.895 52.9549 35.895 53.2733C35.895 53.7054 35.7586 54.0465 35.4629 54.3194C35.1673 54.5922 34.8262 54.7287 34.3941 54.7287C33.9848 54.7287 33.6665 54.615 33.3936 54.3648C33.1434 54.1374 32.9842 53.7963 32.916 53.3643L33.621 53.2051C33.6437 53.478 33.7119 53.6599 33.7802 53.7736C33.9166 53.9783 34.144 54.0692 34.4169 54.0692C34.6443 54.0692 34.8035 54.001 34.9627 53.8418C35.1218 53.6826 35.1673 53.5007 35.1673 53.296C35.1673 53.2051 35.1446 53.1141 35.1218 53.0459C35.0991 52.9777 35.0536 52.9095 35.0081 52.8412C34.9627 52.773 34.8944 52.7275 34.8035 52.6593C34.7125 52.6138 34.6215 52.5456 34.5078 52.5001L34.053 52.3182C33.4163 52.0453 33.0979 51.6587 33.0979 51.1357C33.0979 50.7946 33.2344 50.499 33.4845 50.2716C33.7574 50.0442 34.0758 49.9077 34.4851 49.9077C35.0764 49.9759 35.4857 50.2261 35.7813 50.7491Z" fill="#606464"/>
<path d="M37.2818 51.7722V53.4323C37.2818 53.9098 37.4637 54.16 37.8503 54.16C38.2369 54.16 38.4188 53.9098 38.4188 53.4323V51.7722H39.1011V53.455C39.1011 53.6824 39.0783 53.8871 39.0101 54.069C38.9646 54.2282 38.8509 54.3646 38.7145 54.4783C38.4871 54.683 38.1914 54.774 37.8503 54.774C37.5092 54.774 37.2136 54.683 36.9862 54.4783C36.8498 54.3646 36.7588 54.2282 36.6906 54.069C36.6451 53.9326 36.5996 53.7279 36.5996 53.455V51.7722H37.2818Z" fill="#606464"/>
<path d="M41.6482 52.2502L41.1024 52.5458C41.0115 52.3639 40.8978 52.2729 40.7841 52.2729C40.7158 52.2729 40.6704 52.2956 40.6249 52.3411C40.5794 52.3866 40.5567 52.4321 40.5567 52.5003C40.5567 52.614 40.6931 52.7277 40.9432 52.8414C41.3071 53.0006 41.5345 53.137 41.6709 53.2735C41.7846 53.4099 41.8529 53.5691 41.8529 53.7965C41.8529 54.0694 41.7392 54.3195 41.5345 54.5015C41.3298 54.6834 41.0797 54.7743 40.8068 54.7743C40.3293 54.7743 39.9654 54.5469 39.7607 54.0694L40.3293 53.7965C40.4202 53.9329 40.4657 54.0239 40.5112 54.0694C40.6021 54.1376 40.6931 54.1831 40.8068 54.1831C41.0342 54.1831 41.1479 54.0694 41.1479 53.8647C41.1479 53.751 41.0569 53.6373 40.875 53.5236C40.8068 53.5009 40.7386 53.4554 40.6704 53.4327C40.6021 53.4099 40.5339 53.3644 40.4657 53.3417C40.261 53.2507 40.1246 53.1598 40.0564 53.0461C39.9654 52.9324 39.8972 52.7732 39.8972 52.5685C39.8972 52.3184 39.9881 52.1137 40.1473 51.9318C40.3293 51.7726 40.5339 51.6816 40.7841 51.6816C41.1707 51.6816 41.4663 51.8863 41.6482 52.2502Z" fill="#606464"/>
<path d="M43.1263 52.3864V54.6605H42.4441V52.3864H42.1484V51.7497H42.4441V50.6809H43.1263V51.7497H43.6493V52.3864H43.1263Z" fill="#606464"/>
<path d="M46.8105 53.3871H44.7184C44.7412 53.6372 44.8094 53.8192 44.9458 53.9556C45.0823 54.0921 45.2642 54.1603 45.4689 54.1603C45.628 54.1603 45.7645 54.1148 45.8782 54.0466C45.9919 53.9556 46.1056 53.8192 46.242 53.6145L46.8105 53.9329C46.7196 54.0921 46.6286 54.2058 46.5377 54.3195C46.4467 54.4332 46.333 54.5241 46.2193 54.5923C46.1056 54.6606 45.9919 54.7061 45.8554 54.7515C45.719 54.7743 45.5826 54.797 45.4234 54.797C44.9913 54.797 44.6502 54.6606 44.3773 54.3877C44.1044 54.1148 43.9907 53.7282 43.9907 53.2734C43.9907 52.8186 44.1272 52.432 44.3773 52.1591C44.6275 51.8862 44.9686 51.7271 45.4006 51.7271C45.8327 51.7271 46.1738 51.8635 46.424 52.1364C46.6741 52.4093 46.7878 52.7731 46.7878 53.2734L46.8105 53.3871ZM46.1283 52.8186C46.0374 52.4547 45.81 52.2728 45.4461 52.2728C45.3552 52.2728 45.2869 52.2956 45.2187 52.3183C45.1505 52.341 45.0823 52.3865 45.014 52.432C44.9458 52.4775 44.9003 52.5457 44.8549 52.5912C44.8094 52.6367 44.7866 52.7276 44.7639 52.8186H46.1283Z" fill="#606464"/>
<path d="M47.5381 51.7723H48.2203V52.0452C48.4477 51.8178 48.7206 51.7041 49.0162 51.7041C49.3573 51.7041 49.6302 51.8178 49.8121 52.0225C49.9713 52.2044 50.0623 52.5 50.0623 52.9093V54.6831H49.3801V53.0458C49.3801 52.7502 49.3346 52.5682 49.2664 52.4545C49.1981 52.3408 49.039 52.2954 48.8343 52.2954C48.6069 52.2954 48.4477 52.3636 48.3567 52.5228C48.2658 52.6592 48.2203 52.9321 48.2203 53.2959V54.7058H47.5381V51.7723Z" fill="#606464"/>
<path d="M51.6087 52.3864V54.6605H50.9265V52.3864H50.6309V51.7497H50.9265V50.6809H51.6087V51.7497H52.1317V52.3864H51.6087Z" fill="#606464"/>
<path d="M54.7697 51.7723H55.4519V54.6831H54.7697V54.3875C54.4968 54.6376 54.2011 54.7741 53.8828 54.7741C53.4734 54.7741 53.1551 54.6376 52.8822 54.342C52.632 54.0464 52.4956 53.6825 52.4956 53.2277C52.4956 52.7956 52.632 52.4318 52.8822 52.1362C53.1323 51.8405 53.4734 51.7041 53.86 51.7041C54.2011 51.7041 54.4968 51.8405 54.7697 52.1134V51.7723ZM53.1778 53.205C53.1778 53.4779 53.246 53.7053 53.4052 53.8872C53.5644 54.0691 53.7463 54.1601 53.9965 54.1601C54.2466 54.1601 54.4513 54.0691 54.6105 53.9099C54.7696 53.728 54.8379 53.5006 54.8379 53.2277C54.8379 52.9548 54.7696 52.7274 54.6105 52.5455C54.4513 52.3636 54.2466 52.2954 54.0192 52.2954C53.7918 52.2954 53.5871 52.3863 53.428 52.5682C53.2688 52.7274 53.1778 52.9548 53.1778 53.205Z" fill="#606464"/>
<path d="M56.9755 49.6348V52.1135C57.2483 51.8406 57.544 51.7041 57.8851 51.7041C58.2717 51.7041 58.6128 51.8406 58.8629 52.1362C59.1131 52.4318 59.2495 52.7957 59.2495 53.2278C59.2495 53.6826 59.1131 54.0464 58.8629 54.342C58.6128 54.6377 58.2717 54.7741 57.8623 54.7741C57.5212 54.7741 57.2256 54.6377 56.9527 54.3875V54.6831H56.2705V49.6348H56.9755ZM58.5673 53.2505C58.5673 52.9776 58.4991 52.7502 58.3399 52.5683C58.1807 52.3864 57.9988 52.2954 57.7714 52.2954C57.5212 52.2954 57.3166 52.3864 57.1574 52.5455C56.9982 52.7275 56.93 52.9321 56.93 53.205C56.93 53.4779 56.9982 53.7053 57.1574 53.8872C57.3166 54.0692 57.4985 54.1374 57.7486 54.1374C57.976 54.1374 58.1807 54.0464 58.3171 53.8872C58.4991 53.728 58.5673 53.5006 58.5673 53.2505Z" fill="#606464"/>
<path d="M60.6366 49.6348V54.6831H59.9543V49.6348H60.6366Z" fill="#606464"/>
<path d="M64.1611 53.3871H62.069C62.0917 53.6372 62.16 53.8192 62.2964 53.9556C62.4329 54.0921 62.6148 54.1603 62.8194 54.1603C62.9786 54.1603 63.1151 54.1148 63.2288 54.0466C63.3425 53.9556 63.4562 53.8192 63.5926 53.6145L64.1611 53.9329C64.0702 54.0921 63.9792 54.2058 63.8882 54.3195C63.7973 54.4332 63.6836 54.5241 63.5699 54.5923C63.4562 54.6606 63.3425 54.7061 63.206 54.7515C63.0696 54.7743 62.9331 54.797 62.774 54.797C62.3419 54.797 62.0008 54.6606 61.7279 54.3877C61.455 54.1148 61.3413 53.7282 61.3413 53.2734C61.3413 52.8186 61.4778 52.432 61.7279 52.1591C61.978 51.8862 62.3192 51.7271 62.7512 51.7271C63.1833 51.7271 63.5244 51.8635 63.7745 52.1364C64.0247 52.4093 64.1384 52.7731 64.1384 53.2734L64.1611 53.3871ZM63.4562 52.8186C63.3652 52.4547 63.1378 52.2728 62.774 52.2728C62.683 52.2728 62.6148 52.2956 62.5465 52.3183C62.4783 52.341 62.4101 52.3865 62.3419 52.432C62.2737 52.4775 62.2282 52.5457 62.1827 52.5912C62.1372 52.6594 62.1145 52.7276 62.0917 52.8186H63.4562Z" fill="#606464"/>
<path d="M66.5718 52.2502L66.026 52.5458C65.935 52.3639 65.8213 52.2729 65.7076 52.2729C65.6394 52.2729 65.5939 52.2956 65.5485 52.3411C65.503 52.3866 65.4802 52.4321 65.4802 52.5003C65.4802 52.614 65.6167 52.7277 65.8668 52.8414C66.2307 53.0006 66.4581 53.137 66.5945 53.2735C66.7082 53.4099 66.7764 53.5691 66.7764 53.7965C66.7764 54.0694 66.6627 54.3195 66.4581 54.5015C66.2534 54.6834 66.0033 54.7743 65.7304 54.7743C65.2528 54.7743 64.889 54.5469 64.6843 54.0694L65.2528 53.7965C65.3211 53.9329 65.3893 54.0239 65.4348 54.0694C65.5257 54.1376 65.6167 54.1831 65.7304 54.1831C65.9578 54.1831 66.0715 54.0694 66.0715 53.8647C66.0715 53.751 65.9805 53.6373 65.7986 53.5236C65.7304 53.5009 65.6622 53.4554 65.5939 53.4327C65.5257 53.4099 65.4575 53.3644 65.3893 53.3417C65.1846 53.2507 65.0482 53.1598 64.9799 53.0461C64.889 52.9324 64.8208 52.7732 64.8208 52.5685C64.8208 52.3184 64.9117 52.1137 65.0709 51.9318C65.2528 51.7726 65.4575 51.6816 65.7076 51.6816C66.117 51.6816 66.3899 51.8863 66.5718 52.2502Z" fill="#606464"/>
<path d="M69.2324 54.6832L70.2103 49.7258L71.8021 53.3188L73.4394 49.7258L74.3035 54.6832H73.5986L73.1438 51.8862L71.7793 54.8879L70.4377 51.8862L69.9374 54.6832H69.2324Z" fill="#606464"/>
<path d="M77.8057 53.3871H75.7135C75.7363 53.6372 75.8045 53.8192 75.9409 53.9556C76.0774 54.0921 76.2593 54.1603 76.464 54.1603C76.6232 54.1603 76.7596 54.1148 76.8733 54.0466C76.987 53.9556 77.1007 53.8192 77.2371 53.6145L77.8057 53.9329C77.7147 54.0921 77.6237 54.2058 77.5328 54.3195C77.4418 54.4332 77.3281 54.5241 77.2144 54.5923C77.1007 54.6606 76.987 54.7061 76.8506 54.7515C76.7141 54.7743 76.5777 54.797 76.4185 54.797C75.9864 54.797 75.6453 54.6606 75.3724 54.3877C75.0995 54.1148 74.9858 53.7282 74.9858 53.2734C74.9858 52.8186 75.1223 52.432 75.3724 52.1591C75.6226 51.8862 75.9637 51.7271 76.3958 51.7271C76.8278 51.7271 77.1689 51.8635 77.4191 52.1364C77.6692 52.4093 77.7829 52.7731 77.7829 53.2734L77.8057 53.3871ZM77.1007 52.8186C77.0097 52.4547 76.7823 52.2728 76.4185 52.2728C76.3275 52.2728 76.2593 52.2956 76.1911 52.3183C76.1229 52.341 76.0546 52.3865 75.9864 52.432C75.9182 52.4775 75.8727 52.5457 75.8272 52.5912C75.7818 52.6594 75.759 52.7276 75.7363 52.8186H77.1007Z" fill="#606464"/>
<path d="M79.3292 53.0914L78.2831 51.7498H79.079L79.7385 52.5912L80.398 51.7498H81.2166L80.1478 53.0914L81.3986 54.6605H80.6026L79.7385 53.569L78.8516 54.6605H78.033L79.3292 53.0914Z" fill="#606464"/>
<path d="M81.7397 50.5446C81.7397 50.4309 81.7852 50.3172 81.8762 50.249C81.9671 50.158 82.0581 50.1125 82.1946 50.1125C82.3083 50.1125 82.422 50.158 82.5129 50.249C82.6039 50.34 82.6494 50.4309 82.6494 50.5674C82.6494 50.6811 82.6039 50.7948 82.5129 50.8857C82.422 50.9767 82.331 51.0222 82.1946 51.0222C82.0809 51.0222 81.9671 50.9767 81.8762 50.8857C81.7852 50.772 81.7397 50.6811 81.7397 50.5446ZM82.5129 51.7726V54.6834H81.8307V51.7726H82.5129Z" fill="#606464"/>
<path d="M85.6283 51.8863V52.7732C85.4691 52.5913 85.3326 52.4548 85.2189 52.3866C85.1052 52.3184 84.9688 52.2729 84.7869 52.2729C84.5367 52.2729 84.3321 52.3639 84.1501 52.5458C83.9682 52.7277 83.9 52.9551 83.9 53.2053C83.9 53.4781 83.9909 53.7055 84.1501 53.8875C84.3093 54.0694 84.514 54.1603 84.7641 54.1603C84.9233 54.1603 85.0597 54.1149 85.1962 54.0466C85.3099 53.9784 85.4463 53.842 85.6283 53.6601V54.5469C85.3554 54.6834 85.0825 54.7516 84.8096 54.7516C84.3548 54.7516 83.9909 54.6152 83.6726 54.3195C83.377 54.0239 83.2178 53.6601 83.2178 53.228C83.2178 52.7959 83.377 52.4321 83.6726 52.1364C83.9682 51.8408 84.3548 51.6816 84.8096 51.6816C85.1052 51.6816 85.3781 51.7499 85.6283 51.8863Z" fill="#606464"/>
<path d="M88.4254 51.7723H89.1076V54.6831H88.4254V54.3875C88.1525 54.6376 87.8569 54.7741 87.5385 54.7741C87.1292 54.7741 86.8108 54.6376 86.538 54.342C86.2878 54.0464 86.1514 53.6825 86.1514 53.2277C86.1514 52.7956 86.2878 52.4318 86.538 52.1362C86.7881 51.8405 87.1292 51.7041 87.5158 51.7041C87.8569 51.7041 88.1525 51.8405 88.4254 52.1134V51.7723ZM86.8336 53.205C86.8336 53.4779 86.9018 53.7053 87.061 53.8872C87.2202 54.0691 87.4021 54.1601 87.6522 54.1601C87.9024 54.1601 88.107 54.0691 88.2662 53.9099C88.4254 53.728 88.4936 53.5006 88.4936 53.2277C88.4936 52.9548 88.4254 52.7274 88.2662 52.5455C88.107 52.3636 87.9024 52.2954 87.675 52.2954C87.4476 52.2954 87.2429 52.3863 87.1065 52.5682C86.9018 52.7274 86.8336 52.9548 86.8336 53.205Z" fill="#606464"/>
<path d="M89.949 51.7723H90.6312V52.0452C90.8586 51.8178 91.1315 51.7041 91.4271 51.7041C91.7682 51.7041 92.0411 51.8178 92.223 52.0225C92.3822 52.2044 92.4732 52.5 92.4732 52.9093V54.6831H91.791V53.0458C91.791 52.7502 91.7455 52.5682 91.6773 52.4545C91.609 52.3408 91.4498 52.2954 91.2452 52.2954C91.0178 52.2954 90.8586 52.3636 90.7676 52.5228C90.6767 52.6592 90.6312 52.9321 90.6312 53.2959V54.7058H89.949V51.7723Z" fill="#606464"/>
<path d="M93.1553 53.205C93.1553 52.7956 93.3145 52.4318 93.6101 52.1362C93.9057 51.8405 94.2696 51.7041 94.7016 51.7041C95.1337 51.7041 95.4975 51.8633 95.8159 52.1589C96.1115 52.4545 96.2707 52.8184 96.2707 53.2505C96.2707 53.6825 96.1115 54.0464 95.8159 54.342C95.5203 54.6376 95.1337 54.7741 94.7016 54.7741C94.2696 54.7741 93.9057 54.6149 93.6101 54.3193C93.3145 54.0236 93.1553 53.637 93.1553 53.205ZM93.8602 53.205C93.8602 53.5006 93.9285 53.728 94.0876 53.8872C94.2468 54.0691 94.4515 54.1373 94.7244 54.1373C94.9972 54.1373 95.2019 54.0464 95.3611 53.8872C95.5203 53.728 95.5885 53.5006 95.5885 53.205C95.5885 52.9321 95.5203 52.7047 95.3611 52.5228C95.2019 52.3408 94.9972 52.2726 94.7244 52.2726C94.4742 52.2726 94.2696 52.3636 94.1104 52.5228C93.9285 52.7274 93.8602 52.9321 93.8602 53.205Z" fill="#606464"/>
<path d="M98.6814 52.2502L98.1356 52.5458C98.0447 52.3639 97.931 52.2729 97.8173 52.2729C97.749 52.2729 97.7036 52.2956 97.6581 52.3411C97.6126 52.3866 97.5899 52.4321 97.5899 52.5003C97.5899 52.614 97.7263 52.7277 97.9765 52.8414C98.3403 53.0006 98.5677 53.137 98.7041 53.2735C98.8178 53.4099 98.8861 53.5691 98.8861 53.7965C98.8861 54.0694 98.7724 54.3195 98.5677 54.5015C98.363 54.6834 98.1129 54.7743 97.84 54.7743C97.3625 54.7743 96.9986 54.5469 96.7939 54.0694L97.3625 53.7965C97.4307 53.9329 97.4989 54.0239 97.5444 54.0694C97.6353 54.1376 97.7263 54.1831 97.84 54.1831C98.0674 54.1831 98.1811 54.0694 98.1811 53.8647C98.1811 53.751 98.0901 53.6373 97.9082 53.5236C97.84 53.5009 97.7718 53.4554 97.7036 53.4327C97.6353 53.4099 97.5671 53.3644 97.4989 53.3417C97.2942 53.2507 97.1578 53.1598 97.0896 53.0461C96.9986 52.9324 96.9304 52.7732 96.9304 52.5685C96.9304 52.3184 97.0214 52.1137 97.1805 51.9318C97.3625 51.7726 97.5671 51.6816 97.8173 51.6816C98.2266 51.6816 98.4995 51.8863 98.6814 52.2502Z" fill="#606464"/>
<path d="M2.10254 45.5643L3.44423 44.5637H100L98.8177 46.0646L2.10254 45.5643Z" fill="#839943"/>
<path d="M29.209 37.7187C28.1174 37.9462 27.0259 38.2418 25.9116 38.3555C19.3169 38.9922 13.3816 37.3094 8.15129 33.2844C5.33148 31.1013 3.28484 28.3042 2.10233 24.9386C1.96589 24.552 1.96589 24.0063 2.10233 23.6197C2.76181 21.9369 3.4895 20.2541 4.12623 18.7305C4.37638 20.2086 4.49008 21.8232 4.94489 23.3468C6.15013 27.3718 8.94721 30.1462 12.4947 32.2383C15.6102 34.0803 18.9757 35.1718 22.5687 35.7176C24.4789 36.0132 26.3437 36.559 28.2311 37.0138C28.595 37.1048 28.9133 37.3094 29.2544 37.4686C29.209 37.5596 29.209 37.6278 29.209 37.7187Z" fill="#839943"/>
<path d="M30.4368 36.8775C30.4368 34.7172 30.414 32.5796 30.4595 30.4192C30.4823 29.1685 30.7097 27.895 30.7324 26.6443C30.8234 22.8467 30.2321 19.1855 28.2764 15.8426C28.1855 15.6834 28.0945 15.5242 28.0718 15.3196C31.3237 17.6391 34.3254 20.1406 35.6671 24.0974C35.8718 24.7341 35.8718 25.3026 35.5989 25.9166C34.1435 29.305 32.7108 32.716 31.2782 36.1271C31.1417 36.4909 31.0963 37.0367 30.4368 36.8775Z" fill="#839943"/>
<path d="M30.437 36.8775C30.2096 37.0821 30.0049 37.2641 29.6865 37.5369C25.1157 27.6903 18.953 19.2309 10.0615 13C11.2895 13.1137 13.7227 14.1598 15.5647 15.3195C20.0673 18.1848 23.3647 22.1871 25.8434 26.8262C27.4125 29.7825 28.6177 32.9434 30.0049 36.0133C30.1186 36.309 30.3005 36.6046 30.437 36.8775Z" fill="#839943"/>
</svg>
