<svg width="102" height="68" viewBox="0 0 102 68" fill="none" xmlns="http://www.w3.org/2000/svg">
<rect width="101.58" height="68" rx="12" fill="white"/>
<g clip-path="url(#clip0_680_7753)">
<path d="M80.7177 31.728C79.7448 31.6684 78.9507 31.6286 78.1565 31.5888C79.7845 30.3954 81.5118 29.3612 83.5171 29.1623C84.887 29.0231 85.5819 29.9778 85.9988 31.3302C87.329 30.7336 88.5997 30.1568 89.8703 29.58C92.094 28.5656 93.8213 29.3612 93.9205 31.728C94.0794 35.6264 93.9602 39.5446 93.9602 43.5225C92.2329 43.5225 90.5851 43.5225 88.7585 43.5225C88.7386 43.0849 88.6989 42.6275 88.6989 42.1899C88.6791 39.3059 88.6592 36.422 88.6394 33.538C88.6394 32.6429 88.5798 31.728 87.329 31.7479C86.1378 31.7479 85.9789 32.5833 85.9789 33.5181C85.9789 36.4418 85.9392 39.3656 85.9988 42.2894C86.0187 43.2838 85.6613 43.5623 84.748 43.5225C83.4575 43.4628 82.1868 43.5026 80.7177 43.5026C80.7177 39.5247 80.7177 35.686 80.7177 31.728Z" fill="#FF3B30"/>
<path d="M27.6283 39.5447C27.39 39.9226 27.2312 40.3601 26.9135 40.6585C21.7316 45.8099 13.1547 44.2983 9.22364 40.8574C6.10657 38.0927 6.32497 32.2054 9.56116 29.043C13.3136 25.3833 23.0023 24.2894 27.6084 29.938C27.7672 30.1369 27.9062 30.3358 28.1445 30.6739C26.0002 31.9469 23.9354 33.18 21.8508 34.4132C21.7713 34.3535 21.6919 34.2739 21.6125 34.2143C22.6846 32.3844 23.7369 30.5745 24.7891 28.7844C22.0493 26.696 17.9395 27.4121 15.4379 30.3557C12.9562 33.2596 13.2937 37.675 16.1924 40.4795C19.1308 43.3237 23.3994 42.8861 27.251 39.3657C27.39 39.4253 27.5091 39.485 27.6283 39.5447Z" fill="#FF3B30"/>
<path d="M53.3589 31.0917C54.2325 30.6939 55.4833 30.1171 56.7142 29.5602C59.1562 28.4663 60.7048 29.421 60.7446 32.0862C60.8041 35.4475 60.8438 38.789 60.8835 42.1503C60.8835 42.6077 60.8438 43.0652 60.824 43.5624C59.057 43.5624 57.4091 43.5624 55.4436 43.5624C55.4436 40.1017 55.4634 36.6807 55.4436 33.2597C55.4436 32.0265 54.6295 31.3105 53.6766 31.8674C53.2199 32.126 52.8625 32.9613 52.8427 33.5381C52.7633 36.2033 52.803 38.8685 52.803 41.5337C52.803 42.1304 52.803 42.7072 52.803 43.3636C50.9963 43.3636 49.3682 43.3636 47.502 43.3636C47.502 39.4254 47.502 35.5868 47.502 31.6884C46.5688 31.6287 45.8541 31.589 44.782 31.5094C46.8468 30.2564 48.6535 29.0232 50.8374 29.2619C51.6713 29.3415 52.386 30.3359 53.3589 31.0917Z" fill="#FF3B30"/>
<path d="M38.2699 35.6264C38.3096 35.3877 38.3294 35.3479 38.3096 35.3081C37.436 31.728 37.4559 31.728 33.8424 31.5888C33.0681 31.549 32.2938 31.5888 31.46 31.2905C33.5645 30.5545 35.6293 29.6197 37.7934 29.1026C39.9376 28.6054 42.2009 30.3159 42.7569 32.444C43.7098 36.0838 44.6628 39.7236 45.6952 43.6219C44.0672 43.6219 42.5782 43.6418 41.109 43.5822C40.9104 43.5822 40.6523 43.1645 40.5332 42.886C40.3148 42.3888 40.1758 41.8518 39.9575 41.1556C38.1706 43.0253 36.0661 43.9004 33.6042 43.8407C30.7849 43.7612 28.74 41.8717 28.4422 39.0871C28.2635 37.3965 30.1099 35.1689 32.1548 34.6916C34.0608 34.2341 35.8874 34.5324 37.6742 35.328C37.8132 35.4275 38.0118 35.507 38.2699 35.6264ZM36.5823 36.3424C35.0337 36.3225 33.763 37.5358 33.7233 39.0673C33.6836 40.6584 34.9543 41.9711 36.5426 41.9512C38.0713 41.9313 39.342 40.6982 39.3817 39.1667C39.4015 37.6949 38.0912 36.3623 36.5823 36.3424Z" fill="#FF3B30"/>
<path d="M69.9371 43.8807C66.006 43.9005 62.6706 40.5591 62.6507 36.5812C62.6309 32.4243 65.8869 29.1425 70.0364 29.1226C74.0667 29.1028 77.4022 32.4641 77.3824 36.5017C77.3625 40.6784 74.1263 43.8807 69.9371 43.8807ZM71.0489 42.9459C72.5777 42.9657 73.352 42.0906 73.074 41.0166C72.2402 37.7945 71.3666 34.5724 70.4533 31.3503C70.1952 30.4552 69.5798 29.8387 68.5275 30.0972C67.4554 30.3558 67.0186 31.1713 67.2568 32.1459C68.051 35.2884 68.9047 38.4309 69.8379 41.5536C70.0165 42.1702 70.7511 42.6276 71.0489 42.9459Z" fill="#FF3B30"/>
</g>
<defs>
<clipPath id="clip0_680_7753">
<rect width="87" height="18" fill="white" transform="translate(7 26)"/>
</clipPath>
</defs>
</svg>
