<svg width="24" height="24" viewBox="0 0 24 24" fill="none" xmlns="http://www.w3.org/2000/svg">
<path d="M20.9995 10.2246C20.9995 10.1229 20.992 10.0212 20.9768 9.92341C20.8329 8.97669 20.3708 8.23731 19.5905 7.69353C17.6436 6.32822 15.7042 4.95509 13.7573 3.58978C12.6437 2.81128 11.3748 2.79954 10.265 3.57804C8.28774 4.959 6.31052 6.35169 4.34087 7.7483C3.45075 8.38206 3.00379 9.27009 3 10.385C3 12.877 3 15.3651 3.00379 17.8571C3.00379 18.1035 3.0303 18.35 3.07954 18.5925C3.34848 19.9266 4.56057 20.9789 5.87871 20.9906C6.82566 20.9985 7.76882 21.0024 8.71576 20.9985C8.98469 20.9985 9.19302 20.7716 9.19302 20.4977V20.4938V13.5577C9.19302 12.345 10.1438 11.363 11.318 11.363H12.6816C13.8558 11.363 14.8065 12.345 14.8065 13.5577V20.4938V20.4977C14.8065 20.7755 15.0262 21.0024 15.2913 20.9985C16.1512 20.9985 17.0072 20.9985 17.867 20.9946C18.0867 20.9946 18.3102 20.9828 18.5261 20.9476C19.867 20.7403 20.9957 19.3984 20.9995 17.9979C21.0033 15.412 21.0033 12.8183 20.9995 10.2246Z" fill="#7E8B90"/>
</svg>
