<svg width="24" height="24" viewBox="0 0 24 24" fill="none" xmlns="http://www.w3.org/2000/svg">
<path d="M5.06111 20.7545C6.46401 21.0282 7.74715 21.0539 9.05168 20.9256C17.1397 20.1386 22.7556 11.8965 20.493 4.06937C20.4289 3.8384 20.1551 3.56894 19.9242 3.50479C17.8284 2.91454 15.7069 2.829 13.5726 3.31659C7.58034 4.68528 3.43579 9.48423 3.02091 15.6048C2.9482 16.657 3.08507 17.7263 3.12784 18.7827C3.23905 18.8255 3.25188 18.8298 3.36308 18.8725C5.64707 16.5886 7.93107 14.3046 10.1509 12.0804C10.6171 11.6142 11.3699 11.6057 11.8446 12.0633C11.8746 12.089 11.9002 12.1189 11.9302 12.1446C12.4221 12.6151 12.4306 13.3978 11.9473 13.8811C9.68897 16.1352 7.41353 18.4063 5.06111 20.7545Z" fill="#7E8B90"/>
</svg>
