<svg width="24" height="24" viewBox="0 0 24 24" fill="none" xmlns="http://www.w3.org/2000/svg">
<g clip-path="url(#clip0_782_6195)">
<path d="M23.9998 2.34375C23.9998 7.74844 23.9998 13.1578 23.9998 18.5625C23.984 18.6141 23.9631 18.6656 23.9526 18.7172C23.8162 19.4953 23.3758 20.1141 22.6207 20.5078C20.5809 21.5766 18.5412 22.65 16.4752 23.6766C14.8287 24.4969 12.7365 23.6719 12.296 22.0453C12.1807 21.6141 12.2174 21.1453 12.1912 20.6953C12.1807 20.5266 12.1912 20.3578 12.1912 20.1703C12.0443 20.1703 11.9447 20.1703 11.8398 20.1703C10.4765 20.1656 9.11316 20.1891 7.74982 20.1516C6.39172 20.1141 5.18045 19.125 5.08082 17.9109C4.99168 16.8094 5.02839 15.6937 5.03887 14.5875C5.04412 14.1937 5.38495 13.8891 5.79395 13.8187C6.42319 13.7109 6.95279 14.1047 6.95803 14.6953C6.96328 15.6 6.95803 16.5094 6.95803 17.4141C6.95803 18.1031 7.34606 18.4547 8.11163 18.4547C9.38058 18.4547 10.6443 18.4547 11.9132 18.4547C11.9971 18.4547 12.081 18.4453 12.1912 18.4406C12.1912 18.3234 12.1912 18.225 12.1912 18.1219C12.1912 14.4422 12.1964 10.7625 12.1859 7.0875C12.1807 5.98125 12.705 5.17969 13.7747 4.63125C15.5628 3.71719 17.3456 2.79375 19.1285 1.87031C19.1966 1.83281 19.2648 1.79062 19.3801 1.725C19.2753 1.72031 19.2228 1.71094 19.1756 1.71094C15.4527 1.71094 11.7297 1.71094 8.012 1.71094C7.37228 1.71094 6.96852 2.08125 6.96328 2.65312C6.95803 3.72187 6.96328 4.79531 6.96328 5.86406C6.96328 6.37969 6.55952 6.76406 6.01943 6.77344C5.46885 6.79687 5.03363 6.40781 5.03363 5.88281C5.02839 4.79531 5.0179 3.7125 5.03363 2.625C5.04936 1.71562 5.46361 0.965625 6.32356 0.46875C6.7011 0.248437 7.16254 0.154687 7.59251 0C12.2069 0 16.8213 0 21.4356 0C21.4776 0.0140625 21.5143 0.0328125 21.5562 0.0421875C22.584 0.210937 23.3129 0.726562 23.7428 1.57031C23.8582 1.81406 23.9159 2.08594 23.9998 2.34375Z" fill="#7E8B90"/>
<path d="M8.28472 9.22967C7.90194 8.88749 7.56635 8.59217 7.236 8.29686C6.95809 8.04842 6.87419 7.74842 6.98431 7.41561C7.16259 6.87186 7.90718 6.64217 8.43154 6.96561C8.5102 7.01249 8.58361 7.07342 8.64653 7.13436C9.50124 7.89374 10.3559 8.6578 11.2054 9.42186C11.6773 9.84842 11.6773 10.3359 11.2054 10.7578C10.3559 11.5219 9.50124 12.2859 8.64653 13.0453C8.20607 13.439 7.62927 13.4672 7.22551 13.1156C6.82176 12.7594 6.84273 12.2297 7.29368 11.8265C7.60305 11.5547 7.91767 11.2875 8.23229 11.0156C8.2218 10.9922 8.21131 10.9687 8.20083 10.9453C8.1012 10.9453 8.00157 10.9453 7.90194 10.9453C5.63146 10.9453 3.35573 10.9453 1.08525 10.9453C0.518938 10.9453 0.151885 10.7203 0.0312821 10.3031C-0.126026 9.77811 0.293463 9.25311 0.901721 9.22967C1.24256 9.21561 1.58339 9.22499 1.92423 9.22499C3.92728 9.22499 5.9251 9.22499 7.92816 9.22499C8.02254 9.22967 8.11693 9.22967 8.28472 9.22967Z" fill="#7E8B90"/>
</g>
<defs>
<clipPath id="clip0_782_6195">
<rect width="24" height="24" fill="white"/>
</clipPath>
</defs>
</svg>
