<svg width="24" height="24" viewBox="0 0 24 24" fill="none" xmlns="http://www.w3.org/2000/svg">
<path d="M11.5791 22.9915C11.6092 22.5061 11.6479 22.0249 11.6608 21.5395C11.665 21.3848 11.7123 21.2774 11.8197 21.1658C13.5724 19.4045 15.3208 17.6389 17.0735 15.8776C17.2668 15.68 17.3871 15.4652 17.3184 15.186C17.1938 14.6834 16.5967 14.533 16.2143 14.911C15.6215 15.4996 15.033 16.101 14.4444 16.6938C13.5509 17.5916 12.6574 18.4938 11.7639 19.3916C11.7209 19.4345 11.6736 19.4775 11.635 19.5119C11.4932 19.0093 11.3729 18.5023 11.2011 18.0169C10.8961 17.1406 10.415 16.3673 9.78777 15.6843C9.68038 15.5683 9.67608 15.4781 9.74052 15.3449C10.9605 12.7803 12.9538 11.2381 15.7676 10.787C16.1069 10.7312 16.4506 10.7097 16.7943 10.7097C18.0615 10.7011 19.3288 10.7054 20.5961 10.7054C21.0342 10.7054 21.3049 10.9546 21.3092 11.3885C21.3092 12.8061 21.3693 14.228 21.2834 15.6413C21.1073 18.541 19.6854 20.6889 17.1551 22.098C16.2573 22.5963 15.2821 22.8712 14.2554 22.9571C14.2082 22.9614 14.1609 22.9786 14.1137 22.9915C13.2674 22.9915 12.4254 22.9915 11.5791 22.9915Z" fill="#7E8B90"/>
<path d="M2 15.044C2.16324 14.6789 2.44677 14.55 2.84198 14.5629C3.57657 14.593 4.31975 14.5414 5.05004 14.6144C7.61894 14.8636 9.74108 16.8096 10.2523 19.3441C10.3726 19.9498 10.4327 21.3159 10.3597 22.0419C10.2952 21.9818 10.2394 21.9345 10.1835 21.883C9.02797 20.7231 7.87239 19.5589 6.71252 18.4034C6.59224 18.2831 6.42041 18.1886 6.26146 18.1499C5.99941 18.0855 5.72878 18.253 5.61279 18.5022C5.49251 18.7513 5.53976 19.0391 5.75026 19.2539C6.28294 19.7952 6.81992 20.3279 7.3526 20.8692C7.99697 21.5178 8.64564 22.1665 9.29002 22.8195C9.34157 22.871 9.38453 22.9397 9.43178 22.9999C8.78741 22.9999 8.14303 22.9999 7.49866 22.9999C7.4514 22.987 7.40415 22.9698 7.3569 22.9655C4.92116 22.6949 2.90212 21.0023 2.23197 18.6439C2.12887 18.2702 2.07732 17.8793 2 17.4926C2 16.6764 2 15.8602 2 15.044Z" fill="#7E8B90"/>
<path d="M18.754 9.4167C18.1568 9.4167 17.5769 9.39522 17.0013 9.42099C16.3741 9.45107 15.7383 9.46825 15.124 9.59283C12.2286 10.1899 10.1151 11.8267 8.74898 14.4428C8.71462 14.503 8.68455 14.5674 8.65018 14.6275C6.7772 13.5579 6.57529 13.4891 4.58203 13.2615C4.58203 13.1884 4.58203 13.1111 4.58203 13.0381C4.58203 11.4271 4.58203 9.81621 4.58203 8.20528C4.58633 5.9156 6.09416 4.09847 8.34947 3.68177C8.60292 3.63452 8.86067 3.61733 9.11842 3.61733C10.8153 3.61304 12.5121 3.61304 14.209 3.61304C16.7478 3.61733 18.7454 5.6106 18.7583 8.14943C18.754 8.57042 18.754 8.98282 18.754 9.4167Z" fill="#7E8B90"/>
<path d="M8.44409 2.34996C8.44409 2.08362 8.43121 1.82587 8.44839 1.57242C8.47416 1.22446 8.76198 1.00107 9.1529 1.00107C10.6564 1.00107 12.1557 1.00107 13.6592 1.00107C13.8611 1.00107 14.0587 0.996778 14.2606 1.00537C14.5957 1.01826 14.8621 1.26742 14.8835 1.60249C14.9007 1.85165 14.8878 2.10081 14.8878 2.35856C12.7356 2.34996 10.6049 2.34996 8.44409 2.34996Z" fill="#7E8B90"/>
</svg>
