<svg width="220" height="54" viewBox="0 0 220 54" fill="none" xmlns="http://www.w3.org/2000/svg">
<g clip-path="url(#clip0_969_2430)">
<path d="M7.99401 7.9127C3.8448 12.0453 2.11597 16.6372 2.11597 16.6372C27.9332 12.6194 34.7333 19.5071 34.7333 19.5071C32.6587 16.2928 29.8926 13.3081 27.1264 10.553C21.9399 5.50197 16.7534 1.9433 16.7534 1.9433C13.0653 3.55044 10.1839 5.73157 7.99401 7.9127Z" fill="url(#paint0_linear_969_2430)"/>
<path d="M27.1264 -0.00826517C21.2484 -0.00826517 16.8687 2.05805 16.8687 2.05805C37.8452 17.3259 37.8452 27.0835 37.8452 27.0835C38.652 23.4101 38.8825 19.2774 38.7672 15.4892C38.652 8.25704 37.4994 2.05805 37.4994 2.05805C33.9265 0.5657 30.3536 -0.00826517 27.1264 -0.00826517Z" fill="url(#paint1_linear_969_2430)"/>
<path d="M34.7332 34.5453C37.9603 32.4789 40.957 29.7239 43.7231 26.9688C48.7943 21.803 52.3673 16.6371 52.3673 16.6371C50.8689 12.9637 48.6791 10.0937 46.4892 7.9126C42.34 3.77995 37.7298 2.05804 37.7298 2.05804C41.6485 27.6575 34.7332 34.5453 34.7332 34.5453Z" fill="url(#paint2_linear_969_2430)"/>
<path d="M27.1265 37.7597C30.8146 38.5632 34.9639 38.7928 38.7673 38.678C46.0284 38.5632 52.2522 37.4153 52.2522 37.4153C53.7505 33.7418 54.3268 30.1831 54.3268 27.0837C54.3268 21.2291 52.2522 16.752 52.2522 16.752C36.9232 37.6449 27.1265 37.6449 27.1265 37.7597Z" fill="url(#paint3_linear_969_2430)"/>
<path d="M19.6348 34.5453C21.7094 37.7596 24.4755 40.7443 27.2416 43.4994C32.4281 48.5504 37.6146 52.1091 37.6146 52.1091C41.3028 50.6167 44.1842 48.4356 46.4893 46.2545C50.6385 42.1218 52.3674 37.53 52.3674 37.53C26.5501 41.433 19.6348 34.5453 19.6348 34.5453Z" fill="url(#paint4_linear_969_2430)"/>
<path d="M15.4856 38.678C15.6008 45.9101 16.7534 51.9943 16.7534 51.9943C19.4043 53.1423 22.0552 53.7163 24.5908 53.9459H29.7773C34.2723 53.4867 37.6147 51.9943 37.6147 51.9943C16.5229 36.7265 16.4076 27.0836 16.4076 27.0836C15.6008 30.6423 15.3703 34.7749 15.4856 38.678Z" fill="url(#paint5_linear_969_2430)"/>
<path d="M10.6449 27.0835C5.57366 32.2493 2.00073 37.4152 2.00073 37.4152C3.49906 41.0886 5.68891 43.9585 7.87877 46.1396C12.028 50.2723 16.6382 51.9943 16.6382 51.9943C12.6043 26.28 19.5196 19.507 19.5196 19.507C16.4077 21.5734 13.2958 24.3284 10.6449 27.0835Z" fill="url(#paint6_linear_969_2430)"/>
<path d="M15.4855 15.3744C8.22443 15.4892 2.00063 16.6372 2.00063 16.6372C0.502304 20.3107 -0.0739746 23.8694 -0.0739746 26.9689C-0.0739746 32.8235 2.00063 37.3005 2.00063 37.3005C17.3296 16.2928 27.1264 16.2928 27.1264 16.2928C23.8992 15.604 20.211 15.2597 16.7534 15.2597C16.4076 15.3745 15.9466 15.3744 15.4855 15.3744Z" fill="url(#paint7_linear_969_2430)"/>
<path d="M90.3604 23.602C90.8215 23.602 91.1903 23.2347 91.1903 22.8674C91.1903 22.6837 91.0981 22.5 91.0059 22.3163L87.9631 16.2551C89.254 15.7041 90.176 14.5102 90.3604 12.8572C90.3604 12.7653 90.3604 12.6735 90.4526 12.3061V11.3878C90.4526 11.5714 90.637 6.9796 86.2112 6.9796H82.062C81.601 6.9796 81.2322 7.34695 81.2322 7.80613V22.7755C81.2322 23.2347 81.601 23.602 82.062 23.602C82.523 23.602 82.8919 23.2347 82.8919 22.7755V16.6225H85.8424C86.0268 16.6225 86.2112 16.6225 86.3956 16.6225L89.715 23.1429C89.715 23.3265 89.9916 23.602 90.3604 23.602ZM86.0268 8.63266C87.6865 8.63266 88.7007 9.64286 88.7007 11.3878V12.1225C88.7007 13.7755 87.6865 14.8776 86.0268 14.8776H82.7074V8.63266C82.7997 8.63266 86.0268 8.63266 86.0268 8.63266Z" fill="white"/>
<path d="M121.894 22.7755V10.8367L129.547 23.2347C129.732 23.5102 130.008 23.6939 130.285 23.6939C130.654 23.6939 131.115 23.3265 131.207 22.9592V22.7755V7.80613C131.207 7.34695 130.746 6.9796 130.285 6.9796C129.824 6.9796 129.455 7.34695 129.455 7.80613V19.7449L121.802 7.34695C121.71 7.16327 121.433 6.9796 121.157 6.9796C120.696 6.9796 120.235 7.34695 120.235 7.89797V22.8674C120.235 23.3265 120.603 23.6939 121.064 23.6939C121.525 23.6939 121.894 23.2347 121.894 22.7755Z" fill="white"/>
<path d="M144.853 6.88776C144.392 6.88776 144.023 7.2551 144.023 7.71429V14.3265H136.739V7.80612C136.739 7.34694 136.37 6.97959 135.909 6.97959C135.448 6.97959 135.08 7.34694 135.08 7.80612V22.7755C135.08 23.2347 135.448 23.602 135.909 23.602C136.37 23.602 136.739 23.2347 136.739 22.7755V16.0714H144.023V22.7755C144.023 23.2347 144.392 23.602 144.853 23.602C145.314 23.602 145.775 23.2347 145.775 22.7755V7.80612C145.775 7.2551 145.314 6.88776 144.853 6.88776Z" fill="white"/>
<path d="M155.733 6.70409C151.676 6.70409 149.74 10.5612 149.74 15.2449C149.74 19.9286 151.676 23.8776 155.733 23.8776C159.79 23.8776 161.727 19.9286 161.727 15.2449C161.727 10.5612 159.79 6.70409 155.733 6.70409ZM155.733 22.1327C152.967 22.1327 151.584 19.0102 151.584 15.2449C151.584 11.4796 152.967 8.44898 155.733 8.44898C158.499 8.44898 159.882 11.4796 159.882 15.2449C159.79 19.0102 158.499 22.1327 155.733 22.1327Z" fill="white"/>
<path d="M177.309 7.80613C177.309 7.34695 176.94 6.9796 176.479 6.9796C176.018 6.9796 175.65 7.34695 175.65 7.80613V16.3469C175.65 19.2857 174.451 22.1327 171.593 22.1327C168.642 22.1327 167.443 19.2857 167.443 16.3469V7.80613C167.443 7.34695 167.075 6.9796 166.614 6.9796C166.153 6.9796 165.784 7.34695 165.784 7.80613V16.5306C165.784 20.0204 167.259 23.7857 171.5 23.7857H171.593C175.926 23.7857 177.401 19.9286 177.401 16.5306V7.80613H177.309Z" fill="white"/>
<path d="M71.6428 23.8776C71.735 23.8776 71.735 23.8776 71.6428 23.8776C71.735 23.8776 71.735 23.8776 71.735 23.8776C75.6998 23.602 76.9907 19.9286 76.9907 16.6225V15.6122V15.5204C76.9907 14.8776 76.714 14.4184 75.9764 14.4184H71.5506C71.0896 14.4184 70.7207 14.7857 70.7207 15.2449C70.7207 15.7041 71.0896 16.0714 71.5506 16.0714H75.2388V16.3469C75.2388 19.1939 74.1323 21.949 71.4584 22.1327C71.3662 22.1327 71.274 22.1327 71.274 22.1327C68.5078 22.1327 66.8482 19.0102 66.8482 15.2449C66.8482 11.4796 68.4156 8.44898 71.1818 8.44898C73.3947 8.44898 73.8557 9.7347 74.5933 9.7347C75.0544 9.7347 75.4232 9.36735 75.4232 8.90817C75.4232 8.72449 75.331 8.44898 75.1466 8.26531C74.0401 7.16327 72.5648 6.70409 71.0896 6.70409C67.0326 6.70409 64.9119 10.5612 64.9119 15.2449C64.9119 19.9286 67.0326 23.7857 71.0896 23.8776C71.0896 23.8776 71.0896 23.8776 71.1818 23.8776C71.1818 23.8776 71.1818 23.8776 71.274 23.8776C71.4584 23.8776 71.5506 23.8776 71.6428 23.8776Z" fill="white"/>
<path d="M185.331 22.1327C182.841 22.1327 182.473 20.4796 181.643 20.4796C181.366 20.4796 180.813 20.6633 180.813 21.3061C180.813 21.5816 180.905 21.8571 180.997 21.949C182.104 23.3265 183.671 23.8776 185.331 23.8776C187.821 23.8776 190.218 21.7653 190.218 19.1939C190.218 12.949 182.657 14.9694 182.657 10.9286C182.657 9.45919 183.856 8.44898 185.423 8.44898C187.544 8.44898 188.097 9.7347 188.927 9.7347C189.388 9.7347 189.757 9.36735 189.757 8.90817C189.757 8.72449 189.665 8.44898 189.48 8.26531C188.466 7.16327 186.898 6.70409 185.423 6.70409C183.118 6.70409 180.813 8.17347 180.813 10.9286C180.813 16.6225 188.374 14.3265 188.374 19.1939C188.374 20.7551 186.898 22.1327 185.331 22.1327Z" fill="white"/>
<path d="M102.808 8.63266C103.269 8.63266 103.638 8.26531 103.638 7.80613C103.638 7.34695 103.269 6.9796 102.808 6.9796H95.8003C95.3393 6.9796 94.9705 7.34695 94.9705 7.80613V14.8776V15.7041V19.3776V22.7755C94.9705 23.2347 95.3393 23.602 95.8003 23.602H102.808C103.269 23.602 103.638 23.2347 103.638 22.7755C103.638 22.3163 103.269 21.949 102.808 21.949H96.6301V19.0102V16.5306V15.6123H101.886C102.347 15.6123 102.716 15.2449 102.716 14.7857C102.716 14.3265 102.347 13.9592 101.886 13.9592H96.6301V8.63266H102.808Z" fill="white"/>
<path d="M116.085 22.7755C116.085 22.3163 115.717 21.949 115.256 21.949H109.078V19.0102V16.5306V15.6123H114.334C114.795 15.6123 115.163 15.2449 115.163 14.7857C115.163 14.3265 114.795 13.9592 114.334 13.9592H109.078V8.63266H115.256C115.717 8.63266 116.085 8.26531 116.085 7.80613C116.085 7.34695 115.717 6.9796 115.256 6.9796H108.248C107.787 6.9796 107.418 7.34695 107.418 7.80613V14.8776V15.7041V19.3776V22.7755C107.418 23.2347 107.787 23.602 108.248 23.602H115.256C115.717 23.602 116.085 23.2347 116.085 22.7755Z" fill="white"/>
<path d="M202.02 8.63266C202.481 8.63266 202.85 8.26531 202.85 7.80613C202.85 7.34695 202.481 6.9796 202.02 6.9796H195.012C194.551 6.9796 194.183 7.34695 194.183 7.80613V14.8776V15.7041V19.3776V22.7755C194.183 23.2347 194.551 23.602 195.012 23.602H202.02C202.481 23.602 202.85 23.2347 202.85 22.7755C202.85 22.3163 202.481 21.949 202.02 21.949H195.842V19.0102V16.5306V15.6123H201.098C201.559 15.6123 201.928 15.2449 201.928 14.7857C201.928 14.3265 201.559 13.9592 201.098 13.9592H195.842V8.63266H202.02Z" fill="white"/>
<path d="M136.278 47.1123C136.739 47.1123 137.108 46.7449 137.108 46.3776C137.108 46.1939 137.016 46.0102 136.924 45.8265L133.881 39.7653C135.172 39.2143 136.094 38.0204 136.278 36.3674C136.278 36.2755 136.278 36.1837 136.37 35.8163V34.898C136.37 35.0816 136.555 30.4898 132.129 30.4898H127.98C127.519 30.4898 127.15 30.8572 127.15 31.3163V46.2857C127.15 46.7449 127.519 47.1123 127.98 47.1123C128.441 47.1123 128.81 46.7449 128.81 46.2857V40.1327H131.76C131.945 40.1327 132.129 40.1327 132.313 40.1327L135.633 46.6531C135.633 46.8367 135.909 47.1123 136.278 47.1123ZM131.945 32.051C133.604 32.051 134.618 33.0612 134.618 34.8061V35.5408C134.618 37.1939 133.604 38.2959 131.945 38.2959H128.625V31.9592C128.625 32.051 131.945 32.051 131.945 32.051Z" fill="white"/>
<path d="M71.6428 47.2959C71.735 47.2959 71.735 47.2959 71.6428 47.2959C71.735 47.2959 71.735 47.2959 71.735 47.2959C75.6998 47.0204 76.9907 43.3469 76.9907 40.0408V39.0306V38.9388C76.9907 38.2959 76.714 37.8367 75.9764 37.8367H71.5506C71.0896 37.8367 70.7207 38.2041 70.7207 38.6633C70.7207 39.1225 71.0896 39.4898 71.5506 39.4898H75.2388V39.7653C75.2388 42.6122 74.1323 45.3673 71.4584 45.551C71.3662 45.551 71.274 45.551 71.274 45.551C68.5078 45.551 66.8482 42.4286 66.8482 38.6633C66.8482 34.898 68.4156 31.8674 71.1818 31.8674C73.3947 31.8674 73.8557 33.1531 74.5933 33.1531C75.0544 33.1531 75.4232 32.7857 75.4232 32.3265C75.4232 32.1429 75.331 31.8674 75.1466 31.6837C74.0401 30.5816 72.5648 30.1225 71.0896 30.1225C67.0326 30.1225 64.9119 33.9796 64.9119 38.6633C64.9119 43.3469 67.0326 47.2041 71.0896 47.2959C71.0896 47.2959 71.0896 47.2959 71.1818 47.2959C71.1818 47.2959 71.1818 47.2959 71.274 47.2959C71.4584 47.2959 71.5506 47.2959 71.6428 47.2959Z" fill="white"/>
<path d="M85.9345 30.949C85.8423 30.5816 85.4735 30.398 85.1047 30.398C84.7359 30.398 84.4593 30.6735 84.2749 30.949L79.0192 45.9184C78.927 46.0102 78.927 46.1939 78.927 46.3776C78.927 46.7449 79.2036 47.1123 79.7568 47.1123C80.1257 47.1123 80.4945 46.8367 80.5867 46.5612L82.4308 41.5102H87.8708L89.7149 46.5612C89.8071 46.9286 90.176 47.1123 90.5448 47.1123C91.0058 47.1123 91.3746 46.7449 91.3746 46.2857C91.3746 46.1939 91.3746 46.0102 91.2824 45.8265C91.3746 45.8265 85.9345 30.949 85.9345 30.949ZM82.984 39.7653L85.1047 33.7959L87.2254 39.7653H82.984Z" fill="white"/>
<path d="M95.5238 34.2551C95.5238 32.7857 96.7224 31.7755 98.2899 31.7755C100.411 31.7755 100.964 33.0612 101.794 33.0612C102.255 33.0612 102.624 32.6939 102.624 32.2347C102.624 32.051 102.531 31.7755 102.347 31.5918C101.333 30.4898 99.7652 30.0306 98.2899 30.0306C95.9848 30.0306 93.6797 31.5 93.6797 34.2551C93.6797 39.949 101.24 37.6531 101.24 42.5204C101.24 44.1735 99.8574 45.4592 98.1977 45.4592C95.7082 45.4592 95.3394 43.8061 94.5095 43.8061C94.2329 43.8061 93.6797 43.9898 93.6797 44.6327C93.6797 44.9082 93.7719 45.1837 93.8641 45.2755C94.9706 46.6531 96.538 47.2041 98.1977 47.2041C100.687 47.2041 103.085 45.0918 103.085 42.5204C103.085 36.2755 95.5238 38.2959 95.5238 34.2551Z" fill="white"/>
<path d="M145.867 30.1225C141.81 30.1225 139.874 33.9796 139.874 38.6633C139.874 43.3469 141.81 47.2959 145.867 47.2959C149.924 47.2959 151.861 43.3469 151.861 38.6633C151.861 33.9796 149.924 30.1225 145.867 30.1225ZM145.867 45.551C143.101 45.551 141.718 42.4286 141.718 38.6633C141.718 34.898 143.101 31.8674 145.867 31.8674C148.633 31.8674 150.017 34.898 150.017 38.6633C150.017 42.4286 148.633 45.551 145.867 45.551Z" fill="white"/>
<path d="M165.138 30.398H159.421H153.705C153.244 30.398 152.783 30.7653 152.783 31.2245C152.783 31.6837 153.244 32.051 153.705 32.051H158.499V46.2857C158.499 46.7449 158.868 47.1123 159.329 47.1123C159.79 47.1123 160.159 46.7449 160.159 46.2857V32.051H165.046C165.507 32.051 165.876 31.6837 165.876 31.2245C165.876 30.7653 165.599 30.398 165.138 30.398Z" fill="white"/>
<path d="M172.699 30.1225C168.642 30.1225 166.706 33.9796 166.706 38.6633C166.706 43.3469 168.642 47.2959 172.699 47.2959C176.756 47.2959 178.692 43.3469 178.692 38.6633C178.692 33.9796 176.756 30.1225 172.699 30.1225ZM172.699 45.551C169.933 45.551 168.55 42.4286 168.55 38.6633C168.55 34.898 169.933 31.8674 172.699 31.8674C175.465 31.8674 176.848 34.898 176.848 38.6633C176.848 42.4286 175.465 45.551 172.699 45.551Z" fill="white"/>
<path d="M188.558 31.8674C190.771 31.8674 191.232 33.1531 191.97 33.1531C192.431 33.1531 192.8 32.7857 192.8 32.3265C192.8 32.1429 192.707 31.8674 192.523 31.6837C191.417 30.5816 189.941 30.1225 188.466 30.1225C184.409 30.1225 182.288 33.9796 182.288 38.6633C182.288 43.3469 184.409 47.2959 188.466 47.2959C189.941 47.2959 191.417 46.7449 192.523 45.7347C192.707 45.551 192.8 45.3673 192.8 45.0918C192.8 44.6327 192.431 44.1735 191.97 44.1735C191.14 44.1735 190.587 45.4592 188.466 45.4592C185.7 45.4592 184.132 42.3367 184.132 38.5714C184.225 34.9898 185.792 31.8674 188.558 31.8674Z" fill="white"/>
<path d="M201.375 30.0306C197.318 30.0306 195.381 33.8878 195.381 38.5714C195.381 43.2551 197.318 47.2041 201.375 47.2041C205.432 47.2041 207.368 43.2551 207.368 38.5714C207.368 33.8878 205.432 30.0306 201.375 30.0306ZM201.375 45.4592C198.609 45.4592 197.225 42.3367 197.225 38.5714C197.225 34.8061 198.609 31.7755 201.375 31.7755C204.141 31.7755 205.524 34.8061 205.524 38.5714C205.524 42.3367 204.141 45.4592 201.375 45.4592Z" fill="white"/>
<path d="M219.17 45.3673H212.992V42.7959V31.1327C212.992 30.6735 212.623 30.3061 212.162 30.3061C211.701 30.3061 211.333 30.6735 211.333 31.1327V31.2245V38.2959V39.1224V42.7959V46.1939C211.333 46.6531 211.701 47.0204 212.162 47.0204H219.17C219.631 47.0204 220 46.6531 220 46.1939C220 45.7347 219.631 45.3673 219.17 45.3673Z" fill="white"/>
<path d="M118.759 30.398H114.61C114.149 30.398 113.78 30.7653 113.78 31.2245V46.1939C113.78 46.6531 114.149 47.0204 114.61 47.0204C115.071 47.0204 115.44 46.6531 115.44 46.1939V40.0408H118.39C118.575 40.0408 118.759 40.0408 118.944 40.0408C121.433 39.949 123.093 38.2959 123.093 35.6327V34.7143C123.093 34.6225 123.093 34.5306 123.093 34.4388C122.816 31.9592 121.157 30.398 118.759 30.398ZM118.759 32.051C120.419 32.051 121.433 33.0612 121.433 34.8061V35.6327C121.433 37.3776 120.419 38.3878 118.759 38.3878H115.44V32.051H118.759Z" fill="white"/>
</g>
<defs>
<linearGradient id="paint0_linear_969_2430" x1="2.06087" y1="10.7851" x2="42.9017" y2="10.7851" gradientUnits="userSpaceOnUse">
<stop offset="0.347" stop-color="#00ACA1"/>
<stop offset="1" stop-color="white"/>
</linearGradient>
<linearGradient id="paint1_linear_969_2430" x1="20.9668" y1="-2.12889" x2="49.733" y2="26.7526" gradientUnits="userSpaceOnUse">
<stop offset="0.3377" stop-color="#00ACA1"/>
<stop offset="1" stop-color="white"/>
</linearGradient>
<linearGradient id="paint2_linear_969_2430" x1="28.0139" y1="23.0074" x2="54.3814" y2="7.72309" gradientUnits="userSpaceOnUse">
<stop stop-color="white"/>
<stop offset="1" stop-color="#00ACA1"/>
</linearGradient>
<linearGradient id="paint3_linear_969_2430" x1="27.1624" y1="27.6899" x2="61.127" y2="27.6899" gradientUnits="userSpaceOnUse">
<stop stop-color="white"/>
<stop offset="0.0238931" stop-color="#F6FCFC"/>
<stop offset="0.2384" stop-color="#ADE4E1"/>
<stop offset="0.44" stop-color="#6FD0CA"/>
<stop offset="0.6224" stop-color="#3FC1B8"/>
<stop offset="0.7824" stop-color="#1DB5AC"/>
<stop offset="0.9137" stop-color="#08AEA4"/>
<stop offset="1" stop-color="#00ACA1"/>
</linearGradient>
<linearGradient id="paint4_linear_969_2430" x1="19.6004" y1="43.3211" x2="60.4413" y2="43.3211" gradientUnits="userSpaceOnUse">
<stop stop-color="white"/>
<stop offset="0.1398" stop-color="#D1F0EE"/>
<stop offset="0.378" stop-color="#87D8D3"/>
<stop offset="0.5918" stop-color="#4DC5BD"/>
<stop offset="0.7732" stop-color="#23B7AE"/>
<stop offset="0.915" stop-color="#0AAFA5"/>
<stop offset="1" stop-color="#00ACA1"/>
</linearGradient>
<linearGradient id="paint5_linear_969_2430" x1="15.6166" y1="50.8909" x2="31.048" y2="35.3978" gradientUnits="userSpaceOnUse">
<stop offset="0.0793651" stop-color="#00ACA1"/>
<stop offset="1" stop-color="white"/>
</linearGradient>
<linearGradient id="paint6_linear_969_2430" x1="7.5103" y1="45.7257" x2="31.4293" y2="21.7109" gradientUnits="userSpaceOnUse">
<stop offset="0.0793651" stop-color="#00ACA1"/>
<stop offset="0.2562" stop-color="#2CBAB1"/>
<stop offset="0.6529" stop-color="#9ADEDA"/>
<stop offset="1" stop-color="white"/>
</linearGradient>
<linearGradient id="paint7_linear_969_2430" x1="-9.57348e-05" y1="26.414" x2="33.963" y2="26.414" gradientUnits="userSpaceOnUse">
<stop offset="0.0793651" stop-color="#00ACA1"/>
<stop offset="1" stop-color="white"/>
</linearGradient>
<clipPath id="clip0_969_2430">
<rect width="220" height="54" fill="white"/>
</clipPath>
</defs>
</svg>
