<svg width="79" height="79" viewBox="0 0 79 79" fill="none" xmlns="http://www.w3.org/2000/svg">
<path d="M79 37.1216C79 38.7019 79 40.2822 79 41.8625C78.8736 42.8581 78.7788 43.8379 78.6366 44.8335C76.2192 61.9958 63.279 75.3969 46.1676 78.4153C44.7456 78.6681 43.3078 78.8103 41.87 79C40.29 79 38.71 79 37.13 79C36.893 78.9526 36.6718 78.8735 36.4348 78.8577C30.4624 78.3994 24.885 76.6295 19.6868 73.6427C5.94079 65.7411 -1.83281 49.8905 0.379186 34.1822C3.38119 12.7373 22.6888 -2.22827 44.1452 0.268626C60.0716 2.1176 73.4068 13.5591 77.5622 29.062C78.2574 31.6853 78.526 34.4351 79 37.1216Z" fill="#258F17"/>
<g clip-path="url(#clip0_723_8787)">
<path d="M41.3776 16C42.1814 16.1527 43.0124 16.2336 43.7981 16.4582C50.3372 18.282 54.4648 22.4777 55.7022 29.1262C56.8221 35.1457 54.799 40.2129 50.1385 44.193C48.2057 45.8461 47.1851 47.8406 47.2393 50.3742C47.2483 50.9133 47.2393 51.4434 47.2393 52.0004C42.4072 52.0004 37.6113 52.0004 32.716 52.0004C32.716 51.102 32.7702 50.2125 32.707 49.341C32.5625 47.3555 31.6773 45.7023 30.1329 44.4355C27.7123 42.468 25.9059 40.0602 24.8944 37.1133C22.0584 28.9016 26.1859 20.1238 34.3417 17.0062C35.6243 16.5211 36.952 16.2066 38.3158 16.0809C38.4332 16.0719 38.5416 16.027 38.659 16C39.5712 16 40.4744 16 41.3776 16ZM46.3903 31.9203C45.9206 35.1277 44.6471 36.9426 42.2266 37.823C40.2938 38.5238 38.4422 38.3262 36.5636 37.2391C37.3132 37.1223 37.9364 37.0145 38.5687 36.9156C38.4332 36.0352 38.3067 35.1996 38.1803 34.3371C38.0267 34.3371 37.8913 34.3191 37.7648 34.3371C36.1481 34.5707 34.5314 34.8133 32.9057 35.0559C32.6618 35.0918 32.5534 35.1906 32.5083 35.4422C32.3276 36.4395 32.1018 37.4277 31.9031 38.425C31.7586 39.1348 31.6322 39.8535 31.4877 40.5902C32.3908 40.7699 33.2398 40.9316 34.1069 41.1023C34.2514 40.4105 34.3869 39.7727 34.5224 39.1437C38.2706 41.5156 41.9827 41.6414 45.5774 38.973C47.8986 37.248 48.9824 34.8223 49.0637 31.9203C48.1244 31.9203 47.2754 31.9203 46.3903 31.9203ZM33.6011 31.8844C33.8269 28.9645 35.2088 26.916 37.9545 25.9187C39.806 25.2539 41.6214 25.5055 43.4278 26.5656C42.6872 26.6824 42.073 26.7812 41.4318 26.8891C41.5673 27.7875 41.7027 28.641 41.8382 29.4945C42.064 29.4676 42.2266 29.4586 42.3892 29.4316C43.9155 29.207 45.4419 28.9645 46.9774 28.7578C47.3296 28.7129 47.4651 28.5781 47.5193 28.2457C47.7089 27.2305 47.9257 26.2242 48.1244 25.218C48.2599 24.5531 48.3863 23.8883 48.5128 23.2055C47.6096 23.0258 46.7696 22.8551 45.8935 22.6844C45.749 23.3762 45.6135 24.0141 45.4781 24.6609C41.784 22.307 38.09 22.1453 34.5133 24.7508C32.147 26.4758 31.009 28.9105 30.9457 31.8664C31.876 31.8844 32.725 31.8844 33.6011 31.8844Z" fill="white"/>
<path d="M39.1195 62C38.6679 61.8563 38.1983 61.7485 37.7648 61.5778C35.4165 60.6614 33.8991 58.4332 33.8901 55.9356C33.8901 55.5492 33.8901 55.1629 33.8901 54.7496C37.9815 54.7496 42.0368 54.7496 46.1283 54.7496C46.318 56.8879 45.8393 58.8106 44.2226 60.3379C43.3284 61.1824 42.2717 61.7125 41.0524 61.9192C40.9801 61.9282 40.9169 61.9731 40.8537 62C40.2576 62 39.6886 62 39.1195 62Z" fill="white"/>
</g>
<defs>
<clipPath id="clip0_723_8787">
<rect width="32" height="46" fill="white" transform="translate(24.0002 16)"/>
</clipPath>
</defs>
</svg>
