<svg width="79" height="79" viewBox="0 0 79 79" fill="none" xmlns="http://www.w3.org/2000/svg">
<path d="M78.9939 37.1249C78.9939 38.7052 78.9939 40.2855 78.9939 41.8658C78.8675 42.8614 78.7727 43.8412 78.6305 44.8368C76.2131 61.9991 63.2729 75.4001 46.1615 78.4186C44.7395 78.6714 43.3017 78.8136 41.8639 79.0033C40.2839 79.0033 38.7039 79.0033 37.1239 79.0033C36.8869 78.9559 36.6657 78.8768 36.4287 78.861C30.4563 78.4027 24.8789 76.6328 19.6807 73.646C5.93474 65.7444 -1.83886 49.8938 0.373144 34.1855C3.37514 12.7406 22.6827 -2.22498 44.1391 0.271922C60.0655 2.12089 73.4007 13.5624 77.5561 29.0653C78.2513 31.6886 78.5199 34.4384 78.9939 37.1249Z" fill="#258F17"/>
<g clip-path="url(#clip0_723_8798)">
<path d="M57.3608 58.0033H55.1328C54.9615 58.0033 54.8244 57.8665 54.8244 57.6954V55.4716C54.8244 55.2664 54.6358 55.1295 54.4473 55.1637C53.916 55.2835 53.4019 55.4032 52.8706 55.5058C52.5621 55.5572 52.2536 55.5572 51.928 55.5572C43.7187 55.5572 35.5095 55.5572 27.3174 55.5572C26.3748 55.5572 25.4493 55.4203 24.5581 55.1295C24.3525 55.0611 24.1639 55.215 24.1639 55.4203V57.6612C24.1639 57.8322 24.0268 57.9691 23.8554 57.9691H21.6275C21.4561 57.9691 21.319 57.8322 21.319 57.6612V57.5072C21.319 56.3954 21.319 55.2835 21.319 54.1716C21.319 53.915 21.2504 53.7611 21.0276 53.6071C19.0224 52.3071 18.0284 50.4254 18.0113 48.0306C17.9941 46.3542 18.0113 44.6607 18.0113 42.9844C18.0113 41.9409 18.2169 40.9488 18.6797 40.0079C19.3481 38.6566 20.0165 37.2881 20.6506 35.9881C20.702 35.8683 20.8391 35.7999 20.9591 35.817C33.3158 37.4934 45.6554 37.4763 58.0978 35.817C58.2349 35.7999 58.3548 35.8683 58.4234 35.9881C59.1432 37.596 59.9658 39.2895 60.6685 41.0172C60.9256 41.6501 60.977 42.3856 60.9941 43.0699C61.0456 44.6778 61.0113 46.2858 61.0113 47.8937C61.0113 50.3399 60.0001 52.2728 57.9607 53.6413C57.755 53.7782 57.6864 53.9321 57.6864 54.1545C57.7036 55.2664 57.6864 56.3782 57.6864 57.4901V57.6612C57.6693 57.8665 57.5322 58.0033 57.3608 58.0033ZM27.5402 49.1596V51.8281C27.5402 51.9991 27.6773 52.136 27.8487 52.136H51.1396C51.311 52.136 51.4481 51.9991 51.4481 51.8281V49.1596C51.4481 48.9885 51.311 48.8517 51.1396 48.8517H27.8487C27.6773 48.8517 27.5402 48.9885 27.5402 49.1596ZM25.7235 41.9238H21.3704C21.199 41.9238 21.0619 42.0606 21.0619 42.2317V44.9173C21.0619 45.0884 21.199 45.2252 21.3704 45.2252H25.7235C25.8949 45.2252 26.032 45.0884 26.032 44.9173V42.2146C26.032 42.0606 25.8949 41.9238 25.7235 41.9238ZM53.2648 45.2081H57.6008C57.7721 45.2081 57.9092 45.0713 57.9092 44.9002V42.2317C57.9092 42.0606 57.7721 41.9238 57.6008 41.9238H53.2648C53.0934 41.9238 52.9563 42.0606 52.9563 42.2317V44.9002C52.9563 45.0713 53.0934 45.2081 53.2648 45.2081Z" fill="white"/>
<path d="M56.7438 29.7444H60.0172C60.1886 29.7444 60.3257 29.8813 60.3257 30.0523V32.2932C60.3257 32.4643 60.1886 32.584 60.0344 32.6011C59.863 32.6011 59.6916 32.6011 59.5031 32.6011C57.8064 32.5327 56.1268 32.7208 54.4301 32.9432C52.5106 33.1998 50.574 33.4393 48.6374 33.5077C44.6442 33.6617 40.6509 33.7814 36.6577 33.7301C33.3843 33.6959 30.0937 33.4735 26.8203 33.2511C25.3293 33.1485 23.8383 32.8235 22.3472 32.6182C22.2101 32.6011 22.073 32.584 21.9359 32.584C20.9762 32.584 19.9993 32.584 19.0053 32.584C18.8339 32.584 18.6968 32.4471 18.6968 32.2761V30.0523C18.6968 29.8813 18.8339 29.7444 19.0053 29.7444H22.2615C22.3987 29.7444 22.5186 29.6589 22.5529 29.522C22.8442 28.3417 23.1185 27.1956 23.4441 26.0667C24.1982 23.2955 26.6832 21.3454 29.5625 21.2428C35.3381 21.0375 41.1137 20.8665 46.8893 21.1744C47.7633 21.2257 48.6203 21.2599 49.4943 21.2428C51.7737 21.2086 54.79 22.8679 55.5955 26.1693C55.8698 27.2812 56.144 28.3931 56.4353 29.522C56.4696 29.6589 56.6067 29.7444 56.7438 29.7444Z" fill="white"/>
</g>
<defs>
<clipPath id="clip0_723_8798">
<rect width="43" height="37" fill="white" transform="translate(17.9941 21.0033)"/>
</clipPath>
</defs>
</svg>
