<svg width="120" height="25" viewBox="0 0 120 25" fill="none" xmlns="http://www.w3.org/2000/svg">
<g clip-path="url(#clip0_680_7611)">
<path d="M101.68 7.95591C100.338 7.87304 99.2424 7.81779 98.147 7.76254C100.393 6.10508 102.775 4.66862 105.541 4.39237C107.43 4.199 108.389 5.52497 108.964 7.40342C110.799 6.57469 112.551 5.77359 114.304 4.97248C117.371 3.56364 119.754 4.66862 119.89 7.95591C120.11 13.3703 119.945 18.8123 119.945 24.3371C117.563 24.3371 115.29 24.3371 112.77 24.3371C112.743 23.7294 112.688 23.094 112.688 22.4863C112.661 18.4808 112.634 14.4752 112.606 10.4697C112.606 9.22663 112.524 7.95591 110.799 7.98353C109.156 7.98353 108.937 9.14375 108.937 10.4421C108.937 14.5029 108.882 18.5636 108.964 22.6244C108.991 24.0056 108.498 24.3924 107.239 24.3371C105.459 24.2543 103.706 24.3095 101.68 24.3095C101.68 18.7846 101.68 13.4531 101.68 7.95591Z" fill="white"/>
<path d="M28.4527 18.8122C28.1241 19.3371 27.905 19.9448 27.4668 20.3592C20.3194 27.5139 8.48919 25.4144 3.06701 20.6354C-1.2324 16.7956 -0.931164 8.61885 3.53255 4.22658C8.70827 -0.856289 22.072 -2.37563 28.4253 5.46968C28.6444 5.74592 28.8361 6.02216 29.1647 6.49178C26.2071 8.25973 23.3591 9.97244 20.4837 11.6851C20.3742 11.6023 20.2646 11.4918 20.1551 11.4089C21.6339 8.86747 23.0853 6.35366 24.5367 3.86747C20.7576 0.966915 15.0889 1.96139 11.6384 6.04979C8.21534 10.0829 8.68088 16.2155 12.6791 20.1106C16.732 24.0608 22.6197 23.4531 27.9324 18.5636C28.1241 18.6465 28.2884 18.7293 28.4527 18.8122Z" fill="white"/>
<path d="M63.9435 7.07194C65.1484 6.51945 66.8737 5.71835 68.5715 4.94487C71.9398 3.42553 74.0759 4.7515 74.1306 8.45315C74.2128 13.1217 74.2675 17.7625 74.3223 22.4311C74.3223 23.0664 74.2675 23.7018 74.2402 24.3924C71.8029 24.3924 69.53 24.3924 66.8189 24.3924C66.8189 19.5858 66.8463 14.8344 66.8189 10.083C66.8189 8.37028 65.6961 7.37581 64.3817 8.14929C63.7518 8.5084 63.2589 9.66862 63.2315 10.4697C63.122 14.1714 63.1767 17.873 63.1767 21.5747C63.1767 22.4034 63.1767 23.2045 63.1767 24.1161C60.6847 24.1161 58.4392 24.1161 55.865 24.1161C55.865 18.6465 55.865 13.315 55.865 7.90067C54.5779 7.8178 53.5921 7.76255 52.1133 7.65205C54.9613 5.91172 57.4533 4.19901 60.4656 4.5305C61.6158 4.641 62.6016 6.02222 63.9435 7.07194Z" fill="white"/>
<path d="M43.1311 13.3702C43.1858 13.0387 43.2132 12.9835 43.1858 12.9282C41.9809 7.95585 42.0083 7.95585 37.0243 7.76248C35.9563 7.70723 34.8883 7.76248 33.7381 7.34811C36.6409 6.32601 39.4889 5.02767 42.4738 4.30944C45.4314 3.61883 48.5533 5.99452 49.32 8.95032C50.6345 14.0056 51.949 19.0608 53.373 24.4752C51.1274 24.4752 49.0736 24.5028 47.0471 24.4199C46.7732 24.4199 46.4172 23.8398 46.2529 23.4531C45.9517 22.7625 45.76 22.0166 45.4588 21.0498C42.9941 23.6465 40.0914 24.8619 36.6957 24.7791C32.807 24.6686 29.9864 22.0442 29.5756 18.1768C29.3292 15.8288 31.8759 12.7349 34.6966 12.0719C37.3255 11.4365 39.8449 11.8509 42.3095 12.9558C42.5012 13.094 42.7751 13.2045 43.1311 13.3702ZM40.8034 14.3647C38.6674 14.3371 36.9147 16.0221 36.86 18.1492C36.8052 20.3592 38.5578 22.1824 40.7486 22.1547C42.8572 22.1271 44.6098 20.4144 44.6646 18.2873C44.692 16.2431 42.8846 14.3923 40.8034 14.3647Z" fill="white"/>
<path d="M86.8096 24.8343C81.3874 24.8619 76.7868 20.221 76.7594 14.6962C76.732 8.92267 81.2231 4.36466 86.9465 4.33704C92.5056 4.30941 97.1063 8.97792 97.0789 14.5857C97.0515 20.3868 92.5878 24.8343 86.8096 24.8343ZM88.3432 23.5359C90.4518 23.5636 91.5198 22.3481 91.1364 20.8564C89.9862 16.3812 88.7813 11.9061 87.5216 7.43096C87.1656 6.18786 86.3167 5.33151 84.8653 5.69063C83.3865 6.04974 82.7841 7.18234 83.1127 8.53593C84.2081 12.9006 85.3856 17.2652 86.6727 21.6022C86.9191 22.4586 87.9324 23.0939 88.3432 23.5359Z" fill="white"/>
</g>
<defs>
<clipPath id="clip0_680_7611">
<rect width="120" height="25" fill="white"/>
</clipPath>
</defs>
</svg>
