<svg width="68" height="68" viewBox="0 0 68 68" fill="none" xmlns="http://www.w3.org/2000/svg">
<g clip-path="url(#clip0_680_7554)">
<path d="M13.637 40.7596C13.5699 41.5145 13.5531 42.3867 13.5531 43.3092V45.0704C13.8886 45.0872 14.2241 45.104 14.7105 45.104C15.1969 45.104 15.5324 45.0872 15.8679 45.0704V43.3092C15.8679 42.3699 15.8511 41.4977 15.784 40.7596H18.6858C18.5349 42.3364 18.5349 43.6279 18.5349 46.2278C18.5349 48.8277 18.5349 50.1193 18.6858 51.696H15.8176C15.8847 50.9412 15.9014 50.069 15.9014 49.1464V46.9155C15.566 46.8988 15.2305 46.882 14.7441 46.882C14.2576 46.882 13.9222 46.8988 13.5867 46.9155V49.1464C13.5867 50.0857 13.6035 50.958 13.6706 51.696H10.752C10.9029 50.1193 10.9029 48.8277 10.9029 46.2278C10.9029 43.6279 10.9029 42.3364 10.752 40.7596H13.637Z" fill="white"/>
<path d="M20.3463 43.9131C20.5643 43.8795 21.3862 43.7957 21.9565 43.7957C25.1267 43.7957 26.0828 45.0369 26.0828 47.0833V48.9955C26.0828 49.7335 26.0828 50.5554 26.4854 51.696H24.0532C23.8687 51.4444 23.8016 51.2767 23.7848 51.2263C23.3655 51.5283 22.812 51.8302 22.0739 51.8302C20.5811 51.8302 19.625 50.807 19.625 49.5154C19.625 48.1065 20.7488 47.1504 22.1914 46.6807L23.4661 46.2614C23.4494 45.7246 23.0971 45.2717 22.3759 45.2717C21.8894 45.2717 21.1178 45.5066 20.3463 46.0601V43.9131ZM23.6674 47.7207C22.6946 47.9723 22.1075 48.5593 22.1075 49.3309C22.1075 49.8677 22.443 50.287 22.9294 50.287C23.2481 50.287 23.5668 50.0857 23.6674 49.9515V47.7207Z" fill="white"/>
<path d="M29.9914 40.7597V44.215C30.3771 43.9802 30.9307 43.7789 31.4842 43.7789C32.9435 43.7789 34.3022 44.8524 34.3022 47.6369C34.3022 49.8006 33.128 51.8638 30.9475 51.8638C30.3604 51.8638 29.6894 51.6625 28.9682 51.0922L28.1127 51.8302L27.3747 51.3774C27.5089 50.4045 27.5089 49.3645 27.5089 48.2575V43.8628C27.5089 43.2925 27.5089 42.6719 27.3579 40.7429H29.9914V40.7597ZM29.9914 49.549C29.9914 49.9852 30.1591 50.3374 30.6455 50.3374C31.2661 50.3374 31.719 49.7 31.719 47.8717C31.719 46.5633 31.3836 45.4563 30.612 45.4563C30.1926 45.4563 29.9914 45.7247 29.9914 46.0769V49.549Z" fill="white"/>
<path d="M36.684 40.6591C37.4556 40.6591 38.0595 41.2797 38.0595 42.0345C38.0595 42.8061 37.4388 43.4099 36.684 43.4099C35.9124 43.4099 35.3086 42.7893 35.3086 42.0345C35.3086 41.2797 35.9292 40.6591 36.684 40.6591ZM37.9588 43.9802C37.9253 44.7686 37.9253 45.9427 37.9253 47.5865C37.9253 49.6665 37.9253 50.7064 38.0595 51.6961H35.3086C35.4428 50.7232 35.4428 49.6832 35.4428 48.5762V47.1001C35.4428 45.993 35.4428 44.9531 35.3086 43.9802H37.9588Z" fill="white"/>
<path d="M42.1855 41.632C42.1519 42.1016 42.1352 43.0074 42.1352 43.9803H43.2758V45.4563H42.1352V49.3142C42.1352 49.9349 42.37 50.2871 42.9738 50.2871C43.0577 50.2871 43.1583 50.2871 43.2925 50.2703V51.6458C42.7893 51.8135 42.2693 51.8806 41.7494 51.8806C41.0616 51.8806 40.5081 51.629 40.0888 51.1426C39.7701 50.7568 39.6527 50.1194 39.6527 49.331V45.4563H38.7637V43.9803H39.6527C39.6527 43.0242 39.6359 42.1184 39.6023 41.632H42.1855Z" fill="white"/>
<path d="M44.4332 43.9131C44.6512 43.8795 45.4731 43.7957 46.0434 43.7957C49.2136 43.7957 50.1697 45.0369 50.1697 47.0833V48.9955C50.1697 49.7335 50.1697 50.5554 50.5723 51.696H48.1401C47.9556 51.4444 47.8885 51.2767 47.8718 51.2263C47.4524 51.5283 46.8989 51.8302 46.1609 51.8302C44.668 51.8302 43.7119 50.807 43.7119 49.5154C43.7119 48.1065 44.8357 47.1504 46.2783 46.6807L47.5531 46.2614C47.5363 45.7246 47.184 45.2717 46.4628 45.2717C45.9763 45.2717 45.2048 45.5066 44.4332 46.0601V43.9131ZM47.7543 47.7207C46.7982 47.9723 46.1944 48.5593 46.1944 49.3309C46.1944 49.8677 46.5299 50.287 47.0163 50.287C47.335 50.287 47.6537 50.0857 47.7543 49.9515V47.7207Z" fill="white"/>
<path d="M54.3798 41.632C54.3463 42.1016 54.3295 43.0074 54.3295 43.9803H55.4701V45.4563H54.3295V49.3142C54.3295 49.9349 54.5643 50.2871 55.1682 50.2871C55.252 50.2871 55.3527 50.2871 55.4869 50.2703V51.6458C54.9837 51.8135 54.4637 51.8806 53.9437 51.8806C53.256 51.8806 52.7025 51.629 52.2831 51.1426C51.9644 50.7568 51.847 50.1194 51.847 49.331V45.4563H50.958V43.9803H51.847C51.847 43.0242 51.8302 42.1184 51.7967 41.632H54.3798Z" fill="white"/>
<path d="M13.4694 53.9437C13.4358 53.9101 13.3184 53.8598 13.1339 53.8598C12.7816 53.8598 12.6139 54.1282 12.6139 54.4134C12.6139 54.5811 12.6642 54.7488 12.6978 54.8327H13.3352V55.6378H12.6978V57.3487C12.6978 57.9526 12.6978 58.5229 12.7816 59.0596H11.272C11.3559 58.5229 11.3559 57.9526 11.3559 57.3487V55.6378H10.8862V54.8327H11.3559V54.4972C11.3559 53.994 11.4398 53.6585 11.8423 53.3398C12.1778 53.0715 12.5971 52.9708 12.9662 52.9708C13.1674 52.9708 13.3855 53.0044 13.5029 53.0547V53.9437H13.4694Z" fill="white"/>
<path d="M17.361 56.9462C17.361 58.3719 16.4217 59.1603 15.3985 59.1603C14.3754 59.1603 13.436 58.3719 13.436 56.9462C13.436 55.5204 14.3754 54.7321 15.3985 54.7321C16.4217 54.7321 17.361 55.5204 17.361 56.9462ZM14.9289 56.9462C14.9289 57.9694 15.1469 58.3216 15.3985 58.3216C15.6501 58.3216 15.8682 57.9526 15.8682 56.9462C15.8682 55.923 15.6501 55.5707 15.3985 55.5707C15.1469 55.5707 14.9289 55.9398 14.9289 56.9462Z" fill="white"/>
<path d="M19.0548 54.8327C19.1051 54.9837 19.1722 55.2688 19.1722 55.403C19.4741 55.0004 19.8264 54.7321 20.2457 54.7321C20.3296 54.7321 20.3967 54.7488 20.4302 54.7656V55.8894C20.3296 55.8559 20.2122 55.8559 20.1786 55.8559C19.5412 55.8559 19.2561 56.443 19.2561 57.3655C19.2561 57.9694 19.2561 58.5397 19.3399 59.0764H17.78C17.8639 58.5397 17.8639 57.9694 17.8639 57.3655V56.5604C17.8639 55.9565 17.8639 55.3862 17.7129 54.8495H19.0548V54.8327Z" fill="white"/>
<path d="M24.758 53.0714C24.7245 53.4908 24.7077 53.9604 24.7077 54.4804V55.4533C24.8922 55.4533 25.0767 55.47 25.3451 55.47C25.6135 55.47 25.798 55.47 25.9825 55.4533V54.4804C25.9825 53.9604 25.9825 53.4908 25.9322 53.0714H27.5257C27.4418 53.9436 27.4418 54.6481 27.4418 56.0739C27.4418 57.4996 27.4418 58.2041 27.5257 59.0763H25.9322C25.9657 58.657 25.9825 58.1873 25.9825 57.6674V56.4429C25.798 56.4261 25.6135 56.4261 25.3451 56.4261C25.0767 56.4261 24.8922 56.4261 24.7077 56.4429V57.6674C24.7077 58.1873 24.7245 58.657 24.758 59.0763H23.1646C23.2484 58.2041 23.2484 57.4996 23.2484 56.0739C23.2484 54.6481 23.2484 53.9436 23.1646 53.0714H24.758Z" fill="white"/>
<path d="M30.6622 59.0764C30.5951 58.9422 30.5615 58.808 30.528 58.6906C30.2093 58.9926 29.8906 59.1771 29.4545 59.1771C28.7332 59.1771 28.2636 58.6571 28.2636 57.852V56.5604C28.2636 55.9565 28.2636 55.3862 28.1797 54.8495H29.6222V57.6674C29.6222 58.0029 29.7564 58.2042 30.008 58.2042C30.2261 58.2042 30.4441 58.0532 30.4441 57.7513V56.5604C30.4441 55.9565 30.4441 55.3862 30.3602 54.8495H31.8699C31.786 55.3862 31.786 55.9565 31.786 56.5604V57.3655C31.786 57.9694 31.786 58.5397 31.8699 59.0764H30.6622Z" fill="white"/>
<path d="M33.6649 54.8327C33.7152 54.9669 33.7655 55.1011 33.7823 55.2185C34.101 54.9333 34.47 54.7321 34.8894 54.7321C35.3423 54.7321 35.6274 55.0004 35.8287 55.2688C36.1306 55.0004 36.4661 54.7321 37.0196 54.7321C37.8415 54.7321 38.1602 55.3191 38.1602 56.141V57.3487C38.1602 57.9526 38.1602 58.5229 38.2441 59.0596H36.7345C36.8183 58.5229 36.8183 57.9526 36.8183 57.3487V56.1746C36.8183 55.8727 36.7345 55.6546 36.4661 55.6546C36.1809 55.6546 36.0132 55.8727 36.0132 56.1746V57.3487C36.0132 57.9526 36.0132 58.5229 36.0971 59.0596H34.5874C34.6713 58.5229 34.6713 57.9526 34.6713 57.3487V56.1578C34.6713 55.8727 34.5874 55.6546 34.3191 55.6546C34.0842 55.6546 33.8662 55.8559 33.8662 56.1075V57.3487C33.8662 57.9526 33.8662 58.5229 33.95 59.0596H32.4404C32.5243 58.5229 32.5243 57.9526 32.5243 57.3487V56.5436C32.5243 55.9398 32.5243 55.3695 32.4404 54.8327H33.6649Z" fill="white"/>
<path d="M39.0491 54.7992C39.1665 54.7824 39.6194 54.7321 39.9381 54.7321C41.6825 54.7321 42.2025 55.4198 42.2025 56.5436V57.6003C42.2025 58.0029 42.2025 58.4558 42.4205 59.0764H41.0787C40.978 58.9422 40.9445 58.8416 40.9277 58.808C40.6929 58.9758 40.3909 59.1435 39.9884 59.1435C39.1665 59.1435 38.6465 58.5732 38.6465 57.8687C38.6465 57.0971 39.2671 56.5772 40.0555 56.3088L40.76 56.0739C40.76 55.772 40.5587 55.5204 40.1561 55.5204C39.8877 55.5204 39.4684 55.6546 39.0323 55.9565V54.7992H39.0491ZM40.8606 56.8791C40.3238 57.0133 40.0051 57.3487 40.0051 57.7681C40.0051 58.07 40.1897 58.2881 40.458 58.2881C40.6425 58.2881 40.8103 58.1706 40.8606 58.1035V56.8791Z" fill="white"/>
<path d="M44.0645 54.8327C44.1316 54.9669 44.1651 55.1011 44.1986 55.2185C44.5173 54.9166 44.836 54.7321 45.2722 54.7321C45.9934 54.7321 46.4631 55.252 46.4631 56.0572V57.3487C46.4631 57.9526 46.4631 58.5229 46.5469 59.0596H45.0373C45.1212 58.5229 45.1212 57.9526 45.1212 57.3487V56.1914C45.1212 55.923 45.0038 55.7217 44.7522 55.7217C44.5341 55.7217 44.2993 55.8727 44.2993 56.1243V57.3487C44.2993 57.9526 44.2993 58.5229 44.3832 59.0596H42.8735C42.9574 58.5229 42.9574 57.9526 42.9574 57.3487V56.5436C42.9574 55.9398 42.9574 55.3695 42.8735 54.8327H44.0645Z" fill="white"/>
<path d="M47.872 53.0044C48.2913 53.0044 48.6268 53.3399 48.6268 53.7592C48.6268 54.1785 48.2913 54.514 47.872 54.514C47.4527 54.514 47.1172 54.1785 47.1172 53.7592C47.1172 53.3399 47.4527 53.0044 47.872 53.0044ZM48.5597 54.8327C48.5429 55.2688 48.5429 55.9062 48.5429 56.812C48.5429 57.9526 48.5429 58.5229 48.6268 59.0596H47.1172C47.2011 58.5229 47.2011 57.9526 47.2011 57.3487V56.5436C47.2011 55.9398 47.2011 55.3695 47.1172 54.8327H48.5597Z" fill="white"/>
<path d="M50.8913 53.5411C50.8746 53.8095 50.8578 54.2959 50.8578 54.8327H51.4952V55.6378H50.8578V57.7513C50.8578 58.1035 50.992 58.2881 51.3274 58.2881C51.3778 58.2881 51.4281 58.2881 51.512 58.2881V59.0429C51.2268 59.1435 50.9417 59.1603 50.6565 59.1603C50.2707 59.1603 49.9688 59.0261 49.7507 58.7577C49.5662 58.5397 49.4991 58.1874 49.4991 57.7681V55.6378H49.0127V54.8327H49.4991C49.4991 54.2959 49.4991 53.8095 49.4656 53.5411H50.8913Z" fill="white"/>
<path d="M53.1054 54.8326C53.2229 55.4868 53.5416 56.6777 53.7093 57.2313H53.7261C53.9609 56.3758 54.1454 55.4029 54.2125 54.8326H55.4202C55.135 55.99 54.5144 58.3215 53.9777 59.4286C53.6925 59.9989 53.2732 60.6698 52.1326 60.6698C52.0152 60.6698 51.8306 60.6531 51.73 60.6195V59.546C51.8139 59.5963 51.9984 59.6802 52.1997 59.6802C52.6358 59.6802 52.9377 59.3112 52.9377 59.0093C52.9377 58.8415 52.9042 58.7409 52.5687 57.8519C52.1158 56.661 51.7636 55.4029 51.6797 54.8326H53.1054Z" fill="white"/>
<path d="M2.8515 65.3162C2.8515 66.3562 2.16379 66.9265 1.42575 66.9265C0.687716 66.9265 0 66.3562 0 65.3162C0 64.2762 0.687716 63.7059 1.42575 63.7059C2.16379 63.7059 2.8515 64.2762 2.8515 65.3162ZM1.09028 65.3162C1.09028 66.0542 1.24124 66.3226 1.42575 66.3226C1.61026 66.3226 1.76122 66.0542 1.76122 65.3162C1.76122 64.5782 1.61026 64.3098 1.42575 64.3098C1.24124 64.3098 1.09028 64.5782 1.09028 65.3162Z" fill="white"/>
<path d="M4.88125 63.1356C4.86448 63.1189 4.78061 63.0685 4.64642 63.0685C4.39482 63.0685 4.26063 63.2698 4.26063 63.4711C4.26063 63.5885 4.29418 63.7227 4.32772 63.773H4.78061V64.3601H4.31095V65.6014C4.31095 66.0375 4.31095 66.4568 4.36127 66.8426H3.27099C3.32131 66.4568 3.32131 66.0375 3.32131 65.6014V64.3601H2.98584V63.773H3.32131V63.5382C3.32131 63.186 3.38841 62.9344 3.67356 62.6995C3.92516 62.4982 4.22708 62.4312 4.49546 62.4312C4.64642 62.4312 4.79738 62.4479 4.88125 62.4815V63.1356Z" fill="white"/>
<path d="M7.83327 62.8506C7.81649 63.0351 7.81649 63.4041 7.81649 63.7899H8.26938V64.377H7.81649V65.9201C7.81649 66.1717 7.90036 66.3059 8.15196 66.3059C8.18551 66.3059 8.21906 66.3059 8.28615 66.3059V66.8595C8.08487 66.9266 7.88359 66.9433 7.66553 66.9433C7.39716 66.9433 7.1791 66.8427 7.01136 66.6582C6.87717 66.5072 6.82685 66.2556 6.82685 65.9369V64.3938H6.47461V63.8067H6.82685C6.82685 63.4209 6.82685 63.0686 6.81008 62.8674H7.83327V62.8506Z" fill="white"/>
<path d="M9.59465 62.4983V63.9408C9.79593 63.8066 10.0475 63.6892 10.2991 63.6892C10.9198 63.6892 11.1714 64.1589 11.1714 64.813V65.5846C11.1714 66.0207 11.1714 66.4401 11.2217 66.8259H10.1314C10.1817 66.4401 10.1817 66.0207 10.1817 65.5846V64.7459C10.1817 64.4943 10.0811 64.3434 9.8798 64.3434C9.74561 64.3434 9.59465 64.4273 9.59465 64.5111V65.5846C9.59465 66.0207 9.59465 66.4401 9.64497 66.8259H8.55469C8.60501 66.4401 8.60501 66.0207 8.60501 65.5846V63.7395C8.60501 63.3034 8.60501 62.8841 8.55469 62.4983H9.59465Z" fill="white"/>
<path d="M12.6471 65.7356C12.731 66.0711 12.9322 66.2891 13.2342 66.2891C13.4355 66.2891 13.6535 66.1885 13.838 65.9872L14.1735 66.373C13.9722 66.6246 13.5361 66.9097 12.9993 66.9097C12.1103 66.9097 11.54 66.222 11.54 65.333C11.54 64.444 12.0936 63.6892 12.9658 63.6892C13.7877 63.6892 14.1735 64.3601 14.1903 65.1653L12.6471 65.7356ZM13.0161 64.9975C13.1671 64.9305 13.2006 64.8969 13.2006 64.7459C13.2006 64.4776 13.1 64.2931 12.9155 64.2931C12.6639 64.2931 12.5297 64.5782 12.5297 65.0143C12.5297 65.0646 12.5297 65.115 12.5465 65.1821L13.0161 64.9975Z" fill="white"/>
<path d="M19.1386 63.6724C18.9876 63.4712 18.6354 63.0854 18.1993 63.0854C17.5451 63.0854 17.2432 63.7563 17.2432 64.6118C17.2432 65.6182 17.629 66.222 18.2664 66.222C18.5347 66.222 18.8367 66.0878 19.0379 65.8866L19.3902 66.3059C19.1386 66.6078 18.6354 66.9433 17.998 66.9433C16.8742 66.9265 16.0522 66.0878 16.0522 64.8298C16.0522 63.6557 16.8071 62.4144 18.2999 62.4144C18.5851 62.4144 18.887 62.4647 19.1218 62.5486V63.6724H19.1386Z" fill="white"/>
<path d="M22.2587 65.3162C22.2587 66.3562 21.571 66.9265 20.833 66.9265C20.0949 66.9265 19.4072 66.3562 19.4072 65.3162C19.4072 64.2762 20.0949 63.7059 20.833 63.7059C21.571 63.7059 22.2587 64.2762 22.2587 65.3162ZM20.4807 65.3162C20.4807 66.0542 20.6317 66.3226 20.8162 66.3226C21.0007 66.3226 21.1517 66.0542 21.1517 65.3162C21.1517 64.5782 21.0007 64.3098 20.8162 64.3098C20.6485 64.3098 20.4807 64.5782 20.4807 65.3162Z" fill="white"/>
<path d="M22.7282 63.7563C22.8121 63.7395 23.1475 63.7059 23.3656 63.7059C24.6236 63.7059 25.0094 64.1924 25.0094 65.0143V65.7691C25.0094 66.0542 25.0094 66.3897 25.1604 66.8426H24.1875C24.1204 66.7419 24.0869 66.6749 24.0869 66.6581C23.9191 66.7755 23.7011 66.8929 23.3991 66.8929C22.8121 66.8929 22.4263 66.4903 22.4263 65.9704C22.4263 65.4168 22.8792 65.031 23.4495 64.8465L23.9527 64.6788C23.9527 64.4607 23.8017 64.2762 23.5166 64.2762C23.3153 64.2762 23.0133 64.3601 22.7114 64.5949V63.7563H22.7282ZM24.0365 65.2659C23.6507 65.3665 23.4159 65.6013 23.4159 65.9033C23.4159 66.1213 23.5501 66.2891 23.7514 66.2891C23.8856 66.2891 24.003 66.2052 24.0365 66.1549V65.2659Z" fill="white"/>
<path d="M27.7097 64.5614C27.5085 64.4104 27.3407 64.3266 27.1562 64.3266C26.7201 64.3266 26.4853 64.6956 26.4853 65.2659C26.4853 65.9536 26.7872 66.2891 27.173 66.2891C27.4246 66.2891 27.6259 66.1549 27.7097 66.0878L27.9949 66.4736C27.7265 66.7419 27.3407 66.9265 26.9214 66.9265C26.0492 66.9265 25.4453 66.2891 25.4453 65.4336C25.4453 64.5446 26.0995 63.7059 27.3072 63.7059C27.5085 63.7059 27.6762 63.7395 27.7265 63.7395V64.5614H27.7097Z" fill="white"/>
<path d="M29.102 62.4983V63.9408C29.3033 63.8066 29.5549 63.6892 29.8065 63.6892C30.4271 63.6892 30.6787 64.1589 30.6787 64.813V65.5846C30.6787 66.0207 30.6787 66.4401 30.729 66.8259H29.6387C29.689 66.4401 29.689 66.0207 29.689 65.5846V64.7459C29.689 64.4943 29.5884 64.3434 29.3871 64.3434C29.2529 64.3434 29.102 64.4273 29.102 64.5111V65.5846C29.102 66.0207 29.102 66.4401 29.1523 66.8259H28.062C28.1123 66.4401 28.1123 66.0207 28.1123 65.5846V63.7395C28.1123 63.3034 28.1123 62.8841 28.062 62.4983H29.102Z" fill="white"/>
<path d="M32.1549 65.7356C32.2388 66.0711 32.4401 66.2891 32.742 66.2891C32.9433 66.2891 33.1613 66.1885 33.3458 65.9872L33.6813 66.373C33.48 66.6246 33.0271 66.9097 32.5072 66.9097C31.6182 66.9097 31.0479 66.222 31.0479 65.333C31.0479 64.444 31.6014 63.6892 32.4736 63.6892C33.2955 63.6892 33.6813 64.3601 33.6981 65.1653L32.1549 65.7356ZM32.5239 64.9975C32.6749 64.9305 32.7084 64.8969 32.7084 64.7459C32.7084 64.4776 32.6078 64.2931 32.4233 64.2931C32.1717 64.2931 32.0375 64.5782 32.0375 65.0143C32.0375 65.0646 32.0375 65.115 32.0543 65.1821L32.5239 64.9975Z" fill="white"/>
<path d="M35.0234 62.4983V65.6014C35.0234 66.0375 35.0234 66.4568 35.0737 66.8426H33.9834C34.0337 66.4568 34.0337 66.0375 34.0337 65.6014V63.7395C34.0337 63.3034 34.0337 62.8841 33.9834 62.4983H35.0234Z" fill="white"/>
<path d="M36.6 62.4983V65.6014C36.6 66.0375 36.6 66.4568 36.6503 66.8426H35.5601C35.6104 66.4568 35.6104 66.0375 35.6104 65.6014V63.7395C35.6104 63.3034 35.6104 62.8841 35.5601 62.4983H36.6Z" fill="white"/>
<path d="M37.271 63.7563C37.3549 63.7395 37.6903 63.7059 37.9084 63.7059C39.1664 63.7059 39.5522 64.1924 39.5522 65.0143V65.7691C39.5522 66.0542 39.5522 66.3897 39.7032 66.8426H38.7471C38.68 66.7419 38.6464 66.6749 38.6464 66.6581C38.4787 66.7755 38.2606 66.8929 37.9587 66.8929C37.3716 66.8929 36.9858 66.4903 36.9858 65.9704C36.9858 65.4168 37.4387 65.031 38.009 64.8465L38.5122 64.6788C38.5122 64.4607 38.3613 64.2762 38.0761 64.2762C37.8748 64.2762 37.5729 64.3601 37.271 64.5949V63.7563ZM38.5961 65.2659C38.2103 65.3665 37.9755 65.6013 37.9755 65.9033C37.9755 66.1213 38.1097 66.2891 38.3109 66.2891C38.4451 66.2891 38.5626 66.2052 38.5961 66.1549V65.2659Z" fill="white"/>
<path d="M42.1686 62.4983C42.219 62.8506 42.3028 63.1693 42.3699 63.4377L42.8731 65.3498H42.8899L43.3428 63.8067C43.4602 63.4377 43.6279 62.8003 43.6615 62.4983H44.5673C44.4834 62.6996 44.366 63.0854 44.2989 63.2699L43.2925 66.4569L43.4099 66.8427H42.2525C42.0848 66.2053 41.9674 65.7692 41.33 63.6557C41.2461 63.3706 41.0784 62.8003 40.9609 62.4816H42.1686V62.4983Z" fill="white"/>
<path d="M44.6008 63.7563C44.6846 63.7395 45.0201 63.7059 45.2381 63.7059C46.4962 63.7059 46.882 64.1924 46.882 65.0143V65.7691C46.882 66.0542 46.882 66.3897 47.0329 66.8426H46.0601C45.993 66.7419 45.9594 66.6749 45.9594 66.6581C45.7917 66.7755 45.5736 66.8929 45.2717 66.8929C44.6846 66.8929 44.2988 66.4903 44.2988 65.9704C44.2988 65.4168 44.7517 65.031 45.322 64.8465L45.8252 64.6788C45.8252 64.4607 45.6743 64.2762 45.3891 64.2762C45.1878 64.2762 44.8859 64.3601 44.584 64.5949V63.7563H44.6008ZM45.9259 65.2659C45.5401 65.3665 45.3052 65.6013 45.3052 65.9033C45.3052 66.1213 45.4394 66.2891 45.6407 66.2891C45.7749 66.2891 45.8923 66.2052 45.9259 66.1549V65.2659Z" fill="white"/>
<path d="M48.4418 62.4983V65.6014C48.4418 66.0375 48.4418 66.4568 48.4921 66.8426H47.4019C47.4522 66.4568 47.4522 66.0375 47.4522 65.6014V63.7395C47.4522 63.3034 47.4522 62.8841 47.4019 62.4983H48.4418Z" fill="white"/>
<path d="M50.019 62.4983V65.6014C50.019 66.0375 50.019 66.4568 50.0693 66.8426H48.979C49.0293 66.4568 49.0293 66.0375 49.0293 65.6014V63.7395C49.0293 63.3034 49.0293 62.8841 48.979 62.4983H50.019Z" fill="white"/>
<path d="M51.545 65.7356C51.6289 66.0711 51.8302 66.2891 52.1321 66.2891C52.3334 66.2891 52.5515 66.1885 52.736 65.9872L53.0714 66.373C52.8702 66.6246 52.4173 66.9097 51.8973 66.9097C51.0083 66.9097 50.438 66.222 50.438 65.333C50.438 64.444 50.9915 63.6892 51.8637 63.6892C52.6856 63.6892 53.0714 64.3601 53.0882 65.1653L51.545 65.7356ZM51.9308 64.9975C52.0818 64.9305 52.1153 64.8969 52.1153 64.7459C52.1153 64.4776 52.0147 64.2931 51.8302 64.2931C51.5786 64.2931 51.4444 64.5782 51.4444 65.0143C51.4444 65.0646 51.4444 65.115 51.4612 65.1821L51.9308 64.9975Z" fill="white"/>
<path d="M54.2123 63.7731C54.2962 64.2427 54.531 65.115 54.6484 65.5175H54.6652C54.8329 64.8969 54.9671 64.1924 55.0175 63.7731H55.8897C55.6884 64.6117 55.2355 66.3059 54.8497 67.0942C54.6484 67.4968 54.3465 68 53.5078 68C53.424 68 53.2898 68 53.2227 67.9665V67.1949C53.273 67.2284 53.4072 67.2787 53.5582 67.2787C53.8769 67.2787 54.0949 67.0104 54.0949 66.7923C54.0949 66.6749 54.0781 66.6078 53.8265 65.9536C53.4911 65.0814 53.2562 64.1756 53.1724 63.7731H54.2123Z" fill="white"/>
<path d="M55.9229 67.5136C56.1913 67.3291 56.3422 67.0607 56.3422 66.8259C56.0906 66.8259 55.8726 66.6414 55.8726 66.3898C55.8726 66.1047 56.0906 65.8866 56.3925 65.8866C56.7448 65.8866 56.9293 66.1382 56.9293 66.4737C56.9293 66.9937 56.4764 67.4298 56.0571 67.7149L55.9229 67.5136Z" fill="white"/>
<path d="M60.1668 62.4983C60.0997 63.1189 60.0997 63.6389 60.0997 64.6789C60.0997 65.7188 60.0997 66.222 60.1668 66.8594H58.9927C59.0598 66.2388 59.0598 65.7188 59.0598 64.6789C59.0598 63.6389 59.0598 63.1357 58.9927 62.4983H60.1668Z" fill="white"/>
<path d="M61.4917 63.7731C61.542 63.8569 61.5588 63.9744 61.5756 64.0414C61.7936 63.8234 62.0285 63.6892 62.3472 63.6892C62.8671 63.6892 63.2026 64.075 63.2026 64.6453V65.5846C63.2026 66.0207 63.2026 66.4401 63.2529 66.8259H62.1627C62.213 66.4401 62.213 66.0207 62.213 65.5846V64.7459C62.213 64.5614 62.1291 64.4105 61.9446 64.4105C61.7936 64.4105 61.6259 64.5279 61.6259 64.6956V65.5846C61.6259 66.0207 61.6259 66.4401 61.6762 66.8259H60.5859C60.6363 66.4401 60.6363 66.0207 60.6363 65.5846V64.9975C60.6363 64.5614 60.6363 64.1421 60.5859 63.7563H61.4917V63.7731Z" fill="white"/>
<path d="M65.8865 64.5614C65.6852 64.4104 65.5175 64.3266 65.333 64.3266C64.8969 64.3266 64.662 64.6956 64.662 65.2659C64.662 65.9536 64.964 66.2891 65.3497 66.2891C65.6014 66.2891 65.8026 66.1549 65.8865 66.0878L66.1717 66.4736C65.9033 66.7419 65.5175 66.9265 65.0981 66.9265C64.2259 66.9265 63.6221 66.2891 63.6221 65.4336C63.6221 64.5446 64.2762 63.7059 65.4839 63.7059C65.6852 63.7059 65.853 63.7395 65.9033 63.7395V64.5614H65.8865Z" fill="white"/>
<path d="M67.0102 65.8698C67.2954 65.8698 67.5302 66.1046 67.5302 66.3897C67.5302 66.6749 67.2954 66.9097 67.0102 66.9097C66.7251 66.9097 66.4902 66.6749 66.4902 66.3897C66.507 66.1046 66.7251 65.8698 67.0102 65.8698Z" fill="white"/>
<path d="M38.1932 11.9092C38.1932 10.7519 37.2539 9.79578 36.0798 9.79578C34.9224 9.79578 33.9663 10.7351 33.9663 11.9092C33.9663 13.0666 34.9056 14.0227 36.0798 14.0227C37.2539 14.0227 38.1932 13.0834 38.1932 11.9092Z" fill="white"/>
<path d="M28.1627 16.2032C28.1627 15.0794 27.2569 14.1736 26.1331 14.1736C25.0093 14.1736 24.1035 15.0794 24.1035 16.2032C24.1035 17.327 25.0093 18.2328 26.1331 18.2328C27.2569 18.2328 28.1627 17.327 28.1627 16.2032Z" fill="white"/>
<path d="M48.1232 16.2032C48.1232 15.0794 47.2174 14.1736 46.0936 14.1736C44.9697 14.1736 44.064 15.0794 44.064 16.2032C44.064 17.327 44.9697 18.2328 46.0936 18.2328C47.2174 18.2328 48.1232 17.327 48.1232 16.2032Z" fill="white"/>
<path d="M30.746 17.26C30.746 17.26 29.3202 19.5915 25.1101 19.6753C25.1101 19.6753 24.1372 19.7424 20.5141 19.0044C20.5141 19.0044 17.5117 17.9477 17.2768 19.9102C17.2768 19.9102 16.9078 21.185 21.4199 22.4598C21.4199 22.4598 23.4495 22.9797 23.5334 25.1603C23.5334 25.1603 24.1372 30.7962 24.4391 33.3626C24.4391 33.3626 24.4391 36.2141 25.3449 36.4489C25.3449 36.4489 27.2235 36.9018 27.7603 35.8451C27.7603 35.8451 29.5718 26.2841 30.0247 23.7345C30.0247 23.7345 29.9409 22.3088 31.5343 20.7321L32.5911 19.6083C32.5911 19.6083 34.1678 29.6724 34.1678 32.2387C34.1678 32.6078 34.6207 35.5431 34.6207 35.5431C34.6207 35.5431 34.4697 36.365 35.8955 36.4489C35.8955 36.4489 37.4051 36.7508 37.707 35.3922C37.707 35.3922 39.5186 20.7153 39.6695 19.1386L41.4811 21.554C41.4811 21.554 42.6888 23.4326 42.9068 26.217C42.9068 26.217 43.3597 29.6053 44.4835 35.0232C44.4835 35.0232 44.4835 36.3818 46.0602 36.4489C46.0602 36.4489 47.5699 36.9689 47.9389 34.4193C47.9389 34.4193 48.7608 26.8209 48.8447 25.0932C48.8447 25.0932 48.6937 22.9797 51.3271 22.1578C51.3271 22.1578 53.5077 21.6379 54.0277 21.3359C54.0277 21.3359 55.1515 20.883 55.0844 19.5244C55.0844 19.5244 54.7825 18.0986 52.669 18.7025C52.669 18.7025 49.3646 19.6083 46.5802 19.7592C46.5802 19.7592 45.0035 19.9773 42.9739 18.4006L41.2462 16.8909L44.2487 13.3517C44.2487 13.3517 45.0035 12.1608 44.2823 11.6073C43.8461 11.2718 43.561 11.406 42.672 11.8421C42.672 11.8421 39.5857 14.5426 36.8851 15.4484C36.8851 15.4484 36.2142 15.8174 34.3355 15.1465C34.3355 15.1465 30.6621 12.9156 29.5551 12.2111C29.5551 12.2111 28.1629 11.6073 27.6429 12.2111C27.6429 12.2111 26.4352 12.815 29.2196 15.0626C29.1693 15.0794 31.4169 16.7232 30.746 17.26Z" fill="white"/>
<path d="M32.2557 0.855428C32.2557 0.855428 29.8403 -0.721286 27.2907 0.402542L10.8023 10.0306C10.8023 10.0306 9.07461 10.7854 10.7352 11.6073L16.673 14.6936C16.673 14.6936 18.5517 15.7503 21.0342 14.3917L34.0504 7.24615C34.0504 7.24615 36.231 5.97136 38.3445 7.24615L52.0317 13.8717C52.0317 13.8717 54.2961 14.9284 55.42 13.5027C55.42 13.5027 56.4767 12.3789 53.6923 11.0202L32.2557 0.855428Z" fill="white"/>
<path d="M19.4572 24.2545C19.4572 24.2545 21.1849 24.9255 21.4197 27.257C21.4197 27.257 22.0906 33.2787 22.0906 35.6102L15.0122 29.8905V22.074L19.4572 24.2545Z" fill="white"/>
</g>
<defs>
<clipPath id="clip0_680_7554">
<rect width="67.5303" height="68" fill="white"/>
</clipPath>
</defs>
</svg>
