<svg width="202" height="49" viewBox="0 0 202 49" fill="none" xmlns="http://www.w3.org/2000/svg">
<g clip-path="url(#clip0_658_6545)">
<path d="M21.5804 33.1259C23.9913 35.3858 24.535 38.3346 23.9204 41.5866C23.2113 45.3622 20.9422 48.0629 17.5149 48.2283C11.7002 48.5315 5.88556 48.311 0 48.311C0 38.2244 0 28.1378 0 18.0511C0.165458 17.996 0.330915 17.9133 0.472736 17.9133C5.98011 17.9409 11.4875 17.8031 16.9949 18.0787C21.9113 18.3267 24.795 22.874 24.015 28.5236C23.755 30.4252 22.8804 31.8858 21.5804 33.1259ZM5.60192 41.9173C9.1238 41.9173 12.5748 42 16.0257 41.8897C17.7512 41.8346 18.6258 40.6771 18.5549 38.996C18.484 37.2047 17.5621 36.2401 15.7657 36.2401C12.6457 36.2126 9.54926 36.2401 6.42921 36.2401C6.12193 36.2401 5.83829 36.3228 5.57828 36.3504C5.60192 38.2244 5.60192 40.0157 5.60192 41.9173ZM5.57828 30.1496C6.12193 30.1496 6.54739 30.1496 6.97285 30.1496C10.0456 30.1496 13.1184 30.1771 16.1912 30.0944C17.1603 30.0669 17.9876 29.5157 18.3894 28.3307C19.0985 26.1811 18.0821 24.5275 15.8603 24.4448C13.6621 24.3346 11.4402 24.4173 9.24198 24.4173C8.03651 24.4173 6.83103 24.4173 5.57828 24.4173C5.57828 26.374 5.57828 28.1378 5.57828 30.1496Z" fill="white"/>
<path d="M178.387 37.5905C178.387 34.0079 178.387 30.811 178.387 27.5866C178.387 24.4173 178.387 21.248 178.387 17.9685C180.231 17.9685 182.027 17.9685 183.918 17.9685C183.918 28.0551 183.918 38.1142 183.918 48.3937C182.169 48.3937 180.467 48.4488 178.741 48.3386C178.387 48.311 177.985 47.7598 177.725 47.3465C174.038 41.6142 170.374 35.8819 166.687 30.1496C166.427 29.7638 166.167 29.3779 165.67 28.6614C165.67 35.4409 165.67 41.8346 165.67 48.311C163.756 48.311 162.007 48.311 160.187 48.311C160.187 38.1693 160.187 28.0827 160.187 17.8583C161.912 17.8583 163.567 17.8031 165.198 17.9134C165.599 17.9409 166.048 18.4921 166.332 18.9331C170.067 24.7205 173.778 30.5354 177.512 36.3504C177.725 36.7087 177.961 36.9842 178.387 37.5905Z" fill="white"/>
<path d="M138.819 48.7795C137.543 48.5314 135.912 48.3936 134.375 47.9251C128.821 46.1614 125.441 41.0905 125.181 34.3661C124.944 28.1377 126.504 22.9291 131.421 19.7047C134.352 17.7755 137.59 17.2795 140.923 17.6653C142.128 17.8031 143.357 18.0511 144.516 18.4645C149.597 20.3385 152.552 24.4448 153.214 30.5905C154.041 38.2244 151.559 45.0039 144.87 47.6771C144.161 47.9527 143.428 48.1732 142.695 48.311C141.49 48.5039 140.308 48.6141 138.819 48.7795ZM139.15 42.1377C145.816 42.2204 149.479 36.4055 147.21 29.2952C146.619 27.4488 145.603 26.0157 144.043 25.2165C140.899 23.5905 137.684 23.5354 134.541 25.1062C131.468 26.6495 130.144 30.5629 130.853 35.4133C131.397 39.1338 133.832 41.5866 137.377 41.9999C137.968 42.0826 138.559 42.1102 139.15 42.1377Z" fill="white"/>
<path d="M95.0908 41.7795C96.6508 40.6496 98.1163 39.5748 99.5818 38.5275C102.867 42.9645 107.051 42.7165 111.353 41.7244C111.66 41.6417 112.038 41.559 112.227 41.311C112.724 40.6771 113.386 40.0157 113.528 39.2441C113.717 38.1968 113.008 37.37 112.18 37.122C110.786 36.7086 109.344 36.433 107.902 36.2126C105.609 35.8543 103.269 35.8267 101 35.2756C98.1636 34.5866 95.989 32.7952 95.4217 29.185C94.7835 25.2165 95.8945 22.0472 98.7782 19.7598C102.867 16.5078 112.842 16.0118 117.64 22.185C117.877 22.4881 118.089 22.7913 118.397 23.2047C116.978 24.5275 115.608 25.8228 114.213 27.1732C114.024 27.0354 113.835 26.9527 113.693 26.8149C110.455 23.5905 106.767 23.4803 102.891 24.6378C102.489 24.748 101.993 24.9409 101.733 25.2716C101.331 25.8228 100.858 26.5944 100.905 27.2007C100.953 27.807 101.496 28.6338 102.016 28.8818C102.891 29.3228 103.907 29.4606 104.876 29.5984C107.595 29.9842 110.384 30.0944 113.055 30.7559C116.718 31.6653 118.775 34.4212 119.035 38.059C119.342 42.248 117.782 45.5826 114.284 47.2637C109.131 49.7441 103.978 49.5236 99.0382 46.4094C97.3836 45.4173 96.1072 43.8464 95.0908 41.7795Z" fill="white"/>
<path d="M57.7212 48.4213C58.6667 46.1339 59.5176 44.0945 60.3921 42.0276C63.5595 34.3937 66.7741 26.7874 69.8941 19.1536C70.296 18.189 70.7687 17.8032 71.6905 17.8583C73.0615 17.941 74.456 17.8307 75.827 17.9134C76.2288 17.941 76.8197 18.2992 76.9852 18.7126C81.0271 28.3032 85.0217 37.8937 89.0399 47.4843C89.1345 47.7047 89.1818 47.9803 89.2999 48.3937C87.3617 48.3937 85.5181 48.4213 83.6744 48.3662C83.3907 48.3662 83.0362 47.8977 82.8944 47.5394C82.2325 46.0236 81.5943 44.5079 81.0271 42.937C80.7198 42.1378 80.3416 41.7795 79.5143 41.7795C75.5433 41.8347 71.596 41.8071 67.625 41.7795C66.9395 41.7795 66.5614 42 66.2777 42.7441C65.6632 44.3701 64.9777 45.9961 64.2686 47.5669C64.1031 47.9252 63.6777 48.3386 63.3467 48.3386C61.5267 48.4488 59.754 48.4213 57.7212 48.4213ZM73.5578 24.9134C72.0451 28.6063 70.6505 32.0512 69.2087 35.5512C72.1869 35.5512 74.9997 35.5512 77.907 35.5512C76.4652 31.9961 75.0706 28.5788 73.5578 24.9134Z" fill="white"/>
<path d="M32.9025 48.3386C32.8788 47.7598 32.8552 47.3464 32.8552 46.9606C32.8552 37.7835 32.8788 28.6063 32.8315 19.4291C32.8315 18.1063 33.1861 17.8031 34.2498 17.8583C35.6207 17.9685 36.9916 17.8858 38.4335 17.8858C38.4335 25.9331 38.4335 33.815 38.4335 41.9173C42.6172 41.9173 46.7063 41.9173 50.8664 41.9173C50.8664 44.1772 50.8664 46.2165 50.8664 48.3386C44.8627 48.3386 38.9535 48.3386 32.9025 48.3386Z" fill="white"/>
<path d="M136.857 14.6614C135.982 13.3386 135.037 12.2913 134.517 11.0236C133.642 8.8189 134.541 6.22835 136.55 5.37402C138.866 4.38189 140.568 2.81102 141.49 0C143.026 1.57087 144.468 2.97638 144.161 5.56693C143.948 7.33071 143.121 8.62598 141.726 9.14961C139.386 10.0039 137.85 11.7402 136.857 14.6614Z" fill="white"/>
<g clip-path="url(#clip1_658_6545)">
<path d="M202 24C202 27.3 199.3 30 196 30C192.7 30 190 27.3 190 24C190 20.7 192.7 18 196 18C199.6 18 202 20.7 202 24ZM191.5 24C191.5 26.7 193.3 28.8 196 28.8C198.7 28.8 200.5 26.7 200.5 24C200.5 21.3 198.7 19.2 196 19.2C193.6 19.2 191.5 21.3 191.5 24ZM195.1 27H193.9V21C194.2 21 195.1 21 196 21C197.2 21 197.8 21 198.1 21.3C198.4 21.6 198.7 21.9 198.7 22.5C198.7 23.1 198.1 23.7 197.5 24C198.1 24.3 198.4 24.6 198.7 25.5C198.7 26.4 198.7 26.7 199 27H197.5C197.2 26.7 197.2 26.1 196.9 25.5C196.9 24.9 196.3 24.6 195.7 24.6H195.1V27ZM195.1 23.7H195.7C196.6 23.7 197.2 23.4 197.2 22.8C197.2 22.2 196.9 21.9 196 21.9C195.7 21.9 195.4 21.9 195.1 21.9V23.7Z" fill="white"/>
</g>
</g>
<defs>
<clipPath id="clip0_658_6545">
<rect width="202" height="49" fill="white"/>
</clipPath>
<clipPath id="clip1_658_6545">
<rect width="12" height="12" fill="white" transform="translate(190 18)"/>
</clipPath>
</defs>
</svg>
