<svg width="128" height="46" viewBox="0 0 128 46" fill="none" xmlns="http://www.w3.org/2000/svg">
<g clip-path="url(#clip0_680_7627)">
<path d="M127.558 13.1035C127.834 12.8007 128 12.4153 128 11.9748C128 11.5344 127.834 11.0939 127.558 10.7636C127.227 10.4332 126.84 10.2681 126.371 10.2681C125.929 10.2681 125.57 10.4608 125.184 10.7636C124.88 11.0939 124.742 11.4793 124.742 11.9748C124.742 12.4153 124.88 12.8007 125.184 13.1035C125.543 13.4338 125.902 13.5439 126.371 13.5439C126.813 13.5439 127.227 13.4063 127.558 13.1035ZM127.641 29.7307V15.1131H125.184L125.239 29.7307H127.641ZM121.981 15.8563L121.567 15.6636C120.49 15.0305 119.165 14.7277 117.563 14.7277C115.852 14.7277 114.443 15.1406 113.394 15.9389C112.842 16.3518 112.483 16.7648 112.207 17.2878C111.931 17.7833 111.793 18.2788 111.793 18.8569C111.793 19.848 112.235 20.6738 113.063 21.3895C113.836 22.0778 114.968 22.6008 116.459 23.0688C117.729 23.4817 118.585 23.8946 119.137 24.28C119.579 24.7205 119.855 25.216 119.855 25.8492C119.855 26.5374 119.496 27.0604 118.861 27.5284C118.226 27.8863 117.315 28.1065 116.183 28.1065C114.968 28.1065 113.726 27.7761 112.455 27.198L112.124 26.9778L111.075 28.8773L111.434 29.07C112.842 29.7582 114.388 30.061 116.072 30.061C117.895 30.061 119.386 29.7031 120.573 28.8773C121.153 28.5194 121.567 28.0239 121.898 27.5284C122.202 26.9503 122.34 26.3171 122.34 25.684V25.6289C122.34 24.5553 121.898 23.5918 121.015 22.821C120.297 22.1879 119.109 21.6373 117.563 21.1969C116.376 20.7839 115.52 20.371 115.023 20.0682C114.471 19.6553 114.25 19.2148 114.25 18.7193C114.25 18.1412 114.471 17.6732 114.968 17.2603C115.52 16.9024 116.238 16.6822 117.177 16.6822C118.502 16.6822 119.579 16.9024 120.435 17.453L120.766 17.6732L121.981 15.8563ZM107.182 16.9299C105.498 15.4709 103.427 14.7277 101.025 14.7277C98.6781 14.7277 96.7178 15.4434 95.144 16.8474C93.377 18.444 92.4658 20.5912 92.4658 23.4542V34.7959H94.8127V27.4733C95.5306 28.2992 96.4417 28.9323 97.5461 29.3728C98.6229 29.8683 99.8101 30.0885 101.08 30.0885C103.482 30.0885 105.525 29.3728 107.21 27.8312C108.921 26.3447 109.805 24.5278 109.805 22.4081C109.777 20.2334 108.921 18.4165 107.182 16.9299ZM101.025 16.7648C102.792 16.7648 104.338 17.3153 105.525 18.389C106.74 19.4626 107.375 20.839 107.375 22.4632C107.375 24.0048 106.823 25.2711 105.746 26.3447C104.559 27.4733 102.985 28.0514 101.08 28.0514C99.1751 28.0514 97.6289 27.4733 96.4141 26.3447C95.2821 25.216 94.7299 23.9497 94.7299 22.4632C94.7299 20.9766 95.2821 19.6553 96.4141 18.5817C97.5737 17.3979 99.1199 16.7648 101.025 16.7648ZM88.6833 17.6457C87.1095 15.6636 84.8179 14.7001 81.7808 14.7001C79.5168 14.7001 77.5564 15.3333 75.8722 16.6822C74.05 18.0861 73.1388 19.9856 73.1388 22.3255C73.1388 23.6469 73.4978 24.9407 74.2709 26.1795C74.9611 27.3632 75.9827 28.2992 77.3908 29.0149C78.7989 29.7031 80.2898 30.0059 81.9188 30.0059C83.465 30.0059 84.9007 29.7031 86.3088 29.0149C87.7169 28.2992 88.7661 27.3357 89.4287 26.1795L89.8705 25.4087H87.2476C86.6954 26.1795 85.9223 26.8126 84.9283 27.3082C83.9344 27.8037 82.8299 28.0239 81.8084 28.0239C80.345 28.0239 79.1302 27.666 78.0534 26.9503C76.9766 26.1795 76.2312 25.2435 75.7894 23.9772C77.2803 23.3991 78.7713 23.0688 80.4279 23.0688L82.8852 23.3441L86.6954 23.7019C87.8826 23.7019 88.8765 23.5092 89.7877 23.2615C90.1466 23.1238 90.3675 22.9311 90.4779 22.7109C90.616 22.5182 90.616 22.2154 90.5331 21.8575C90.2847 20.2334 89.6772 18.8294 88.6833 17.6457ZM88.0482 21.362L88.1035 21.4446L86.7782 21.6373L83.9344 21.362L79.9309 21.0317H79.2407C77.9706 21.1143 76.7834 21.362 75.6514 21.7474C75.8446 20.0682 76.6453 18.7743 77.9982 17.8109C79.1302 17.0951 80.4003 16.6822 81.7532 16.6822C83.8791 16.6822 85.5081 17.3704 86.7506 18.7193C87.4132 19.5451 87.8826 20.4261 88.0482 21.362ZM62.6194 14.7277C60.3002 14.7277 58.3123 15.4434 56.7109 16.8474C54.9438 18.444 54.0879 20.5912 54.0879 23.4542L54.0327 34.7959H56.49L56.4348 27.4733C57.1526 28.2992 58.0638 28.9323 59.113 29.3728C60.245 29.8683 61.4322 30.0885 62.7023 30.0885C65.1043 30.0885 67.1475 29.3728 68.8317 27.8312C70.5435 26.3447 71.3718 24.5278 71.3718 22.4081C71.3718 20.2334 70.5435 18.4165 68.8869 16.9299C67.1475 15.4985 65.1043 14.7277 62.6194 14.7277ZM57.9809 18.5541C59.1958 17.3704 60.7143 16.7372 62.6194 16.7372C64.4417 16.7372 65.9326 17.2878 67.1475 18.3614C68.3623 19.435 68.9697 20.8115 68.9697 22.4356C68.9697 23.9772 68.4175 25.2435 67.396 26.3171C66.2087 27.4458 64.6626 28.0239 62.6746 28.0239C60.8248 28.0239 59.2234 27.4458 58.0086 26.3171C56.9318 25.1885 56.3796 23.9222 56.3796 22.4356C56.352 20.9491 56.9042 19.6553 57.9809 18.5541Z" fill="white"/>
<path d="M36.9146 4.67983C36.6937 4.51466 36.5004 4.34949 36.3348 4.15679C32.4418 1.45901 27.8033 0 23.0544 0C10.3261 0 0 10.2956 0 22.9862C0 27.9413 1.60138 32.7588 4.55565 36.7229C12.2588 34.4381 18.9957 30.5015 24.7662 24.7756C30.5367 19.1047 34.5953 12.3878 36.9146 4.67983Z" fill="white"/>
<path d="M23.0544 45.9999C35.7826 45.9999 46.1088 35.7043 46.1088 23.0137C46.1088 18.5266 44.8111 14.3147 42.5747 10.7911C42.5195 10.736 42.4643 10.681 42.409 10.5984C42.8784 12.14 43.1269 13.7366 43.1269 15.3608C43.1269 17.976 42.5195 20.4536 41.3322 22.766C40.145 24.9682 38.516 26.8677 36.5005 28.3542C34.8991 29.5379 32.9664 30.5565 30.6748 31.3548C28.8525 32.0155 26.5057 32.7037 23.579 33.3644L15.158 35.2639C11.5687 36.0897 8.31067 36.9706 5.41162 37.8515C9.66356 42.8066 15.9863 45.9999 23.0544 45.9999Z" fill="white"/>
</g>
<defs>
<clipPath id="clip0_680_7627">
<rect width="128" height="46" fill="white"/>
</clipPath>
</defs>
</svg>
