<svg width="80" height="68" viewBox="0 0 80 68" fill="none" xmlns="http://www.w3.org/2000/svg">
<g clip-path="url(#clip0_680_7542)">
<path d="M20.5698 57.1201C17.3398 54.4001 16.8298 50.4901 15.4698 47.0901C14.6198 44.8801 13.0898 43.0101 11.5598 41.1401C13.5998 46.9201 12.4098 51.0001 17.3398 55.0801C16.4898 54.7401 15.6398 54.0601 14.9598 53.5501C11.0498 50.3201 5.26984 49.8101 2.88984 44.5401C3.56984 48.4501 6.62984 51.8501 9.85984 54.0601C13.0898 56.1001 17.1698 55.9301 20.5698 57.1201ZM29.0698 59.1601C29.5798 58.9901 30.2598 58.9901 30.9398 58.8201C28.5598 58.4801 26.3498 57.6301 24.6498 56.1001C22.0998 53.7201 19.8898 51.3401 17.1698 49.4701C20.0598 55.2501 21.0798 57.6301 25.8398 58.6501C25.8398 58.6501 24.4798 58.4801 23.7998 58.3101C18.6998 57.2901 12.5798 58.6501 8.83984 54.4001C10.3698 57.1201 13.2598 59.3301 15.9798 60.3501C20.3998 61.7101 24.9898 60.1801 29.0698 59.1601ZM35.8698 58.8201C27.7098 58.8201 23.4598 65.9601 15.4698 61.2001C19.3798 65.9601 25.6698 66.3001 30.7698 63.0701C32.8098 61.7101 34.6798 59.8401 37.2298 59.8401C41.1398 59.8401 45.3898 63.9201 48.9598 67.6601C49.6398 67.1501 50.1498 66.6401 50.6598 66.1301C46.9198 62.5601 41.4798 58.8201 35.8698 58.8201ZM12.9198 50.8301C12.9198 50.8301 11.8998 48.9601 11.5598 47.7701C10.3698 43.1801 11.0498 37.5701 9.00984 33.1501C9.34984 35.7001 8.32984 37.9101 8.15984 40.2901C7.81984 43.5201 9.00984 45.7301 9.85984 47.2601C9.85984 47.2601 8.66984 45.7301 8.15984 44.8801C5.77984 41.1401 0.849844 38.5901 0.509844 34.0001C-0.170156 44.0301 6.79984 46.7501 12.9198 50.8301ZM10.5398 21.0801C11.2198 19.7201 11.5598 18.0201 11.8998 16.4901C11.5598 17.1701 11.2198 17.8501 10.7098 18.3601C7.47984 21.0801 5.60984 22.6101 4.75984 26.8601L5.09984 23.1201C5.43984 19.3801 3.39984 15.3001 5.60984 12.0701C3.39984 14.4501 2.20984 17.5101 2.20984 20.5701C2.20984 24.6501 4.58984 27.5401 4.75984 31.4501C5.43984 27.3701 8.83984 24.4801 10.5398 21.0801ZM9.34984 13.6001C10.8798 12.2401 12.7498 11.0501 14.1098 9.35006C15.6398 7.31006 16.9998 4.93006 19.0398 3.06006C16.3198 4.25006 13.2598 5.27006 11.3898 8.16006C10.3698 9.86006 10.1998 11.9001 9.34984 13.6001ZM5.94984 21.7601C6.62984 20.4001 7.81984 19.0401 9.00984 18.0201C12.0698 15.8101 15.1298 12.9201 15.2998 9.18006C13.5998 13.2601 8.32984 13.9401 7.13984 18.1901C7.13984 18.1901 7.81984 15.6401 7.98984 15.1301C8.83984 12.2401 8.66984 8.84006 11.5598 6.97006C5.94984 8.16006 5.60984 14.2801 5.94984 18.8701C5.94984 19.8901 6.11984 20.7401 5.94984 21.7601ZM6.79984 41.4801C6.79984 41.4801 6.45984 38.2501 6.96984 36.8901C8.32984 32.8101 9.68984 28.3901 9.51984 24.1401C8.15984 29.2401 3.90984 30.9401 5.77984 37.9101C5.09984 36.5501 4.92984 35.0201 4.41984 33.6601C3.39984 29.9201 0.509844 26.6901 1.35984 22.2701C-0.000156254 26.1801 -0.000156254 29.2401 1.35984 33.3201C2.20984 36.3801 5.26984 38.5901 6.79984 41.4801Z" fill="white"/>
<path d="M59.3301 57.1201C62.5601 54.4001 63.0701 50.4901 64.4301 47.0901C65.2801 44.8801 66.8101 43.0101 68.3401 41.1401C66.3001 46.9201 67.4901 51.0001 62.5601 55.0801C63.4101 54.7401 64.2601 54.0601 64.9401 53.5501C68.8501 50.3201 74.6301 49.8101 77.0101 44.5401C76.3301 48.4501 73.2701 51.8501 70.0401 54.0601C66.8101 56.1001 62.7301 55.9301 59.3301 57.1201ZM50.8301 59.1601C50.3201 58.9901 49.6401 58.9901 48.9601 58.8201C51.3401 58.4801 53.5501 57.6301 55.2501 56.1001C57.8001 53.7201 60.0101 51.3401 62.7301 49.4701C59.8401 55.2501 58.8201 57.6301 54.0601 58.6501C54.0601 58.6501 55.4201 58.4801 56.1001 58.3101C61.2001 57.2901 67.3201 58.6501 71.0601 54.4001C69.5301 57.1201 66.6401 59.3301 63.9201 60.3501C59.5001 61.7101 54.9101 60.1801 50.8301 59.1601ZM44.0301 58.8201C52.1901 58.8201 56.4401 65.9601 64.4301 61.2001C60.5201 65.9601 54.2301 66.3001 49.1301 63.0701C47.0901 61.7101 45.2201 59.8401 42.6701 59.8401C38.7601 59.8401 34.5101 63.9201 30.9401 67.6601C30.2601 67.1501 29.7501 66.6401 29.2401 66.1301C32.9801 62.5601 38.4201 58.8201 44.0301 58.8201ZM66.9801 50.8301C66.9801 50.8301 68.0001 48.9601 68.3401 47.7701C69.5301 43.1801 68.8501 37.5701 70.8901 33.1501C70.5501 35.7001 71.5701 37.9101 71.7401 40.2901C72.0801 43.5201 70.8901 45.7301 70.0401 47.2601C70.0401 47.2601 71.2301 45.7301 71.7401 44.8801C74.1201 41.1401 79.0501 38.5901 79.3901 34.0001C80.0701 44.0301 73.1001 46.7501 66.9801 50.8301ZM69.3601 21.0801C68.6801 19.7201 68.3401 18.0201 68.0001 16.4901C68.3401 17.1701 68.6801 17.8501 69.1901 18.3601C72.4201 21.0801 74.2901 22.6101 75.1401 26.8601L74.8001 23.1201C74.4601 19.3801 76.5001 15.3001 74.2901 12.0701C76.5001 14.4501 77.6901 17.5101 77.6901 20.5701C77.6901 24.6501 75.3101 27.5401 75.1401 31.4501C74.4601 27.3701 71.0601 24.4801 69.3601 21.0801ZM70.5501 13.6001C69.0201 12.2401 67.1501 11.0501 65.7901 9.35006C64.2601 7.31006 62.9001 4.93006 60.8601 3.06006C63.5801 4.25006 66.6401 5.27006 68.5101 8.16006C69.5301 9.86006 69.7001 11.9001 70.5501 13.6001ZM73.9501 21.7601C73.2701 20.4001 72.0801 19.0401 70.8901 18.0201C67.8301 15.8101 64.7701 12.9201 64.6001 9.18006C66.3001 13.2601 71.5701 13.9401 72.7601 18.1901C72.7601 18.1901 72.0801 15.6401 71.9101 15.1301C71.0601 12.2401 71.2301 8.84006 68.3401 6.97006C73.9501 8.16006 74.2901 14.2801 73.9501 18.8701C73.9501 19.8901 73.7801 20.7401 73.9501 21.7601ZM73.1001 41.4801C73.1001 41.4801 73.4401 38.2501 72.9301 36.8901C71.5701 32.8101 70.2101 28.3901 70.3801 24.1401C71.7401 29.2401 75.9901 30.9401 74.1201 37.9101C74.8001 36.5501 74.9701 35.0201 75.4801 33.6601C76.5001 29.9201 79.3901 26.6901 78.5401 22.2701C79.9001 26.1801 79.9001 29.2401 78.5401 33.3201C77.6901 36.3801 74.6301 38.5901 73.1001 41.4801Z" fill="white"/>
<path d="M39.9502 56.1001C55.254 56.1001 67.6602 43.6939 67.6602 28.3901C67.6602 13.0862 55.254 0.680054 39.9502 0.680054C24.6464 0.680054 12.2402 13.0862 12.2402 28.3901C12.2402 43.6939 24.6464 56.1001 39.9502 56.1001Z" stroke="white"/>
<path d="M39.95 50.3201C52.0616 50.3201 61.88 40.5017 61.88 28.3901C61.88 16.2785 52.0616 6.46008 39.95 6.46008C27.8384 6.46008 18.02 16.2785 18.02 28.3901C18.02 40.5017 27.8384 50.3201 39.95 50.3201Z" stroke="white"/>
<path d="M39.95 45.0501C49.1511 45.0501 56.61 37.5912 56.61 28.3901C56.61 19.189 49.1511 11.7301 39.95 11.7301C30.749 11.7301 23.29 19.189 23.29 28.3901C23.29 37.5912 30.749 45.0501 39.95 45.0501Z" stroke="white"/>
<path d="M39.9503 39.27C45.9592 39.27 50.8303 34.3989 50.8303 28.39C50.8303 22.3812 45.9592 17.51 39.9503 17.51C33.9415 17.51 29.0703 22.3812 29.0703 28.39C29.0703 34.3989 33.9415 39.27 39.9503 39.27Z" stroke="white"/>
<path d="M39.9503 34C43.0486 34 45.5603 31.4883 45.5603 28.39C45.5603 25.2917 43.0486 22.78 39.9503 22.78C36.852 22.78 34.3403 25.2917 34.3403 28.39C34.3403 31.4883 36.852 34 39.9503 34Z" stroke="white"/>
<path d="M39.9502 0.680054V22.7801M39.9502 34.0001V56.1001M20.4002 8.84005L36.0402 24.4801M43.8602 32.3001L59.5002 47.9401M12.2402 28.3901H34.3402M45.5602 28.3901H67.6602M20.4002 47.9401L36.0402 32.3001M43.8602 24.4801L59.5002 8.84005" stroke="white"/>
<path d="M38.6071 35.224C38.6751 35.088 38.8111 34.544 38.9811 34.714C39.1511 34.884 39.2531 34.714 39.2531 34.714C39.2531 34.714 39.3381 34.799 39.2871 34.969C39.2531 35.139 39.2021 35.309 39.1001 35.343C38.9981 35.36 38.9131 35.428 38.7771 35.445C38.6751 35.462 38.6071 35.224 38.6071 35.224ZM40.0011 35.003C40.0351 34.969 40.0861 35.139 40.1711 35.105C40.2561 35.088 40.2901 35.258 40.2051 35.258C40.1201 35.258 40.1201 35.36 40.1201 35.411C40.1201 35.462 40.1201 35.564 40.0521 35.632C39.9841 35.7 39.9331 35.649 39.8481 35.615C39.7631 35.564 39.7291 35.564 39.6101 35.564C39.5081 35.564 39.5931 35.734 39.5931 35.734C39.5931 35.734 39.1511 35.717 39.2361 35.649C39.3211 35.581 39.4061 35.564 39.3381 35.513C39.2701 35.462 39.3381 35.428 39.3381 35.343C39.3381 35.258 39.5421 35.292 39.4911 35.241C39.4231 35.173 39.4911 34.935 39.5931 35.071L39.6611 34.918C39.5931 34.85 39.6441 34.833 39.5081 34.782C39.3891 34.731 39.4911 34.476 39.4911 34.476L39.5081 34.306C39.5421 34.085 39.9671 34.068 40.0011 34.255C40.0181 34.442 40.0011 34.578 40.0011 34.578L40.1201 34.629C40.1201 34.629 40.1031 34.765 40.0011 34.765C39.8991 34.765 40.0011 34.833 39.9331 34.901L40.0011 35.003ZM55.6581 24.667C55.5391 24.786 55.2841 24.837 55.2841 24.837L55.1991 25.16L55.0631 25.279C55.0631 25.279 55.0971 25.364 55.0631 25.568C55.0291 25.772 54.7741 25.891 54.7741 25.891L54.6551 26.027C54.6551 26.027 53.9751 26.061 53.8901 26.027C53.6351 25.908 53.8051 25.568 53.9751 25.602C54.1451 25.636 53.9411 25.109 53.9411 25.109L54.1621 25.075C54.1621 25.075 54.1961 24.565 54.2811 24.565C54.3661 24.565 54.2471 24.395 54.1451 24.31C54.0261 24.225 53.8901 23.936 53.7711 23.97C53.6521 24.004 53.2101 23.97 53.2101 23.97L53.1251 24.14L52.8191 24.191C52.8191 24.191 52.8531 24.412 52.7851 24.48C52.6151 24.684 51.9691 25.109 52.2411 24.395L52.3261 24.225V23.97L51.8161 23.936C51.8161 23.936 51.5611 23.851 51.5611 23.732C51.5611 23.613 51.5271 23.477 51.5271 23.477L50.9321 22.814L50.2181 22.729L50.1671 22.593L49.7421 22.542C49.2321 22.287 48.7731 22.508 48.8581 22.95C48.9431 23.375 49.0791 23.545 48.8071 23.545C48.5181 23.545 48.4671 23.324 48.4671 23.324C48.4671 23.324 48.2461 23.239 48.2461 23.358C48.2461 23.477 48.1611 23.698 48.2461 23.817C48.3311 23.936 48.1271 24.106 48.0421 24.021C47.9571 23.936 47.7361 23.681 47.7871 23.596C47.8381 23.511 47.3961 22.967 47.8381 22.882C48.2971 22.797 47.8041 22.542 47.9741 22.474L48.1951 22.355H48.4161L48.5521 22.236L48.1781 22.185L47.9571 22.151L47.5321 22.117C47.1071 22.406 47.0221 22.746 47.0221 22.746C46.8011 23.171 46.2571 22.576 46.4611 22.338C46.6651 22.1 45.8321 22.304 45.6961 22.423C45.5601 22.542 45.1351 22.474 45.1351 22.474C45.0501 22.729 44.6591 22.44 44.7611 22.27C44.8801 22.1 44.8801 21.981 44.8801 21.981L44.7441 21.947L44.5741 22.27C44.1831 22.27 44.0641 22.491 44.1491 22.644C44.2341 22.78 44.0301 22.61 43.9791 22.814C43.9281 23.018 44.0131 23.018 44.1831 23.103C44.3531 23.188 44.0981 23.188 44.2171 23.324C44.3361 23.46 44.6761 23.324 44.4721 23.528C44.2681 23.732 43.8771 23.647 43.8771 23.647C43.8431 23.902 43.3161 23.851 43.2481 23.766C43.1971 23.681 42.7721 23.171 42.7721 23.171L42.2281 23.137C42.1771 22.729 42.4831 22.933 42.6021 22.627C42.7211 22.304 42.7721 21.794 42.7721 21.794C42.7721 21.794 42.3131 21.76 42.2961 21.913C42.2621 22.049 41.9901 22.151 41.9901 22.151C41.9901 22.151 41.7691 22.236 41.8541 22.355C41.9391 22.474 41.6841 22.525 41.6841 22.525C41.6841 22.525 41.7351 22.712 41.6501 22.78C41.4291 23.018 40.8511 22.814 40.7661 22.729L40.4261 22.593L40.0861 22.372L39.6951 22.542L39.5761 22.661H39.1511L39.1171 23.001L39.8821 23.086L39.9331 23.8L39.6271 23.698H39.4231L39.3381 23.528L39.1681 23.494V24.123L39.3381 24.259L39.4741 24.395L39.7631 24.429L39.8141 24.769L40.5281 24.803L40.6131 24.939L41.0381 24.973L41.8541 25.806L41.8031 26.061L41.6671 26.146C41.7181 26.35 41.2931 26.231 41.2931 26.231V26.401L41.4971 26.435L41.7011 26.554L41.9901 26.061C42.2961 25.857 42.4491 26.146 42.4661 26.316C42.5001 26.486 42.3301 26.452 42.3301 26.452V26.86L42.5001 26.911C42.7891 27.251 42.3811 27.455 42.3811 27.455L42.2961 27.744C42.2111 27.999 41.9051 27.948 41.9051 27.948L41.7861 28.118L41.4461 28.203L42.1091 28.288C42.1771 28.05 42.3471 27.999 42.4321 28.118C42.5171 28.237 42.5171 28.441 42.5171 28.441L42.6871 28.475L42.6531 28.798L42.8231 28.849V29.767L43.0271 29.988C43.3671 29.852 43.3671 30.073 43.1971 30.192C43.0271 30.311 43.1461 30.821 43.1461 30.821L43.0101 30.957V31.195L42.8401 31.314V31.637C42.5511 31.501 42.2111 31.552 42.1261 31.637C41.8711 31.467 41.3271 31.518 41.3271 31.671C41.4971 31.892 41.1231 31.96 41.1231 31.96L40.9191 32.181C41.0551 32.47 40.7831 32.504 40.7831 32.504V33.048L40.4431 33.371L40.4771 34.119C40.4771 34.323 40.9021 34.34 40.9871 34.238C41.0721 34.119 41.4121 34.476 41.4121 34.476H41.6671L41.7181 33.966L41.5481 33.881V33.048L41.8371 32.725C42.1771 32.606 42.0581 33.473 42.0581 33.558C42.0921 33.881 42.2281 33.847 42.3641 33.779C42.6531 33.66 42.4151 34.102 42.1941 34.068C41.9731 34.034 42.1091 34.357 42.1091 34.357L42.2451 34.408L41.9901 34.612L41.7691 34.867L41.4801 34.782L41.1401 34.748L41.0211 34.544L40.8171 34.51L40.7831 34.918L40.6471 35.088L40.3071 35.428C40.7661 35.428 40.2561 35.751 40.1371 35.751C40.3921 35.836 40.1031 36.091 39.4571 35.887V36.091L39.2361 36.125L39.4401 36.346L39.6611 36.38L39.5761 36.873C39.5761 37.247 38.6411 36.992 38.5561 36.907L38.5221 37.417L38.3521 37.451L38.3861 37.791L38.3521 38.284L38.6581 38.233V38.437L39.4231 38.471L40.5281 37.298L41.1741 37.162C41.2251 36.873 41.5141 37.213 41.5141 37.213C41.8031 37.179 41.8541 37.383 41.8541 37.383L42.2281 37.434C42.5341 37.519 42.3471 37.553 42.3641 37.672C42.3981 37.842 42.5341 37.791 42.5341 37.791L42.5851 37.417L42.7551 37.451L42.5851 37.247L42.2791 37.111L41.9391 36.975C41.7181 36.652 41.9901 36.72 42.2281 36.754H42.6021C42.6021 36.754 43.0271 37.332 43.0271 37.468C43.0271 37.604 43.2311 37.638 43.2311 37.638L43.4861 37.604L43.5711 37.808H43.8261L43.9111 37.978H44.4211L44.4551 37.723L43.9791 37.638L43.9451 37.349L43.6051 37.264C43.4861 36.771 43.6901 36.635 43.8261 36.856L43.9961 36.89L43.9451 36.465L44.1491 36.414L44.0981 35.819L43.9281 35.768V35.564L44.6421 35.598C44.5911 35.224 44.6761 35.054 44.6761 35.054H44.8801L44.9141 35.19L45.7811 35.275L46.3931 34.578C46.3591 34.527 46.4611 34.493 46.3931 34.425C46.3081 34.34 46.1891 34.425 46.0531 34.34C45.9171 34.255 46.0531 33.762 46.0191 33.66C45.9851 33.541 46.4951 33.371 46.4101 33.626C46.3251 33.881 46.4101 34 46.4101 34C46.7841 33.66 47.0901 34.034 47.0561 34.119C47.0221 34.204 47.2601 34.289 47.3961 34.204C47.5321 34.119 47.7021 34.459 47.6511 34.629C47.6001 34.799 47.0901 34.765 47.0561 34.595C47.0221 34.425 46.9371 34.476 46.8861 34.561C46.8351 34.646 46.5801 34.697 46.4271 34.612C46.3931 34.595 46.3931 34.578 46.3761 34.561L45.7641 35.258H45.7981C46.1381 35.462 45.9681 35.717 45.8491 35.768C45.7301 35.819 45.5431 35.819 45.5431 35.819L45.4921 35.938L44.7611 35.989L44.7101 36.278C44.3361 36.227 44.2001 36.618 44.2851 36.822C44.3701 37.026 44.2851 37.196 44.2851 37.196L44.5911 37.332L44.9821 37.213C45.0331 36.924 45.2881 36.873 45.5261 36.703C45.7471 36.533 46.1211 37.026 46.0021 37.247C45.8831 37.468 45.8831 37.57 45.8831 37.57L45.9171 37.825L45.6281 37.944L45.4071 38.063L45.3731 38.199H44.6081L44.4721 38.335L44.0981 38.369L43.9791 38.539L43.7241 38.573C43.7241 38.573 43.2991 38.777 43.4691 38.998C43.6391 39.236 42.7551 39.202 42.5681 38.879C42.5171 39.168 42.1941 38.913 42.1941 38.913L41.8881 38.828L41.8541 38.403C41.8031 38.114 41.2591 38.114 41.2931 38.318C41.3271 38.522 40.2731 38.403 40.2731 38.403L39.9331 38.573L39.6271 38.76L39.5931 38.896L39.0831 38.947L38.8621 39.066L38.7771 38.896H38.5561L38.3351 39.219C37.7401 39.253 37.1791 39.593 37.2301 39.729C37.2811 39.865 37.0091 40.018 37.0091 40.018L36.7541 40.103L36.5841 40.358L36.2441 40.477L36.1931 41.072L36.0231 41.191V41.446L35.8191 41.497V41.633L35.5301 41.667L35.7001 42.092L35.9211 42.211C36.3121 42.262 36.1421 42.755 36.1421 42.755L36.3631 42.789L36.4821 43.112L36.7031 43.571C36.7881 43.911 37.0431 43.826 37.1621 43.809C37.2811 43.775 37.3831 44.149 37.3831 44.149L38.5051 44.183C38.5051 44.183 38.4541 44.302 38.6411 44.353C38.8451 44.404 40.1371 44.472 40.1881 44.387C40.1371 44.132 40.9021 44.064 41.2081 44.302C41.5141 44.523 41.9391 44.387 41.9391 44.387L42.3641 44.897L42.6531 45.526L43.1291 45.662L43.4691 45.747L43.5881 46.24L43.8431 46.274L43.9281 46.597C44.2341 46.818 43.8431 47.311 43.8431 47.311V47.94L44.0641 48.059L44.0301 48.297L44.4041 48.671L44.8291 48.705L45.9001 49.844L46.7501 50.099L46.8861 50.558L47.1071 50.524L47.2771 50.388L47.9571 50.354L48.2971 50.031L48.6711 49.98L51.8161 47.311L51.5271 47.141V46.512C52.0371 46.138 52.0711 45.475 51.5781 45.424C51.2211 45.373 51.3741 44.999 51.7141 44.931L51.9181 44.846V44.591L52.5641 43.996V43.537L51.1531 42.364C50.5241 42.143 51.1531 40.766 51.5781 40.783C52.0031 40.817 51.5441 38.658 51.5441 38.658L51.3231 38.539L51.3741 37.842H51.0681L50.5581 38.505L50.4221 38.964C50.3711 39.559 48.6201 39.457 48.5351 39.372C48.4501 39.287 47.8551 39.032 47.8551 39.032C47.8551 39.032 47.3961 38.658 47.3111 38.777C47.2261 38.896 46.8351 38.641 46.8351 38.726C46.8351 38.811 46.4611 38.522 46.4611 38.522L45.9001 38.318L46.3251 38.233L46.2401 37.893L46.9711 38.267C47.0561 38.386 47.4301 38.352 47.4301 38.352L47.5491 38.488C47.5491 38.488 47.7701 38.454 47.9231 38.624C48.0591 38.794 48.8071 38.658 48.8071 38.658L49.0111 38.828L49.3171 38.947L50.2011 38.981L50.2351 38.437L50.4051 38.267L50.3711 37.927L50.5751 37.757V37.468L50.7451 37.417L50.7791 36.788L50.9151 36.754V35.377L50.4901 34.969C50.4561 35.105 50.0141 35.105 50.0141 35.105C50.0141 35.105 49.8951 35.309 49.8101 35.309C49.7251 35.309 49.9291 35.564 49.8611 35.734C49.8101 35.904 49.5721 35.904 49.5721 35.904L49.1471 36.023L49.0281 36.159H48.5691L48.5181 35.785L49.0281 35.649L49.3171 35.513L49.4531 35.224C49.4871 34.935 49.8271 34.969 49.8271 34.969C49.8271 34.969 50.4731 34.425 50.5071 34.17C50.5411 33.915 50.7621 33.201 51.1531 33.201H51.8841C52.1731 33.082 52.0881 32.708 52.0881 32.708L52.4621 32.657L52.5131 32.861C52.5131 32.861 53.0231 32.912 53.0741 32.827C53.1251 32.742 53.2441 32.538 53.3801 32.623C53.5161 32.708 53.9751 32.419 53.9751 32.419C54.0091 32.215 54.7061 32.3 54.7061 32.3L54.7911 32.045C54.7911 32.045 54.3151 31.382 54.2301 31.382C54.1451 31.382 53.6861 30.974 53.6351 31.127C53.1761 31.008 53.2101 30.379 53.2101 30.379L53.0401 29.971C53.0401 29.733 52.6151 29.257 52.5301 29.308C52.1051 28.985 52.4111 28.628 52.5301 28.594C52.6491 28.56 52.9211 28.169 52.9211 28.169L53.0571 27.761L53.5331 27.625L53.5841 27.251L53.3291 27.217C53.3291 27.217 53.6181 26.707 53.7541 26.707C53.8901 26.707 54.8251 26.707 54.9101 26.656C54.9951 26.605 55.1651 26.146 55.1651 26.061C55.1651 25.976 55.3861 25.942 55.4711 25.925C55.5561 25.891 55.7601 25.67 55.8111 25.551C55.9641 25.262 55.7771 24.548 55.6581 24.667ZM63.4951 33.83C63.4781 33.779 63.4611 33.728 63.4101 33.711C63.2911 33.66 63.0701 33.745 62.9681 33.813L63.0701 33.949C63.1721 33.881 63.3251 33.847 63.3421 33.864V33.847L63.4951 33.83ZM64.2261 37.247L64.0561 37.23C64.0391 37.366 64.0731 37.536 64.2091 37.553L64.2431 37.383C64.2431 37.383 64.2261 37.315 64.2261 37.247ZM64.8551 36.567C64.9061 36.737 64.9571 36.907 64.9571 36.924L65.1101 36.856C65.1101 36.856 65.0421 36.686 65.0081 36.516L64.8551 36.567ZM65.2291 36.431V36.397C65.2291 36.346 65.2121 36.278 65.1781 36.21L65.0251 36.295C65.0421 36.329 65.0421 36.38 65.0591 36.414C65.0591 36.465 65.0761 36.516 65.1101 36.55C65.1441 36.567 65.1781 36.584 65.2291 36.567L65.1951 36.397C65.1951 36.414 65.2121 36.414 65.2291 36.431ZM63.7841 37.655C63.9031 37.587 64.0561 37.434 64.0391 37.757C64.0221 38.08 63.8861 37.978 63.7841 38.08C63.6821 38.182 63.6141 37.757 63.7841 37.655ZM56.9671 39.865L56.9841 39.61L57.2561 39.644L57.2391 39.882L56.9671 39.865ZM56.9841 40.426C56.9501 40.273 56.7801 40.222 56.7631 40.222L56.7121 40.392C56.7291 40.392 56.7461 40.409 56.7631 40.426L56.7971 40.579C56.7801 40.596 56.7631 40.613 56.7631 40.63L56.8821 40.749C56.9671 40.613 57.0011 40.528 56.9841 40.426ZM35.8531 45.73L35.6831 45.883L35.5981 45.951L35.6831 46.019L35.8871 46.155L35.9891 46.019L35.8701 45.934L35.9551 45.866L35.8531 45.73ZM37.8591 47.787L37.7911 47.94L37.9611 48.025L37.9101 48.093L38.0291 48.212L38.2501 47.991L38.1481 47.923L37.8591 47.787ZM30.0561 10.897L30.2261 11.067L30.1071 11.186L29.9371 11.016L30.0561 10.897ZM35.1901 16.252L35.3601 16.388L35.2581 16.524L35.0881 16.388L35.1901 16.252ZM34.5441 16.371L34.5781 16.694H35.0031C35.1731 16.694 34.8671 16.49 34.8671 16.49C34.8671 16.49 34.5271 16.524 34.5441 16.371ZM43.8601 8.38101L43.5711 8.34701L43.5541 8.51701L43.7921 8.53401L43.9791 8.82301L44.1151 8.72101L43.9281 8.41501L43.8941 8.38101H43.8601ZM44.6251 2.36301L44.5401 2.51601L44.7611 2.65201L44.8121 2.68601L44.8461 2.65201L45.1691 2.44801L45.0671 2.31201L44.8121 2.48201L44.6251 2.36301ZM46.1381 3.17901L46.0021 3.02601L45.8831 3.16201L46.1381 3.41701L46.1891 3.36601L46.4781 3.12801L46.3591 2.99201L46.1381 3.17901ZM36.7541 9.14601C36.7371 9.04401 37.3151 9.02701 37.4001 9.11201C37.4851 9.19701 37.4341 9.35001 37.6891 9.35001C37.9441 9.35001 37.8251 9.52001 37.8081 9.60501C37.7741 9.69001 37.5021 9.65601 37.4681 9.57101C37.4341 9.48601 37.0091 9.45201 37.0091 9.45201C37.0091 9.45201 36.7881 9.28201 36.7541 9.14601ZM40.0011 8.82301C40.4431 8.95901 40.5961 8.85701 40.6301 8.73801C40.6641 8.61901 40.6811 8.60201 40.8511 8.56801C41.0211 8.53401 40.8171 8.19401 40.6471 8.22801C40.4771 8.26201 40.3071 8.17701 40.2731 8.02401C40.2391 7.88801 39.9671 7.51401 39.9331 7.80301C39.8991 8.09201 39.7291 8.09201 39.7631 8.29601C39.8141 8.48301 39.8991 8.78901 40.0011 8.82301ZM42.8061 3.97801C42.7381 3.72301 42.3811 4.30101 42.7551 4.40301C43.1291 4.52201 43.4861 4.40301 43.4861 4.40301L43.5711 4.23301L44.9821 4.26701C45.1011 4.14801 45.1521 3.97801 45.1521 3.97801C45.1521 3.97801 45.4921 3.85901 45.6281 3.92701C45.7641 3.97801 45.6621 3.51901 45.5091 3.58701C45.3731 3.63801 45.0841 3.62101 45.0841 3.62101H44.5741C44.5401 3.41701 44.0981 3.50201 44.0641 3.62101C44.0471 3.72301 43.8771 3.75701 43.8771 3.75701L43.2311 3.80801C43.1631 3.97801 42.8401 4.09701 42.8061 3.97801ZM42.8571 5.38901L42.4831 5.01501V4.69201L42.3641 4.57301L42.2451 4.16501L41.8711 4.04601L41.4971 4.18201L41.1061 4.43701L40.6811 4.48801L40.4601 4.74301L41.3611 4.82801L41.5311 5.11701L42.1771 5.16801L42.6021 5.59301C42.9931 5.76301 43.0781 5.59301 42.8571 5.38901ZM44.1661 8.14301L44.2851 7.87101L44.4381 7.95601L44.3191 8.21101L44.1661 8.14301ZM52.6151 7.85401C52.5641 7.63301 53.1761 7.42901 53.3291 7.59901C53.4651 7.76901 53.8731 7.80301 53.9241 8.65301C53.9411 8.95901 53.4141 8.33001 53.4141 8.33001L52.9891 8.19401C52.7511 8.14301 52.6321 8.00701 52.6151 7.85401ZM49.6401 8.60201C49.5551 8.85701 49.5211 9.19701 49.3851 9.19701C49.2491 9.19701 49.3001 9.57101 49.3001 9.57101C49.3001 9.57101 49.6741 9.57101 49.7761 9.60501C49.8951 9.63901 49.8951 9.92801 49.8951 9.92801C50.3201 9.89401 50.4901 10.472 50.4391 10.625C50.3881 10.761 50.6091 10.761 50.6091 10.761C50.6091 10.761 50.6091 11.22 50.5581 11.339C50.5071 11.458 50.9321 11.543 51.0341 11.713C51.1531 11.883 50.9831 12.461 50.8981 12.495C50.8131 12.529 51.1191 12.614 51.1021 12.75C51.0681 12.886 51.1871 12.75 51.2211 12.988C51.2551 13.209 51.3061 13.702 51.3061 13.702L51.6971 13.736C51.7481 13.362 52.4791 13.345 52.5981 13.396C53.0741 13.566 53.4481 14.314 53.4481 14.484C53.4481 14.654 53.1421 14.688 53.1421 14.688L53.1931 15.521C53.6691 15.657 54.0771 16.354 54.0091 16.473C53.9581 16.592 54.3491 16.558 54.3491 16.558C54.4001 16.048 54.8931 16.218 54.9101 16.388C54.9441 16.558 55.0291 16.932 55.0291 16.932L55.1651 17.187L55.3691 17.391L55.6751 17.357L55.7601 17.527L56.1341 17.578C56.1341 17.578 56.4401 17.918 56.4741 18.003C56.5081 18.088 56.9331 18.054 57.0351 18.088C57.1541 18.122 57.3241 18.207 57.3411 18.343C57.3751 18.479 57.5451 18.717 57.5451 18.717C57.5451 18.717 57.8851 18.802 57.9191 18.921C57.9531 19.04 58.0891 19.295 58.0891 19.295L58.3781 19.533L58.4121 19.788L58.7181 19.822L58.8031 20.162L59.3131 20.128L59.6021 19.924C59.9761 19.72 60.2311 19.465 60.2481 19.346C60.2821 19.227 60.3331 18.802 60.6221 18.887C60.9111 18.972 60.7071 18.258 60.7071 18.258C60.7071 18.258 60.3161 17.969 60.3331 17.833C60.3671 17.697 59.9421 17.408 59.9591 17.289C59.9931 17.17 59.5851 16.949 59.6191 16.83C59.6531 16.711 59.4151 16.405 59.4151 16.405L58.9901 15.997L58.9391 15.742L58.5991 15.708L57.9191 14.875L57.9531 14.637L57.7491 14.603V14.28L57.5451 14.161L57.2391 14.127L56.6101 13.447L56.5591 13.124H56.2531L56.3041 12.529C56.5081 12.274 56.3891 11.781 56.3891 11.781C56.3891 11.781 55.9981 11.985 55.7941 11.9C55.5901 11.815 55.8791 11.611 55.8791 11.611V11.39L55.7091 11.22C55.7091 11.22 55.2331 11.271 55.1991 11.186C55.1651 11.101 55.0801 10.727 55.0801 10.727L55.0461 10.234L54.8421 10.149L54.8081 9.97901L54.5021 10.013V9.67301L54.3321 9.62201L54.1621 9.53701L54.1281 9.19701L53.4991 9.16301L53.2951 8.87401L53.0741 8.53401L52.3601 8.48301L52.1901 8.31301L51.9011 8.26201L51.6971 8.17701L51.6121 8.31301L51.0681 8.34701L51.0341 8.51701C50.7961 8.63601 49.6741 8.51701 49.6401 8.60201ZM44.4381 8.43201C44.4891 8.51701 44.8291 8.60201 44.8291 8.60201C45.0501 8.60201 45.2031 8.77201 45.2031 8.85701C45.2031 8.94201 45.5091 8.90801 45.5091 8.90801L45.5431 8.70401L45.3221 8.41501L45.1181 8.27901C45.1181 8.27901 44.8121 8.24501 44.8121 8.16001C44.8121 8.09201 44.4891 8.34701 44.4381 8.43201ZM44.4381 9.40101L44.2171 9.35001V9.60501L44.5231 9.63901L44.4381 9.40101ZM47.5831 12.563V12.342C47.5831 12.342 47.5491 12.121 47.4131 12.121C47.2771 12.121 47.0221 11.951 47.0731 11.832C47.1241 11.713 46.5971 11.594 46.5971 11.594C46.5971 11.594 46.1211 11.135 46.2911 11.186C46.4611 11.237 46.3761 10.982 46.3761 10.982C46.3761 10.982 46.0361 11.033 45.9511 11.016C45.8661 10.982 45.9001 10.727 45.9001 10.727C45.9001 10.727 45.5601 10.642 45.5601 10.727C45.5601 10.812 45.6791 10.812 45.7301 10.982C45.7811 11.152 45.7641 11.441 46.0191 11.492C46.2741 11.543 46.3251 11.611 46.3591 11.73C46.3931 11.849 46.6991 11.866 46.6991 11.866L46.9201 11.985L47.5831 12.563ZM47.8041 13.328C47.7701 13.209 47.7191 12.818 47.8891 12.835C48.0591 12.869 47.9401 12.835 48.1441 12.92C48.3481 13.005 48.3651 12.784 48.3651 12.784H48.6711L49.0621 13.107L49.0111 13.362L48.7221 13.396C48.5861 13.175 48.2971 13.26 48.3481 13.447C48.3991 13.651 48.2121 14.025 48.0931 14.042C47.9741 14.076 47.6171 14.076 47.6341 13.906C47.6851 13.736 47.8041 13.328 47.8041 13.328ZM52.4621 17.238L52.6661 16.609C52.3771 16.558 52.4451 16.235 52.4451 16.235C52.4111 15.98 52.0201 15.691 51.8841 15.776C51.7481 15.861 51.7991 15.181 51.7991 15.181C51.7991 15.181 52.0541 15.011 52.1731 15.096C52.2921 15.181 51.2041 13.668 50.9831 13.804C50.7621 13.94 50.2521 13.668 50.2691 13.396C50.3031 13.141 49.2491 12.274 49.2491 12.274C49.2491 12.274 48.9091 12.053 48.8581 12.223C48.8071 12.393 48.6881 12.512 48.8581 12.597C49.0281 12.682 48.9941 12.461 49.1981 12.648C49.4021 12.852 49.7591 13.107 49.6231 13.277C49.4871 13.447 49.3171 13.515 49.3171 13.515L49.5211 13.753H49.8271L49.8781 14.246C49.8781 14.246 50.2181 14.416 50.3031 14.62C50.3881 14.824 50.3881 14.943 50.3031 15.045C50.2181 15.164 50.0481 15.368 50.0821 15.555C50.1161 15.759 50.3371 15.844 50.3371 15.844L50.5581 15.878L50.7281 15.963V16.337C50.9491 16.286 51.3231 16.592 51.2891 16.796C51.2551 17 51.3401 16.881 51.6291 17.085C51.9181 17.289 51.8331 17.323 52.0201 17.459C52.2071 17.578 52.3771 17.493 52.4621 17.238ZM45.9681 20.91C45.9681 20.995 45.9171 21.114 46.0871 21.148C46.2571 21.182 46.5631 21.029 46.5971 21.199C46.6311 21.369 46.6311 21.488 46.8521 21.573C47.0731 21.658 47.2261 21.692 47.3961 21.692C47.5661 21.692 47.9401 21.641 47.9401 21.641C47.9401 21.641 48.3481 21.709 48.4161 21.777C48.7221 22.1 48.9261 22.185 49.0111 22.032C49.0961 21.896 48.9771 21.573 48.9601 21.454C48.9261 21.335 48.5351 20.791 48.3991 20.91C48.2631 21.029 48.2291 20.91 47.9741 20.995C47.7191 21.08 47.1751 21.029 47.1581 20.91C47.1241 20.791 46.7331 20.74 46.7331 20.621C46.7331 20.502 46.4441 20.366 46.4781 20.536C46.5121 20.706 46.2741 20.791 46.2231 20.74C46.1381 20.672 45.9681 20.91 45.9681 20.91ZM44.5571 21.216L44.5231 21.42L44.8291 21.454C44.8291 21.454 44.9651 21.573 44.9651 21.658C44.9651 21.743 45.1691 21.828 45.2711 21.828C45.3901 21.828 45.6961 21.59 45.6961 21.59C45.6961 21.59 45.8321 21.182 45.7301 21.216C45.6111 21.25 45.3901 21.42 45.3561 21.25C45.3221 21.08 44.9821 21.165 44.9821 21.165L44.5571 21.216ZM43.0951 21.539L43.1801 21.522L43.2311 21.675L43.1461 21.709L43.0951 21.539ZM43.1971 21.267L43.3671 21.233L43.4181 21.488L43.2651 21.522L43.1971 21.267ZM43.6731 21.301L43.6901 21.471L44.3021 21.454V21.284L43.6731 21.301ZM49.1811 21.165L49.4701 21.131L49.4871 21.301L49.1981 21.335L49.1811 21.165ZM49.9291 21.794L50.0141 21.59L50.1671 21.658L50.0821 21.862L49.9291 21.794ZM52.3941 18.921L52.6831 18.904L52.7001 19.074L52.4111 19.091L52.3941 18.921ZM52.8701 19.091H53.0401V19.227H52.8701V19.091ZM53.3801 16.677L53.2101 16.694L53.1761 16.439L53.3461 16.422L53.3801 16.677ZM53.2101 20.247H53.3801V20.451H53.2101V20.247ZM53.5841 20.349L53.7371 20.417L53.6521 20.604L53.4991 20.519L53.5841 20.349ZM52.7511 18.088C52.9211 18.088 52.7001 18.751 53.1421 18.683C53.6011 18.632 53.1761 18.887 53.5161 18.904C53.8561 18.938 53.7711 18.649 53.8901 18.445C54.0091 18.241 53.9411 18.122 53.7541 18.071C53.5501 18.02 53.5501 18.02 53.4991 17.782C53.4481 17.561 53.2101 17.493 53.2101 17.493L53.1251 17.153L52.7511 17.374L52.3771 17.867C52.3771 18.275 52.5811 18.088 52.7511 18.088ZM53.8561 19.652C54.0771 19.533 54.5701 19.533 54.5361 19.363C54.5021 19.193 54.8251 19.142 54.8251 19.142L54.9101 19.482L55.1651 19.652L55.1991 19.975C55.1991 19.975 55.2841 19.924 54.9781 20.009C54.6721 20.094 54.8591 20.23 54.8591 20.23L54.1791 20.264L54.0941 19.975L53.8561 19.652ZM50.2011 22.049C50.3371 22.015 50.6771 21.998 50.7451 22.083C50.7961 22.168 50.5411 22.287 50.5411 22.287L50.2011 22.338C50.0991 22.202 50.0651 22.083 50.2011 22.049ZM52.0201 21.794C52.1731 21.947 51.1701 21.913 51.1701 21.794C51.1701 21.675 51.2551 21.284 51.5101 21.369C51.7651 21.454 51.7991 20.859 51.7991 20.859C51.7991 20.859 51.5781 20.893 51.7651 20.774C51.9691 20.655 51.7651 20.485 51.6801 20.4C51.5951 20.315 51.5101 20.162 51.5101 20.162H51.9011C52.0711 20.043 52.1221 19.499 52.1221 19.499C52.4621 19.618 52.6321 19.38 52.6321 19.38C52.6321 19.38 52.6831 19.55 52.8021 19.703C52.9211 19.839 52.5131 19.907 52.6661 19.992C52.8021 20.077 52.8701 20.332 52.8021 20.417C52.7511 20.502 52.4281 20.451 52.4281 20.332C52.4281 20.213 52.3091 20.468 52.4281 20.621C52.5471 20.757 52.2921 20.961 52.2241 20.961C52.1731 20.961 51.7991 21.012 52.1051 21.199C52.4111 21.369 52.7511 21.284 52.7511 21.284C52.7511 21.284 53.0061 21.25 53.0911 21.403C53.1761 21.539 53.0571 21.573 52.9211 21.573C52.7851 21.573 52.1051 21.522 52.1051 21.522C52.1051 21.522 51.9351 21.709 52.0201 21.794ZM55.3181 18.547C55.2331 18.428 55.1481 18.343 55.0291 18.292C54.9101 18.241 54.8251 18.173 54.7231 18.173C54.6041 18.173 54.5021 18.054 54.5531 17.918C54.6041 17.782 54.4681 17.714 54.4681 17.595C54.4681 17.476 54.5531 17.476 54.6891 17.561C54.8251 17.646 54.8081 17.68 54.9101 17.816C55.0291 17.952 55.0801 18.105 55.1991 18.071C55.3181 18.037 55.4031 18.326 55.5051 18.241C55.6241 18.156 55.5901 18.445 55.5901 18.445L55.3181 18.547ZM55.0461 18.819C55.1311 18.938 55.3011 19.023 55.3011 19.142C55.3011 19.261 55.2501 19.346 55.4201 19.363C55.5901 19.397 55.7091 19.329 55.7601 19.482C55.8111 19.618 55.8111 19.856 55.7941 19.975C55.7601 20.094 55.8281 20.264 55.9641 20.264C56.1001 20.264 56.1341 20.298 56.1341 20.383C56.1341 20.468 56.3041 20.06 56.3041 20.06C56.1681 19.941 56.0491 19.686 56.0491 19.686C56.0491 19.686 55.9131 19.278 55.9131 19.227C55.9131 19.176 55.7091 19.108 55.6241 19.091C55.5391 19.057 55.4031 18.802 55.4031 18.802L55.0461 18.819ZM56.8821 23.46L56.7631 23.205C56.7631 23.205 56.7631 22.984 56.8141 22.865C56.8651 22.746 56.6951 22.644 56.6101 22.61C56.5251 22.576 56.5591 22.355 56.5251 22.236C56.4911 22.117 56.3041 22.032 56.3041 22.032C56.3041 22.032 56.2531 21.607 56.2531 21.522C56.2531 21.437 55.9981 21.318 56.0831 21.233C56.1681 21.148 56.2191 21.029 56.3041 20.978C56.3891 20.927 56.2191 20.519 56.3551 20.604C56.4911 20.689 56.4911 20.842 56.5591 20.944C56.6101 21.063 56.5251 21.454 56.6781 21.539C56.8141 21.624 56.6441 21.913 56.8821 21.913C57.1031 21.913 56.9671 22.457 56.9671 22.457C56.9671 22.457 56.9161 22.865 57.0521 22.882C57.1881 22.916 57.1031 23.596 57.1031 23.596L56.8821 23.46ZM56.9671 25.653L57.0521 25.483L57.2051 25.568L57.1201 25.738L56.9671 25.653ZM57.1541 24.718L57.3241 24.735L57.3071 24.973L57.1371 24.939L57.1541 24.718ZM56.7971 23.766L56.5761 23.732L56.0661 23.817L55.7771 24.361C55.7771 24.361 55.9131 24.446 56.0321 24.65C56.1511 24.854 56.2021 26.027 55.8621 26.231C55.5221 26.435 55.8961 26.316 55.8961 26.316L55.8451 26.945C55.9301 27.234 56.0661 27.081 56.1511 26.945C56.2361 26.809 56.3211 26.775 56.4401 26.622C56.5591 26.486 56.7291 26.214 56.7461 26.027C56.7801 25.823 56.9161 25.517 56.8311 25.432C56.7461 25.347 56.9161 24.939 56.9161 24.939C56.9161 24.939 57.0351 24.701 56.9161 24.48C56.7971 24.242 56.9501 23.987 57.0351 23.885L56.7971 23.766ZM55.5561 20.842H55.1311C55.1311 20.842 55.2671 20.893 54.8761 20.519C54.4851 20.145 54.2301 20.604 54.2301 20.604L53.7711 20.655V21.114L53.5501 21.199L53.5841 21.488L53.8901 21.454C53.8901 21.454 53.8901 21.794 53.9751 21.658C54.0601 21.522 54.7741 21.692 54.7061 22.032C54.6891 22.168 55.4201 22.542 55.3351 23.001C55.7091 23.052 55.6241 23.426 55.6241 23.426L56.1001 23.477L56.2361 23.188L56.3721 23.222V23.052L56.0661 22.967L56.0151 22.049L55.8111 21.913L55.8621 21.675L55.6411 21.59L55.7601 21.216L55.5561 20.842ZM54.5021 27.88L54.6721 27.812L54.6041 27.676L54.5701 27.574L54.4851 27.625L54.2811 27.744L54.0941 27.625L54.0091 27.778L54.2301 27.914L54.2811 27.948L54.3151 27.914L54.4851 27.829L54.5021 27.88ZM55.2501 27.506L55.5561 27.557L55.5901 27.387L55.2841 27.336L55.2501 27.506ZM54.6721 31.178C54.5531 31.008 55.2331 30.719 55.3521 31.059C55.4711 31.399 55.3521 31.348 55.2331 31.314C55.1311 31.28 54.8421 31.399 54.6721 31.178ZM51.7481 36.703H51.9521V37.247H51.7481V36.703ZM53.0571 41.956C53.0061 42.177 52.8021 42.296 52.6831 42.211C52.5641 42.126 52.8191 42.347 52.8871 42.466C52.9381 42.585 53.1081 42.585 53.1761 42.466C53.2271 42.347 53.2101 42.092 53.2611 41.973C53.3121 41.871 53.0911 41.837 53.0571 41.956ZM53.6861 43.112L53.9411 43.231L53.9751 43.724C54.3151 44.064 55.4201 43.775 55.4201 43.69C55.4201 43.605 55.3691 42.636 55.3691 42.636L55.2331 42.5L55.1991 41.786C55.3181 41.412 54.6551 40.868 54.6041 40.987C54.5531 41.106 54.1791 41.021 54.1791 41.123C54.1791 41.242 53.9581 41.803 54.0601 42.007C54.1791 42.211 53.9751 42.211 53.9411 42.415C53.9071 42.585 53.6181 42.925 53.6861 43.112ZM45.7301 36.975L45.6451 36.839L45.4071 36.975L45.5091 37.128L45.7301 36.975ZM41.4121 37.536C41.2761 37.672 41.3101 37.791 41.4121 37.893ZM42.2961 38.233L42.4831 37.91L42.3301 37.859L42.1261 37.995L42.2111 38.08L42.2961 38.233ZM42.1261 29.274C42.2451 29.529 42.2111 29.903 42.6361 30.192C42.7721 30.294 42.5511 30.481 42.4151 30.396C42.2791 30.311 41.8711 29.682 41.8711 29.682V29.308C41.9561 29.087 42.0751 29.172 42.1261 29.274ZM40.6301 30.77C40.6981 31.025 40.6811 30.362 40.8001 30.396C40.9191 30.43 40.8341 29.988 40.8341 29.988L40.3241 30.362C40.5621 30.396 40.5961 30.651 40.6301 30.77ZM39.1001 32.606C39.0661 32.946 38.6411 33.065 38.6411 33.065L38.3351 32.98L38.1651 32.844L38.1311 32.436L38.3861 32.402L38.4371 32.572L39.1001 32.606ZM38.6411 29.138V28.73L38.5901 28.356L38.1651 28.152L37.8591 28.441L37.8081 28.849V29.104L37.5191 29.155L37.4681 29.937L37.2471 30.022L37.2811 30.311L36.6691 30.481L36.6181 30.855L36.3971 30.991L36.2781 31.331L36.1421 32.164C36.1421 32.164 36.3971 32.657 36.5331 32.419C36.6691 32.198 36.9071 32.164 36.9071 32.164L36.9921 31.96L37.7571 31.994C37.8081 31.671 38.1821 31.79 38.1821 31.943C38.1821 32.079 38.4711 31.977 38.4711 31.977L38.6751 31.654H38.9811L39.0151 31.314L39.1511 31.229V30.719C39.6101 30.583 39.5421 30.141 39.5421 30.141L39.6611 30.005L39.6101 29.801C39.3891 29.716 39.4911 29.512 39.6441 29.563C39.7801 29.614 39.4401 29.308 39.4401 29.308C39.2701 29.444 39.1341 29.138 39.1341 29.138H38.6411ZM37.3491 27.965L37.1281 28.016L36.6181 28.509L36.5841 28.73L36.4481 28.934L36.2781 29.359L35.6831 29.393L35.5641 29.903L35.6491 30.345L36.1591 30.549L36.2101 30.26L36.3801 30.175L36.4141 29.886L36.5331 29.682L36.7031 29.478L36.7541 29.257L37.0431 29.087L37.3831 29.019L37.5191 28.849L37.5701 28.509L37.6041 28.254L37.7231 28.067L38.0631 27.931V27.387H37.8931L37.8591 27.183L37.5531 27.149L37.4851 27.302H37.3491L37.3151 27.523H37.4851L37.5191 27.71L37.4001 27.812L37.3491 27.965ZM28.3731 31.416C28.3731 31.484 28.3221 31.535 28.2541 31.535C28.1861 31.535 28.1351 31.484 28.1351 31.416C28.1351 31.348 28.1861 31.297 28.2541 31.297C28.3221 31.297 28.3731 31.348 28.3731 31.416ZM28.3561 34.697C28.3561 34.765 28.3051 34.816 28.2371 34.816C28.1691 34.816 28.1181 34.765 28.1181 34.697C28.1181 34.629 28.1691 34.578 28.2371 34.578C28.3051 34.578 28.3561 34.629 28.3561 34.697ZM28.0501 34.221C28.1181 34.221 28.1691 34.17 28.1691 34.102C28.1691 34.034 28.1181 33.983 28.0501 33.983C27.9821 33.983 27.9311 34.034 27.9311 34.102C27.9311 34.17 27.9821 34.221 28.0501 34.221ZM27.7101 34.901L27.4721 34.935V35.139L27.7101 35.105V34.901ZM27.9651 33.439L27.7611 33.473L27.7441 33.694L27.9651 33.728V33.439ZM27.9141 31.892L27.9311 31.688L27.5061 31.977L27.2341 31.807V32.487L27.6761 33.099L27.8461 32.691L27.9141 32.436L27.7101 32.351L27.7441 31.926L27.9141 31.892ZM27.7441 29.478L27.2341 29.427L27.2681 29.631H27.4041C27.6251 30.039 27.4381 31.008 27.4381 31.008C27.4381 31.008 27.0981 31.042 27.0471 30.872C26.9961 30.702 26.8431 31.246 26.9621 31.331C27.0811 31.416 27.4721 31.331 27.5061 31.654C27.5401 31.977 27.7611 31.45 27.7611 31.45L27.7441 29.478ZM39.1341 23.8H38.8281L38.7771 23.171L38.9471 23.052V22.729H37.9611L37.9271 22.406L38.0631 22.321L37.8421 22.236L37.6721 22.457L37.6211 22.712L37.3321 22.763V22.899H37.1281V23.273L36.3291 23.936L34.7481 23.885C34.6291 24.14 34.3571 23.851 34.3571 23.851C34.3061 23.681 33.8981 23.851 33.8981 23.851C33.8981 24.174 33.3541 23.715 33.3541 23.715L32.3681 23.001C31.8071 22.491 30.9571 23.137 30.9231 23.29C30.9571 23.698 30.2771 23.375 30.2771 23.375C30.2771 23.375 29.7161 23.205 29.6311 23.426C29.5461 23.647 29.1721 23.596 29.1721 23.596L29.1211 23.715L28.8321 23.766L28.7811 23.936L28.4411 23.987L29.2911 23.953C29.5121 23.919 29.2061 24.446 29.0701 24.412L28.6791 24.446L28.5431 24.582H28.1691L27.9991 24.82L27.4551 24.786C27.4551 24.786 27.1491 25.041 27.1661 25.126C27.2001 25.211 27.1151 25.466 27.0301 25.466C26.9451 25.466 26.7751 25.721 26.8261 25.806C26.8771 25.891 26.6561 26.18 26.6561 26.18L26.6051 26.469L26.4351 26.52V27.302L26.0951 27.54V27.88L25.5851 28.424L25.6361 28.883L25.2111 29.342L25.2621 29.801L25.0071 29.886L24.9561 30.09L24.8371 30.685L25.1261 30.719C25.2621 30.668 25.2451 31.093 25.1261 31.144C25.0071 31.195 24.7011 31.314 24.8711 31.433C25.0411 31.552 24.4121 31.518 24.4121 31.348C24.4121 31.178 24.0721 31.025 23.9871 31.093C23.9021 31.144 23.7661 30.838 23.7661 30.838C23.4601 30.515 22.4911 30.872 22.4911 30.872L22.3551 31.331C22.0491 31.382 21.8451 31.909 21.8451 31.909C21.5901 31.994 21.3861 32.317 21.4711 32.402C21.5561 32.487 21.3351 32.521 21.3351 32.521V33.15L21.1991 33.354L21.2331 34.034C21.4031 34.034 21.3691 34.357 21.3691 34.357C21.0801 34.391 21.1481 34.765 21.1481 34.765L20.5531 34.969L20.4341 35.139L19.7031 35.105L19.4991 35.309L19.2951 35.105H17.8841L17.8331 34.969L17.5441 34.918L17.5101 34.595L17.0851 34.629L17.0001 34.799L16.5411 34.833C16.5751 35.122 16.0821 35.547 16.0311 35.428C15.9801 35.309 15.6571 35.003 15.8101 34.935C15.9461 34.884 16.3201 34.816 16.3201 34.816V34.612L15.2661 34.578L15.1471 34.748L14.7221 34.782V35.241L14.5181 35.292C14.3821 35.377 14.5521 35.7 14.5521 35.7C14.7561 35.904 14.5181 36.21 14.5181 36.21C14.3481 36.38 14.6541 36.703 14.6541 36.703C14.8751 36.754 14.5181 36.924 14.5181 36.924C14.5691 37.213 14.7391 37.298 14.7391 37.298C14.5691 37.587 14.8581 37.723 14.8581 37.723L14.8921 38.216L15.0961 38.335V38.658L15.2151 38.862H15.6741L15.6401 38.148C15.2491 37.689 15.9801 37.57 16.0141 37.74C16.0481 37.91 16.3541 37.995 16.3541 37.995C16.4051 38.42 16.8981 38.675 17.0341 38.25C17.1701 37.825 17.2891 38.08 17.3741 38.284C17.4591 38.488 18.0031 38.981 18.0031 38.981H18.4281L18.4791 39.389C18.9551 39.355 19.1081 39.423 19.2951 40.069C19.4991 40.732 20.0261 40.902 20.0261 40.902L20.4171 40.868C20.4171 40.528 20.8081 40.919 20.8081 41.106C20.8081 41.276 21.5731 41.939 21.5731 41.939L22.3381 42.109L23.0521 42.687L23.5961 42.636H23.8171C23.9531 42.143 24.6331 42.67 24.7011 42.84C24.7521 43.01 25.2111 43.299 25.2621 43.163C25.3131 43.027 25.6361 43.112 25.6871 43.537C25.7381 43.962 25.9421 43.877 25.9421 43.877L27.5571 43.843L28.1181 43.35L29.5631 43.316C30.2941 43.282 29.8521 42.279 29.6991 42.279C29.4441 42.075 29.7841 41.242 29.7841 41.242L27.7271 39.321C27.2511 39.321 27.6761 38.624 27.6761 38.624C28.0501 38.386 27.5911 38.029 27.5911 38.029C27.6421 37.689 27.3871 37.281 27.3871 37.281C26.8771 36.941 27.0131 36.278 27.0131 36.278V35.819C26.5881 35.411 27.1831 35.36 27.1831 35.36C27.3871 35.02 27.0471 34.765 27.0471 34.765L27.0131 34.391L26.5541 34.34L26.5031 32.997L25.4831 31.535C25.2791 31.484 25.4321 31.127 25.4321 31.127C25.6871 30.991 25.3811 30.634 25.3811 30.634L25.3471 30.005L25.9421 29.954L26.0781 29.733H26.3671L26.3331 28.985C26.4691 28.611 26.8091 28.815 26.8091 28.815L27.2001 28.849L27.4211 28.424L27.4721 28.084L27.1661 28.05C26.8261 27.846 26.9961 27.098 26.9961 27.098C27.5401 26.299 28.1521 26.758 28.1521 26.758L28.5431 26.724C29.1381 27.132 28.5941 27.863 28.5941 27.863C28.4751 28.033 28.5431 28.577 28.5431 28.577L28.6791 29.495L28.3051 29.818C27.9991 29.988 27.9991 30.396 28.3391 30.481C28.5601 30.515 28.4751 31.059 28.1351 30.685C27.6251 30.685 28.4241 31.144 28.1861 31.025C28.6961 31.28 28.5771 30.804 28.5771 30.804L29.2571 30.26C29.5121 30.056 29.9711 30.685 29.9711 30.77C29.9711 30.855 31.0931 30.804 31.0931 30.804C31.3991 31.008 31.5181 31.518 31.5181 31.518C31.8241 31.11 32.4871 31.484 31.9941 31.722C32.4531 32.011 32.4531 32.266 32.4531 32.266C32.8271 32.147 32.8271 32.436 32.8271 32.521C32.8271 32.606 32.9461 32.096 32.9461 32.096C32.5211 31.773 33.5071 31.671 33.2351 32.232L33.0651 32.487L33.3541 32.708L33.3881 33.371C34.0171 33.32 33.8471 32.538 33.8471 32.538L34.1361 32.487C34.1361 32.232 34.3401 32.368 34.3401 32.368C34.1361 31.399 34.7991 31.229 34.7991 31.229C35.1731 31.144 35.1901 30.362 35.1901 30.362C34.9351 30.243 35.0711 29.852 35.3601 30.192C35.6491 30.532 35.1901 29.495 35.1901 29.495L34.9691 29.291L34.6631 29.257L34.6291 28.934H34.1191L34.0341 29.342L33.8471 29.427L33.7961 29.308L33.7111 29.631H33.2011L33.1671 29.291L33.4731 29.206L33.5921 29.036L33.6771 28.577H34.0511L34.5271 28.441C34.5611 27.948 34.8161 28.067 34.8161 28.067L35.2411 28.407L35.2751 28.577L35.1051 28.662L35.0711 28.9L35.1561 29.223H35.3771C35.4621 28.764 36.0571 28.764 36.2271 29.053L36.3971 28.645C36.0061 28.441 36.3971 28.135 36.4991 28.271C36.6181 28.407 36.8731 27.897 36.8731 27.897C36.8731 27.897 37.0771 28.152 36.8731 27.812C36.6691 27.472 37.0091 27.302 37.0091 27.302C36.9581 26.962 37.3831 27.013 37.3831 27.013L37.4171 26.554L37.0261 26.52C36.9411 26.928 36.6011 26.571 36.7711 26.486C36.9411 26.401 37.1111 26.231 37.1111 26.231V25.942L37.2811 25.891L37.3151 25.602H37.7401L38.1141 25.432L38.1991 25.296L38.5901 25.262L39.1511 24.752L39.1001 24.531C38.7601 24.531 39.1001 24.276 39.1001 24.276L39.1341 23.8ZM23.7831 49.589L23.5621 49.249L23.9021 49.3L24.2591 49.606L24.4121 49.98L24.2081 50.099L24.0891 49.929L23.8171 49.844L23.7831 49.589ZM17.5441 40.987L17.6801 41.378L17.8841 41.531L18.0711 41.956L17.9691 42.16L17.6461 41.871L17.4251 41.548L17.3061 41.293L17.1191 40.783L17.5441 40.987ZM15.8441 39.457H15.7081V39.746H15.9291V40.12H16.0991L16.0651 39.695L15.8441 39.61V39.457ZM38.0801 21.981L38.2501 21.947L38.2841 22.117L38.1141 22.151L38.0801 21.981ZM38.2841 21.879L38.3351 21.709L38.5561 21.777L38.5221 21.947L38.2841 21.879ZM38.6921 21.709L38.7091 21.539L38.5221 21.505L38.4881 21.675L38.6921 21.709ZM38.9811 21.335H39.2021V21.505H38.9811V21.335ZM40.4261 21.539L40.4431 21.369L40.6471 21.386L40.6131 21.556L40.4261 21.539ZM40.9871 21.658L41.0041 21.488L40.8001 21.454L40.7831 21.624L40.9871 21.658ZM41.1911 21.675H41.4121V21.845H41.1911V21.675ZM41.4461 21.964V22.168L41.6161 22.151V21.947L41.4461 21.964Z" fill="white"/>
</g>
<defs>
<clipPath id="clip0_680_7542">
<rect width="79.9" height="68" fill="white"/>
</clipPath>
</defs>
</svg>
