<svg width="165" height="25" viewBox="0 0 165 25" fill="none" xmlns="http://www.w3.org/2000/svg">
<path d="M43.6537 25C35.0789 25 27.5435 21.5943 27.5435 12.5C27.5435 3.29341 35.2273 0 43.6537 0C52.2656 0 59.6897 3.40569 59.6897 12.5C59.6897 21.8937 51.8201 25 43.6537 25ZM43.6537 4.82784C36.972 4.82784 33.7426 7.82186 33.7426 12.5C33.7426 17.0284 36.7493 20.1722 43.6537 20.1722C50.855 20.1722 53.4905 16.7665 53.4905 12.5C53.4905 7.74701 50.2982 4.82784 43.6537 4.82784Z" fill="white"/>
<path fill-rule="evenodd" clip-rule="evenodd" d="M84.9316 24.0644L79.6605 18.0389C78.1386 16.4296 77.8787 16.1677 75.0576 16.1677H69.6752V23.4656C69.6752 23.9521 69.304 24.3264 68.8215 24.3264H64.404C63.9214 24.3264 63.5503 23.9521 63.5503 23.4656V2.50749C63.5503 1.45958 64.3669 0.63623 65.4063 0.63623H81.1825C87.2331 0.63623 90.5369 3.36826 90.5369 8.38323C90.5369 11.7141 88.3468 14.6332 85.1544 15.5314L91.8361 24.027C91.9103 24.1018 91.8732 24.2141 91.7989 24.2889C91.7618 24.3263 91.7246 24.3264 91.6874 24.3264H85.5256C85.3029 24.3638 85.0801 24.2515 84.9316 24.0644ZM80.2916 11.4147H69.6752V5.9506H80.2916C83.6696 5.9506 84.3748 7.44761 84.3748 8.68264C84.3748 9.91767 83.6696 11.4147 80.2916 11.4147Z" fill="white"/>
<path d="M26.4298 1.49699V5.65119C26.4298 5.83831 26.2813 5.98801 26.0957 5.98801H6.16201C6.16201 6.92364 6.16205 7.33531 7.68399 7.44759L19.6738 8.53292C24.2396 8.94459 24.2396 16.2425 19.6738 16.6542C15.9989 16.991 10.1339 17.4775 8.24079 17.6647C6.90446 17.7769 6.16201 18.1886 6.16201 19.1617V23.4656C6.16201 23.9521 5.79088 24.3263 5.30832 24.3263H0.891033C0.445589 24.3263 0.0371566 23.9521 0.0371566 23.4656V17.5898C0.0371566 15.494 0.742407 14.1467 2.41282 13.997C4.3802 13.8099 16.63 13.0988 16.63 13.0988C16.8527 12.9865 16.9641 12.7245 16.8528 12.5C16.8157 12.3877 16.7042 12.3129 16.5929 12.2754C16.5929 12.2754 4.71432 11.6766 2.44998 11.4895C0.519721 11.3024 0 9.8428 0 7.85927V2.54489C0 1.49699 0.853804 0.673634 1.89317 0.673634H25.5389C26.0586 0.636209 26.4298 1.04789 26.4298 1.49699Z" fill="white"/>
<path d="M126.915 0.63623C125.875 0.63623 125.059 1.45958 125.059 2.50749V23.4656C125.059 23.9521 125.43 24.3263 125.912 24.3263H130.33C130.812 24.3263 131.183 23.9521 131.183 23.4656V1.497C131.183 1.01048 130.812 0.63623 130.33 0.63623H126.915Z" fill="white"/>
<path d="M140.612 23.8773L142.617 19.798H156.091L156.945 21.557C157.799 23.2411 159.506 24.3264 161.399 24.3264H164.814C164.926 24.3264 165 24.2516 165 24.1393C165 24.1019 165 24.0644 164.963 24.0644L153.047 1.12281C152.899 0.823411 152.602 0.673706 152.305 0.673706H146.96C146.254 0.673706 145.623 1.04796 145.326 1.68419L133.708 24.1019C133.671 24.1767 133.708 24.3264 133.782 24.3638C133.819 24.3638 133.856 24.4013 133.856 24.4013H139.833C140.167 24.3638 140.464 24.1767 140.612 23.8773ZM144.769 15.4566L149.409 6.06294L154.013 15.4566H144.769Z" fill="white"/>
<path d="M115.816 1.12278C115.964 0.823377 116.261 0.636256 116.595 0.636256H122.572C122.683 0.636256 122.757 0.711107 122.757 0.823382C122.757 0.860807 122.757 0.898225 122.72 0.898225L110.804 23.8399C110.656 24.1393 110.359 24.2889 110.062 24.2889H104.717C104.011 24.2889 103.38 23.9147 103.083 23.2785L91.4648 0.860798C91.4277 0.748523 91.4647 0.636254 91.5389 0.598829C91.576 0.598829 91.6132 0.561401 91.6132 0.561401H97.5896C97.9237 0.561401 98.2205 0.748523 98.369 1.04792L107.167 18.8623L115.816 1.12278Z" fill="white"/>
</svg>
