<svg width="102" height="68" viewBox="0 0 102 68" fill="none" xmlns="http://www.w3.org/2000/svg">
<rect width="101.58" height="68" rx="12" fill="white"/>
<g clip-path="url(#clip0_677_7251)">
<path d="M8.59274 38.0481C6.81462 38.0481 5.46808 37.582 4.46681 36.598C3.51733 35.6658 2.98217 34.2158 2.99943 32.6104C2.99943 29.2614 5.34724 27 8.85169 27C10.1464 27 11.165 27.2762 11.6311 27.5179L11.7519 27.5697L11.7347 30.9186L11.3721 30.4353C11.0441 29.9864 9.85296 29.5894 8.83443 29.7448C7.14262 30.0037 6.38304 30.2281 6.14135 32.524C6.02051 33.7324 6.17588 34.561 6.60746 35.0789C6.96999 35.5105 7.57421 35.7522 8.42011 35.8212C9.02432 35.8557 9.09338 35.7349 9.19696 35.5277C9.19696 35.5105 9.21422 35.5105 9.21422 35.4932L9.26601 33.9914L7.57421 33.9051L7.60873 31.6609L12.0627 31.7818V37.3921L11.9246 37.4439C11.1822 37.7374 9.90475 38.0481 8.59274 38.0481ZM8.85169 27.4143C5.53714 27.4143 3.41375 29.4513 3.41375 32.6104C3.39648 34.1122 3.87986 35.4587 4.76029 36.3046C5.67524 37.2022 6.93546 37.6338 8.59274 37.6338C9.76665 37.6338 10.9233 37.3748 11.6656 37.1159V32.1788L8.00579 32.0752L7.97126 33.508L9.68033 33.6116L9.61128 35.6141L9.59401 35.6658C9.57675 35.6831 9.57675 35.7176 9.55949 35.7349C9.40412 36.0456 9.19696 36.2873 8.40284 36.2355C7.4361 36.1665 6.76283 35.8903 6.31398 35.3551C5.79608 34.7337 5.60619 33.8015 5.7443 32.4895C6.00324 30.0382 6.86641 29.6412 8.78264 29.3477C9.66307 29.2096 10.7161 29.434 11.3376 29.8656L11.3549 27.8459C10.8715 27.6215 9.97381 27.4143 8.85169 27.4143Z" fill="#1B5089"/>
<path d="M15.6367 37.9445H12.9091V32.6277C12.9091 31.5574 12.8918 30.8496 12.84 30.2109L12.8228 29.9865H15.2569L15.3087 31.0395C15.8956 30.1936 16.8969 29.8138 17.7255 29.8138C17.9672 29.8138 18.1053 29.8311 18.3125 29.8656L18.4851 29.9002V32.1098L18.2434 32.0752C18.0535 32.0407 17.8636 32.0235 17.6047 32.0235C16.6207 32.0235 15.9301 32.5068 15.723 33.3009C15.6885 33.4563 15.6539 33.6461 15.6539 33.836V37.9445H15.6367ZM13.3234 37.5302H15.2396V33.836C15.2396 33.5944 15.2741 33.3699 15.3259 33.1973C15.5676 32.2134 16.4308 31.5919 17.6047 31.5919C17.7946 31.5919 17.9327 31.6092 18.0708 31.6264V30.2454C17.9672 30.2281 17.8636 30.2281 17.7255 30.2281C16.8796 30.2281 15.8438 30.6942 15.4123 31.7127L15.3605 31.8336H14.9634L14.8944 30.4008H13.2889C13.3234 30.9877 13.3407 31.6609 13.3407 32.6277V37.5302H13.3234Z" fill="#1B5089"/>
<path d="M21.7995 38.0999C19.9351 38.0999 18.8647 36.8224 18.8647 34.6128V30.0037L22.0239 29.9692V34.2676C22.0239 35.6313 22.1448 35.8385 22.5591 35.8385C22.5591 35.8385 22.7317 35.8212 22.8698 35.6658C23.0425 35.4587 23.1288 35.0962 23.0943 34.6128V34.5956L23.1115 29.9519L26.3225 29.9864V35.4587C26.3225 36.3563 26.357 37.0986 26.3915 37.7028L26.4088 37.91L23.5431 37.9618V37.2367C23.2669 37.6683 22.818 38.0999 21.7995 38.0999ZM19.2618 30.4007V34.6128C19.2618 35.7694 19.5898 37.6856 21.7822 37.6856C22.8353 37.6856 23.0943 37.1849 23.3532 36.6843C23.405 36.5808 23.4568 36.4772 23.5258 36.3909L23.5604 36.3391L23.9402 36.1492V37.5302L25.9427 37.5129C25.9082 36.9433 25.8909 36.2528 25.8909 35.4587V30.4007L23.5086 30.3662L23.4913 34.5956C23.5431 35.1997 23.4223 35.6486 23.1633 35.942C22.9044 36.2355 22.5936 36.2528 22.5591 36.2528C21.6096 36.2528 21.6096 35.2861 21.6096 34.2676V30.3835L19.2618 30.4007Z" fill="#1B5089"/>
<path d="M27.4621 41V32.714C27.4621 31.7127 27.4276 30.9014 27.4103 30.2109L27.3931 30.0037L30.2242 29.9519V30.8323C30.6904 30.2799 31.3118 29.8138 32.3304 29.8138C34.1085 29.8138 35.1788 31.333 35.1788 33.8533C35.1788 36.7707 33.3316 38.0999 31.6226 38.0999C30.8975 38.0999 30.535 37.8064 30.2588 37.4267L30.3106 41H27.4621ZM27.8246 30.4008C27.8592 31.0395 27.8764 31.799 27.8764 32.714V40.603H29.8962L29.8272 36.7362L30.1034 36.46L30.3278 36.8052C30.6558 37.3404 30.8803 37.7029 31.6226 37.7029C33.7805 37.7029 34.7645 35.7177 34.7645 33.8706C34.7645 31.5919 33.8495 30.2281 32.3304 30.2281C31.4327 30.2281 30.8112 30.6252 30.207 31.5746L29.8272 32.1616V30.3662L27.8246 30.4008ZM31.1219 36.6326C30.5523 36.6326 30.0689 36.0457 29.948 35.217C29.9135 35.0617 29.9135 34.8891 29.9135 34.6992V33.6116C29.9135 33.4217 29.948 33.2491 29.9653 33.1283C30.0861 32.2479 30.5695 31.6437 31.1565 31.6437C31.9506 31.6437 32.4512 32.6104 32.4512 34.1122C32.434 35.6659 31.9333 36.6326 31.1219 36.6326ZM31.1392 32.0407C30.7767 32.0407 30.4314 32.5413 30.3451 33.1801C30.3106 33.3354 30.2933 33.4735 30.2933 33.5944V34.6819C30.2933 34.8718 30.3106 35.0099 30.3278 35.148C30.4141 35.7695 30.7421 36.2355 31.1047 36.2355C31.6571 36.2355 32.0196 35.3724 32.0196 34.095C32.0369 32.8866 31.6571 32.0407 31.1392 32.0407Z" fill="#1B5089"/>
<path d="M39.6845 38.0999C37.4058 38.0999 35.8003 36.4254 35.8003 34.0087C35.8003 31.5056 37.4058 29.8138 39.8054 29.8138C42.0669 29.8138 43.6551 31.4883 43.6551 33.8878C43.6551 36.8052 41.6698 38.0999 39.6845 38.0999ZM39.8054 30.2454C37.6302 30.2454 36.2146 31.73 36.2146 34.0259C36.2146 36.2183 37.6129 37.7029 39.6845 37.7029C42.1532 37.7029 43.2408 35.7867 43.2408 33.9051C43.2408 31.7127 41.8597 30.2454 39.8054 30.2454ZM39.5982 36.7362C38.8041 36.7362 38.3035 35.7349 38.3035 34.1813C38.3035 32.2997 38.9767 31.6264 39.6155 31.6264C40.2024 31.6264 40.893 32.2824 40.893 34.1468C40.8757 35.7004 40.3578 36.7362 39.5982 36.7362ZM39.5982 32.0407C38.9767 32.0407 38.7005 33.1455 38.7005 34.1813C38.7005 35.4242 39.0803 36.3219 39.5982 36.3219C40.0989 36.3219 40.4787 35.3897 40.4787 34.1468C40.4614 33.0937 40.1679 32.0407 39.5982 32.0407Z" fill="#1B5089"/>
<path d="M44.9844 35.6486C45.5886 36.0111 46.9351 36.7707 47.8846 36.7707C49.0758 36.7707 49.7318 36.201 49.7318 35.3551C49.7318 34.5783 49.2139 34.1122 47.9364 33.6289C46.2791 33.0074 45.2088 32.1097 45.2088 30.6079C45.2088 28.9162 46.5899 27.6215 48.7823 27.6215C49.8699 27.6215 51.0438 27.9495 51.579 28.2257L51.4754 30.1936C51.1128 29.9864 49.6973 29.1924 48.7478 29.1924C47.5739 29.1924 47.0732 29.8311 47.0732 30.4353C47.0732 31.2294 47.6602 31.6091 49.0067 32.1443C50.7676 32.8175 51.6135 33.7324 51.6135 35.217C51.6135 36.8742 50.3878 38.3243 47.781 38.3243C46.7107 38.3243 45.6059 38.0136 45.0534 37.6856L44.9844 35.6486Z" fill="#1B5089"/>
<path d="M57.3966 38.1862L57.2757 37.3576H57.224C56.7751 37.9445 56.0155 38.3588 55.066 38.3588C53.5987 38.3588 52.77 37.2712 52.77 36.1319C52.77 34.233 54.41 33.2836 57.1031 33.3008V33.18C57.1031 32.6794 56.9132 31.868 55.6185 31.868C54.8934 31.868 53.8231 32.3514 53.3224 32.6794L53.2879 31.1948C53.8231 30.8495 54.7726 30.5388 55.9292 30.5388C58.2598 30.5388 58.9503 32.0579 58.9503 33.6979V36.4081C58.9503 37.0814 58.9848 37.7546 59.0539 38.2034H57.3966V38.1862ZM57.1549 34.5265C55.8429 34.492 54.5999 34.7854 54.5999 35.9248C54.5999 36.6671 55.066 36.995 55.653 36.995C56.3953 36.995 56.9305 36.4944 57.0858 35.9593C57.1376 35.8212 57.1376 35.6658 57.1376 35.545V34.5265H57.1549Z" fill="#1B5089"/>
<path d="M60.9012 32.9211C60.9012 32.058 60.8839 31.333 60.8494 30.6942H62.4721L62.5584 31.8163H62.6102C62.921 31.2294 63.7151 30.5216 64.9408 30.5216C66.2183 30.5216 67.5303 31.3675 67.5303 33.7325V38.1862H65.6658V33.9569C65.6658 32.8866 65.2688 32.058 64.2675 32.058C63.5252 32.058 63.0245 32.5931 62.8346 33.1628C62.7829 33.3354 62.7656 33.5598 62.7656 33.7842V38.1862H60.9012V32.9211Z" fill="#1B5089"/>
<path d="M74.8499 37.9445C74.4528 38.1344 73.6933 38.3242 72.7783 38.3242C70.4995 38.3242 69.0149 36.8397 69.0149 34.5092C69.0149 32.2651 70.5168 30.5043 73.0718 30.5043C73.745 30.5043 74.4356 30.6596 74.8499 30.8668L74.5219 32.2823C74.2284 32.1442 73.7796 31.9889 73.1236 31.9889C71.708 31.9889 70.8793 33.0591 70.8966 34.4229C70.8966 35.9593 71.8633 36.8397 73.1236 36.8397C73.7623 36.8397 74.2112 36.7016 74.5737 36.5462L74.8499 37.9445Z" fill="#1B5089"/>
<path d="M76.2136 27.2589H78.0781V31.7127H78.1126C78.337 31.3674 78.6305 31.074 79.0275 30.8495C79.3901 30.6424 79.8217 30.5043 80.2878 30.5043C81.5307 30.5043 82.8427 31.3502 82.8427 33.7497V38.1689H80.9956V33.9741C80.9956 32.8865 80.5985 32.0579 79.58 32.0579C78.8549 32.0579 78.3543 32.5585 78.1471 33.1282C78.0953 33.2836 78.0781 33.4735 78.0781 33.6979V38.1689H76.2136V27.2589Z" fill="#1B5089"/>
<path d="M86.0884 34.9754C86.1402 36.3219 87.176 36.9088 88.3327 36.9088C89.1958 36.9088 89.8 36.7879 90.3525 36.5635L90.6287 37.8755C90.0072 38.1344 89.1268 38.3416 88.0737 38.3416C85.7086 38.3416 84.3103 36.857 84.3103 34.5611C84.3103 32.4895 85.536 30.5216 87.8838 30.5216C90.2489 30.5216 91.0257 32.5241 91.0257 34.164C91.0257 34.5265 90.9912 34.8027 90.9739 34.9581H86.0884V34.9754ZM89.2994 33.6461C89.3167 32.9556 89.0059 31.8163 87.7802 31.8163C86.6409 31.8163 86.1575 32.8866 86.0884 33.6461H89.2994Z" fill="#1B5089"/>
<path d="M91.8369 37.0987L94.5818 33.4908C94.9616 33.0247 95.2723 32.6622 95.6694 32.2306V32.1961H92.1131V30.6942H97.9136V31.8508L95.2378 35.3724C94.8753 35.8212 94.53 36.2528 94.1502 36.6498V36.6671H97.9999V38.1689H91.8369V37.0987Z" fill="#1B5089"/>
<path d="M53.2707 28.6054L57.1549 27.8113L57.1377 29.1232L53.2534 29.8137L53.2707 28.6054Z" fill="#1B5089"/>
</g>
<defs>
<clipPath id="clip0_677_7251">
<rect width="95" height="14" fill="white" transform="translate(3 27)"/>
</clipPath>
</defs>
</svg>
