<svg width="102" height="68" viewBox="0 0 102 68" fill="none" xmlns="http://www.w3.org/2000/svg">
<rect width="101.58" height="68" rx="12" fill="white"/>
<g clip-path="url(#clip0_680_7693)">
<path d="M34.7028 39.7687C34.6501 40.357 34.6369 41.0368 34.6369 41.7559V43.1286C34.9002 43.1416 35.1635 43.1547 35.5453 43.1547C35.9271 43.1547 36.1903 43.1416 36.4536 43.1286V41.7559C36.4536 41.0237 36.4405 40.3439 36.3878 39.7687H38.6653C38.5468 40.9976 38.5468 42.0042 38.5468 44.0306C38.5468 46.057 38.5468 47.0637 38.6653 48.2926H36.4141C36.4668 47.7043 36.48 47.0245 36.48 46.3054V44.5667C36.2167 44.5536 35.9534 44.5405 35.5716 44.5405C35.1898 44.5405 34.9266 44.5536 34.6633 44.5667V46.3054C34.6633 47.0375 34.6764 47.7174 34.7291 48.2926H32.4385C32.557 47.0637 32.557 46.057 32.557 44.0306C32.557 42.0042 32.557 40.9976 32.4385 39.7687H34.7028Z" fill="#354583"/>
<path d="M39.9684 42.2264C40.1396 42.2003 40.7846 42.1349 41.2322 42.1349C43.7203 42.1349 44.4706 43.1023 44.4706 44.6973V46.1877C44.4706 46.7629 44.4706 47.4035 44.7866 48.2925H42.8778C42.7329 48.0964 42.6803 47.9657 42.6671 47.9265C42.338 48.1618 41.9036 48.3971 41.3244 48.3971C40.1527 48.3971 39.4023 47.5996 39.4023 46.593C39.4023 45.4948 40.2844 44.7496 41.4165 44.3835L42.417 44.0567C42.4038 43.6383 42.1274 43.2854 41.5613 43.2854C41.1795 43.2854 40.574 43.4684 39.9684 43.8998V42.2264ZM42.575 45.1941C41.8114 45.3902 41.3507 45.8478 41.3507 46.4491C41.3507 46.8675 41.614 47.1943 41.9957 47.1943C42.2459 47.1943 42.496 47.0375 42.575 46.9329V45.1941Z" fill="#354583"/>
<path d="M47.538 39.7686V42.4617C47.8408 42.2787 48.2752 42.1218 48.7096 42.1218C49.8549 42.1218 50.9213 42.9585 50.9213 45.1287C50.9213 46.8152 49.9998 48.4232 48.2884 48.4232C47.8276 48.4232 47.301 48.2663 46.735 47.8218L46.0636 48.3971L45.4844 48.0441C45.5897 47.2858 45.5897 46.4753 45.5897 45.6124V42.1872C45.5897 41.7427 45.5897 41.2589 45.4712 39.7555H47.538V39.7686ZM47.538 46.6191C47.538 46.959 47.6697 47.2335 48.0514 47.2335C48.5385 47.2335 48.8939 46.7367 48.8939 45.3117C48.8939 44.292 48.6307 43.4291 48.0251 43.4291C47.696 43.4291 47.538 43.6383 47.538 43.9129V46.6191Z" fill="#354583"/>
<path d="M52.7907 39.6902C53.3962 39.6902 53.8701 40.1739 53.8701 40.7622C53.8701 41.3636 53.3831 41.8342 52.7907 41.8342C52.1851 41.8342 51.7112 41.3505 51.7112 40.7622C51.7112 40.1739 52.1983 39.6902 52.7907 39.6902ZM53.7912 42.2787C53.7648 42.8932 53.7648 43.8083 53.7648 45.0895C53.7648 46.7107 53.7648 47.5212 53.8701 48.2926H51.7112C51.8165 47.5343 51.8165 46.7237 51.8165 45.8609V44.7104C51.8165 43.8476 51.8165 43.037 51.7112 42.2787H53.7912Z" fill="#354583"/>
<path d="M57.1086 40.4485C57.0823 40.8145 57.0691 41.5205 57.0691 42.2788H57.9643V43.4292H57.0691V46.4362C57.0691 46.9199 57.2534 47.1944 57.7274 47.1944C57.7932 47.1944 57.8722 47.1944 57.9775 47.1813V48.2534C57.5826 48.3841 57.1745 48.4364 56.7664 48.4364C56.2266 48.4364 55.7922 48.2403 55.4631 47.8612C55.213 47.5605 55.1208 47.0637 55.1208 46.4492V43.4292H54.4231V42.2788H55.1208C55.1208 41.5336 55.1076 40.8276 55.0813 40.4485H57.1086Z" fill="#354583"/>
<path d="M58.8727 42.2264C59.0438 42.2003 59.6889 42.1349 60.1365 42.1349C62.6246 42.1349 63.3749 43.1023 63.3749 44.6973V46.1877C63.3749 46.7629 63.3749 47.4035 63.6909 48.2925H61.782C61.6372 48.0964 61.5846 47.9657 61.5714 47.9265C61.2423 48.1618 60.8079 48.3971 60.2286 48.3971C59.057 48.3971 58.3066 47.5996 58.3066 46.593C58.3066 45.4948 59.1887 44.7496 60.3208 44.3835L61.3213 44.0567C61.3081 43.6383 61.0317 43.2854 60.4656 43.2854C60.0838 43.2854 59.4783 43.4684 58.8727 43.8998V42.2264ZM61.4793 45.1941C60.7289 45.3902 60.255 45.8478 60.255 46.4491C60.255 46.8675 60.5183 47.1943 60.9 47.1943C61.1502 47.1943 61.4003 47.0375 61.4793 46.9329V45.1941Z" fill="#354583"/>
<path d="M66.6792 40.4485C66.6529 40.8145 66.6397 41.5205 66.6397 42.2788H67.5349V43.4292H66.6397V46.4362C66.6397 46.9199 66.824 47.1944 67.2979 47.1944C67.3637 47.1944 67.4427 47.1944 67.548 47.1813V48.2534C67.1531 48.3841 66.745 48.4364 66.3369 48.4364C65.7972 48.4364 65.3628 48.2403 65.0336 47.8612C64.7835 47.5605 64.6914 47.0637 64.6914 46.4492V43.4292H63.9937V42.2788H64.6914C64.6914 41.5336 64.6782 40.8276 64.6519 40.4485H66.6792Z" fill="#354583"/>
<path d="M34.571 50.0444C34.5447 50.0183 34.4525 49.979 34.3077 49.979C34.0313 49.979 33.8996 50.1882 33.8996 50.4105C33.8996 50.5412 33.9391 50.6719 33.9655 50.7373H34.4657V51.3648H33.9655V52.6983C33.9655 53.169 33.9655 53.6135 34.0313 54.0318H32.8465C32.9123 53.6135 32.9123 53.169 32.9123 52.6983V51.3648H32.5437V50.7373H32.9123V50.4758C32.9123 50.0836 32.9781 49.8221 33.2941 49.5738C33.5574 49.3646 33.8865 49.2861 34.1761 49.2861C34.3341 49.2861 34.5052 49.3123 34.5974 49.3515V50.0444H34.571Z" fill="#354583"/>
<path d="M37.6252 52.3845C37.6252 53.4958 36.8879 54.1102 36.0849 54.1102C35.2819 54.1102 34.5447 53.4958 34.5447 52.3845C34.5447 51.2733 35.2819 50.6588 36.0849 50.6588C36.8879 50.6588 37.6252 51.2733 37.6252 52.3845ZM35.7163 52.3845C35.7163 53.182 35.8875 53.4565 36.0849 53.4565C36.2824 53.4565 36.4535 53.1689 36.4535 52.3845C36.4535 51.587 36.2824 51.3125 36.0849 51.3125C35.8875 51.3125 35.7163 51.6001 35.7163 52.3845Z" fill="#354583"/>
<path d="M38.9548 50.7373C38.9943 50.8549 39.0469 51.0772 39.0469 51.1818C39.2839 50.868 39.5603 50.6588 39.8894 50.6588C39.9553 50.6588 40.0079 50.6719 40.0342 50.685V51.5609C39.9553 51.5347 39.8631 51.5347 39.8368 51.5347C39.3365 51.5347 39.1127 51.9923 39.1127 52.7114C39.1127 53.182 39.1127 53.6265 39.1786 54.0449H37.9543C38.0201 53.6265 38.0201 53.182 38.0201 52.7114V52.0838C38.0201 51.6132 38.0201 51.1687 37.9016 50.7503H38.9548V50.7373Z" fill="#354583"/>
<path d="M43.4308 49.3646C43.4045 49.6915 43.3913 50.0575 43.3913 50.4628V51.2211C43.5361 51.2211 43.6809 51.2341 43.8916 51.2341C44.1022 51.2341 44.247 51.2341 44.3918 51.2211V50.4628C44.3918 50.0575 44.3918 49.6915 44.3523 49.3646H45.6029C45.5371 50.0444 45.5371 50.5935 45.5371 51.7048C45.5371 52.816 45.5371 53.3651 45.6029 54.0449H44.3523C44.3786 53.7181 44.3918 53.352 44.3918 52.9468V51.9924C44.247 51.9793 44.1022 51.9793 43.8916 51.9793C43.6809 51.9793 43.5361 51.9793 43.3913 51.9924V52.9468C43.3913 53.352 43.4045 53.7181 43.4308 54.0449H42.1802C42.246 53.3651 42.246 52.816 42.246 51.7048C42.246 50.5935 42.246 50.0444 42.1802 49.3646H43.4308Z" fill="#354583"/>
<path d="M48.0645 54.0449C48.0119 53.9403 47.9856 53.8357 47.9592 53.7442C47.7091 53.9795 47.459 54.1233 47.1167 54.1233C46.5506 54.1233 46.182 53.7181 46.182 53.0905V52.0839C46.182 51.6132 46.182 51.1687 46.1162 50.7504H47.2484V52.9467C47.2484 53.2082 47.3537 53.3651 47.5511 53.3651C47.7223 53.3651 47.8934 53.2474 47.8934 53.0121V52.0839C47.8934 51.6132 47.8934 51.1687 47.8276 50.7504H49.0124C48.9466 51.1687 48.9466 51.6132 48.9466 52.0839V52.7114C48.9466 53.182 48.9466 53.6265 49.0124 54.0449H48.0645Z" fill="#354583"/>
<path d="M50.421 50.7373C50.4605 50.8418 50.5 50.9464 50.5131 51.0379C50.7632 50.8157 51.0529 50.6588 51.382 50.6588C51.7374 50.6588 51.9612 50.868 52.1192 51.0772C52.3561 50.868 52.6194 50.6588 53.0539 50.6588C53.6989 50.6588 53.949 51.1164 53.949 51.757V52.6983C53.949 53.1689 53.949 53.6134 54.0149 54.0318H52.8301C52.8959 53.6134 52.8959 53.1689 52.8959 52.6983V51.7831C52.8959 51.5478 52.8301 51.3779 52.6194 51.3779C52.3956 51.3779 52.264 51.5478 52.264 51.7831V52.6983C52.264 53.1689 52.264 53.6134 52.3298 54.0318H51.145C51.2108 53.6134 51.2108 53.1689 51.2108 52.6983V51.7701C51.2108 51.5478 51.145 51.3779 50.9344 51.3779C50.7501 51.3779 50.5789 51.5347 50.5789 51.7308V52.6983C50.5789 53.1689 50.5789 53.6134 50.6448 54.0318H49.46C49.5258 53.6134 49.5258 53.1689 49.5258 52.6983V52.0708C49.5258 51.6001 49.5258 51.1556 49.46 50.7373H50.421Z" fill="#354583"/>
<path d="M54.6468 50.7111C54.7389 50.698 55.0943 50.6588 55.3445 50.6588C56.7136 50.6588 57.1217 51.1948 57.1217 52.0708V52.8944C57.1217 53.2081 57.1217 53.5611 57.2928 54.0449H56.2397C56.1607 53.9403 56.1343 53.8618 56.1212 53.8357C55.9369 53.9664 55.6999 54.0971 55.384 54.0971C54.7389 54.0971 54.3308 53.6526 54.3308 53.1036C54.3308 52.5022 54.8179 52.0969 55.4366 51.8877L55.9895 51.7047C55.9895 51.4694 55.8316 51.2733 55.5156 51.2733C55.305 51.2733 54.9759 51.3779 54.6336 51.6132V50.7111H54.6468ZM56.0685 52.3322C55.6473 52.4368 55.3971 52.6983 55.3971 53.0251C55.3971 53.2604 55.5419 53.4304 55.7526 53.4304C55.8974 53.4304 56.029 53.3389 56.0685 53.2866V52.3322Z" fill="#354583"/>
<path d="M58.5829 50.7373C58.6355 50.8418 58.6619 50.9464 58.6882 51.0379C58.9383 50.8026 59.1884 50.6588 59.5307 50.6588C60.0968 50.6588 60.4654 51.0641 60.4654 51.6916V52.6983C60.4654 53.1689 60.4654 53.6134 60.5312 54.0318H59.3464C59.4122 53.6134 59.4122 53.1689 59.4122 52.6983V51.7962C59.4122 51.587 59.3201 51.4302 59.1226 51.4302C58.9515 51.4302 58.7672 51.5478 58.7672 51.7439V52.6983C58.7672 53.1689 58.7672 53.6134 58.833 54.0318H57.6482C57.714 53.6134 57.714 53.1689 57.714 52.6983V52.0708C57.714 51.6001 57.714 51.1556 57.6482 50.7373H58.5829Z" fill="#354583"/>
<path d="M61.5712 49.3123C61.9003 49.3123 62.1636 49.5737 62.1636 49.9006C62.1636 50.2274 61.9003 50.4889 61.5712 50.4889C61.242 50.4889 60.9788 50.2274 60.9788 49.9006C60.9788 49.5737 61.242 49.3123 61.5712 49.3123ZM62.1109 50.7373C62.0977 51.0772 62.0977 51.574 62.0977 52.2799C62.0977 53.1689 62.0977 53.6134 62.1636 54.0318H60.9788C61.0446 53.6134 61.0446 53.1689 61.0446 52.6983V52.0708C61.0446 51.6001 61.0446 51.1556 60.9788 50.7373H62.1109Z" fill="#354583"/>
<path d="M63.941 49.7306C63.9278 49.9398 63.9146 50.3189 63.9146 50.7372H64.4149V51.3648H63.9146V53.012C63.9146 53.2866 64.02 53.4304 64.2832 53.4304C64.3227 53.4304 64.3622 53.4304 64.4281 53.4304V54.0187C64.2043 54.0971 63.9805 54.1102 63.7567 54.1102C63.4539 54.1102 63.2169 54.0056 63.0458 53.7964C62.901 53.6265 62.8483 53.352 62.8483 53.0251V51.3648H62.4666V50.7372H62.8483C62.8483 50.3189 62.8483 49.9398 62.822 49.7306H63.941Z" fill="#354583"/>
<path d="M65.6785 50.7373C65.7707 51.2472 66.0208 52.1754 66.1525 52.6068H66.1656C66.3499 51.9401 66.4947 51.1818 66.5474 50.7373H67.4952C67.2714 51.6394 66.7844 53.4566 66.3631 54.3194C66.1393 54.7639 65.8102 55.2869 64.915 55.2869C64.8229 55.2869 64.678 55.2738 64.5991 55.2477V54.411C64.6649 54.4502 64.8097 54.5155 64.9677 54.5155C65.3099 54.5155 65.5469 54.2279 65.5469 53.9926C65.5469 53.8619 65.5206 53.7834 65.2573 53.0905C64.9018 52.1623 64.6254 51.1818 64.5596 50.7373H65.6785Z" fill="#354583"/>
<path d="M26.238 58.9083C26.238 59.7188 25.6982 60.1633 25.119 60.1633C24.5397 60.1633 24 59.7188 24 58.9083C24 58.0977 24.5397 57.6532 25.119 57.6532C25.6982 57.6532 26.238 58.0977 26.238 58.9083ZM24.8557 58.9083C24.8557 59.4835 24.9742 59.6927 25.119 59.6927C25.2638 59.6927 25.3823 59.4835 25.3823 58.9083C25.3823 58.333 25.2638 58.1238 25.119 58.1238C24.9742 58.1238 24.8557 58.333 24.8557 58.9083Z" fill="#6FAE2D"/>
<path d="M27.8308 57.2086C27.8177 57.1956 27.7519 57.1563 27.6465 57.1563C27.4491 57.1563 27.3438 57.3132 27.3438 57.4701C27.3438 57.5616 27.3701 57.6662 27.3964 57.7054H27.7519V58.163H27.3833V59.1304C27.3833 59.4703 27.3833 59.7972 27.4227 60.0979H26.5671C26.6066 59.7972 26.6066 59.4703 26.6066 59.1304V58.163H26.3433V57.7054H26.6066V57.5224C26.6066 57.2479 26.6592 57.0517 26.883 56.8687C27.0805 56.7118 27.3174 56.6595 27.5281 56.6595C27.6465 56.6595 27.765 56.6726 27.8308 56.6988V57.2086Z" fill="#6FAE2D"/>
<path d="M30.1479 56.9865C30.1347 57.1303 30.1347 57.4179 30.1347 57.7186H30.4901V58.1761H30.1347V59.3789C30.1347 59.575 30.2005 59.6796 30.398 59.6796C30.4243 59.6796 30.4506 59.6796 30.5033 59.6796V60.111C30.3453 60.1633 30.1874 60.1764 30.0162 60.1764C29.8056 60.1764 29.6344 60.0979 29.5028 59.9541C29.3975 59.8365 29.358 59.6404 29.358 59.392V58.1892H29.0815V57.7316H29.358C29.358 57.4309 29.358 57.1564 29.3448 56.9995H30.1479V56.9865Z" fill="#6FAE2D"/>
<path d="M31.5301 56.7119V57.8362C31.688 57.7316 31.8855 57.6401 32.083 57.6401C32.5701 57.6401 32.7675 58.0062 32.7675 58.5161V59.1174C32.7675 59.4574 32.7675 59.7842 32.807 60.0849H31.9513C31.9908 59.7842 31.9908 59.4574 31.9908 59.1174V58.4638C31.9908 58.2677 31.9118 58.15 31.7539 58.15C31.6485 58.15 31.5301 58.2154 31.5301 58.2807V59.1174C31.5301 59.4574 31.5301 59.7842 31.5696 60.0849H30.7139C30.7534 59.7842 30.7534 59.4574 30.7534 59.1174V57.6794C30.7534 57.3394 30.7534 57.0126 30.7139 56.7119H31.5301Z" fill="#6FAE2D"/>
<path d="M33.926 59.235C33.9918 59.4965 34.1498 59.6664 34.3867 59.6664C34.5447 59.6664 34.7158 59.588 34.8607 59.4311L35.1239 59.7318C34.966 59.9279 34.6237 60.1501 34.2024 60.1501C33.5047 60.1501 33.0571 59.6141 33.0571 58.9212C33.0571 58.2283 33.4916 57.64 34.1761 57.64C34.8212 57.64 35.1239 58.163 35.1371 58.7905L33.926 59.235ZM34.2156 58.6597C34.3341 58.6075 34.3604 58.5813 34.3604 58.4636C34.3604 58.2545 34.2814 58.1107 34.1366 58.1107C33.9391 58.1107 33.8338 58.3329 33.8338 58.6728C33.8338 58.712 33.8338 58.7513 33.847 58.8036L34.2156 58.6597Z" fill="#6FAE2D"/>
<path d="M39.0206 57.627C38.9022 57.4701 38.6257 57.1694 38.2834 57.1694C37.77 57.1694 37.5331 57.6924 37.5331 58.3591C37.5331 59.1435 37.8358 59.6142 38.3361 59.6142C38.5467 59.6142 38.7837 59.5096 38.9417 59.3527L39.2181 59.6795C39.0206 59.9149 38.6257 60.1763 38.1255 60.1763C37.2434 60.1633 36.5984 59.5096 36.5984 58.5291C36.5984 57.6139 37.1908 56.6465 38.3624 56.6465C38.5862 56.6465 38.8232 56.6857 39.0075 56.7511V57.627H39.0206Z" fill="#6FAE2D"/>
<path d="M41.4692 58.9083C41.4692 59.7188 40.9294 60.1633 40.3502 60.1633C39.7709 60.1633 39.2312 59.7188 39.2312 58.9083C39.2312 58.0977 39.7709 57.6532 40.3502 57.6532C40.9294 57.6532 41.4692 58.0977 41.4692 58.9083ZM40.0737 58.9083C40.0737 59.4835 40.1922 59.6927 40.337 59.6927C40.4818 59.6927 40.6003 59.4835 40.6003 58.9083C40.6003 58.333 40.4818 58.1238 40.337 58.1238C40.2054 58.1238 40.0737 58.333 40.0737 58.9083Z" fill="#6FAE2D"/>
<path d="M41.8378 57.6924C41.9036 57.6793 42.1669 57.6532 42.338 57.6532C43.3254 57.6532 43.6282 58.0323 43.6282 58.6729V59.2612C43.6282 59.4835 43.6282 59.745 43.7466 60.0979H42.9831C42.9304 60.0195 42.9041 59.9672 42.9041 59.9541C42.7725 60.0457 42.6013 60.1372 42.3644 60.1372C41.9036 60.1372 41.6008 59.8234 41.6008 59.4181C41.6008 58.9867 41.9563 58.686 42.4039 58.5422L42.7988 58.4115C42.7988 58.2415 42.6803 58.0977 42.4565 58.0977C42.2985 58.0977 42.0616 58.1631 41.8246 58.3461V57.6924H41.8378ZM42.8646 58.869C42.5618 58.9475 42.3775 59.1305 42.3775 59.3658C42.3775 59.5358 42.4828 59.6665 42.6408 59.6665C42.7461 59.6665 42.8383 59.6012 42.8646 59.5619V58.869Z" fill="#6FAE2D"/>
<path d="M45.7477 58.3199C45.5897 58.2023 45.458 58.1369 45.3132 58.1369C44.971 58.1369 44.7867 58.4245 44.7867 58.869C44.7867 59.4051 45.0236 59.6665 45.3264 59.6665C45.5239 59.6665 45.6818 59.5619 45.7477 59.5096L45.9715 59.8103C45.7608 60.0195 45.458 60.1633 45.1289 60.1633C44.4444 60.1633 43.9705 59.6665 43.9705 58.9998C43.9705 58.3069 44.4839 57.6532 45.4317 57.6532C45.5897 57.6532 45.7213 57.6793 45.7608 57.6793V58.3199H45.7477Z" fill="#6FAE2D"/>
<path d="M46.8404 56.7119V57.8362C46.9983 57.7316 47.1958 57.6401 47.3933 57.6401C47.8804 57.6401 48.0778 58.0062 48.0778 58.5161V59.1174C48.0778 59.4574 48.0778 59.7842 48.1173 60.0849H47.2616C47.3011 59.7842 47.3011 59.4574 47.3011 59.1174V58.4638C47.3011 58.2677 47.2221 58.15 47.0642 58.15C46.9588 58.15 46.8404 58.2154 46.8404 58.2807V59.1174C46.8404 59.4574 46.8404 59.7842 46.8799 60.0849H46.0242C46.0637 59.7842 46.0637 59.4574 46.0637 59.1174V57.6794C46.0637 57.3394 46.0637 57.0126 46.0242 56.7119H46.8404Z" fill="#6FAE2D"/>
<path d="M49.2363 59.235C49.3021 59.4965 49.4601 59.6664 49.697 59.6664C49.855 59.6664 50.0261 59.588 50.171 59.4311L50.4342 59.7318C50.2763 59.9279 49.9208 60.1501 49.5127 60.1501C48.815 60.1501 48.3674 59.6141 48.3674 58.9212C48.3674 58.2283 48.8019 57.64 49.4864 57.64C50.1315 57.64 50.4342 58.163 50.4474 58.7905L49.2363 59.235ZM49.5259 58.6597C49.6444 58.6075 49.6707 58.5813 49.6707 58.4636C49.6707 58.2545 49.5917 58.1107 49.4469 58.1107C49.2494 58.1107 49.1441 58.3329 49.1441 58.6728C49.1441 58.712 49.1441 58.7513 49.1573 58.8036L49.5259 58.6597Z" fill="#6FAE2D"/>
<path d="M51.4873 56.7119V59.1305C51.4873 59.4704 51.4873 59.7973 51.5268 60.098H50.6711C50.7106 59.7973 50.7106 59.4704 50.7106 59.1305V57.6794C50.7106 57.3394 50.7106 57.0126 50.6711 56.7119H51.4873Z" fill="#6FAE2D"/>
<path d="M52.7249 56.7119V59.1305C52.7249 59.4704 52.7249 59.7973 52.7644 60.098H51.9087C51.9482 59.7973 51.9482 59.4704 51.9482 59.1305V57.6794C51.9482 57.3394 51.9482 57.0126 51.9087 56.7119H52.7249Z" fill="#6FAE2D"/>
<path d="M53.2514 57.6924C53.3172 57.6793 53.5805 57.6532 53.7516 57.6532C54.739 57.6532 55.0417 58.0323 55.0417 58.6729V59.2612C55.0417 59.4835 55.0417 59.745 55.1602 60.0979H54.4099C54.3572 60.0195 54.3309 59.9672 54.3309 59.9541C54.1992 60.0457 54.0281 60.1372 53.7911 60.1372C53.3304 60.1372 53.0276 59.8234 53.0276 59.4181C53.0276 58.9867 53.383 58.686 53.8306 58.5422L54.2256 58.4115C54.2256 58.2415 54.1071 58.0977 53.8833 58.0977C53.7253 58.0977 53.4883 58.1631 53.2514 58.3461V57.6924ZM54.2914 58.869C53.9886 58.9475 53.8043 59.1305 53.8043 59.3658C53.8043 59.5358 53.9096 59.6665 54.0676 59.6665C54.1729 59.6665 54.265 59.6012 54.2914 59.5619V58.869Z" fill="#6FAE2D"/>
<path d="M57.0953 56.7118C57.1348 56.9863 57.2006 57.2347 57.2533 57.4439L57.6482 58.9343H57.6614L58.0168 57.7315C58.109 57.4439 58.2406 56.9471 58.2669 56.7118H58.9778C58.912 56.8687 58.8198 57.1694 58.7672 57.3132L57.9773 59.7972L58.0695 60.0978H57.1611C57.0295 59.601 56.9373 59.2611 56.4371 57.6139C56.3713 57.3916 56.2396 56.9471 56.1475 56.6987H57.0953V56.7118Z" fill="#6FAE2D"/>
<path d="M59.0043 57.6924C59.0701 57.6793 59.3334 57.6532 59.5045 57.6532C60.4919 57.6532 60.7947 58.0323 60.7947 58.6729V59.2612C60.7947 59.4835 60.7947 59.745 60.9131 60.0979H60.1496C60.0969 60.0195 60.0706 59.9672 60.0706 59.9541C59.939 60.0457 59.7678 60.1372 59.5309 60.1372C59.0701 60.1372 58.7673 59.8234 58.7673 59.4181C58.7673 58.9867 59.1228 58.686 59.5704 58.5422L59.9653 58.4115C59.9653 58.2415 59.8468 58.0977 59.623 58.0977C59.465 58.0977 59.2281 58.1631 58.9911 58.3461V57.6924H59.0043ZM60.0443 58.869C59.7415 58.9475 59.5572 59.1305 59.5572 59.3658C59.5572 59.5358 59.6625 59.6665 59.8205 59.6665C59.9258 59.6665 60.018 59.6012 60.0443 59.5619V58.869Z" fill="#6FAE2D"/>
<path d="M62.0188 56.7119V59.1305C62.0188 59.4704 62.0188 59.7973 62.0583 60.098H61.2026C61.2421 59.7973 61.2421 59.4704 61.2421 59.1305V57.6794C61.2421 57.3394 61.2421 57.0126 61.2026 56.7119H62.0188Z" fill="#6FAE2D"/>
<path d="M63.2564 56.7119V59.1305C63.2564 59.4704 63.2564 59.7973 63.2959 60.098H62.4402C62.4797 59.7973 62.4797 59.4704 62.4797 59.1305V57.6794C62.4797 57.3394 62.4797 57.0126 62.4402 56.7119H63.2564Z" fill="#6FAE2D"/>
<path d="M64.4543 59.235C64.5201 59.4965 64.6781 59.6664 64.9151 59.6664C65.073 59.6664 65.2442 59.588 65.389 59.4311L65.6523 59.7318C65.4943 59.9279 65.1388 60.1501 64.7308 60.1501C64.033 60.1501 63.5854 59.6141 63.5854 58.9212C63.5854 58.2283 64.0199 57.64 64.7044 57.64C65.3495 57.64 65.6523 58.163 65.6654 58.7905L64.4543 59.235ZM64.7571 58.6597C64.8756 58.6075 64.9019 58.5813 64.9019 58.4636C64.9019 58.2545 64.8229 58.1107 64.6781 58.1107C64.4806 58.1107 64.3753 58.3329 64.3753 58.6728C64.3753 58.712 64.3753 58.7513 64.3885 58.8036L64.7571 58.6597Z" fill="#6FAE2D"/>
<path d="M66.5474 57.7054C66.6132 58.0715 66.7975 58.7513 66.8897 59.0651H66.9028C67.0345 58.5814 67.1398 58.0323 67.1793 57.7054H67.8638C67.7059 58.3591 67.3504 59.6795 67.0476 60.294C66.8897 60.6078 66.6527 61 65.9945 61C65.9287 61 65.8234 61 65.7707 60.9738V60.3724C65.8102 60.3986 65.9155 60.4378 66.034 60.4378C66.2841 60.4378 66.4552 60.2286 66.4552 60.0587C66.4552 59.9672 66.4421 59.9149 66.2446 59.405C65.9813 58.7252 65.797 58.0192 65.7312 57.7054H66.5474Z" fill="#6FAE2D"/>
<path d="M67.8903 60.6208C68.101 60.477 68.2194 60.2678 68.2194 60.0848C68.022 60.0848 67.8508 59.941 67.8508 59.7449C67.8508 59.5226 68.022 59.3527 68.2589 59.3527C68.5354 59.3527 68.6802 59.5488 68.6802 59.8102C68.6802 60.2155 68.3248 60.5554 67.9956 60.7777L67.8903 60.6208Z" fill="#6FAE2D"/>
<path d="M71.2208 56.7119C71.1682 57.1956 71.1682 57.6009 71.1682 58.4115C71.1682 59.222 71.1682 59.6142 71.2208 60.111H70.2993C70.352 59.6273 70.352 59.222 70.352 58.4115C70.352 57.6009 70.352 57.2087 70.2993 56.7119H71.2208Z" fill="#6FAE2D"/>
<path d="M72.2607 57.7054C72.3002 57.7707 72.3133 57.8623 72.3265 57.9146C72.4976 57.7446 72.6819 57.64 72.9321 57.64C73.3402 57.64 73.6035 57.9407 73.6035 58.3852V59.1173C73.6035 59.4572 73.6035 59.7841 73.6429 60.0848H72.7873C72.8268 59.7841 72.8268 59.4572 72.8268 59.1173V58.4636C72.8268 58.3198 72.7609 58.2022 72.6161 58.2022C72.4976 58.2022 72.366 58.2937 72.366 58.4244V59.1173C72.366 59.4572 72.366 59.7841 72.4055 60.0848H71.5498C71.5893 59.7841 71.5893 59.4572 71.5893 59.1173V58.6597C71.5893 58.3198 71.5893 57.993 71.5498 57.6923H72.2607V57.7054Z" fill="#6FAE2D"/>
<path d="M75.7098 58.3199C75.5518 58.2023 75.4202 58.1369 75.2754 58.1369C74.9331 58.1369 74.7488 58.4245 74.7488 58.869C74.7488 59.4051 74.9858 59.6665 75.2886 59.6665C75.486 59.6665 75.644 59.5619 75.7098 59.5096L75.9336 59.8103C75.723 60.0195 75.4202 60.1633 75.0911 60.1633C74.4065 60.1633 73.9326 59.6665 73.9326 58.9998C73.9326 58.3069 74.446 57.6532 75.3939 57.6532C75.5518 57.6532 75.6835 57.6793 75.723 57.6793V58.3199H75.7098Z" fill="#6FAE2D"/>
<path d="M76.5919 59.3396C76.8157 59.3396 77 59.5226 77 59.7449C77 59.9671 76.8157 60.1502 76.5919 60.1502C76.3681 60.1502 76.1838 59.9671 76.1838 59.7449C76.197 59.5226 76.3681 59.3396 76.5919 59.3396Z" fill="#6FAE2D"/>
<path d="M53.9754 17.2821C53.9754 16.3801 53.2382 15.6349 52.3167 15.6349C51.4083 15.6349 50.658 16.367 50.658 17.2821C50.658 18.1842 51.3952 18.9294 52.3167 18.9294C53.2382 18.9294 53.9754 18.1973 53.9754 17.2821Z" fill="#354583"/>
<path d="M46.103 20.629C46.103 19.7531 45.3922 19.0471 44.5101 19.0471C43.6281 19.0471 42.9172 19.7531 42.9172 20.629C42.9172 21.5049 43.6281 22.2109 44.5101 22.2109C45.3922 22.2109 46.103 21.5049 46.103 20.629Z" fill="#354583"/>
<path d="M61.7688 20.629C61.7688 19.7531 61.0579 19.0471 60.1759 19.0471C59.2939 19.0471 58.583 19.7531 58.583 20.629C58.583 21.5049 59.2939 22.2109 60.1759 22.2109C61.0579 22.2109 61.7688 21.5049 61.7688 20.629Z" fill="#354583"/>
<path d="M48.1305 21.4526C48.1305 21.4526 47.0115 23.2698 43.7072 23.3352C43.7072 23.3352 42.9437 23.3875 40.1002 22.8122C40.1002 22.8122 37.7437 21.9886 37.5594 23.5182C37.5594 23.5182 37.2698 24.5118 40.811 25.5054C40.811 25.5054 42.4039 25.9107 42.4698 27.6102C42.4698 27.6102 42.9437 32.0029 43.1806 34.0032C43.1806 34.0032 43.1806 36.2257 43.8915 36.4087C43.8915 36.4087 45.3659 36.7617 45.7872 35.9381C45.7872 35.9381 47.209 28.4862 47.5644 26.499C47.5644 26.499 47.4986 25.3877 48.7492 24.1588L49.5786 23.2829C49.5786 23.2829 50.816 31.127 50.816 33.1272C50.816 33.4149 51.1715 35.7027 51.1715 35.7027C51.1715 35.7027 51.053 36.3433 52.172 36.4087C52.172 36.4087 53.3568 36.644 53.5937 35.5851C53.5937 35.5851 55.0155 24.1457 55.1339 22.9168L56.5557 24.7994C56.5557 24.7994 57.5035 26.2637 57.6747 28.4339C57.6747 28.4339 58.0301 31.0747 58.9121 35.2974C58.9121 35.2974 58.9121 36.3564 60.1496 36.4087C60.1496 36.4087 61.3344 36.814 61.624 34.8268C61.624 34.8268 62.2691 28.9045 62.3349 27.5579C62.3349 27.5579 62.2164 25.9107 64.2832 25.2701C64.2832 25.2701 65.9946 24.8648 66.4027 24.6295C66.4027 24.6295 67.2847 24.2765 67.2321 23.2175C67.2321 23.2175 66.9951 22.1063 65.3364 22.5769C65.3364 22.5769 62.743 23.2829 60.5577 23.4006C60.5577 23.4006 59.3202 23.5705 57.7273 22.3416L56.3714 21.165L58.7278 18.4065C58.7278 18.4065 59.3202 17.4783 58.7542 17.0468C58.4119 16.7854 58.1881 16.8899 57.4904 17.2299C57.4904 17.2299 55.0681 19.3347 52.9487 20.0407C52.9487 20.0407 52.4221 20.3283 50.9477 19.8053C50.9477 19.8053 48.0646 18.0666 47.1958 17.5175C47.1958 17.5175 46.1032 17.0468 45.6951 17.5175C45.6951 17.5175 44.7472 17.9881 46.9325 19.74C46.893 19.753 48.657 21.0343 48.1305 21.4526Z" fill="#354583"/>
<path d="M49.3152 8.66675C49.3152 8.66675 47.4196 7.43784 45.4186 8.31376L32.4779 15.818C32.4779 15.818 31.122 16.4063 32.4253 17.0469L37.0855 19.4524C37.0855 19.4524 38.5599 20.276 40.5082 19.2171L50.7238 13.6478C50.7238 13.6478 52.4352 12.6542 54.0939 13.6478L64.8361 18.8118C64.8361 18.8118 66.6133 19.6354 67.4953 18.5242C67.4953 18.5242 68.3247 17.6482 66.1394 16.5893L49.3152 8.66675Z" fill="#6FAE2D"/>
<path d="M39.2708 26.9043C39.2708 26.9043 40.6267 27.4272 40.811 29.2444C40.811 29.2444 41.3376 33.9378 41.3376 35.755L35.7822 31.297V25.2047L39.2708 26.9043Z" fill="#6FAE2D"/>
</g>
<defs>
<clipPath id="clip0_680_7693">
<rect width="53" height="53" fill="white" transform="translate(24 8)"/>
</clipPath>
</defs>
</svg>
