<svg width="102" height="68" viewBox="0 0 102 68" fill="none" xmlns="http://www.w3.org/2000/svg">
<rect width="101.58" height="68" rx="12" fill="white"/>
<g clip-path="url(#clip0_680_7678)">
<path d="M36.1893 51C33.8042 49 33.4276 46.125 32.4233 43.625C31.7957 42 30.6659 40.625 29.5361 39.25C31.0425 43.5 30.1637 46.5 33.8042 49.5C33.1765 49.25 32.5488 48.75 32.0467 48.375C29.1595 46 24.8914 45.625 23.134 41.75C23.6361 44.625 25.8957 47.125 28.2808 48.75C30.6659 50.25 33.6786 50.125 36.1893 51ZM42.4659 52.5C42.8425 52.375 43.3446 52.375 43.8467 52.25C42.0893 52 40.4574 51.375 39.202 50.25C37.3191 48.5 35.6871 46.75 33.6786 45.375C35.8127 49.625 36.5659 51.375 40.0808 52.125C40.0808 52.125 39.0765 52 38.5744 51.875C34.8084 51.125 30.2893 52.125 27.5276 49C28.6574 51 30.7914 52.625 32.7999 53.375C36.0637 54.375 39.4531 53.25 42.4659 52.5ZM47.4871 52.25C41.4616 52.25 38.3233 57.5 32.4233 54C35.3106 57.5 39.9552 57.75 43.7212 55.375C45.2276 54.375 46.6084 53 48.4914 53C51.3786 53 54.5169 56 57.1531 58.75C57.6552 58.375 58.0318 58 58.4084 57.625C55.6467 55 51.6297 52.25 47.4871 52.25ZM30.5403 46.375C30.5403 46.375 29.7871 45 29.5361 44.125C28.6574 40.75 29.1595 36.625 27.6531 33.375C27.9042 35.25 27.151 36.875 27.0254 38.625C26.7744 41 27.6531 42.625 28.2808 43.75C28.2808 43.75 27.402 42.625 27.0254 42C25.268 39.25 21.6276 37.375 21.3765 34C20.8744 41.375 26.0212 43.375 30.5403 46.375ZM28.7829 24.5C29.285 23.5 29.5361 22.25 29.7871 21.125C29.5361 21.625 29.285 22.125 28.9084 22.5C26.5233 24.5 25.1425 25.625 24.5148 28.75L24.7659 26C25.0169 23.25 23.5106 20.25 25.1425 17.875C23.5106 19.625 22.6318 21.875 22.6318 24.125C22.6318 27.125 24.3893 29.25 24.5148 32.125C25.0169 29.125 27.5276 27 28.7829 24.5ZM27.9042 19C29.034 18 30.4148 17.125 31.4191 15.875C32.5488 14.375 33.5531 12.625 35.0595 11.25C33.051 12.125 30.7914 12.875 29.4106 15C28.6574 16.25 28.5318 17.75 27.9042 19ZM25.3935 25C25.8957 24 26.7744 23 27.6531 22.25C29.9127 20.625 32.1723 18.5 32.2978 15.75C31.0425 18.75 27.151 19.25 26.2723 22.375C26.2723 22.375 26.7744 20.5 26.8999 20.125C27.5276 18 27.402 15.5 29.5361 14.125C25.3935 15 25.1425 19.5 25.3935 22.875C25.3935 23.625 25.5191 24.25 25.3935 25ZM26.0212 39.5C26.0212 39.5 25.7701 37.125 26.1467 36.125C27.151 33.125 28.1552 29.875 28.0297 26.75C27.0254 30.5 23.8871 31.75 25.268 36.875C24.7659 35.875 24.6403 34.75 24.2637 33.75C23.5106 31 21.3765 28.625 22.0042 25.375C20.9999 28.25 20.9999 30.5 22.0042 33.5C22.6318 35.75 24.8914 37.375 26.0212 39.5Z" fill="#007AFF"/>
<path d="M64.8107 51C67.1958 49 67.5724 46.125 68.5767 43.625C69.2043 42 70.3341 40.625 71.4639 39.25C69.9575 43.5 70.8363 46.5 67.1958 49.5C67.8235 49.25 68.4512 48.75 68.9533 48.375C71.8405 46 76.1086 45.625 77.866 41.75C77.3639 44.625 75.1043 47.125 72.7192 48.75C70.3341 50.25 67.3214 50.125 64.8107 51ZM58.5341 52.5C58.1575 52.375 57.6554 52.375 57.1533 52.25C58.9107 52 60.5426 51.375 61.798 50.25C63.6809 48.5 65.3129 46.75 67.3214 45.375C65.1873 49.625 64.4341 51.375 60.9192 52.125C60.9192 52.125 61.9235 52 62.4256 51.875C66.1916 51.125 70.7107 52.125 73.4724 49C72.3426 51 70.2086 52.625 68.2001 53.375C64.9363 54.375 61.5469 53.25 58.5341 52.5ZM53.5129 52.25C59.5384 52.25 62.6767 57.5 68.5767 54C65.6894 57.5 61.0448 57.75 57.2788 55.375C55.7724 54.375 54.3916 53 52.5086 53C49.6214 53 46.4831 56 43.8469 58.75C43.3448 58.375 42.9682 58 42.5916 57.625C45.3533 55 49.3703 52.25 53.5129 52.25ZM70.4597 46.375C70.4597 46.375 71.2129 45 71.4639 44.125C72.3426 40.75 71.8405 36.625 73.3469 33.375C73.0958 35.25 73.849 36.875 73.9746 38.625C74.2256 41 73.3469 42.625 72.7192 43.75C72.7192 43.75 73.598 42.625 73.9746 42C75.732 39.25 79.3724 37.375 79.6235 34C80.1256 41.375 74.9788 43.375 70.4597 46.375ZM72.2171 24.5C71.715 23.5 71.4639 22.25 71.2129 21.125C71.4639 21.625 71.715 22.125 72.0916 22.5C74.4767 24.5 75.8575 25.625 76.4852 28.75L76.2341 26C75.9831 23.25 77.4894 20.25 75.8575 17.875C77.4894 19.625 78.3682 21.875 78.3682 24.125C78.3682 27.125 76.6107 29.25 76.4852 32.125C75.9831 29.125 73.4724 27 72.2171 24.5ZM73.0958 19C71.966 18 70.5852 17.125 69.5809 15.875C68.4512 14.375 67.4469 12.625 65.9405 11.25C67.949 12.125 70.2086 12.875 71.5894 15C72.3426 16.25 72.4682 17.75 73.0958 19ZM75.6065 25C75.1043 24 74.2256 23 73.3469 22.25C71.0873 20.625 68.8277 18.5 68.7022 15.75C69.9575 18.75 73.849 19.25 74.7277 22.375C74.7277 22.375 74.2256 20.5 74.1001 20.125C73.4724 18 73.598 15.5 71.4639 14.125C75.6065 15 75.8575 19.5 75.6065 22.875C75.6065 23.625 75.4809 24.25 75.6065 25ZM74.9788 39.5C74.9788 39.5 75.2299 37.125 74.8533 36.125C73.849 33.125 72.8448 29.875 72.9703 26.75C73.9746 30.5 77.1129 31.75 75.732 36.875C76.2341 35.875 76.3597 34.75 76.7363 33.75C77.4894 31 79.6235 28.625 78.9958 25.375C80.0001 28.25 80.0001 30.5 78.9958 33.5C78.3682 35.75 76.1086 37.375 74.9788 39.5Z" fill="#007AFF"/>
<path d="M50.5 50.25C61.8007 50.25 70.9617 41.1278 70.9617 29.875C70.9617 18.6222 61.8007 9.5 50.5 9.5C39.1993 9.5 30.0383 18.6222 30.0383 29.875C30.0383 41.1278 39.1993 50.25 50.5 50.25Z" stroke="#007AFF"/>
<path d="M50.5 46C59.4435 46 66.6936 38.7806 66.6936 29.875C66.6936 20.9694 59.4435 13.75 50.5 13.75C41.5565 13.75 34.3064 20.9694 34.3064 29.875C34.3064 38.7806 41.5565 46 50.5 46Z" stroke="#007AFF"/>
<path d="M50.5001 42.125C57.2944 42.125 62.8023 36.6405 62.8023 29.875C62.8023 23.1095 57.2944 17.625 50.5001 17.625C43.7058 17.625 38.198 23.1095 38.198 29.875C38.198 36.6405 43.7058 42.125 50.5001 42.125Z" stroke="#007AFF"/>
<path d="M50.5001 37.875C54.9372 37.875 58.5341 34.2933 58.5341 29.875C58.5341 25.4567 54.9372 21.875 50.5001 21.875C46.063 21.875 42.4661 25.4567 42.4661 29.875C42.4661 34.2933 46.063 37.875 50.5001 37.875Z" stroke="#007AFF"/>
<path d="M50.5 34C52.7878 34 54.6425 32.1532 54.6425 29.875C54.6425 27.5968 52.7878 25.75 50.5 25.75C48.2121 25.75 46.3574 27.5968 46.3574 29.875C46.3574 32.1532 48.2121 34 50.5 34Z" stroke="#007AFF"/>
<path d="M50.5 9.5V25.75M50.5 34V50.25M36.0639 15.5L47.6128 27M53.3873 32.75L64.9362 44.25M30.0383 29.875H46.3575M54.6426 29.875H70.9617M36.0639 44.25L47.6128 32.75M53.3873 27L64.9362 15.5" stroke="#007AFF"/>
<path d="M49.5082 34.8999C49.5584 34.7999 49.6588 34.3999 49.7844 34.5249C49.9099 34.6499 49.9852 34.5249 49.9852 34.5249C49.9852 34.5249 50.048 34.5874 50.0103 34.7124C49.9852 34.8374 49.9476 34.9624 49.8722 34.9874C49.7969 34.9999 49.7342 35.0499 49.6337 35.0624C49.5584 35.0749 49.5082 34.8999 49.5082 34.8999ZM50.5376 34.7374C50.5627 34.7124 50.6003 34.8374 50.6631 34.8124C50.7259 34.7999 50.751 34.9249 50.6882 34.9249C50.6254 34.9249 50.6254 34.9999 50.6254 35.0374C50.6254 35.0749 50.6254 35.1499 50.5752 35.1999C50.525 35.2499 50.4874 35.2124 50.4246 35.1874C50.3618 35.1499 50.3367 35.1499 50.2488 35.1499C50.1735 35.1499 50.2363 35.2749 50.2363 35.2749C50.2363 35.2749 49.9099 35.2624 49.9727 35.2124C50.0354 35.1624 50.0982 35.1499 50.048 35.1124C49.9978 35.0749 50.048 35.0499 50.048 34.9874C50.048 34.9249 50.1986 34.9499 50.161 34.9124C50.1108 34.8624 50.161 34.6874 50.2363 34.7874L50.2865 34.6749C50.2363 34.6249 50.274 34.6124 50.1735 34.5749C50.0857 34.5374 50.161 34.3499 50.161 34.3499L50.1735 34.2249C50.1986 34.0624 50.5125 34.0499 50.5376 34.1874C50.5501 34.3249 50.5376 34.4249 50.5376 34.4249L50.6254 34.4624C50.6254 34.4624 50.6129 34.5624 50.5376 34.5624C50.4622 34.5624 50.5376 34.6124 50.4874 34.6624L50.5376 34.7374ZM62.0991 27.1375C62.0112 27.225 61.8229 27.2625 61.8229 27.2625L61.7601 27.5L61.6597 27.5875C61.6597 27.5875 61.6848 27.65 61.6597 27.8C61.6346 27.95 61.4463 28.0375 61.4463 28.0375L61.3584 28.1375C61.3584 28.1375 60.8563 28.1625 60.7935 28.1375C60.6052 28.05 60.7308 27.8 60.8563 27.825C60.9818 27.85 60.8312 27.4625 60.8312 27.4625L60.9944 27.4375C60.9944 27.4375 61.0195 27.0625 61.0822 27.0625C61.145 27.0625 61.0571 26.9375 60.9818 26.875C60.894 26.8125 60.7935 26.6 60.7057 26.625C60.6178 26.65 60.2914 26.625 60.2914 26.625L60.2286 26.75L60.0027 26.7875C60.0027 26.7875 60.0278 26.95 59.9776 27C59.852 27.15 59.375 27.4625 59.5759 26.9375L59.6386 26.8125V26.625L59.262 26.6C59.262 26.6 59.0737 26.5375 59.0737 26.45C59.0737 26.3625 59.0486 26.2625 59.0486 26.2625L58.6093 25.775L58.082 25.7125L58.0444 25.6125L57.7305 25.575C57.354 25.3875 57.015 25.55 57.0778 25.875C57.1405 26.1875 57.241 26.3125 57.0401 26.3125C56.8267 26.3125 56.7891 26.15 56.7891 26.15C56.7891 26.15 56.6259 26.0875 56.6259 26.175C56.6259 26.2625 56.5631 26.425 56.6259 26.5125C56.6886 26.6 56.538 26.725 56.4752 26.6625C56.4125 26.6 56.2493 26.4125 56.2869 26.35C56.3246 26.2875 55.9982 25.8875 56.3246 25.825C56.6635 25.7625 56.2995 25.575 56.425 25.525L56.5882 25.4375H56.7514L56.8518 25.35L56.5757 25.3125L56.4125 25.2875L56.0986 25.2625C55.7848 25.475 55.722 25.725 55.722 25.725C55.5588 26.0375 55.1571 25.6 55.3078 25.425C55.4584 25.25 54.8433 25.4 54.7429 25.4875C54.6425 25.575 54.3286 25.525 54.3286 25.525C54.2659 25.7125 53.9771 25.5 54.0525 25.375C54.1403 25.25 54.1403 25.1625 54.1403 25.1625L54.0399 25.1375L53.9144 25.375C53.6257 25.375 53.5378 25.5375 53.6005 25.65C53.6633 25.75 53.5127 25.625 53.475 25.775C53.4374 25.925 53.5001 25.925 53.6257 25.9875C53.7512 26.05 53.5629 26.05 53.6508 26.15C53.7386 26.25 53.9897 26.15 53.8391 26.3C53.6884 26.45 53.3997 26.3875 53.3997 26.3875C53.3746 26.575 52.9854 26.5375 52.9352 26.475C52.8976 26.4125 52.5837 26.0375 52.5837 26.0375L52.182 26.0125C52.1444 25.7125 52.3703 25.8625 52.4582 25.6375C52.5461 25.4 52.5837 25.025 52.5837 25.025C52.5837 25.025 52.2448 25 52.2322 25.1125C52.2071 25.2125 52.0063 25.2875 52.0063 25.2875C52.0063 25.2875 51.8431 25.35 51.9059 25.4375C51.9686 25.525 51.7803 25.5625 51.7803 25.5625C51.7803 25.5625 51.818 25.7 51.7552 25.75C51.592 25.925 51.1652 25.775 51.1025 25.7125L50.8514 25.6125L50.6003 25.45L50.3116 25.575L50.2237 25.6625H49.9099L49.8848 25.9125L50.4497 25.975L50.4874 26.5L50.2614 26.425H50.1108L50.048 26.3L49.9225 26.275V26.7375L50.048 26.8375L50.1484 26.9375L50.3618 26.9625L50.3995 27.2125L50.9267 27.2375L50.9895 27.3375L51.3033 27.3625L51.9059 27.975L51.8682 28.1625L51.7678 28.225C51.8054 28.375 51.4916 28.2875 51.4916 28.2875V28.4125L51.6422 28.4375L51.7929 28.525L52.0063 28.1625C52.2322 28.0125 52.3452 28.225 52.3578 28.35C52.3829 28.475 52.2574 28.45 52.2574 28.45V28.75L52.3829 28.7875C52.5963 29.0375 52.295 29.1875 52.295 29.1875L52.2322 29.4C52.1695 29.5875 51.9435 29.55 51.9435 29.55L51.8557 29.675L51.6046 29.7375L52.0942 29.8C52.1444 29.625 52.2699 29.5875 52.3327 29.675C52.3954 29.7625 52.3954 29.9125 52.3954 29.9125L52.521 29.9375L52.4959 30.175L52.6214 30.2125V30.8874L52.772 31.0499C53.0231 30.9499 53.0231 31.1124 52.8976 31.1999C52.772 31.2874 52.8599 31.6624 52.8599 31.6624L52.7595 31.7624V31.9374L52.634 32.0249V32.2624C52.4205 32.1624 52.1695 32.1999 52.1067 32.2624C51.9184 32.1374 51.5167 32.1749 51.5167 32.2874C51.6422 32.4499 51.3661 32.4999 51.3661 32.4999L51.2154 32.6624C51.3159 32.8749 51.115 32.8999 51.115 32.8999V33.2999L50.864 33.5374L50.8891 34.0874C50.8891 34.2374 51.2029 34.2499 51.2657 34.1749C51.3284 34.0874 51.5795 34.3499 51.5795 34.3499H51.7678L51.8054 33.9749L51.6799 33.9124V33.2999L51.8933 33.0624C52.1444 32.9749 52.0565 33.6124 52.0565 33.6749C52.0816 33.9124 52.182 33.8874 52.2825 33.8374C52.4959 33.7499 52.3201 34.0749 52.1569 34.0499C51.9937 34.0249 52.0942 34.2624 52.0942 34.2624L52.1946 34.2999L52.0063 34.4499L51.8431 34.6374L51.6297 34.5749L51.3786 34.5499L51.2908 34.3999L51.1401 34.3749L51.115 34.6749L51.0146 34.7999L50.7635 35.0499C51.1025 35.0499 50.7259 35.2874 50.638 35.2874C50.8263 35.3499 50.6129 35.5374 50.1359 35.3874V35.5374L49.9727 35.5624L50.1233 35.7249L50.2865 35.7499L50.2237 36.1124C50.2237 36.3874 49.5333 36.1999 49.4705 36.1374L49.4454 36.5124L49.3199 36.5374L49.345 36.7874L49.3199 37.1499L49.5459 37.1124V37.2624L50.1108 37.2874L50.9267 36.4249L51.4037 36.3249C51.4414 36.1124 51.6548 36.3624 51.6548 36.3624C51.8682 36.3374 51.9059 36.4874 51.9059 36.4874L52.182 36.5249C52.408 36.5874 52.2699 36.6124 52.2825 36.6999C52.3076 36.8249 52.408 36.7874 52.408 36.7874L52.4457 36.5124L52.5712 36.5374L52.4457 36.3874L52.2197 36.2874L51.9686 36.1874C51.8054 35.9499 52.0063 35.9999 52.182 36.0249H52.4582C52.4582 36.0249 52.772 36.4499 52.772 36.5499C52.772 36.6499 52.9227 36.6749 52.9227 36.6749L53.111 36.6499L53.1737 36.7999H53.362L53.4248 36.9249H53.8014L53.8265 36.7374L53.475 36.6749L53.4499 36.4624L53.1988 36.3999C53.111 36.0374 53.2616 35.9374 53.362 36.0999L53.4876 36.1249L53.4499 35.8124L53.6005 35.7749L53.5629 35.3374L53.4374 35.2999V35.1499L53.9646 35.1749C53.9269 34.8999 53.9897 34.7749 53.9897 34.7749H54.1403L54.1654 34.8749L54.8057 34.9374L55.2576 34.4249C55.2325 34.3874 55.3078 34.3624 55.2576 34.3124C55.1948 34.2499 55.1069 34.3124 55.0065 34.2499C54.9061 34.1874 55.0065 33.8249 54.9814 33.7499C54.9563 33.6624 55.3329 33.5374 55.2701 33.7249C55.2074 33.9124 55.2701 33.9999 55.2701 33.9999C55.5463 33.7499 55.7722 34.0249 55.7471 34.0874C55.722 34.1499 55.8978 34.2124 55.9982 34.1499C56.0986 34.0874 56.2242 34.3374 56.1865 34.4624C56.1488 34.5874 55.7722 34.5624 55.7471 34.4374C55.722 34.3124 55.6593 34.3499 55.6216 34.4124C55.584 34.4749 55.3957 34.5124 55.2827 34.4499C55.2576 34.4374 55.2576 34.4249 55.245 34.4124L54.7931 34.9249H54.8182C55.0693 35.0749 54.9437 35.2624 54.8559 35.2999C54.768 35.3374 54.6299 35.3374 54.6299 35.3374L54.5922 35.4249L54.0525 35.4624L54.0148 35.6749C53.7386 35.6374 53.6382 35.9249 53.701 36.0749C53.7637 36.2249 53.701 36.3499 53.701 36.3499L53.9269 36.4499L54.2157 36.3624C54.2533 36.1499 54.4416 36.1124 54.6174 35.9874C54.7805 35.8624 55.0567 36.2249 54.9688 36.3874C54.881 36.5499 54.881 36.6249 54.881 36.6249L54.9061 36.8124L54.6927 36.8999L54.5295 36.9874L54.5044 37.0874H53.9395L53.8391 37.1874L53.5629 37.2124L53.475 37.3374L53.2867 37.3624C53.2867 37.3624 52.9729 37.5124 53.0984 37.6749C53.224 37.8499 52.5712 37.8249 52.4331 37.5874C52.3954 37.7999 52.1569 37.6124 52.1569 37.6124L51.931 37.5499L51.9059 37.2374C51.8682 37.0249 51.4665 37.0249 51.4916 37.1749C51.5167 37.3249 50.7384 37.2374 50.7384 37.2374L50.4874 37.3624L50.2614 37.4999L50.2363 37.5999L49.8597 37.6374L49.6965 37.7249L49.6337 37.5999H49.4705L49.3074 37.8374C48.868 37.8624 48.4537 38.1124 48.4914 38.2124C48.5291 38.3124 48.3282 38.4249 48.3282 38.4249L48.1399 38.4874L48.0144 38.6749L47.7633 38.7624L47.7257 39.1999L47.6001 39.2874V39.4749L47.4495 39.5124V39.6124L47.2361 39.6374L47.3616 39.9499L47.5248 40.0374C47.8135 40.0749 47.688 40.4374 47.688 40.4374L47.8512 40.4624L47.9391 40.6999L48.1022 41.0374C48.165 41.2874 48.3533 41.2249 48.4412 41.2124C48.5291 41.1874 48.6044 41.4624 48.6044 41.4624L49.4329 41.4874C49.4329 41.4874 49.3952 41.5749 49.5333 41.6124C49.684 41.6499 50.638 41.6999 50.6757 41.6374C50.638 41.4499 51.2029 41.3999 51.4288 41.5749C51.6548 41.7374 51.9686 41.6374 51.9686 41.6374L52.2825 42.0124L52.4959 42.4749L52.8474 42.5749L53.0984 42.6374L53.1863 42.9999L53.3746 43.0249L53.4374 43.2624C53.6633 43.4249 53.3746 43.7874 53.3746 43.7874V44.2499L53.5378 44.3374L53.5127 44.5124L53.7888 44.7874L54.1027 44.8124L54.8935 45.6499L55.5212 45.8374L55.6216 46.1749L55.7848 46.1499L55.9103 46.0499L56.4125 46.0249L56.6635 45.7874L56.9397 45.7499L59.262 43.7874L59.0486 43.6624V43.1999C59.4252 42.9249 59.4503 42.4374 59.0863 42.3999C58.8227 42.3624 58.9357 42.0874 59.1867 42.0374L59.3374 41.9749V41.7874L59.8144 41.3499V41.0124L58.7725 40.1499C58.308 39.9874 58.7725 38.9749 59.0863 38.9874C59.4001 39.0124 59.0612 37.4249 59.0612 37.4249L58.898 37.3374L58.9357 36.8249H58.7097L58.3331 37.3124L58.2327 37.6499C58.195 38.0874 56.902 38.0124 56.8393 37.9499C56.7765 37.8874 56.3371 37.6999 56.3371 37.6999C56.3371 37.6999 55.9982 37.4249 55.9354 37.5124C55.8727 37.5999 55.584 37.4124 55.584 37.4749C55.584 37.5374 55.3078 37.3249 55.3078 37.3249L54.8935 37.1749L55.2074 37.1124L55.1446 36.8624L55.6844 37.1374C55.7471 37.2249 56.0233 37.1999 56.0233 37.1999L56.1112 37.2999C56.1112 37.2999 56.2744 37.2749 56.3874 37.3999C56.4878 37.5249 57.0401 37.4249 57.0401 37.4249L57.1908 37.5499L57.4167 37.6374L58.0695 37.6624L58.0946 37.2624L58.2201 37.1374L58.195 36.8874L58.3457 36.7624V36.5499L58.4712 36.5124L58.4963 36.0499L58.5967 36.0249V35.0124L58.2829 34.7124C58.2578 34.8124 57.9314 34.8124 57.9314 34.8124C57.9314 34.8124 57.8435 34.9624 57.7808 34.9624C57.718 34.9624 57.8686 35.1499 57.8184 35.2749C57.7808 35.3999 57.605 35.3999 57.605 35.3999L57.2912 35.4874L57.2033 35.5874H56.8644L56.8267 35.3124L57.2033 35.2124L57.4167 35.1124L57.5171 34.8999C57.5422 34.6874 57.7933 34.7124 57.7933 34.7124C57.7933 34.7124 58.2703 34.3124 58.2954 34.1249C58.3205 33.9374 58.4837 33.4124 58.7725 33.4124H59.3122C59.5257 33.3249 59.4629 33.0499 59.4629 33.0499L59.7391 33.0124L59.7767 33.1624C59.7767 33.1624 60.1533 33.1999 60.191 33.1374C60.2286 33.0749 60.3165 32.9249 60.4169 32.9874C60.5174 33.0499 60.8563 32.8374 60.8563 32.8374C60.8814 32.6874 61.3961 32.7499 61.3961 32.7499L61.4588 32.5624C61.4588 32.5624 61.1074 32.0749 61.0446 32.0749C60.9818 32.0749 60.6429 31.7749 60.6052 31.8874C60.2663 31.7999 60.2914 31.3374 60.2914 31.3374L60.1659 31.0374C60.1659 30.8624 59.852 30.5124 59.7893 30.5499C59.4754 30.3125 59.7014 30.05 59.7893 30.025C59.8771 30 60.078 29.7125 60.078 29.7125L60.1784 29.4125L60.5299 29.3125L60.5676 29.0375L60.3793 29.0125C60.3793 29.0125 60.5927 28.6375 60.6931 28.6375C60.7935 28.6375 61.484 28.6375 61.5467 28.6C61.6095 28.5625 61.735 28.225 61.735 28.1625C61.735 28.1 61.8982 28.075 61.961 28.0625C62.0237 28.0375 62.1744 27.875 62.212 27.7875C62.325 27.575 62.1869 27.05 62.0991 27.1375ZM67.8861 33.8749C67.8735 33.8374 67.861 33.7999 67.8233 33.7874C67.7354 33.7499 67.5722 33.8124 67.4969 33.8624L67.5722 33.9624C67.6476 33.9124 67.7605 33.8874 67.7731 33.8999V33.8874L67.8861 33.8749ZM68.4259 36.3874L68.3003 36.3749C68.2878 36.4749 68.3129 36.5999 68.4133 36.6124L68.4384 36.4874C68.4384 36.4874 68.4259 36.4374 68.4259 36.3874ZM68.8903 35.8874C68.928 36.0124 68.9657 36.1374 68.9657 36.1499L69.0786 36.0999C69.0786 36.0999 69.0284 35.9749 69.0033 35.8499L68.8903 35.8874ZM69.1665 35.7874V35.7624C69.1665 35.7249 69.1539 35.6749 69.1288 35.6249L69.0159 35.6874C69.0284 35.7124 69.0284 35.7499 69.041 35.7749C69.041 35.8124 69.0535 35.8499 69.0786 35.8749C69.1037 35.8874 69.1288 35.8999 69.1665 35.8874L69.1414 35.7624C69.1414 35.7749 69.1539 35.7749 69.1665 35.7874ZM68.0995 36.6874C68.1874 36.6374 68.3003 36.5249 68.2878 36.7624C68.2752 36.9999 68.1748 36.9249 68.0995 36.9999C68.0242 37.0749 67.9739 36.7624 68.0995 36.6874ZM63.0657 38.3124L63.0782 38.1249L63.2791 38.1499L63.2665 38.3249L63.0657 38.3124ZM63.0782 38.7249C63.0531 38.6124 62.9276 38.5749 62.915 38.5749L62.8774 38.6999C62.8899 38.6999 62.9025 38.7124 62.915 38.7249L62.9401 38.8374C62.9276 38.8499 62.915 38.8624 62.915 38.8749L63.0029 38.9624C63.0657 38.8624 63.0908 38.7999 63.0782 38.7249ZM47.4746 42.6249L47.3491 42.7374L47.2863 42.7874L47.3491 42.8374L47.4997 42.9374L47.575 42.8374L47.4871 42.7749L47.5499 42.7249L47.4746 42.6249ZM48.9559 44.1374L48.9057 44.2499L49.0312 44.3124L48.9935 44.3624L49.0814 44.4499L49.2446 44.2874L49.1693 44.2374L48.9559 44.1374ZM43.194 17.0125L43.3195 17.1375L43.2316 17.225L43.1061 17.1L43.194 17.0125ZM46.985 20.95L47.1105 21.05L47.0352 21.15L46.9097 21.05L46.985 20.95ZM46.508 21.0375L46.5331 21.275H46.8469C46.9725 21.275 46.7465 21.125 46.7465 21.125C46.7465 21.125 46.4954 21.15 46.508 21.0375ZM53.3871 15.1625L53.1737 15.1375L53.1612 15.2625L53.3369 15.275L53.475 15.4875L53.5754 15.4125L53.4374 15.1875L53.4122 15.1625H53.3871ZM53.952 10.7375L53.8893 10.85L54.0525 10.95L54.0901 10.975L54.1152 10.95L54.3537 10.8L54.2784 10.7L54.0901 10.825L53.952 10.7375ZM55.0693 11.3375L54.9688 11.225L54.881 11.325L55.0693 11.5125L55.1069 11.475L55.3203 11.3L55.2325 11.2L55.0693 11.3375ZM48.1399 15.725C48.1274 15.65 48.5542 15.6375 48.6169 15.7C48.6797 15.7625 48.642 15.875 48.8303 15.875C49.0186 15.875 48.9308 16 48.9182 16.0625C48.8931 16.125 48.6922 16.1 48.6671 16.0375C48.642 15.975 48.3282 15.95 48.3282 15.95C48.3282 15.95 48.165 15.825 48.1399 15.725ZM50.5376 15.4875C50.864 15.5875 50.9769 15.5125 51.002 15.425C51.0271 15.3375 51.0397 15.325 51.1652 15.3C51.2908 15.275 51.1401 15.025 51.0146 15.05C50.8891 15.075 50.7635 15.0125 50.7384 14.9C50.7133 14.8 50.5125 14.525 50.4874 14.7375C50.4622 14.95 50.3367 14.95 50.3618 15.1C50.3995 15.2375 50.4622 15.4625 50.5376 15.4875ZM52.6088 11.925C52.5586 11.7375 52.295 12.1625 52.5712 12.2375C52.8474 12.325 53.111 12.2375 53.111 12.2375L53.1737 12.1125L54.2157 12.1375C54.3035 12.05 54.3412 11.925 54.3412 11.925C54.3412 11.925 54.5922 11.8375 54.6927 11.8875C54.7931 11.925 54.7178 11.5875 54.6048 11.6375C54.5044 11.675 54.291 11.6625 54.291 11.6625H53.9144C53.8893 11.5125 53.5629 11.575 53.5378 11.6625C53.5252 11.7375 53.3997 11.7625 53.3997 11.7625L52.9227 11.8C52.8725 11.925 52.634 12.0125 52.6088 11.925ZM52.6465 12.9625L52.3703 12.6875V12.45L52.2825 12.3625L52.1946 12.0625L51.9184 11.975L51.6422 12.075L51.3535 12.2625L51.0397 12.3L50.8765 12.4875L51.5418 12.55L51.6674 12.7625L52.1444 12.8L52.4582 13.1125C52.7469 13.2375 52.8097 13.1125 52.6465 12.9625ZM53.6131 14.9875L53.701 14.7875L53.814 14.85L53.7261 15.0375L53.6131 14.9875ZM59.852 14.775C59.8144 14.6125 60.2663 14.4625 60.3793 14.5875C60.4797 14.7125 60.781 14.7375 60.8186 15.3625C60.8312 15.5875 60.442 15.125 60.442 15.125L60.1282 15.025C59.9525 14.9875 59.8646 14.8875 59.852 14.775ZM57.6552 15.325C57.5925 15.5125 57.5674 15.7625 57.4669 15.7625C57.3665 15.7625 57.4042 16.0375 57.4042 16.0375C57.4042 16.0375 57.6803 16.0375 57.7557 16.0625C57.8435 16.0875 57.8435 16.3 57.8435 16.3C58.1574 16.275 58.2829 16.7 58.2452 16.8125C58.2076 16.9125 58.3708 16.9125 58.3708 16.9125C58.3708 16.9125 58.3708 17.25 58.3331 17.3375C58.2954 17.425 58.6093 17.4875 58.6846 17.6125C58.7725 17.7375 58.6469 18.1625 58.5842 18.1875C58.5214 18.2125 58.7474 18.275 58.7348 18.375C58.7097 18.475 58.7976 18.375 58.8227 18.55C58.8478 18.7125 58.8854 19.075 58.8854 19.075L59.1742 19.1C59.2118 18.825 59.7516 18.8125 59.8395 18.85C60.191 18.975 60.4671 19.525 60.4671 19.65C60.4671 19.775 60.2412 19.8 60.2412 19.8L60.2788 20.4125C60.6303 20.5125 60.9316 21.025 60.8814 21.1125C60.8437 21.2 61.1325 21.175 61.1325 21.175C61.1701 20.8 61.5342 20.925 61.5467 21.05C61.5718 21.175 61.6346 21.45 61.6346 21.45L61.735 21.6375L61.8857 21.7875L62.1116 21.7625L62.1744 21.8875L62.4505 21.925C62.4505 21.925 62.6765 22.175 62.7016 22.2375C62.7267 22.3 63.0405 22.275 63.1159 22.3C63.2037 22.325 63.3293 22.3875 63.3418 22.4875C63.3669 22.5875 63.4925 22.7625 63.4925 22.7625C63.4925 22.7625 63.7435 22.825 63.7686 22.9125C63.7937 23 63.8942 23.1875 63.8942 23.1875L64.1076 23.3625L64.1327 23.55L64.3586 23.575L64.4214 23.825L64.798 23.8L65.0114 23.65C65.2876 23.5 65.4759 23.3125 65.4884 23.225C65.5135 23.1375 65.5512 22.825 65.7646 22.8875C65.978 22.95 65.8274 22.425 65.8274 22.425C65.8274 22.425 65.5386 22.2125 65.5512 22.1125C65.5763 22.0125 65.2625 21.8 65.275 21.7125C65.3001 21.625 64.9988 21.4625 65.0239 21.375C65.0491 21.2875 64.8733 21.0625 64.8733 21.0625L64.5595 20.7625L64.5218 20.575L64.2708 20.55L63.7686 19.9375L63.7937 19.7625L63.6431 19.7375V19.5L63.4925 19.4125L63.2665 19.3875L62.802 18.8875L62.7644 18.65H62.5384L62.5761 18.2125C62.7267 18.025 62.6388 17.6625 62.6388 17.6625C62.6388 17.6625 62.3501 17.8125 62.1995 17.75C62.0488 17.6875 62.2622 17.5375 62.2622 17.5375V17.375L62.1367 17.25C62.1367 17.25 61.7852 17.2875 61.7601 17.225C61.735 17.1625 61.6722 16.8875 61.6722 16.8875L61.6471 16.525L61.4965 16.4625L61.4714 16.3375L61.2454 16.3625V16.1125L61.1199 16.075L60.9944 16.0125L60.9693 15.7625L60.5048 15.7375L60.3542 15.525L60.191 15.275L59.6637 15.2375L59.5382 15.1125L59.3248 15.075L59.1742 15.0125L59.1114 15.1125L58.7097 15.1375L58.6846 15.2625C58.5088 15.35 57.6803 15.2625 57.6552 15.325ZM53.814 15.2C53.8516 15.2625 54.1027 15.325 54.1027 15.325C54.2659 15.325 54.3788 15.45 54.3788 15.5125C54.3788 15.575 54.6048 15.55 54.6048 15.55L54.6299 15.4L54.4667 15.1875L54.3161 15.0875C54.3161 15.0875 54.0901 15.0625 54.0901 15C54.0901 14.95 53.8516 15.1375 53.814 15.2ZM53.814 15.9125L53.6508 15.875V16.0625L53.8767 16.0875L53.814 15.9125ZM56.1363 18.2375V18.075C56.1363 18.075 56.1112 17.9125 56.0108 17.9125C55.9103 17.9125 55.722 17.7875 55.7597 17.7C55.7974 17.6125 55.4082 17.525 55.4082 17.525C55.4082 17.525 55.0567 17.1875 55.1822 17.225C55.3078 17.2625 55.245 17.075 55.245 17.075C55.245 17.075 54.994 17.1125 54.9312 17.1C54.8684 17.075 54.8935 16.8875 54.8935 16.8875C54.8935 16.8875 54.6425 16.825 54.6425 16.8875C54.6425 16.95 54.7303 16.95 54.768 17.075C54.8057 17.2 54.7931 17.4125 54.9814 17.45C55.1697 17.4875 55.2074 17.5375 55.2325 17.625C55.2576 17.7125 55.4835 17.725 55.4835 17.725L55.6467 17.8125L56.1363 18.2375ZM56.2995 18.8C56.2744 18.7125 56.2367 18.425 56.3622 18.4375C56.4878 18.4625 56.3999 18.4375 56.5505 18.5C56.7012 18.5625 56.7137 18.4 56.7137 18.4H56.9397L57.2284 18.6375L57.1908 18.825L56.9774 18.85C56.8769 18.6875 56.6635 18.75 56.7012 18.8875C56.7388 19.0375 56.6008 19.3125 56.5129 19.325C56.425 19.35 56.1614 19.35 56.174 19.225C56.2116 19.1 56.2995 18.8 56.2995 18.8ZM59.7391 21.675L59.8897 21.2125C59.6763 21.175 59.7265 20.9375 59.7265 20.9375C59.7014 20.75 59.4127 20.5375 59.3122 20.6C59.2118 20.6625 59.2495 20.1625 59.2495 20.1625C59.2495 20.1625 59.4378 20.0375 59.5257 20.1C59.6135 20.1625 58.8101 19.05 58.6469 19.15C58.4837 19.25 58.1071 19.05 58.1197 18.85C58.1448 18.6625 57.3665 18.025 57.3665 18.025C57.3665 18.025 57.1154 17.8625 57.0778 17.9875C57.0401 18.1125 56.9522 18.2 57.0778 18.2625C57.2033 18.325 57.1782 18.1625 57.3288 18.3C57.4795 18.45 57.7431 18.6375 57.6427 18.7625C57.5422 18.8875 57.4167 18.9375 57.4167 18.9375L57.5674 19.1125H57.7933L57.831 19.475C57.831 19.475 58.082 19.6 58.1448 19.75C58.2076 19.9 58.2076 19.9875 58.1448 20.0625C58.082 20.15 57.9565 20.3 57.9816 20.4375C58.0067 20.5875 58.1699 20.65 58.1699 20.65L58.3331 20.675L58.4586 20.7375V21.0125C58.6218 20.975 58.898 21.2 58.8729 21.35C58.8478 21.5 58.9105 21.4125 59.124 21.5625C59.3374 21.7125 59.2746 21.7375 59.4127 21.8375C59.5508 21.925 59.6763 21.8625 59.7391 21.675ZM54.9437 24.375C54.9437 24.4375 54.9061 24.525 55.0316 24.55C55.1571 24.575 55.3831 24.4625 55.4082 24.5875C55.4333 24.7125 55.4333 24.8 55.5965 24.8625C55.7597 24.925 55.8727 24.95 55.9982 24.95C56.1237 24.95 56.3999 24.9125 56.3999 24.9125C56.3999 24.9125 56.7012 24.9625 56.7514 25.0125C56.9774 25.25 57.128 25.3125 57.1908 25.2C57.2535 25.1 57.1657 24.8625 57.1531 24.775C57.128 24.6875 56.8393 24.2875 56.7388 24.375C56.6384 24.4625 56.6133 24.375 56.425 24.4375C56.2367 24.5 55.835 24.4625 55.8225 24.375C55.7974 24.2875 55.5086 24.25 55.5086 24.1625C55.5086 24.075 55.2952 23.975 55.3203 24.1C55.3454 24.225 55.1697 24.2875 55.132 24.25C55.0693 24.2 54.9437 24.375 54.9437 24.375ZM53.9018 24.6L53.8767 24.75L54.1027 24.775C54.1027 24.775 54.2031 24.8625 54.2031 24.925C54.2031 24.9875 54.3537 25.05 54.4291 25.05C54.5169 25.05 54.7429 24.875 54.7429 24.875C54.7429 24.875 54.8433 24.575 54.768 24.6C54.6801 24.625 54.5169 24.75 54.4918 24.625C54.4667 24.5 54.2157 24.5625 54.2157 24.5625L53.9018 24.6ZM52.8222 24.8375L52.885 24.825L52.9227 24.9375L52.8599 24.9625L52.8222 24.8375ZM52.8976 24.6375L53.0231 24.6125L53.0608 24.8L52.9478 24.825L52.8976 24.6375ZM53.2491 24.6625L53.2616 24.7875L53.7135 24.775V24.65L53.2491 24.6625ZM57.3163 24.5625L57.5297 24.5375L57.5422 24.6625L57.3288 24.6875L57.3163 24.5625ZM57.8686 25.025L57.9314 24.875L58.0444 24.925L57.9816 25.075L57.8686 25.025ZM59.6888 22.9125L59.9022 22.9L59.9148 23.025L59.7014 23.0375L59.6888 22.9125ZM60.0403 23.0375H60.1659V23.1375H60.0403V23.0375ZM60.4169 21.2625L60.2914 21.275L60.2663 21.0875L60.3918 21.075L60.4169 21.2625ZM60.2914 23.8875H60.4169V24.0375H60.2914V23.8875ZM60.5676 23.9625L60.6805 24.0125L60.6178 24.15L60.5048 24.0875L60.5676 23.9625ZM59.9525 22.3C60.078 22.3 59.9148 22.7875 60.2412 22.7375C60.5801 22.7 60.2663 22.8875 60.5174 22.9C60.7684 22.925 60.7057 22.7125 60.7935 22.5625C60.8814 22.4125 60.8312 22.325 60.6931 22.2875C60.5425 22.25 60.5425 22.25 60.5048 22.075C60.4671 21.9125 60.2914 21.8625 60.2914 21.8625L60.2286 21.6125L59.9525 21.775L59.6763 22.1375C59.6763 22.4375 59.8269 22.3 59.9525 22.3ZM60.7684 23.45C60.9316 23.3625 61.2957 23.3625 61.2705 23.2375C61.2454 23.1125 61.484 23.075 61.484 23.075L61.5467 23.325L61.735 23.45L61.7601 23.6875C61.7601 23.6875 61.8229 23.65 61.5969 23.7125C61.371 23.775 61.5091 23.875 61.5091 23.875L61.0069 23.9L60.9442 23.6875L60.7684 23.45ZM58.0695 25.2125C58.1699 25.1875 58.421 25.175 58.4712 25.2375C58.5088 25.3 58.3205 25.3875 58.3205 25.3875L58.0695 25.425C57.9942 25.325 57.9691 25.2375 58.0695 25.2125ZM59.4127 25.025C59.5257 25.1375 58.785 25.1125 58.785 25.025C58.785 24.9375 58.8478 24.65 59.0361 24.7125C59.2244 24.775 59.2495 24.3375 59.2495 24.3375C59.2495 24.3375 59.0863 24.3625 59.2244 24.275C59.375 24.1875 59.2244 24.0625 59.1616 24C59.0988 23.9375 59.0361 23.825 59.0361 23.825H59.3248C59.4503 23.7375 59.488 23.3375 59.488 23.3375C59.7391 23.425 59.8646 23.25 59.8646 23.25C59.8646 23.25 59.9022 23.375 59.9901 23.4875C60.078 23.5875 59.7767 23.6375 59.8897 23.7C59.9901 23.7625 60.0403 23.95 59.9901 24.0125C59.9525 24.075 59.714 24.0375 59.714 23.95C59.714 23.8625 59.6261 24.05 59.714 24.1625C59.8018 24.2625 59.6135 24.4125 59.5633 24.4125C59.5257 24.4125 59.2495 24.45 59.4754 24.5875C59.7014 24.7125 59.9525 24.65 59.9525 24.65C59.9525 24.65 60.1408 24.625 60.2035 24.7375C60.2663 24.8375 60.1784 24.8625 60.078 24.8625C59.9776 24.8625 59.4754 24.825 59.4754 24.825C59.4754 24.825 59.3499 24.9625 59.4127 25.025ZM61.848 22.6375C61.7852 22.55 61.7225 22.4875 61.6346 22.45C61.5467 22.4125 61.484 22.3625 61.4086 22.3625C61.3208 22.3625 61.2454 22.275 61.2831 22.175C61.3208 22.075 61.2203 22.025 61.2203 21.9375C61.2203 21.85 61.2831 21.85 61.3835 21.9125C61.484 21.975 61.4714 22 61.5467 22.1C61.6346 22.2 61.6722 22.3125 61.7601 22.2875C61.848 22.2625 61.9108 22.475 61.9861 22.4125C62.074 22.35 62.0488 22.5625 62.0488 22.5625L61.848 22.6375ZM61.6471 22.8375C61.7099 22.925 61.8354 22.9875 61.8354 23.075C61.8354 23.1625 61.7978 23.225 61.9233 23.2375C62.0488 23.2625 62.1367 23.2125 62.1744 23.325C62.212 23.425 62.212 23.6 62.1995 23.6875C62.1744 23.775 62.2246 23.9 62.325 23.9C62.4254 23.9 62.4505 23.925 62.4505 23.9875C62.4505 24.05 62.5761 23.75 62.5761 23.75C62.4757 23.6625 62.3878 23.475 62.3878 23.475C62.3878 23.475 62.2874 23.175 62.2874 23.1375C62.2874 23.1 62.1367 23.05 62.074 23.0375C62.0112 23.0125 61.9108 22.825 61.9108 22.825L61.6471 22.8375ZM63.0029 26.25L62.915 26.0625C62.915 26.0625 62.915 25.9 62.9527 25.8125C62.9903 25.725 62.8648 25.65 62.802 25.625C62.7393 25.6 62.7644 25.4375 62.7393 25.35C62.7142 25.2625 62.5761 25.2 62.5761 25.2C62.5761 25.2 62.5384 24.8875 62.5384 24.825C62.5384 24.7625 62.3501 24.675 62.4129 24.6125C62.4757 24.55 62.5133 24.4625 62.5761 24.425C62.6388 24.3875 62.5133 24.0875 62.6137 24.15C62.7142 24.2125 62.7142 24.325 62.7644 24.4C62.802 24.4875 62.7393 24.775 62.8522 24.8375C62.9527 24.9 62.8271 25.1125 63.0029 25.1125C63.1661 25.1125 63.0657 25.5125 63.0657 25.5125C63.0657 25.5125 63.028 25.8125 63.1284 25.825C63.2288 25.85 63.1661 26.35 63.1661 26.35L63.0029 26.25ZM63.0657 27.8625L63.1284 27.7375L63.2414 27.8L63.1786 27.925L63.0657 27.8625ZM63.2037 27.175L63.3293 27.1875L63.3167 27.3625L63.1912 27.3375L63.2037 27.175ZM62.9401 26.475L62.7769 26.45L62.4003 26.5125L62.1869 26.9125C62.1869 26.9125 62.2874 26.975 62.3752 27.125C62.4631 27.275 62.5008 28.1375 62.2497 28.2875C61.9986 28.4375 62.2748 28.35 62.2748 28.35L62.2371 28.8125C62.2999 29.025 62.4003 28.9125 62.4631 28.8125C62.5259 28.7125 62.5886 28.6875 62.6765 28.575C62.7644 28.475 62.8899 28.275 62.9025 28.1375C62.9276 27.9875 63.028 27.7625 62.9652 27.7C62.9025 27.6375 63.028 27.3375 63.028 27.3375C63.028 27.3375 63.1159 27.1625 63.028 27C62.9401 26.825 63.0531 26.6375 63.1159 26.5625L62.9401 26.475ZM62.0237 24.325H61.7099C61.7099 24.325 61.8103 24.3625 61.5216 24.0875C61.2329 23.8125 61.0446 24.15 61.0446 24.15L60.7057 24.1875V24.525L60.5425 24.5875L60.5676 24.8L60.7935 24.775C60.7935 24.775 60.7935 25.025 60.8563 24.925C60.9191 24.825 61.4463 24.95 61.3961 25.2C61.3835 25.3 61.9233 25.575 61.8605 25.9125C62.1367 25.95 62.074 26.225 62.074 26.225L62.4254 26.2625L62.5259 26.05L62.6263 26.075V25.95L62.4003 25.8875L62.3627 25.2125L62.212 25.1125L62.2497 24.9375L62.0865 24.875L62.1744 24.6L62.0237 24.325ZM61.2454 29.5L61.371 29.45L61.3208 29.35L61.2957 29.275L61.2329 29.3125L61.0822 29.4L60.9442 29.3125L60.8814 29.425L61.0446 29.525L61.0822 29.55L61.1074 29.525L61.2329 29.4625L61.2454 29.5ZM61.7978 29.225L62.0237 29.2625L62.0488 29.1375L61.8229 29.1L61.7978 29.225ZM61.371 31.9249C61.2831 31.7999 61.7852 31.5874 61.8731 31.8374C61.961 32.0874 61.8731 32.0499 61.7852 32.0249C61.7099 31.9999 61.4965 32.0874 61.371 31.9249ZM59.2118 35.9874H59.3625V36.3874H59.2118V35.9874ZM60.1784 39.8499C60.1408 40.0124 59.9901 40.0999 59.9022 40.0374C59.8144 39.9749 60.0027 40.1374 60.0529 40.2249C60.0905 40.3124 60.2161 40.3124 60.2663 40.2249C60.304 40.1374 60.2914 39.9499 60.3291 39.8624C60.3667 39.7874 60.2035 39.7624 60.1784 39.8499ZM60.6429 40.6999L60.8312 40.7874L60.8563 41.1499C61.1074 41.3999 61.9233 41.1874 61.9233 41.1249C61.9233 41.0624 61.8857 40.3499 61.8857 40.3499L61.7852 40.2499L61.7601 39.7249C61.848 39.4499 61.3584 39.0499 61.3208 39.1374C61.2831 39.2249 61.0069 39.1624 61.0069 39.2374C61.0069 39.3249 60.8437 39.7374 60.9191 39.8874C61.0069 40.0374 60.8563 40.0374 60.8312 40.1874C60.8061 40.3124 60.5927 40.5624 60.6429 40.6999ZM54.768 36.1874L54.7052 36.0874L54.5295 36.1874L54.6048 36.2999L54.768 36.1874ZM51.5795 36.5999C51.4791 36.6999 51.5042 36.7874 51.5795 36.8624ZM52.2322 37.1124L52.3703 36.8749L52.2574 36.8374L52.1067 36.9374L52.1695 36.9999L52.2322 37.1124ZM52.1067 30.5249C52.1946 30.7124 52.1695 30.9874 52.4833 31.1999C52.5837 31.2749 52.4205 31.4124 52.3201 31.3499C52.2197 31.2874 51.9184 30.8249 51.9184 30.8249V30.5499C51.9812 30.3874 52.0691 30.4499 52.1067 30.5249ZM51.002 31.6249C51.0522 31.8124 51.0397 31.3249 51.1276 31.3499C51.2154 31.3749 51.1527 31.0499 51.1527 31.0499L50.7761 31.3249C50.9518 31.3499 50.9769 31.5374 51.002 31.6249ZM49.8722 32.9749C49.8471 33.2249 49.5333 33.3124 49.5333 33.3124L49.3074 33.2499L49.1818 33.1499L49.1567 32.8499L49.345 32.8249L49.3827 32.9499L49.8722 32.9749ZM49.5333 30.4249V30.125L49.4957 29.85L49.1818 29.7L48.9559 29.9125L48.9182 30.2125V30.3999L48.7048 30.4374L48.6671 31.0124L48.504 31.0749L48.5291 31.2874L48.0771 31.4124L48.0395 31.6874L47.8763 31.7874L47.7884 32.0374L47.688 32.6499C47.688 32.6499 47.8763 33.0124 47.9767 32.8374C48.0771 32.6749 48.2529 32.6499 48.2529 32.6499L48.3157 32.4999L48.8805 32.5249C48.9182 32.2874 49.1944 32.3749 49.1944 32.4874C49.1944 32.5874 49.4078 32.5124 49.4078 32.5124L49.5584 32.2749H49.7844L49.8095 32.0249L49.9099 31.9624V31.5874C50.2488 31.4874 50.1986 31.1624 50.1986 31.1624L50.2865 31.0624L50.2488 30.9124C50.0857 30.8499 50.161 30.6999 50.274 30.7374C50.3744 30.7749 50.1233 30.5499 50.1233 30.5499C49.9978 30.6499 49.8974 30.4249 49.8974 30.4249H49.5333ZM48.5793 29.5625L48.4161 29.6L48.0395 29.9625L48.0144 30.125L47.914 30.275L47.7884 30.5874L47.3491 30.6124L47.2612 30.9874L47.324 31.3124L47.7005 31.4624L47.7382 31.2499L47.8637 31.1874L47.8888 30.9749L47.9767 30.8249L48.1022 30.6749L48.1399 30.5124L48.3533 30.3874L48.6044 30.3375L48.7048 30.2125L48.7425 29.9625L48.7676 29.775L48.8554 29.6375L49.1065 29.5375V29.1375H48.981L48.9559 28.9875L48.7299 28.9625L48.6797 29.075H48.5793L48.5542 29.2375H48.6797L48.7048 29.375L48.6169 29.45L48.5793 29.5625ZM41.9512 32.0999C41.9512 32.1499 41.9135 32.1874 41.8633 32.1874C41.8131 32.1874 41.7754 32.1499 41.7754 32.0999C41.7754 32.0499 41.8131 32.0124 41.8633 32.0124C41.9135 32.0124 41.9512 32.0499 41.9512 32.0999ZM41.9386 34.5124C41.9386 34.5624 41.901 34.5999 41.8508 34.5999C41.8005 34.5999 41.7629 34.5624 41.7629 34.5124C41.7629 34.4624 41.8005 34.4249 41.8508 34.4249C41.901 34.4249 41.9386 34.4624 41.9386 34.5124ZM41.7127 34.1624C41.7629 34.1624 41.8005 34.1249 41.8005 34.0749C41.8005 34.0249 41.7629 33.9874 41.7127 33.9874C41.6625 33.9874 41.6248 34.0249 41.6248 34.0749C41.6248 34.1249 41.6625 34.1624 41.7127 34.1624ZM41.4616 34.6624L41.2859 34.6874V34.8374L41.4616 34.8124V34.6624ZM41.6499 33.5874L41.4993 33.6124L41.4867 33.7749L41.6499 33.7999V33.5874ZM41.6123 32.4499L41.6248 32.2999L41.311 32.5124L41.1101 32.3874V32.8874L41.4365 33.3374L41.562 33.0374L41.6123 32.8499L41.4616 32.7874L41.4867 32.4749L41.6123 32.4499ZM41.4867 30.6749L41.1101 30.6374L41.1352 30.7874H41.2357C41.3988 31.0874 41.2608 31.7999 41.2608 31.7999C41.2608 31.7999 41.0097 31.8249 40.972 31.6999C40.9344 31.5749 40.8214 31.9749 40.9093 32.0374C40.9971 32.0999 41.2859 32.0374 41.311 32.2749C41.3361 32.5124 41.4993 32.1249 41.4993 32.1249L41.4867 30.6749ZM49.8974 26.5H49.6714L49.6337 26.0375L49.7593 25.95V25.7125H49.0312L49.0061 25.475L49.1065 25.4125L48.9433 25.35L48.8178 25.5125L48.7801 25.7L48.5667 25.7375V25.8375H48.4161V26.1125L47.8261 26.6L46.6586 26.5625C46.5708 26.75 46.3699 26.5375 46.3699 26.5375C46.3323 26.4125 46.031 26.5375 46.031 26.5375C46.031 26.775 45.6293 26.4375 45.6293 26.4375L44.9012 25.9125C44.4869 25.5375 43.8593 26.0125 43.8342 26.125C43.8593 26.425 43.3571 26.1875 43.3571 26.1875C43.3571 26.1875 42.9429 26.0625 42.8801 26.225C42.8174 26.3875 42.5412 26.35 42.5412 26.35L42.5035 26.4375L42.2901 26.475L42.2525 26.6L42.0014 26.6375L42.6291 26.6125C42.7923 26.5875 42.5663 26.975 42.4659 26.95L42.1771 26.975L42.0767 27.075H41.8005L41.675 27.25L41.2733 27.225C41.2733 27.225 41.0474 27.4125 41.0599 27.475C41.085 27.5375 41.0223 27.725 40.9595 27.725C40.8967 27.725 40.7712 27.9125 40.8088 27.975C40.8465 28.0375 40.6833 28.25 40.6833 28.25L40.6457 28.4625L40.5201 28.5V29.075L40.2691 29.25V29.5L39.8925 29.9L39.9301 30.2375L39.6163 30.5749L39.654 30.9124L39.4657 30.9749L39.428 31.1249L39.3401 31.5624L39.5535 31.5874C39.654 31.5499 39.6414 31.8624 39.5535 31.8999C39.4657 31.9374 39.2397 32.0249 39.3652 32.1124C39.4908 32.1999 39.0263 32.1749 39.0263 32.0499C39.0263 31.9249 38.7752 31.8124 38.7125 31.8624C38.6497 31.8999 38.5493 31.6749 38.5493 31.6749C38.3233 31.4374 37.6078 31.6999 37.6078 31.6999L37.5074 32.0374C37.2814 32.0749 37.1308 32.4624 37.1308 32.4624C36.9425 32.5249 36.7918 32.7624 36.8546 32.8249C36.9174 32.8874 36.7542 32.9124 36.7542 32.9124V33.3749L36.6537 33.5249L36.6788 34.0249C36.8044 34.0249 36.7793 34.2624 36.7793 34.2624C36.5659 34.2874 36.6161 34.5624 36.6161 34.5624L36.1767 34.7124L36.0888 34.8374L35.5491 34.8124L35.3984 34.9624L35.2478 34.8124H34.2059L34.1682 34.7124L33.9548 34.6749L33.9297 34.4374L33.6159 34.4624L33.5531 34.5874L33.2142 34.6124C33.2393 34.8249 32.8752 35.1374 32.8376 35.0499C32.7999 34.9624 32.5614 34.7374 32.6744 34.6874C32.7748 34.6499 33.051 34.5999 33.051 34.5999V34.4499L32.2727 34.4249L32.1848 34.5499L31.871 34.5749V34.9124L31.7203 34.9499C31.6199 35.0124 31.7454 35.2499 31.7454 35.2499C31.8961 35.3999 31.7203 35.6249 31.7203 35.6249C31.5948 35.7499 31.8208 35.9874 31.8208 35.9874C31.984 36.0249 31.7203 36.1499 31.7203 36.1499C31.758 36.3624 31.8835 36.4249 31.8835 36.4249C31.758 36.6374 31.9714 36.7374 31.9714 36.7374L31.9965 37.0999L32.1471 37.1874V37.4249L32.235 37.5749H32.574L32.5488 37.0499C32.2601 36.7124 32.7999 36.6249 32.825 36.7499C32.8501 36.8749 33.0761 36.9374 33.0761 36.9374C33.1137 37.2499 33.4778 37.4374 33.5782 37.1249C33.6786 36.8124 33.7665 36.9999 33.8293 37.1499C33.892 37.2999 34.2937 37.6624 34.2937 37.6624H34.6076L34.6452 37.9624C34.9967 37.9374 35.1097 37.9874 35.2478 38.4624C35.3984 38.9499 35.7876 39.0749 35.7876 39.0749L36.0763 39.0499C36.0763 38.7999 36.365 39.0874 36.365 39.2249C36.365 39.3499 36.9299 39.8374 36.9299 39.8374L37.4948 39.9624L38.022 40.3874L38.4237 40.3499H38.5869C38.6874 39.9874 39.1895 40.3749 39.2397 40.4999C39.2774 40.6249 39.6163 40.8374 39.654 40.7374C39.6916 40.6374 39.9301 40.6999 39.9678 41.0124C40.0054 41.3249 40.1561 41.2624 40.1561 41.2624L41.3486 41.2374L41.7629 40.8749L42.8299 40.8499C43.3697 40.8249 43.0433 40.0874 42.9303 40.0874C42.742 39.9374 42.9931 39.3249 42.9931 39.3249L41.4742 37.9124C41.1227 37.9124 41.4365 37.3999 41.4365 37.3999C41.7127 37.2249 41.3737 36.9624 41.3737 36.9624C41.4114 36.7124 41.2231 36.4124 41.2231 36.4124C40.8465 36.1624 40.9469 35.6749 40.9469 35.6749V35.3374C40.6331 35.0374 41.0725 34.9999 41.0725 34.9999C41.2231 34.7499 40.972 34.5624 40.972 34.5624L40.9469 34.2874L40.608 34.2499L40.5703 33.2624L39.8171 32.1874C39.6665 32.1499 39.7795 31.8874 39.7795 31.8874C39.9678 31.7874 39.7418 31.5249 39.7418 31.5249L39.7167 31.0624L40.1561 31.0249L40.2565 30.8624H40.4699L40.4448 30.3125C40.5452 30.0375 40.7963 30.1875 40.7963 30.1875L41.085 30.2125L41.2482 29.9L41.2859 29.65L41.0599 29.625C40.8088 29.475 40.9344 28.925 40.9344 28.925C41.3361 28.3375 41.788 28.675 41.788 28.675L42.0767 28.65C42.5161 28.95 42.1144 29.4875 42.1144 29.4875C42.0265 29.6125 42.0767 30.0125 42.0767 30.0125L42.1771 30.6874L41.901 30.9249C41.675 31.0499 41.675 31.3499 41.9261 31.4124C42.0893 31.4374 42.0265 31.8374 41.7754 31.5624C41.3988 31.5624 41.9888 31.8999 41.8131 31.8124C42.1897 31.9999 42.1018 31.6499 42.1018 31.6499L42.604 31.2499C42.7923 31.0999 43.1312 31.5624 43.1312 31.6249C43.1312 31.6874 43.9597 31.6499 43.9597 31.6499C44.1857 31.7999 44.2735 32.1749 44.2735 32.1749C44.4995 31.8749 44.9891 32.1499 44.625 32.3249C44.964 32.5374 44.964 32.7249 44.964 32.7249C45.2401 32.6374 45.2401 32.8499 45.2401 32.9124C45.2401 32.9749 45.328 32.5999 45.328 32.5999C45.0142 32.3624 45.7423 32.2874 45.5414 32.6999L45.4159 32.8874L45.6293 33.0499L45.6544 33.5374C46.1188 33.4999 45.9933 32.9249 45.9933 32.9249L46.2067 32.8874C46.2067 32.6999 46.3574 32.7999 46.3574 32.7999C46.2067 32.0874 46.6963 31.9624 46.6963 31.9624C46.9725 31.8999 46.985 31.3249 46.985 31.3249C46.7967 31.2374 46.8971 30.9499 47.1105 31.1999C47.324 31.4499 46.985 30.6874 46.985 30.6874L46.8218 30.5374L46.5959 30.5124L46.5708 30.275H46.1942L46.1314 30.5749L45.9933 30.6374L45.9557 30.5499L45.8929 30.7874H45.5163L45.4912 30.5374L45.7171 30.4749L45.805 30.35L45.8678 30.0125H46.144L46.4954 29.9125C46.5205 29.55 46.7088 29.6375 46.7088 29.6375L47.0227 29.8875L47.0478 30.0125L46.9223 30.075L46.8971 30.25L46.9599 30.4874H47.1231C47.1859 30.15 47.6252 30.15 47.7508 30.3624L47.8763 30.0625C47.5876 29.9125 47.8763 29.6875 47.9516 29.7875C48.0395 29.8875 48.2278 29.5125 48.2278 29.5125C48.2278 29.5125 48.3784 29.7 48.2278 29.45C48.0771 29.2 48.3282 29.075 48.3282 29.075C48.2905 28.825 48.6044 28.8625 48.6044 28.8625L48.6295 28.525L48.3408 28.5C48.278 28.8 48.0269 28.5375 48.1525 28.475C48.278 28.4125 48.4035 28.2875 48.4035 28.2875V28.075L48.5291 28.0375L48.5542 27.825H48.868L49.1442 27.7L49.2069 27.6L49.4957 27.575L49.9099 27.2L49.8722 27.0375C49.6212 27.0375 49.8722 26.85 49.8722 26.85L49.8974 26.5ZM38.5618 45.4624L38.3986 45.2124L38.6497 45.2499L38.9133 45.4749L39.0263 45.7499L38.8757 45.8374L38.7878 45.7124L38.5869 45.6499L38.5618 45.4624ZM33.9548 39.1374L34.0552 39.4249L34.2059 39.5374L34.344 39.8499L34.2686 39.9999L34.0301 39.7874L33.8669 39.5499L33.7791 39.3624L33.641 38.9874L33.9548 39.1374ZM32.6995 38.0124H32.5991V38.2249H32.7623V38.4999H32.8878L32.8627 38.1874L32.6995 38.1249V38.0124ZM49.1191 25.1625L49.2446 25.1375L49.2697 25.2625L49.1442 25.2875L49.1191 25.1625ZM49.2697 25.0875L49.3074 24.9625L49.4705 25.0125L49.4454 25.1375L49.2697 25.0875ZM49.571 24.9625L49.5835 24.8375L49.4454 24.8125L49.4203 24.9375L49.571 24.9625ZM49.7844 24.6875H49.9476V24.8125H49.7844V24.6875ZM50.8514 24.8375L50.864 24.7125L51.0146 24.725L50.9895 24.85L50.8514 24.8375ZM51.2657 24.925L51.2782 24.8L51.1276 24.775L51.115 24.9L51.2657 24.925ZM51.4163 24.9375H51.5795V25.0625H51.4163V24.9375ZM51.6046 25.15V25.3L51.7301 25.2875V25.1375L51.6046 25.15Z" fill="#007AFF"/>
</g>
<defs>
<clipPath id="clip0_680_7678">
<rect width="59" height="50" fill="white" transform="translate(21 9)"/>
</clipPath>
</defs>
</svg>
