<svg width="102" height="68" viewBox="0 0 102 68" fill="none" xmlns="http://www.w3.org/2000/svg">
<rect width="101.58" height="68" rx="12" fill="white"/>
<g clip-path="url(#clip0_677_7352)">
<path d="M14.8287 38.5489C15.9267 39.6097 16.1744 40.9938 15.8945 42.5202C15.5715 44.2925 14.538 45.5602 12.9771 45.6378C10.3288 45.7801 7.68055 45.6766 5 45.6766C5 40.9421 5 36.2075 5 31.473C5.07536 31.4471 5.15071 31.4083 5.21531 31.4083C7.72361 31.4212 10.2319 31.3566 12.7402 31.4859C14.9794 31.6024 16.2928 33.7368 15.9375 36.3886C15.8191 37.2812 15.4208 37.9668 14.8287 38.5489ZM7.55137 42.6755C9.15539 42.6755 10.7271 42.7143 12.2989 42.6625C13.0847 42.6367 13.483 42.0934 13.4507 41.3043C13.4184 40.4634 12.9986 40.0107 12.1804 40.0107C10.7594 39.9977 9.34917 40.0107 7.92815 40.0107C7.78821 40.0107 7.65902 40.0495 7.5406 40.0624C7.55137 40.9421 7.55137 41.7829 7.55137 42.6755ZM7.5406 37.1518C7.78821 37.1518 7.98198 37.1518 8.17575 37.1518C9.57524 37.1518 10.9747 37.1648 12.3742 37.126C12.8156 37.113 13.1924 36.8543 13.3754 36.2981C13.6983 35.2891 13.2354 34.5129 12.2235 34.4741C11.2223 34.4224 10.2104 34.4612 9.20922 34.4612C8.66019 34.4612 8.11116 34.4612 7.5406 34.4612C7.5406 35.3796 7.5406 36.2075 7.5406 37.1518Z" fill="black"/>
<path d="M86.2456 40.6445C86.2456 38.9629 86.2456 37.4623 86.2456 35.9488C86.2456 34.4612 86.2456 32.9736 86.2456 31.4342C87.0852 31.4342 87.9034 31.4342 88.7646 31.4342C88.7646 36.1687 88.7646 40.8903 88.7646 45.7154C87.968 45.7154 87.1929 45.7413 86.407 45.6895C86.2456 45.6766 86.0625 45.4179 85.9441 45.2238C84.2647 42.5332 82.5961 39.8425 80.9167 37.1518C80.7983 36.9707 80.6799 36.7896 80.4538 36.4533C80.4538 39.6355 80.4538 42.6367 80.4538 45.6766C79.5819 45.6766 78.7852 45.6766 77.9563 45.6766C77.9563 40.9162 77.9563 36.1817 77.9563 31.3824C78.7422 31.3824 79.4957 31.3566 80.2385 31.4083C80.4215 31.4213 80.6261 31.68 80.7553 31.8869C82.4562 34.6035 84.1463 37.3329 85.8472 40.0624C85.9441 40.2306 86.0518 40.3599 86.2456 40.6445Z" fill="black"/>
<path d="M68.2244 45.8964C67.6431 45.78 66.9003 45.7153 66.2006 45.4954C63.6707 44.6675 62.1313 42.2873 62.0129 39.131C61.9052 36.2075 62.6157 33.7626 64.8549 32.2491C66.1898 31.3436 67.6646 31.1107 69.1825 31.2918C69.7316 31.3565 70.2914 31.4729 70.8189 31.667C73.1334 32.5466 74.4791 34.4741 74.7805 37.3588C75.1573 40.942 74.0269 44.1242 70.9803 45.379C70.6574 45.5084 70.3237 45.6118 69.9899 45.6765C69.4409 45.7671 68.9026 45.8188 68.2244 45.8964ZM68.3752 42.7789C71.411 42.8177 73.0796 40.0882 72.0461 36.7508C71.777 35.8841 71.3141 35.2114 70.6036 34.8363C69.1718 34.073 67.7077 34.0472 66.2759 34.7845C64.8764 35.5089 64.2736 37.3458 64.5965 39.6225C64.8441 41.3689 65.953 42.5202 67.5678 42.7142C67.8369 42.753 68.106 42.766 68.3752 42.7789Z" fill="black"/>
<path d="M48.3086 42.6107C49.0191 42.0804 49.6865 41.5759 50.354 41.0843C51.8504 43.167 53.7558 43.0505 55.7151 42.5849C55.8551 42.5461 56.0273 42.5072 56.1134 42.3908C56.3395 42.0933 56.6409 41.7828 56.7055 41.4206C56.7916 40.9291 56.4687 40.541 56.0919 40.4246C55.4567 40.2305 54.8001 40.1012 54.1434 39.9977C53.0991 39.8295 52.0334 39.8166 50.9999 39.5579C49.7081 39.2345 48.7177 38.3936 48.4593 36.699C48.1686 34.8363 48.6746 33.3486 49.988 32.275C51.8504 30.7485 56.3933 30.5157 58.5787 33.4133C58.6863 33.5556 58.7832 33.6979 58.9232 33.8919C58.2772 34.5129 57.6529 35.1209 57.0177 35.7547C56.9316 35.69 56.8455 35.6512 56.7809 35.5865C55.306 34.073 53.6266 34.0213 51.8611 34.5646C51.6781 34.6164 51.4521 34.7069 51.3336 34.8621C51.1506 35.1209 50.9353 35.4831 50.9569 35.7676C50.9784 36.0522 51.226 36.4403 51.4628 36.5567C51.8611 36.7637 52.324 36.8284 52.7654 36.8931C54.0034 37.0742 55.2737 37.1259 56.4902 37.4364C58.1588 37.8633 59.0954 39.1569 59.2138 40.8644C59.3538 42.8306 58.6433 44.3959 57.05 45.185C54.7032 46.3492 52.3563 46.2457 50.1064 44.784C49.3528 44.3183 48.7715 43.5809 48.3086 42.6107Z" fill="black"/>
<path d="M31.2886 45.7284C31.7192 44.6548 32.1067 43.6975 32.5051 42.7273C33.9476 39.1441 35.4117 35.5738 36.8327 31.9905C37.0157 31.5378 37.231 31.3567 37.6508 31.3825C38.2752 31.4213 38.9104 31.3696 39.5348 31.4084C39.7178 31.4213 39.9869 31.5895 40.0623 31.7835C41.9031 36.2852 43.7225 40.7869 45.5526 45.2886C45.5956 45.3921 45.6171 45.5215 45.671 45.7155C44.7882 45.7155 43.9485 45.7284 43.1088 45.7026C42.9797 45.7026 42.8182 45.4826 42.7536 45.3145C42.4522 44.603 42.1615 43.8915 41.9031 43.1542C41.7632 42.779 41.5909 42.6109 41.2142 42.6109C39.4056 42.6368 37.6078 42.6238 35.7992 42.6109C35.487 42.6109 35.3148 42.7144 35.1856 43.0636C34.9057 43.8269 34.5935 44.5901 34.2706 45.3274C34.1952 45.4956 34.0014 45.6896 33.8507 45.6896C33.0218 45.7414 32.2144 45.7284 31.2886 45.7284ZM38.5013 34.6941C37.8123 36.4275 37.1772 38.0445 36.5205 39.6874C37.8769 39.6874 39.158 39.6874 40.4821 39.6874C39.8254 38.0186 39.1903 36.4146 38.5013 34.6941Z" fill="black"/>
<path d="M19.9854 45.6896C19.9747 45.4179 19.9639 45.2239 19.9639 45.0428C19.9639 40.7351 19.9747 36.4275 19.9531 32.1198C19.9531 31.4989 20.1146 31.3566 20.599 31.3825C21.2234 31.4342 21.8478 31.3954 22.5045 31.3954C22.5045 35.1727 22.5045 38.8724 22.5045 42.6755C24.4099 42.6755 26.2723 42.6755 28.167 42.6755C28.167 43.7363 28.167 44.6935 28.167 45.6896C25.4326 45.6896 22.7413 45.6896 19.9854 45.6896Z" fill="black"/>
<path d="M67.3308 29.8819C66.9325 29.261 66.5019 28.7694 66.265 28.1744C65.8667 27.1395 66.2758 25.9235 67.1909 25.5225C68.2459 25.0568 69.0209 24.3195 69.4408 23C70.1405 23.7373 70.7972 24.3971 70.6573 25.613C70.5604 26.4409 70.1836 27.0489 69.5484 27.2947C68.4827 27.6957 67.7829 28.5107 67.3308 29.8819Z" fill="black"/>
<g clip-path="url(#clip1_677_7352)">
<path d="M97 34.2653C97 35.8143 95.7703 37.0816 94.2673 37.0816C92.7644 37.0816 91.5347 35.8143 91.5347 34.2653C91.5347 32.7163 92.7644 31.449 94.2673 31.449C95.9069 31.449 97 32.7163 97 34.2653ZM92.2178 34.2653C92.2178 35.5326 93.0376 36.5184 94.2673 36.5184C95.497 36.5184 96.3168 35.5326 96.3168 34.2653C96.3168 32.998 95.497 32.0122 94.2673 32.0122C93.1743 32.0122 92.2178 32.998 92.2178 34.2653ZM93.8574 35.6735H93.3109V32.8571C93.4475 32.8571 93.8574 32.8571 94.2673 32.8571C94.8139 32.8571 95.0871 32.8571 95.2238 32.998C95.3604 33.1388 95.497 33.2796 95.497 33.5612C95.497 33.8429 95.2238 34.1245 94.9505 34.2653C95.2238 34.4061 95.3604 34.5469 95.497 34.9694C95.497 35.3918 95.497 35.5326 95.6337 35.6735H94.9505C94.8139 35.5326 94.8139 35.251 94.6772 34.9694C94.6772 34.6878 94.404 34.5469 94.1307 34.5469H93.8574V35.6735ZM93.8574 34.1245H94.1307C94.5406 34.1245 94.8139 33.9837 94.8139 33.702C94.8139 33.4204 94.6772 33.2796 94.2673 33.2796C94.1307 33.2796 93.9941 33.2796 93.8574 33.2796V34.1245Z" fill="black"/>
</g>
</g>
<defs>
<clipPath id="clip0_677_7352">
<rect width="92" height="23" fill="white" transform="translate(5 23)"/>
</clipPath>
<clipPath id="clip1_677_7352">
<rect width="5.46535" height="5.63265" fill="white" transform="translate(91.5347 31.449)"/>
</clipPath>
</defs>
</svg>
