<svg width="79" height="79" viewBox="0 0 79 79" fill="none" xmlns="http://www.w3.org/2000/svg">
<path d="M36.2092 0C38.4194 0 40.6296 0 42.8399 0C43.2503 0.0631116 43.6608 0.126223 44.0871 0.173557C53.5595 1.40423 61.6268 5.38027 68.226 12.3068C73.5937 17.9553 76.9406 24.6135 78.393 32.2343C78.6456 33.5281 78.8035 34.8219 78.9929 36.1156C78.9929 38.3245 78.9929 40.5335 78.9929 42.7424C78.8982 43.3893 78.8035 44.0362 78.7088 44.683C76.6248 58.0943 69.6152 68.0817 57.68 74.5033C50.3704 78.432 42.4768 79.7416 34.2673 78.5582C20.8165 76.6018 10.8704 69.4544 4.42919 57.5578C0.75073 50.7733 -0.51226 43.4208 0.182385 35.7212C0.624431 30.8458 1.95057 26.2229 4.12923 21.8366C6.52891 16.9928 9.86004 12.8274 13.9963 9.30897C18.7325 5.2856 24.116 2.50869 30.1468 1.0729C32.1518 0.599561 34.1884 0.347114 36.2092 0Z" fill="#258F17"/>
<path d="M27.1314 41.7957C28.426 41.7957 29.7048 41.7641 30.9994 41.8115C31.2993 41.8273 31.7729 42.0166 31.8361 42.2217C31.994 42.7582 31.473 43.4839 31.0151 43.5313C30.7783 43.5628 30.5415 43.5471 30.3047 43.5471C28.0787 43.5471 25.8369 43.5471 23.6109 43.5471C23.4056 43.5471 23.1846 43.5471 22.9794 43.5313C22.4426 43.4997 22.0479 43.2631 22.0479 42.6793C22.0479 42.1113 22.4426 41.8273 22.9794 41.8115C23.8477 41.7799 24.716 41.7957 25.5843 41.7957C26.0737 41.7957 26.5947 41.7957 27.1314 41.7957Z" fill="#258F17"/>
<path d="M51.8387 41.7957C53.149 41.7957 54.4594 41.7957 55.7697 41.7957C56.4012 41.7957 57.0011 41.9219 57.0011 42.6792C57.0011 43.4366 56.3696 43.547 55.7539 43.547C53.3069 43.547 50.8756 43.547 48.4286 43.547C47.6234 43.547 47.0709 42.979 47.213 42.2059C47.2445 42.0323 47.655 41.8114 47.8918 41.8114C49.2022 41.7799 50.5125 41.8114 51.8387 41.7957Z" fill="#258F17"/>
<path d="M27.5653 40.7082C26.097 40.724 24.613 40.6767 23.1448 40.724C21.6766 40.7713 20.8556 42.0651 21.4556 43.2958C21.8345 44.0531 22.4817 44.2898 23.2711 44.2898C25.6392 44.2898 28.0073 44.2898 30.3754 44.2898C31.4174 44.2898 31.4648 44.3371 31.3227 45.3627C30.9753 47.7294 31.5911 49.8752 33.0593 51.7212C33.7066 52.5416 34.0539 53.299 33.7381 54.293C33.6908 54.4665 33.675 54.6559 33.6434 54.8294C33.2803 57.0857 32.9172 59.3419 32.5857 61.6139C32.5383 61.8822 32.7435 62.1977 32.8383 62.4975C33.0435 62.2451 33.3435 62.0399 33.454 61.7559C33.6118 61.3142 33.6276 60.825 33.6908 60.3675C34.0065 58.3637 34.3223 56.3599 34.6696 54.3719C34.717 54.1352 35.0011 53.7723 35.1748 53.7723C35.7905 53.7723 36.2168 54.3877 36.122 55.0188C35.9326 56.1863 35.6958 57.3539 35.5379 58.5215C35.5063 58.7897 35.7273 59.0895 35.8379 59.3735C36.0273 59.1368 36.3431 58.9317 36.3904 58.6635C36.643 57.5906 36.8167 56.5019 36.9903 55.4132C37.0693 54.8768 37.3061 54.7505 37.8429 54.8137C38.8375 54.9241 39.8321 55.0188 40.8267 54.9399C42.3107 54.8137 42.2791 54.3877 42.5949 56.2337C42.6106 56.281 42.6106 56.3441 42.6106 56.3915C42.7685 57.2435 42.9106 58.0955 43.1158 58.9475C43.1632 59.121 43.4632 59.2473 43.6526 59.3893C43.7473 59.1999 43.8894 59.0106 43.9368 58.8055C43.9684 58.6319 43.9052 58.4426 43.8736 58.269C43.6842 57.1488 43.4789 56.0443 43.3053 54.9241C43.2263 54.4034 43.7789 53.7092 44.2841 53.7881C44.4893 53.8197 44.7261 54.2772 44.7893 54.577C45.184 56.849 45.5313 59.1368 45.8944 61.4246C45.9418 61.7086 45.9891 62.0084 46.1154 62.2608C46.1786 62.3871 46.4154 62.5291 46.5417 62.5133C46.668 62.4975 46.8417 62.2924 46.8732 62.1504C46.9206 61.9611 46.8574 61.7402 46.8259 61.5351C46.4154 58.9633 46.0207 56.3915 45.5945 53.8197C45.4997 53.2043 45.5945 52.731 46.0049 52.2261C47.6626 50.2381 48.452 47.9818 48.0731 45.3469C47.931 44.3529 47.9941 44.3056 48.9887 44.3056C51.4042 44.3056 53.8355 44.3213 56.2509 44.2898C57.4034 44.274 58.1454 43.5482 58.1454 42.5069C58.1454 41.5129 57.4192 40.8029 56.3141 40.724C56.0299 40.7082 55.7299 40.7082 55.4458 40.7082C52.8882 40.7082 50.3464 40.6924 47.7889 40.724C47.0943 40.7398 46.6838 40.5031 46.368 39.872C45.5787 38.2942 44.5525 36.8742 43.179 35.7066C41.095 33.971 38.5059 33.9079 36.3746 35.5804C34.9064 36.7322 33.8644 38.1995 33.0593 39.8404C32.7277 40.5031 32.3015 40.7398 31.5753 40.724C30.2491 40.6767 28.9072 40.7082 27.5653 40.7082ZM66.3548 44.4318C66.2917 44.4318 66.4022 44.4318 66.3548 44.4318C66.3075 43.3905 66.4811 42.3176 66.3233 41.292C66.1496 40.1875 65.8654 39.0831 65.5023 38.026C65.1392 36.9688 64.3656 36.2273 63.1658 36.2115C61.9817 36.1957 61.3503 37.032 60.8451 37.9629C60.7819 38.0733 60.7345 38.1995 60.6872 38.3257C59.9452 40.014 59.7241 41.7969 59.7715 43.6429C59.8031 44.9525 59.7715 44.9525 58.4769 44.9682C55.209 45.0314 52.4462 47.6505 52.2251 50.9165C52.1304 52.2892 52.6988 52.9361 54.0565 52.9992C55.0195 53.0465 55.13 53.1728 54.9879 54.151C54.7827 55.6341 54.5459 57.1172 54.3722 58.6004C54.3407 58.8528 54.5459 59.1368 54.6248 59.3893C54.8301 59.1684 55.0669 58.979 55.2405 58.7266C55.3353 58.5846 55.3037 58.3795 55.3353 58.1901C55.5405 56.707 55.7615 55.2239 55.951 53.7408C56.0141 53.2359 56.2667 52.9992 56.7719 52.9992C58.4769 52.9992 60.182 52.9834 61.9028 53.0308C62.1554 53.0465 62.5501 53.3779 62.6132 53.6461C62.8027 54.3245 62.85 55.0346 62.9448 55.7446C63.1026 56.7859 63.2289 57.8272 63.4184 58.8528C63.45 59.0579 63.7657 59.2157 63.9394 59.405C64.0499 59.1684 64.1762 58.9475 64.2709 58.7108C64.3025 58.6319 64.2393 58.5057 64.2235 58.3952C64.0025 56.8332 63.7973 55.2712 63.5605 53.7092C63.4658 53.1254 63.6078 52.731 64.1604 52.3996C65.5339 51.595 66.2443 50.317 66.3391 48.7707C66.4338 47.3192 66.3548 45.8834 66.3548 44.4318ZM19.6558 42.4438C19.6242 41.2447 19.3874 39.3829 18.4086 37.6946C17.935 36.8742 17.3193 36.2273 16.3247 36.2273C15.2827 36.2273 14.5565 36.9057 14.2249 37.7893C13.7197 39.0989 13.2146 40.4715 13.104 41.8442C12.9304 44.0847 13.0093 46.3567 13.0883 48.6129C13.1356 50.1907 13.7987 51.5319 15.2038 52.3523C15.8037 52.6994 15.9616 53.1412 15.851 53.7881C15.5984 55.3659 15.3774 56.9595 15.188 58.553C15.1564 58.8213 15.3932 59.121 15.5037 59.405C15.6932 59.1684 15.9931 58.9475 16.0405 58.6792C16.3247 57.0541 16.5615 55.4132 16.7825 53.7723C16.8614 53.2359 17.0982 52.9992 17.6508 52.9992C19.2769 53.015 20.9188 53.015 22.5449 52.9992C23.1606 52.9992 23.429 53.2359 23.5079 53.867C23.7132 55.5079 23.95 57.1488 24.2341 58.7739C24.2815 59.0106 24.5972 59.1999 24.7867 59.405C24.8972 59.1526 25.1182 58.8844 25.0867 58.6319C24.913 57.1646 24.692 55.713 24.4867 54.2614C24.3289 53.1254 24.3604 53.0623 25.5129 52.9992C26.6496 52.9361 27.2022 52.3681 27.2337 51.2636C27.2969 48.2027 24.4394 45.1102 21.3766 44.9998C19.4664 44.9051 19.6716 45.0314 19.6558 42.4438ZM39.6742 25.6876C41.3319 25.6876 42.9895 25.6876 44.6472 25.6876C45.5945 25.6876 45.7523 25.4983 45.6892 24.5674C45.6734 24.2361 45.6102 23.889 45.5155 23.5576C44.7893 21.3645 43.3211 19.9445 41.0477 19.4396C40.4162 19.2976 40.1478 19.0136 40.1794 18.3667C40.211 17.7671 40.211 17.1518 40.1478 16.5522C40.132 16.3471 39.8794 16.1893 39.7215 16C39.5795 16.1893 39.3269 16.3629 39.2953 16.5522C39.2321 17.0729 39.2321 17.6093 39.2637 18.13C39.3269 18.9189 39.0585 19.2976 38.2375 19.4711C35.7589 20.0391 33.7855 22.3427 33.7223 24.6305C33.7066 25.4825 33.8487 25.6719 34.7012 25.6719C36.3588 25.7034 38.0165 25.6876 39.6742 25.6876Z" fill="white"/>
<path d="M44.8837 44.8498C44.8048 44.692 44.6469 44.3923 44.489 44.0925C44.2996 44.2976 43.968 44.5027 43.9522 44.7236C43.8259 46.6643 42.8471 48.0527 41.3157 49.1414C41.1421 49.2676 41.0947 49.599 41 49.8514C41.2526 49.8672 41.5683 49.9776 41.7578 49.8672C43.6365 48.8258 44.5679 47.1534 44.8837 44.8498ZM44.789 42.2465C44.4416 41.7731 44.1575 41.3944 43.8733 41C43.7312 41.1578 43.4628 41.3787 43.4944 41.4733C43.6839 41.9151 43.9522 42.3253 44.189 42.7513C44.3469 42.6251 44.5048 42.4989 44.789 42.2465Z" fill="#258F17"/>
</svg>
