<svg width="24" height="24" viewBox="0 0 24 24" fill="none" xmlns="http://www.w3.org/2000/svg">
<path d="M7.95376 22.9914C7.74951 22.957 7.54092 22.927 7.33668 22.884C6.07209 22.6306 5.05085 21.965 4.21214 21.0289C3.77323 20.5393 3.39515 19.9896 3.03012 19.4442C2.71723 18.9762 2.85629 18.6025 3.36908 18.3664C4.399 17.894 5.46804 17.602 6.61095 17.5719C8.05806 17.529 9.30526 18.0099 10.3873 18.9418C10.6307 19.1522 10.861 19.3798 11.1131 19.616C11.1131 18.7958 11.1131 17.9885 11.1131 17.1468C10.7741 17.1468 10.4264 17.1511 10.0831 17.1468C9.43998 17.1339 8.95761 16.8548 8.67514 16.2793C8.59692 16.1204 8.54477 15.9401 8.53608 15.7683C8.51435 15.3689 8.53173 14.9695 8.53173 14.553C10.7002 14.553 12.86 14.553 15.0242 14.553C15.0242 14.9953 15.072 15.4419 15.0155 15.8756C14.9155 16.6357 14.2897 17.1382 13.5075 17.1511C13.1599 17.1554 12.8166 17.1511 12.4559 17.1511C12.4559 17.9842 12.4559 18.8044 12.4559 19.6332C12.5906 19.5044 12.721 19.3884 12.847 19.2639C14.0985 18.0357 15.5934 17.4388 17.3665 17.5934C18.4094 17.6836 19.3959 17.967 20.3302 18.4308C20.6779 18.6025 20.8256 18.9719 20.6431 19.2982C19.7696 20.8442 18.618 22.1067 16.8798 22.7165C16.4756 22.8583 16.0367 22.9055 15.6152 23C15.2806 23 14.9503 23 14.6157 23C14.3897 22.9656 14.1594 22.9398 13.9334 22.8883C13.4293 22.7724 12.9252 22.6435 12.4124 22.5147C12.3168 22.7767 12.1126 22.9441 11.804 22.9527C11.4868 22.9613 11.2782 22.7895 11.1609 22.5018C10.874 22.5834 10.6046 22.6822 10.3221 22.7423C9.88758 22.8411 9.44867 22.9141 9.00976 22.9957C8.64907 22.9914 8.30141 22.9914 7.95376 22.9914Z" fill="#7E8B90"/>
<path d="M2 10.5378C2.14775 10.1599 2.43457 10.0181 2.83437 10.0353C3.2081 10.0525 3.58617 10.031 3.96424 10.0439C4.30755 10.0568 4.5596 10.293 4.60305 10.6108C4.64217 10.8985 4.46399 11.1905 4.18152 11.285C4.08157 11.3193 3.96859 11.3279 3.85995 11.3279C3.52098 11.3322 3.17768 11.315 2.83871 11.3322C2.43891 11.3537 2.1521 11.212 2 10.8384C2 10.7396 2 10.6365 2 10.5378Z" fill="#7E8B90"/>
<path d="M12.4296 13.209C12.4296 12.4876 12.4253 11.7747 12.434 11.0575C12.434 10.9845 12.4904 10.8986 12.5426 10.8428C12.8555 10.525 13.1771 10.2158 13.49 9.89806C13.7898 9.59746 13.8072 9.21097 13.5421 8.94472C13.2683 8.66988 12.8772 8.68706 12.56 8.99625C12.3036 9.24962 12.0515 9.50298 11.7734 9.78641C11.4866 9.49869 11.2172 9.21097 10.9304 8.94042C10.5479 8.58399 9.95258 8.75577 9.83959 9.25391C9.7831 9.49869 9.86567 9.70482 10.0438 9.87659C10.3654 10.1944 10.6913 10.5122 11.0086 10.8342C11.0651 10.8901 11.1216 10.9759 11.1216 11.0489C11.1303 11.7575 11.1259 12.4661 11.1216 13.1747C11.1216 13.1875 11.1129 13.2004 11.0998 13.2262C11.0433 13.2305 10.9782 13.2348 10.9173 13.2348C9.90478 13.2348 8.88789 13.2305 7.87535 13.2391C7.73629 13.2391 7.64937 13.1961 7.56681 13.0888C5.27229 10.0484 7.1192 5.54359 10.9086 4.94668C14.2896 4.41847 17.2403 7.09385 16.9839 10.4649C16.91 11.444 16.558 12.3287 15.9583 13.1102C15.9148 13.1704 15.8236 13.2305 15.754 13.2305C14.6676 13.2348 13.5812 13.2348 12.4948 13.2305C12.4818 13.2348 12.4687 13.2219 12.4296 13.209Z" fill="#7E8B90"/>
<path d="M18.8782 4.39687C18.8348 4.47417 18.7739 4.64594 18.661 4.77048C18.3872 5.07108 18.0873 5.35451 17.7918 5.63794C17.5007 5.91707 17.1096 5.92566 16.8445 5.65941C16.5881 5.40175 16.5881 5.01526 16.8619 4.73612C17.1617 4.42693 17.4702 4.12633 17.7831 3.83001C17.9917 3.63247 18.2481 3.59812 18.5045 3.71407C18.7522 3.82572 18.8696 4.03185 18.8782 4.39687Z" fill="#7E8B90"/>
<path d="M6.90586 5.13978C6.87979 5.47904 6.76245 5.68087 6.51475 5.79252C6.26705 5.90418 6.02369 5.87412 5.82814 5.69375C5.48483 5.37597 5.15021 5.0496 4.83298 4.71035C4.59831 4.46127 4.63308 4.06619 4.87209 3.83859C5.11545 3.6067 5.50221 3.58523 5.75861 3.81712C6.09757 4.13061 6.42349 4.45269 6.73638 4.79194C6.82764 4.8993 6.86675 5.06248 6.90586 5.13978Z" fill="#7E8B90"/>
<path d="M11.126 2.29694C11.126 2.08222 11.1216 1.86751 11.126 1.65279C11.1346 1.28348 11.4128 1.00864 11.7691 1.00005C12.1341 0.995755 12.421 1.27489 12.4297 1.65279C12.4383 2.07364 12.434 2.49448 12.4297 2.91962C12.4253 3.30182 12.1472 3.58095 11.7778 3.58095C11.4128 3.58095 11.1346 3.30182 11.1303 2.91962C11.1216 2.71349 11.126 2.50737 11.126 2.29694Z" fill="#7E8B90"/>
<path d="M20.2471 11.328C20.0298 11.328 19.8125 11.3366 19.5952 11.328C19.2302 11.3151 18.9608 11.0532 18.9477 10.7096C18.9347 10.3618 19.1998 10.0612 19.5735 10.0483C20.0211 10.0311 20.4687 10.0311 20.9163 10.0483C21.2944 10.0612 21.5595 10.3532 21.5551 10.701C21.5508 11.0532 21.277 11.3194 20.8989 11.3323C20.6816 11.3366 20.4644 11.328 20.2471 11.328Z" fill="#7E8B90"/>
</svg>
