<svg width="56" height="56" viewBox="0 0 56 56" fill="none" xmlns="http://www.w3.org/2000/svg">
<g filter="url(#filter0_d_689_8197)">
<mask id="path-1-inside-1_689_8197" fill="white">
<path d="M52 24C52 37.2548 41.2548 48 28 48C14.7452 48 4 37.2548 4 24C4 10.7452 14.7452 0 28 0C41.2548 0 52 10.7452 52 24Z"/>
</mask>
<path d="M52 24C52 37.2548 41.2548 48 28 48C14.7452 48 4 37.2548 4 24C4 10.7452 14.7452 0 28 0C41.2548 0 52 10.7452 52 24Z" fill="#34C759"/>
<path d="M50.5 24C50.5 36.4264 40.4264 46.5 28 46.5V49.5C42.0833 49.5 53.5 38.0833 53.5 24H50.5ZM28 46.5C15.5736 46.5 5.5 36.4264 5.5 24H2.5C2.5 38.0833 13.9167 49.5 28 49.5V46.5ZM5.5 24C5.5 11.5736 15.5736 1.5 28 1.5V-1.5C13.9167 -1.5 2.5 9.91674 2.5 24H5.5ZM28 1.5C40.4264 1.5 50.5 11.5736 50.5 24H53.5C53.5 9.91674 42.0833 -1.5 28 -1.5V1.5Z" fill="white" mask="url(#path-1-inside-1_689_8197)"/>
</g>
<g clip-path="url(#clip0_689_8197)">
<path d="M14.2002 20.1996C14.2635 19.9253 14.3109 19.6511 14.3848 19.3822C14.659 18.4277 15.1811 17.6314 15.9353 16.9828C16.0566 16.8773 16.1621 16.7138 16.2095 16.5556C16.6156 15.1107 17.5491 14.2458 19.0258 13.9769C19.358 13.9189 19.4952 13.766 19.511 13.4285C19.5901 11.9097 21.0404 11.0818 22.3853 11.7937C22.6015 11.9097 22.8019 11.9044 23.0128 11.8042C23.5561 11.5511 24.1256 11.4984 24.711 11.5564C25.2068 11.6039 25.2859 11.5617 25.481 11.0871C25.8555 10.18 26.7362 9.59468 27.7119 9.59995C28.6875 9.60522 29.5524 10.1906 29.9269 11.1082C30.1115 11.5564 30.2011 11.6091 30.6811 11.5564C31.277 11.4931 31.8571 11.5564 32.4056 11.8095C32.6218 11.9097 32.817 11.8992 33.0332 11.7832C34.3517 11.0818 35.8178 11.9203 35.8916 13.4179C35.9075 13.7712 36.0393 13.9136 36.3927 13.9769C37.8483 14.2458 38.7712 15.0949 39.1878 16.5187C39.2406 16.6927 39.346 16.8773 39.4832 16.988C41.5452 18.7335 41.7878 21.8238 40.0053 23.8488C39.8049 24.0755 39.6836 24.3128 39.6203 24.6029C38.8872 27.7511 34.9213 28.9957 32.5216 26.7914C32.7273 26.6806 32.9172 26.5699 33.1176 26.4697C33.4077 26.322 33.529 26.1427 33.4815 25.9001C33.4287 25.6365 33.2442 25.5152 32.9119 25.5099C32.1736 25.5099 31.4352 25.4941 30.6969 25.5205C30.5228 25.5257 30.3224 25.6154 30.1906 25.7314C29.9269 25.9582 29.6948 26.2218 29.4206 26.5066C29.3468 26.2113 29.2729 25.9792 29.236 25.7367C29.2202 25.6417 29.2729 25.5205 29.3309 25.4361C30.1589 24.3234 30.9922 23.216 31.8255 22.1033C32.1577 21.6603 32.1208 21.4388 31.6673 21.133C31.2876 20.8798 30.8973 20.6373 30.5281 20.3683C30.2591 20.1732 30.0166 20.1626 29.7318 20.3419C29.1253 20.7269 28.4977 21.0855 27.8859 21.4599C27.7541 21.539 27.6644 21.539 27.5326 21.4599C26.9208 21.0802 26.2932 20.7269 25.6867 20.3419C25.4019 20.1626 25.1593 20.1679 24.8903 20.363C24.4895 20.6478 24.0729 20.9115 23.6668 21.1857C23.324 21.4177 23.2765 21.6708 23.5297 22.0083C24.3524 23.1158 25.1804 24.2179 26.0137 25.3148C26.1719 25.5257 26.2352 25.7103 26.135 25.9582C26.0717 26.1111 26.0506 26.2746 25.9979 26.4908C25.7289 26.2113 25.4968 25.9476 25.2331 25.7208C25.096 25.6048 24.9009 25.5152 24.7269 25.5099C23.978 25.4888 23.2343 25.4994 22.4855 25.4994C22.169 25.4994 21.995 25.6259 21.9422 25.8843C21.8948 26.1216 22.0055 26.3115 22.2745 26.4433C22.4327 26.5224 22.5857 26.6015 22.7439 26.6859C22.7913 26.7123 22.8283 26.7439 22.8915 26.7914C22.2798 27.3398 21.5889 27.6878 20.7978 27.825C18.4087 28.2416 16.2517 26.7703 15.7454 24.4025C15.7191 24.2707 15.6611 24.123 15.5714 24.0281C14.8383 23.2371 14.3848 22.3195 14.2477 21.2437C14.2424 21.2226 14.2213 21.2015 14.2107 21.1751C14.2002 20.8693 14.2002 20.5318 14.2002 20.1996Z" fill="white"/>
<path d="M16.7318 36.6C16.7002 36.484 16.6105 36.2889 16.6474 36.2625C16.7476 36.1834 16.9059 36.1306 17.0377 36.1412C18.5566 36.2625 20.0596 36.2045 21.5258 35.751C23.0552 35.2816 24.3315 34.4642 25.0276 32.9719C25.7027 31.5217 25.9506 30.0082 25.3863 28.4472C25.1437 27.7722 24.7481 27.1974 24.2471 26.6965C24.1891 26.6385 24.11 26.5963 23.9939 26.5119C24.4053 26.4275 24.6743 26.475 24.9116 26.7545C25.2069 27.1025 25.5497 27.4084 25.8767 27.7301C26.2195 28.0623 26.6362 27.941 26.7522 27.4769C26.8999 26.8969 27.0317 26.3168 27.1899 25.742C27.2638 25.4836 27.1899 25.2885 27.037 25.0828C26.2406 24.0334 25.4548 22.9787 24.6637 21.924C24.6321 21.8818 24.6057 21.8396 24.5583 21.7711C24.7956 21.6129 25.0171 21.4494 25.2597 21.307C25.3124 21.2754 25.4232 21.3228 25.4917 21.3598C26.1193 21.7289 26.7469 22.098 27.364 22.483C27.6118 22.6359 27.8281 22.6306 28.0707 22.483C28.6877 22.098 29.3206 21.7342 29.9429 21.3545C30.0642 21.2806 30.1538 21.2648 30.2699 21.3545C30.4597 21.4969 30.6601 21.6234 30.8764 21.7711C30.6232 22.1086 30.3859 22.4303 30.1433 22.7519C29.5473 23.5324 28.9672 24.3129 28.3765 25.0881C28.213 25.299 28.1603 25.5099 28.2289 25.7736C28.3818 26.3326 28.5137 26.8969 28.6561 27.4558C28.7826 27.9515 29.194 28.0676 29.5579 27.709C29.8585 27.4137 30.1697 27.1289 30.4492 26.8125C30.6918 26.533 30.9502 26.3906 31.3246 26.5066C31.3246 26.5119 31.3246 26.5435 31.3141 26.5541C29.7688 28.0148 29.4366 29.7867 29.9429 31.7906C30.4966 33.9791 31.9628 35.2131 34.0565 35.8037C35.4594 36.2045 36.8939 36.2625 38.3389 36.1359C38.4285 36.1306 38.5182 36.1148 38.6026 36.1254C38.8188 36.1623 38.8452 36.3627 38.6659 36.5947C31.3563 36.6 24.0467 36.6 16.7318 36.6Z" fill="white"/>
</g>
<defs>
<filter id="filter0_d_689_8197" x="0" y="0" width="56" height="56" filterUnits="userSpaceOnUse" color-interpolation-filters="sRGB">
<feFlood flood-opacity="0" result="BackgroundImageFix"/>
<feColorMatrix in="SourceAlpha" type="matrix" values="0 0 0 0 0 0 0 0 0 0 0 0 0 0 0 0 0 0 127 0" result="hardAlpha"/>
<feOffset dy="4"/>
<feGaussianBlur stdDeviation="2"/>
<feComposite in2="hardAlpha" operator="out"/>
<feColorMatrix type="matrix" values="0 0 0 0 0 0 0 0 0 0 0 0 0 0 0 0 0 0 0.25 0"/>
<feBlend mode="normal" in2="BackgroundImageFix" result="effect1_dropShadow_689_8197"/>
<feBlend mode="normal" in="SourceGraphic" in2="effect1_dropShadow_689_8197" result="shape"/>
</filter>
<clipPath id="clip0_689_8197">
<rect width="27" height="27" fill="white" transform="translate(14.2002 9.59998)"/>
</clipPath>
</defs>
</svg>
