<svg width="167" height="153" viewBox="0 0 167 153" fill="none" xmlns="http://www.w3.org/2000/svg">
<g clip-path="url(#clip0_677_6810)">
<path d="M137.711 65.7562C138.854 67.4697 138.777 69.7113 139.008 71.7209C138.931 75.9787 139.304 81.0479 138.546 85.3763C138.16 87.1728 136.954 89.0352 135.052 89.7115C132.007 91.0517 127.896 90.6776 125.083 89.1127C122.719 87.4699 122.424 84.7133 122.115 82.098C121.884 76.9452 121.499 71.5023 122.951 66.7937C124.094 63.8887 127.216 63.1413 130.03 62.9161C132.996 62.9157 135.886 63.3665 137.711 65.7562Z" fill="white"/>
<path d="M96.2293 131.045L95.7021 131.495C87.7765 133.209 78.9277 133.28 70.9987 131.341L71.5963 130.671C78.5624 126.117 89.4212 126.117 96.2293 131.045ZM69.4252 129.331L67.9252 130.523C61.6305 128.881 55.7917 126.046 50.3965 122.168V121.943C52.1979 120.822 53.9968 119.63 55.9429 118.813C60.2112 123.057 64.6301 126.272 69.4252 129.331ZM116.899 121.943C112.711 125.299 107.842 127.54 102.896 129.402L99.3767 130.523C98.7855 130.22 98.2583 129.782 97.7319 129.331L97.8731 129.106C102.677 126.271 107.02 122.838 111.131 118.735C113.161 119.56 115.1 120.674 116.899 121.943ZM108.896 117.692C106.494 120.449 103.423 122.839 100.571 124.854C98.8507 125.898 97.1283 127.019 95.3299 127.914L92.1052 126.497L92.3362 125.975C95.0341 122.317 97.4366 118.588 99.5308 114.633L99.7484 114.479C102.974 115.225 106.044 116.275 108.896 117.692ZM67.7041 114.555C69.8721 118.659 72.5696 122.536 75.2674 126.414C74.2143 127.019 72.9456 127.393 71.8921 127.985C66.9528 125.525 62.2315 122.092 58.2651 117.989V117.763C61.1844 116.347 64.2549 115.302 67.3988 114.478L67.7041 114.555ZM97.2829 113.885L97.3468 114.111C95.2664 118.136 92.6325 122.014 89.7934 125.672C88.5222 125.82 87.327 125.299 86.042 125.222L84.7829 125.08C84.6296 120.674 84.5523 116.79 84.7829 112.39C89.0481 112.469 93.313 112.913 97.2829 113.885ZM82.5254 125.003C80.958 125.376 79.2334 125.376 77.7338 125.75C74.6603 122.092 72.1166 118.137 69.9455 114.033L70.3212 113.73C74.2138 112.99 78.2602 112.391 82.4546 112.391L82.5254 125.003ZM66.8012 107.843C66.0499 107.843 65.2273 107.689 64.704 107.914L66.5762 112.313L66.3547 112.539C62.9794 113.505 59.6844 114.704 56.4692 116.049L56.1639 115.895C54.0667 113.589 52.0464 111.051 50.396 108.508C50.0299 107.245 48.5303 107.986 47.7081 107.844C49.5031 111.122 51.8957 114.034 54.2982 117.017C52.2718 118.215 50.2518 119.561 48.1542 120.527C43.6613 117.094 39.4639 112.617 36.323 107.915C35.4205 107.767 34.8229 107.844 33.927 107.915C39.3127 116.423 47.7081 123.883 56.4692 128.282L56.54 128.212L56.6204 128.437C62.5329 131.342 68.8211 133.436 75.4885 134.33C98.4768 137.39 120.419 127.465 133.149 107.915C132.481 107.844 131.505 107.844 130.748 107.915C127.613 112.469 123.644 116.874 119.301 120.301L118.556 120.23C116.68 119.039 114.651 118.06 112.852 116.874C115.254 113.957 117.579 111.052 119.377 107.844H117.052C115.176 110.601 113.224 113.506 110.757 115.973C107.456 114.633 104.463 113.435 101.097 112.539L100.725 112.243C101.252 110.748 102.215 109.331 102.523 107.843H100.507L98.4768 111.869C94.0578 110.896 89.1889 110.375 84.6922 110.078C84.4737 109.409 84.7824 108.436 84.4737 107.843H82.5241C82.3765 108.732 82.7491 109.409 82.3057 110.149C77.6583 110.375 73.1654 110.896 68.8203 111.792L66.8012 107.843ZM19.3211 50.529L14.6771 50.6065C14.6033 54.808 14.6033 59.0104 14.6771 63.2118C17.2269 63.2954 19.6229 63.2118 22.0958 63.4374V88.816L22.0155 89.8531L14.6033 90.0077C14.4522 94.1093 14.4522 98.2152 14.6033 102.317H47.6278V90.0077C45.1549 89.8531 42.3867 90.0778 39.9907 89.7821L40.0645 63.592L40.2156 63.3664L47.6278 63.2954C47.7085 59.0376 47.7789 54.4902 47.5574 50.6061L19.3211 50.529ZM146.561 55.012C136.824 48.7446 121.986 48.2938 111.966 53.9619C106.494 56.796 102.897 62.4 101.78 68.139C99.7497 77.6202 100.277 88.8866 107.457 95.9784C115.859 103.437 128.063 105.08 138.918 102.02C139.431 101.917 141.076 101.498 142.193 100.893L142.515 100.751C145.88 99.3347 149.105 97.0151 151.494 93.8848C157.044 85.6789 157.417 73.3628 154.038 64.1138C152.702 60.5319 149.927 57.3242 146.561 55.012ZM83.0522 52.6226C74.8114 49.1122 63.2817 48.745 55.7922 54.1875C50.9233 57.7689 49.4236 64.1844 50.6987 69.8589C51.675 75.2308 56.7654 79.1859 61.6309 81.0474C68.3017 83.4377 75.2674 85.1511 81.9991 87.4694C82.68 87.766 83.5756 88.4354 83.4348 89.2603C83.4348 89.9302 82.7508 90.3039 82.2241 90.6C75.1875 92.5395 67.5504 91.0508 62.4599 85.6789C61.8628 84.932 61.4871 84.0365 60.8835 83.2891L50.773 83.3666C50.6288 89.4084 50.548 96.3465 50.773 102.317L62.0074 102.247L62.1586 98.6588C63.4336 99.2637 64.7053 100.005 65.9804 100.681C73.7682 103.96 83.8079 104.701 91.5158 100.681C97.1296 97.5381 100.136 91.4964 99.3007 85.0103C98.4785 78.6659 92.4913 72.9203 86.428 71.3485L68.3017 66.0537L66.9528 65.3773C66.3556 64.8555 65.9799 64.1857 66.1242 63.3677C67.5499 60.9069 70.8484 61.6543 73.3213 61.7253C78.5624 62.4723 83.9482 64.2632 87.0187 69.1133C90.3202 69.1133 94.1355 69.1843 97.7324 69.0427C97.874 62.917 97.6551 57.5451 97.5787 51.3487C94.2128 51.2777 90.0892 51.2777 86.7233 51.4323C86.5692 52.3273 86.8641 53.59 86.4915 54.4915L83.0522 52.6226ZM89.1125 27.2501C92.0413 30.9796 94.8804 34.7862 96.8334 38.8893C92.787 39.8619 88.6755 40.3772 84.475 40.3772C84.3213 36.4286 84.3977 32.0231 84.475 27.9195C85.9776 27.6948 87.6223 27.4692 89.1125 27.2501ZM82.082 27.8494C82.307 31.727 82.1528 36.2038 82.1528 40.307C80.0526 40.6036 78.1863 40.236 76.0895 40.0814C74.0631 39.7848 71.516 39.5596 69.4991 38.8898C71.6701 34.7866 74.2138 30.8319 77.2839 27.173L82.082 27.8494ZM74.8114 26.4321L74.5895 27.0245C71.7409 30.6059 69.4991 34.49 67.2477 38.2966L66.9523 38.3676C63.8823 37.5492 60.8826 36.5766 58.0401 35.3079L58.1912 34.8567C62.3088 30.9081 66.6509 27.6233 71.4456 25.0855C72.5696 25.5302 73.687 25.9104 74.8114 26.4321ZM108.51 34.9412L108.37 35.1603C105.441 36.4294 102.448 37.6211 99.2225 38.297C96.9102 34.3358 94.3665 30.3872 91.5145 26.5802C92.5673 25.9814 93.8398 25.5302 94.9577 24.9378C99.8262 27.3986 104.541 30.909 108.51 34.9412ZM69.1942 23.6687C64.5533 26.5802 59.9866 30.0131 55.7922 34.1873C53.7718 33.4399 51.8965 32.3258 50.1011 31.0506V30.9086C54.8189 27.3982 60.06 24.7893 65.6034 22.9923L66.2744 22.5541V22.6957C66.8716 22.8503 67.328 22.1739 67.8483 22.6247L69.1942 23.6687ZM116.373 30.7544L116.231 31.051L111.067 33.9686H110.681C106.725 29.9365 102.075 26.4326 97.3468 23.6691L98.7855 22.4C105.068 24.0424 110.99 26.8768 116.373 30.7544ZM95.7798 21.6526V21.8011C89.2666 26.5802 78.7066 27.0245 71.8213 22.6256L70.6235 21.6526C78.5624 19.785 87.9177 19.6365 95.7798 21.6526ZM88.0718 18.2968C86.0428 18.0712 83.576 18.0006 81.4015 18.2193C80.5793 18.1487 79.6065 18.2193 78.6332 18.2968C60.6581 19.7136 44.1087 29.0406 33.7767 44.9376C34.525 44.8605 35.4214 45.1567 36.1693 44.8605C37.9681 42.3292 39.9915 39.8623 42.236 37.4725C44.1821 35.6045 45.984 33.8206 48.0812 32.4743C50.0307 33.7435 52.1983 34.7866 54.0676 35.9782C51.7454 38.8898 49.3528 41.8013 47.6282 44.938C48.155 45.1571 49.1283 45.0861 49.8766 44.938C51.7454 42.175 53.7718 39.4116 56.1648 36.9512C59.389 38.1428 62.5334 39.4116 65.8284 40.307L66.1237 40.6036L64.2545 44.9385C65.0766 45.0866 65.6034 45.0095 66.4255 44.9385C67.103 43.6633 67.6233 42.246 68.3716 40.9834C72.7138 41.9494 77.2839 42.4716 81.9278 42.6262C82.525 43.1411 82.082 44.2686 82.3065 44.9385H84.32C84.5514 44.185 84.2565 43.3671 84.5514 42.6968C88.8935 42.4712 93.4537 42.0204 97.6551 40.9834L98.0273 41.0544L100.044 44.9385C100.725 44.9385 101.624 45.0866 102.151 44.7839L100.275 40.462L100.429 40.3074C103.873 39.412 107.096 38.0723 110.385 36.726C112.711 39.1868 114.882 42.1044 116.835 44.9385C117.657 44.9385 118.48 45.0095 119.07 44.7839C118.154 43.116 117.078 41.5413 115.858 40.0819C114.882 38.6646 113.828 37.4024 112.557 36.0562V35.6825L117.799 32.6229L118.557 32.3267C123.117 35.8306 127.164 40.0819 130.375 44.7839C131.275 44.7839 132.032 45.0866 132.778 44.7129C122.744 29.4918 106.198 19.714 88.2899 18.2968L88.213 18.4449L88.0718 18.2968ZM0 0.0164795H167V152.984H0V0.0164795Z" fill="white"/>
</g>
<defs>
<clipPath id="clip0_677_6810">
<rect width="167" height="153" fill="white"/>
</clipPath>
</defs>
</svg>
