<?xml version="1.0" standalone="no"?>
<!DOCTYPE svg PUBLIC "-//W3C//DTD SVG 20010904//EN"
 "http://www.w3.org/TR/2001/REC-SVG-20010904/DTD/svg10.dtd">
<svg version="1.0" xmlns="http://www.w3.org/2000/svg"
 width="1003.000000pt" height="1036.000000pt" viewBox="0 0 1003.000000 1036.000000"
 preserveAspectRatio="xMidYMid meet">

<g transform="translate(0.000000,1036.000000) scale(0.100000,-0.100000)"
fill="white" stroke="none">
<path d="M4695 10184 c-205 -17 -600 -81 -695 -114 -14 -5 -70 -21 -125 -35
-55 -15 -116 -32 -135 -37 -56 -17 -270 -98 -330 -126 -30 -15 -57 -27 -60
-27 -22 -4 -80 -31 -80 -37 0 -4 -3 -7 -7 -6 -13 4 -230 -105 -323 -160 -244
-147 -503 -333 -635 -457 -212 -199 -470 -474 -509 -543 -5 -10 -16 -23 -23
-30 -7 -8 -34 -44 -60 -80 -26 -37 -50 -69 -53 -72 -17 -15 -40 -62 -35 -70 3
-6 26 -10 50 -10 55 0 81 22 162 136 180 253 648 715 718 709 26 -2 67 -22
145 -70 47 -29 114 -67 150 -86 92 -47 120 -68 120 -89 0 -11 -35 -63 -77
-117 -159 -201 -204 -262 -281 -386 -60 -99 -59 -112 11 -103 43 5 66 23 106
81 15 22 47 69 71 105 43 63 157 208 189 241 9 9 36 39 60 68 46 53 79 64 119
41 42 -25 333 -134 467 -175 33 -10 65 -22 70 -26 6 -4 24 -10 42 -13 48 -11
54 -25 38 -80 -8 -27 -19 -54 -23 -60 -17 -23 -75 -167 -69 -172 8 -8 94 -7
107 1 5 3 34 60 66 126 54 112 81 148 103 134 12 -7 227 -44 321 -55 41 -5
127 -15 190 -24 63 -8 176 -17 250 -21 158 -8 170 -14 170 -95 0 -58 15 -72
72 -68 40 3 43 5 46 33 9 105 22 123 84 123 58 -1 310 21 378 32 30 6 87 12
125 16 39 3 99 12 135 20 177 40 213 45 237 29 13 -9 23 -20 23 -25 0 -21 91
-203 107 -216 19 -14 61 -18 87 -8 18 7 22 49 6 59 -5 3 -10 12 -10 20 0 8
-16 47 -35 88 -19 41 -35 88 -35 106 0 34 15 44 90 62 41 9 286 95 303 106 7
4 17 8 23 9 6 1 60 21 120 44 162 63 154 63 224 -11 33 -35 84 -95 112 -132
29 -37 78 -100 109 -140 30 -40 74 -100 97 -134 23 -35 51 -67 62 -73 22 -12
97 -13 104 -2 12 20 -261 407 -361 513 -24 25 -36 49 -40 77 l-5 40 77 44 c68
38 144 83 263 155 21 12 44 22 54 23 26 0 162 -107 278 -218 58 -56 111 -101
118 -102 6 0 12 -5 12 -10 0 -6 29 -41 64 -78 96 -102 184 -207 260 -312 38
-52 78 -103 89 -112 21 -20 111 -25 122 -8 6 9 -82 140 -145 216 -14 17 -38
48 -55 69 -160 208 -486 520 -745 716 -260 196 -597 381 -920 506 -148 57
-296 106 -400 133 -47 12 -107 28 -135 36 -232 63 -572 105 -900 109 -137 1
-272 1 -300 -1z m545 -119 c125 -6 290 -28 385 -51 33 -7 73 -14 88 -14 35 0
83 -24 91 -46 4 -9 0 -26 -7 -38 -17 -25 -189 -113 -302 -155 -218 -79 -553
-112 -765 -75 -41 7 -92 15 -113 18 -21 3 -58 12 -83 21 -25 8 -53 15 -64 15
-31 0 -251 97 -307 136 -58 40 -76 76 -51 100 29 30 306 72 578 88 192 11 354
12 550 1z m-1304 -171 c73 -43 86 -92 32 -120 -77 -40 -354 -235 -493 -348
-83 -68 -190 -161 -193 -168 -2 -5 -9 -8 -15 -8 -7 0 -46 -34 -87 -75 -92 -91
-106 -94 -218 -33 -42 23 -104 55 -137 72 -32 17 -68 39 -79 49 -11 9 -23 17
-28 17 -19 0 -29 40 -16 65 12 22 221 175 239 175 5 0 31 14 59 30 28 17 57
30 65 30 8 0 15 4 15 8 0 14 328 174 385 188 14 3 25 10 25 14 0 4 10 10 23
13 25 6 78 24 124 44 17 7 36 13 43 13 6 0 9 3 7 8 -3 4 7 8 21 8 15 1 41 7
57 14 17 7 44 15 60 17 17 3 32 7 34 9 10 10 35 2 77 -22z m2141 15 c15 -6 66
-22 113 -34 92 -25 197 -63 248 -89 17 -9 36 -16 41 -16 14 0 239 -110 336
-164 44 -25 100 -56 125 -68 25 -13 47 -25 50 -29 3 -3 23 -16 45 -29 22 -13
71 -46 108 -73 61 -45 68 -53 65 -81 -2 -18 -11 -35 -23 -41 -17 -9 -118 -67
-165 -95 -172 -105 -180 -105 -285 -5 -43 41 -80 74 -82 72 -2 -2 -27 19 -56
47 -95 92 -335 282 -407 322 -19 10 -37 21 -40 24 -7 7 -102 70 -172 114 -76
47 -79 85 -9 131 39 27 65 31 108 14z m-1802 -216 c101 -46 105 -50 105 -83 0
-25 -21 -59 -97 -160 -23 -30 -86 -123 -138 -205 -21 -33 -56 -85 -77 -117
-21 -31 -38 -63 -38 -72 0 -9 -4 -16 -10 -16 -5 0 -18 -19 -29 -42 -52 -109
-100 -183 -124 -192 -29 -11 -36 -9 -261 66 -186 61 -326 116 -348 136 -21 18
-23 55 -5 74 166 164 372 330 587 471 143 93 141 92 235 147 80 46 83 46 200
-7z m1528 34 c21 -8 43 -19 49 -25 7 -7 17 -12 23 -12 6 0 49 -25 95 -55 46
-30 85 -55 86 -55 2 0 29 -17 61 -37 61 -40 88 -60 215 -160 43 -35 81 -63 84
-63 7 0 34 -24 162 -146 130 -124 133 -137 34 -183 -38 -17 -74 -31 -81 -31
-6 0 -28 -8 -49 -19 -44 -22 -216 -80 -328 -111 -107 -30 -124 -25 -165 48
-39 69 -146 247 -169 282 -9 14 -50 75 -90 135 -40 61 -77 112 -81 113 -5 2
-9 8 -9 13 0 10 -79 128 -106 160 -19 21 -18 53 2 70 22 18 184 86 209 88 11
0 37 -5 58 -12z m-998 -170 c57 -10 72 -17 82 -37 10 -19 13 -126 13 -433 l0
-407 -27 -11 c-75 -30 -759 42 -830 87 -14 9 -23 24 -23 40 0 25 48 122 101
204 16 25 32 52 36 60 8 17 211 317 251 371 68 91 116 144 134 149 26 7 173
-6 263 -23z m608 -19 c61 -74 200 -270 266 -373 21 -33 54 -85 73 -115 60 -94
138 -237 138 -254 0 -23 -37 -44 -100 -55 -30 -5 -75 -14 -100 -20 -137 -30
-527 -68 -615 -60 l-40 4 -7 55 c-3 30 -6 222 -7 426 -1 282 2 374 12 387 9
12 35 18 99 22 48 4 100 10 115 15 15 4 51 9 80 9 49 1 53 -1 86 -41z"/>
<path d="M7855 7999 c-154 -9 -176 -12 -280 -32 -301 -58 -614 -185 -800 -325
-92 -69 -248 -233 -309 -325 -95 -143 -183 -334 -221 -480 -14 -56 -37 -192
-54 -322 -31 -241 -18 -708 24 -855 73 -253 112 -351 203 -502 60 -101 171
-239 240 -300 169 -148 493 -322 697 -373 28 -7 86 -22 130 -33 193 -49 237
-54 465 -59 349 -7 613 30 897 125 189 63 277 106 429 208 83 56 259 218 302
279 48 68 135 202 152 236 38 72 101 289 135 464 38 189 49 302 48 500 0 199
-2 220 -37 405 -48 253 -58 293 -112 436 -62 162 -178 340 -302 460 -68 66
-255 194 -367 252 -96 50 -189 92 -201 92 -5 0 -21 6 -36 14 -42 22 -191 63
-343 95 -189 39 -429 54 -660 40z m400 -861 c76 -17 114 -35 190 -93 89 -66
143 -153 169 -270 47 -213 47 -1018 0 -1181 -26 -91 -69 -169 -121 -219 -57
-55 -77 -65 -208 -106 -88 -27 -114 -31 -220 -31 -129 0 -163 4 -228 28 -23 8
-61 21 -84 28 -64 21 -127 61 -165 106 -44 51 -91 175 -119 320 -22 107 -23
139 -22 450 1 474 14 584 87 741 41 88 86 138 152 172 44 22 176 60 244 70 47
7 275 -4 325 -15z"/>
<path d="M3780 7990 c-116 -12 -340 -75 -438 -124 -164 -82 -195 -101 -281
-177 -119 -105 -172 -172 -231 -288 -75 -148 -102 -272 -104 -486 -1 -177 0
-185 57 -365 13 -38 74 -153 99 -185 79 -100 134 -155 260 -261 71 -60 257
-158 398 -209 72 -26 167 -58 210 -70 25 -7 86 -25 135 -40 150 -45 175 -52
325 -95 80 -23 149 -46 155 -51 5 -5 18 -9 28 -9 22 0 171 -44 309 -91 47 -16
91 -29 97 -29 22 0 140 -63 161 -85 31 -33 36 -92 12 -131 -23 -36 -94 -72
-169 -85 -29 -5 -79 -13 -110 -19 -93 -16 -381 -13 -439 5 -27 8 -60 15 -74
15 -44 1 -202 56 -297 104 -51 25 -94 45 -95 45 -2 -1 -14 7 -28 19 -92 76
-158 130 -180 145 -13 9 -21 17 -16 17 5 0 -3 12 -18 26 -14 15 -36 43 -48 63
-25 40 -34 53 -61 82 -16 18 -33 19 -335 19 -174 -1 -323 -5 -330 -9 -11 -6
-14 -129 -14 -623 -1 -338 2 -620 6 -627 9 -15 722 -16 731 -1 4 6 6 52 6 102
0 52 4 97 10 105 16 19 53 16 82 -7 14 -11 28 -20 31 -20 3 0 52 -22 108 -49
148 -70 333 -130 543 -178 114 -25 134 -27 395 -27 272 0 277 0 430 32 151 32
181 41 285 87 28 12 67 28 88 34 52 17 187 119 273 207 135 136 210 266 262
454 25 87 27 110 26 270 0 148 -4 187 -22 250 -33 117 -34 119 -90 227 -46 87
-70 120 -174 228 -67 69 -145 142 -175 162 -29 19 -53 38 -53 41 0 18 -96 66
-235 119 -22 9 -49 19 -60 24 -11 5 -139 42 -285 83 -146 42 -310 89 -365 106
-55 17 -165 48 -245 70 -80 22 -161 46 -180 54 -19 8 -64 22 -100 31 -177 47
-274 112 -281 192 -5 43 -3 46 56 107 30 30 55 45 95 55 95 25 379 11 545 -26
171 -38 369 -120 491 -203 40 -27 74 -47 78 -44 3 2 5 2 3 -1 -2 -3 28 -38 67
-78 39 -40 84 -87 99 -105 l29 -32 346 2 347 3 0 578 c0 503 -2 579 -15 587
-18 11 -680 13 -695 2 -6 -4 -12 -47 -14 -97 -5 -127 -19 -132 -153 -50 -49
30 -93 55 -96 55 -4 0 -27 14 -52 30 -25 16 -55 30 -68 30 -12 0 -30 4 -40 10
-24 13 -142 45 -237 64 -44 9 -102 21 -130 27 -60 13 -540 20 -645 9z"/>
<path d="M293 7984 c-10 -4 -11 -100 -6 -422 3 -229 7 -419 10 -421 2 -4 273
-10 479 -11 31 0 33 -64 31 -943 -2 -686 -5 -889 -14 -895 -7 -4 -120 -7 -252
-6 -259 3 -270 0 -257 -49 3 -13 6 -186 6 -385 1 -310 3 -364 16 -377 14 -13
142 -15 1110 -15 l1094 0 0 410 0 410 -37 1 c-21 0 -129 2 -240 4 -111 2 -207
6 -212 10 -28 17 -31 103 -30 947 2 696 4 870 15 879 8 7 94 10 246 10 128 -1
239 3 247 8 11 7 13 78 12 417 -1 225 -3 409 -4 411 -1 1 -466 4 -1032 7 -567
3 -1061 8 -1100 10 -38 3 -75 3 -82 0z"/>
<path d="M2591 4048 l-23 -8 29 -50 c36 -62 151 -223 218 -304 138 -167 166
-210 163 -245 -3 -36 -20 -49 -213 -162 -38 -22 -88 -51 -110 -65 -22 -13 -53
-24 -68 -24 -25 0 -112 49 -128 72 -3 4 -21 19 -40 33 -37 28 -258 243 -329
321 -103 113 -178 205 -264 322 -38 51 -77 97 -87 102 -20 11 -92 14 -102 4
-9 -10 62 -114 190 -279 106 -136 310 -347 499 -515 156 -139 193 -170 202
-170 6 0 17 -8 24 -18 15 -20 113 -89 278 -198 63 -42 126 -84 140 -93 33 -23
352 -181 365 -181 6 0 26 -8 45 -19 19 -10 87 -37 150 -60 63 -23 124 -45 135
-50 80 -34 168 -60 335 -100 471 -112 505 -116 985 -116 316 0 399 3 490 18
61 9 144 22 185 28 41 7 95 17 120 24 25 7 97 25 160 39 292 68 521 153 890
329 25 12 63 33 85 48 22 15 71 44 110 64 155 85 431 286 555 404 9 9 34 30
55 46 56 43 314 301 361 360 21 28 42 52 47 53 4 2 5 8 1 13 -3 5 -1 9 4 9 14
0 158 183 215 271 27 43 46 83 42 88 -9 15 -76 13 -97 -3 -9 -7 -38 -41 -63
-75 -40 -55 -79 -104 -153 -196 -188 -234 -509 -544 -590 -569 -23 -8 -38 0
-252 126 -44 25 -80 44 -80 42 0 -3 -10 4 -22 16 -12 11 -27 20 -34 20 -16 0
-44 39 -44 61 0 10 26 49 58 88 31 39 71 89 87 111 17 22 35 46 41 53 21 24
148 202 186 261 42 65 39 76 -17 76 -44 0 -66 -19 -129 -112 -31 -46 -69 -99
-84 -119 -78 -104 -156 -200 -204 -253 -63 -69 -80 -72 -171 -32 -32 14 -64
26 -72 26 -9 0 -23 5 -33 10 -23 14 -213 83 -347 127 -60 20 -116 40 -122 46
-15 11 -17 53 -4 61 5 3 12 18 16 33 3 16 13 44 22 63 8 19 21 50 29 68 8 18
14 44 14 57 0 22 -4 25 -38 25 -51 0 -66 -18 -137 -158 l-58 -114 -36 5 c-52
7 -198 34 -254 46 -72 17 -302 45 -457 56 -140 10 -195 17 -207 27 -7 6 -13
30 -13 55 0 65 -13 83 -60 83 -47 0 -53 -9 -57 -80 -2 -30 -9 -60 -16 -67 -9
-9 -75 -16 -202 -23 -105 -6 -210 -15 -235 -20 -25 -5 -67 -12 -95 -15 -88
-10 -342 -51 -377 -61 -24 -7 -49 24 -103 133 -64 129 -68 133 -127 133 -27 0
-48 -5 -48 -11 0 -12 60 -157 94 -228 22 -46 22 -51 7 -65 -9 -8 -61 -29 -116
-46 -55 -18 -122 -40 -150 -50 -27 -11 -118 -44 -201 -73 -83 -30 -165 -62
-182 -71 -44 -23 -67 -10 -142 76 -35 40 -72 82 -82 93 -39 42 -188 249 -233
323 -25 41 -84 65 -124 50z m2829 -298 c205 -18 473 -62 497 -81 21 -18 15
-44 -32 -135 -52 -98 -85 -153 -200 -327 -75 -114 -100 -149 -182 -263 -18
-24 -30 -44 -28 -44 3 0 -11 -16 -31 -36 -36 -36 -36 -37 -102 -31 -110 10
-257 34 -281 46 l-22 12 4 431 c3 380 5 432 19 442 16 12 99 9 358 -14z m-511
6 c18 -21 16 -856 -2 -874 -8 -7 -63 -19 -128 -27 -63 -7 -128 -17 -146 -20
-54 -12 -77 1 -131 72 -27 38 -77 104 -111 148 -33 44 -61 84 -61 89 0 6 -11
21 -24 35 -13 15 -35 46 -49 71 -34 62 -73 127 -107 180 -51 78 -100 179 -100
204 0 32 33 52 100 61 30 3 69 10 85 15 44 13 264 42 380 50 179 13 281 11
294 -4z m-992 -145 c9 -11 35 -54 57 -95 23 -42 82 -139 131 -216 50 -78 108
-170 130 -205 22 -35 67 -103 100 -151 93 -134 91 -131 79 -151 -18 -30 -197
-113 -242 -113 -24 0 -141 59 -232 118 -166 107 -204 133 -295 207 -134 107
-136 109 -234 195 -137 120 -161 145 -161 172 0 36 21 50 150 103 63 26 124
51 135 55 11 5 54 19 95 31 41 12 107 32 145 45 87 28 121 29 142 5z m2326
-21 c136 -39 337 -111 403 -144 44 -23 67 -51 60 -74 -11 -34 -242 -250 -374
-349 -82 -62 -337 -233 -347 -233 -4 0 -21 -11 -38 -24 -18 -14 -62 -39 -98
-56 l-65 -30 -69 25 c-187 67 -195 82 -107 201 83 112 246 353 270 399 11 22
37 64 56 94 19 30 33 58 30 63 -3 4 -1 8 5 8 5 0 28 33 50 74 22 41 49 77 58
79 10 3 19 5 21 6 2 0 67 -17 145 -39z m747 -306 c36 -22 99 -57 140 -78 90
-46 134 -88 124 -119 -3 -12 -7 -22 -8 -22 0 -1 -19 -14 -41 -30 -53 -39 -105
-75 -110 -75 -2 0 -39 -22 -82 -48 -216 -134 -429 -236 -673 -324 -238 -86
-287 -94 -346 -57 -41 25 -57 52 -49 80 4 11 45 46 92 77 48 31 98 66 113 77
15 11 47 33 71 50 51 34 232 167 239 175 3 3 50 45 105 94 55 49 135 121 178
160 118 108 130 110 247 40z m-3781 -38 c42 -40 98 -94 126 -117 27 -24 59
-53 71 -65 21 -20 159 -129 239 -189 74 -55 189 -134 274 -187 125 -78 135
-109 55 -158 -42 -26 -108 -29 -153 -5 -17 8 -41 15 -54 15 -59 0 -472 171
-609 253 -26 15 -50 27 -53 27 -4 0 -33 15 -64 34 -31 19 -78 46 -106 61 -76
42 -202 137 -214 162 -15 33 -5 50 58 91 80 52 85 55 191 112 126 66 138 65
239 -34z m1951 -497 c30 -5 90 -13 132 -19 79 -10 240 -60 341 -104 31 -14 59
-26 62 -26 3 0 11 -4 18 -10 6 -6 40 -29 75 -50 50 -32 62 -45 62 -65 0 -17
-7 -28 -22 -34 -60 -23 -139 -41 -179 -41 -24 0 -60 -5 -79 -10 -19 -6 -89
-15 -155 -20 -66 -6 -143 -12 -171 -15 -164 -17 -572 -3 -769 26 -38 6 -99 14
-135 19 -157 20 -210 40 -210 81 0 18 11 27 81 73 126 82 328 153 509 180 63
10 122 19 130 21 34 7 259 3 310 -6z"/>
<path d="M2040 1483 c-67 -8 -147 -27 -167 -39 -12 -8 -27 -14 -33 -14 -18 0
-86 -74 -111 -121 -30 -58 -33 -185 -5 -238 45 -85 145 -153 308 -210 116 -39
143 -55 168 -95 28 -47 21 -92 -21 -130 -31 -28 -33 -28 -138 -24 -85 3 -116
9 -156 28 -27 13 -55 31 -62 39 -10 14 -14 13 -31 -9 -11 -14 -40 -47 -66 -75
-49 -53 -57 -79 -28 -89 9 -4 33 -15 52 -26 77 -42 169 -63 279 -63 110 0 219
22 242 49 6 8 17 14 24 14 7 0 33 22 57 49 51 56 78 131 78 215 0 48 -6 66
-33 109 -52 81 -127 135 -232 166 -41 13 -96 33 -152 58 -92 39 -122 126 -62
177 39 33 65 39 142 34 44 -3 81 -14 127 -37 l64 -32 19 23 c10 13 34 47 53
76 28 43 33 56 23 68 -6 8 -17 14 -24 14 -7 0 -15 7 -19 15 -3 8 -14 15 -23
15 -10 0 -27 6 -38 13 -32 22 -179 47 -235 40z"/>
<path d="M3030 1470 c-164 -41 -294 -130 -351 -243 -12 -23 -24 -44 -28 -47
-11 -9 -30 -75 -42 -153 -23 -137 18 -301 99 -399 44 -54 109 -112 144 -130
93 -47 150 -67 216 -77 77 -12 198 -5 220 12 6 5 12 7 12 4 0 -14 96 22 178
67 35 20 142 126 142 141 0 4 8 19 19 33 33 49 63 154 68 247 8 134 -26 244
-107 349 -31 40 -96 99 -130 117 -19 11 -42 23 -50 28 -103 60 -266 81 -390
51z m266 -205 c63 -30 120 -81 154 -141 27 -47 33 -69 38 -140 5 -83 -11 -188
-30 -200 -5 -3 -5 -11 -2 -17 4 -7 4 -9 -1 -5 -4 4 -20 -12 -35 -36 -16 -24
-50 -57 -81 -77 -51 -32 -59 -34 -162 -37 -141 -5 -194 14 -270 98 -68 76 -80
117 -76 262 4 102 7 117 31 158 50 81 95 118 182 147 56 18 200 11 252 -12z"/>
<path d="M6335 1473 c-11 -3 -39 -14 -62 -24 -23 -10 -45 -19 -48 -19 -15 0
-105 -98 -133 -145 -57 -94 -77 -182 -77 -340 0 -119 4 -150 23 -209 53 -158
105 -225 228 -292 11 -6 50 -17 87 -24 168 -31 323 50 405 211 95 186 95 426
0 637 -19 42 -127 162 -146 162 -6 0 -17 6 -24 13 -28 28 -186 46 -253 30z
m153 -197 c36 -19 68 -54 82 -91 40 -101 51 -263 25 -375 -27 -122 -37 -144
-73 -173 -30 -23 -45 -27 -100 -27 -79 0 -109 19 -146 91 -33 62 -47 198 -36
339 15 180 64 249 178 250 24 0 55 -6 70 -14z"/>
<path d="M1292 1462 c-18 -12 -13 -1005 5 -1023 16 -16 172 -20 191 -6 9 7 12
119 12 501 0 270 -3 501 -6 514 -6 21 -11 22 -98 22 -50 0 -97 -4 -104 -8z"/>
<path d="M4518 1459 c-16 -6 -28 -15 -28 -20 0 -5 -9 -9 -19 -9 -11 0 -22 -4
-26 -9 -3 -6 -36 -27 -74 -47 -64 -35 -68 -39 -61 -63 14 -48 54 -121 66 -121
7 0 36 12 64 26 28 14 58 23 65 20 12 -4 15 -70 17 -408 l3 -402 80 -3 c44 -2
90 -1 103 2 l22 5 -2 518 -3 517 -90 2 c-49 1 -102 -3 -117 -8z"/>
<path d="M5403 1448 c-11 -13 -44 -59 -74 -103 -30 -44 -56 -82 -59 -85 -3 -3
-30 -43 -60 -90 -30 -47 -57 -87 -60 -90 -3 -3 -9 -13 -15 -22 -5 -9 -44 -66
-84 -125 l-75 -108 -4 -78 c-3 -52 0 -82 8 -92 10 -12 50 -15 229 -15 119 0
221 -4 226 -8 6 -4 10 -48 10 -99 0 -50 4 -95 9 -100 4 -4 47 -9 96 -10 106
-3 105 -4 103 125 -1 92 -4 89 82 94 l40 3 3 79 c3 90 -1 96 -65 96 -23 0 -45
5 -49 12 -5 8 -16 448 -14 616 0 22 -2 22 -113 22 -105 0 -115 -2 -134 -22z
m38 -390 c2 -184 0 -221 -9 -230 -13 -13 -231 -13 -244 0 -11 11 6 52 22 52 6
0 10 4 10 9 0 9 85 136 165 249 48 67 55 58 56 -80z"/>
<path d="M7394 1462 c-14 -10 -124 -170 -124 -181 0 -5 -3 -11 -8 -13 -4 -1
-36 -45 -70 -97 -169 -249 -202 -397 -127 -557 50 -105 140 -167 281 -193 94
-18 184 -3 277 46 174 92 230 321 122 493 -51 80 -156 135 -257 134 -41 0 -68
4 -69 10 -3 24 4 42 22 62 10 11 19 23 19 26 0 3 18 33 40 66 22 33 40 62 40
66 0 3 18 29 40 58 63 84 60 88 -67 88 -60 0 -113 -4 -119 -8z m121 -534 c30
-13 62 -65 74 -119 18 -81 -31 -175 -102 -195 -50 -14 -151 -2 -184 22 -105
77 -73 274 49 305 40 10 128 3 163 -13z"/>
<path d="M8327 1398 c-53 -73 -203 -293 -222 -326 -6 -9 -47 -72 -93 -140
l-82 -123 0 -73 c0 -43 5 -77 12 -84 9 -9 72 -12 224 -12 117 0 219 -3 228 -6
13 -5 16 -24 16 -104 0 -115 -4 -111 112 -109 96 2 100 7 97 120 -1 44 2 84 7
89 5 5 32 10 59 12 l50 3 3 82 c3 81 2 83 -23 89 -14 3 -37 4 -50 2 -14 -3
-29 0 -35 7 -6 7 -11 137 -12 326 l-3 314 -117 3 -117 3 -54 -73z m80 -392 c1
-110 -2 -172 -9 -179 -9 -10 -118 -13 -235 -8 -25 2 -12 32 62 138 41 59 91
134 112 165 61 92 68 81 70 -116z"/>
</g>
</svg>
