<svg width="167" height="68" viewBox="0 0 167 68" fill="none" xmlns="http://www.w3.org/2000/svg">
<g clip-path="url(#clip0_680_7511)">
<path d="M28.0745 25.7058C28.4148 26.4234 28.7551 27.1409 29.0954 27.8585C29.1379 27.9851 29.2655 28.0695 29.3081 28.154C30.0312 29.378 30.6267 30.6866 31.4349 31.8262C32.8386 33.8523 34.3274 35.8362 35.8162 37.82C36.4543 38.6642 37.1349 39.5084 37.858 40.2682C39.3043 41.7877 40.8356 43.3073 42.3669 44.7424C43.3453 45.671 44.3661 46.5152 45.387 47.3594C46.493 48.2458 47.6415 49.09 48.79 49.9342C49.8109 50.694 50.8743 51.4116 51.9377 52.0447C53.5116 52.9733 55.0855 53.9019 56.6593 54.7884C57.978 55.5059 59.3391 56.1813 60.7003 56.7722C64.3585 58.4606 68.1443 59.8113 72.0577 60.8244C75.8435 61.8374 79.6718 62.555 83.5427 62.9771C87.2434 63.3992 90.9441 63.5258 94.6448 63.3569C101.068 63.1037 107.363 62.0484 113.531 60.149C116.934 59.136 120.252 57.9119 123.442 56.3923C125.824 55.2527 128.164 53.9442 130.461 52.6357C133.481 50.905 136.288 48.7946 138.968 46.5574C140.074 45.6288 141.095 44.6158 142.159 43.645C144.328 41.6189 146.327 39.424 148.114 37.1024C149.262 35.6251 150.326 34.0633 151.347 32.4594C152.495 30.6443 153.601 28.8293 154.579 26.9299C155.345 25.4947 155.983 23.9752 156.536 22.4556C157.302 20.514 157.94 18.5301 158.62 16.5885C158.748 16.1664 159.003 16.082 159.386 16.1664C161.513 16.6307 163.64 17.0528 165.809 17.5171C167.128 17.8126 167.255 17.5171 166.745 19.1633C166.234 20.8095 165.724 22.4556 165.086 24.0174C164.32 25.8746 163.512 27.7319 162.576 29.5047C161.343 31.784 160.024 33.9789 158.62 36.1316C157.472 37.9044 156.153 39.5506 154.792 41.1968C153.771 42.4631 152.623 43.6872 151.474 44.869C150.028 46.3464 148.624 47.8237 147.05 49.1322C145.179 50.7362 143.265 52.2558 141.265 53.6909C139.436 54.9994 137.522 56.2235 135.565 57.4054C134.034 58.334 132.418 59.1782 130.801 59.9379C128.844 60.8666 126.888 61.8374 124.889 62.555C121.698 63.6946 118.508 64.7499 115.275 65.5941C112.51 66.3116 109.618 66.7759 106.81 67.2402C104.641 67.5779 102.429 67.7046 100.217 67.8312C98.303 67.9578 96.3888 68 94.5172 67.9578C90.1784 67.9156 85.8397 67.4513 81.586 66.6493C76.5666 65.7629 71.6749 64.37 66.9107 62.4705C64.3585 61.4575 61.8914 60.3178 59.4668 59.0515C57.0847 57.8275 54.7877 56.4345 52.4907 54.9994C50.8318 53.9442 49.2579 52.7201 47.7266 51.5382C46.2378 50.3563 44.7915 49.1322 43.3453 47.8659C42.6647 47.275 42.0692 46.6419 41.4311 46.0087C40.3677 44.869 39.3043 43.7716 38.2834 42.5897C37.5177 41.7033 36.7095 40.8169 36.0289 39.8461C34.455 37.6512 32.9237 35.4563 31.4349 33.2191C30.6267 31.9951 30.0312 30.6443 29.3506 29.3358C28.8402 28.2806 28.3723 27.2254 27.8618 26.1701" fill="#604848"/>
<path d="M29.0529 26.4233C27.4791 26.5499 25.9477 26.7188 24.3739 26.6766C20.9709 26.5922 17.6956 25.9168 14.5478 24.5661C11.868 23.4686 9.40087 21.9491 7.27402 20.0496C6.12552 19.0366 5.14717 17.8125 4.12629 16.6306C2.55242 14.7312 1.57407 12.5363 0.723334 10.257C0.510649 9.66602 0.383038 9.07508 0.212891 8.48415C0.212891 8.18868 0.212891 7.89321 0.212891 7.59774C1.70168 7.51332 3.14794 7.34448 4.63673 7.34448C8.50759 7.30227 12.2083 8.10426 15.7389 9.66602C19.0568 11.1434 22.0343 13.085 24.3313 15.9131C25.2246 17.0105 26.1179 18.1502 26.841 19.3321C27.6917 20.725 28.9253 24.6505 29.6484 26.1278C29.6484 25.959 29.3507 23.4686 29.3507 23.2576C29.3082 21.6536 29.2231 19.8386 29.5208 18.2768C29.8186 16.5462 30.4141 14.8156 31.3074 13.2539C31.7753 12.4097 32.2432 11.5655 32.7111 10.7635C33.9447 8.77962 35.5185 7.09122 37.3476 5.61388C40.9207 2.74361 45.0043 0.88638 49.5983 0.0843938C50.2789 -0.0422356 50.3639 0.042184 50.449 0.717541C50.8744 3.58781 50.7893 6.50029 49.9811 9.28613C49.3005 11.6921 48.2371 13.9714 46.7483 15.9975C45.0894 18.319 43.0901 20.3029 40.7506 21.9069C37.8581 23.8907 34.6678 25.2414 31.2223 25.959C30.9671 26.0012 30.7119 26.0856 30.4566 26.1278" fill="#8DB63A"/>
<path d="M33.732 13.9292C33.4768 13.9714 33.2215 14.0558 32.9663 14.1402Z" fill="#A4C73D"/>
<path d="M29.8184 26.2967C28.2446 26.4655 26.6707 26.6766 25.0968 26.6766C21.6514 26.6766 18.2909 26.0434 15.0156 24.7771C12.2507 23.6797 9.69848 22.2023 7.48656 20.2607C6.29552 19.2054 5.2321 18.0235 4.21121 16.7995C2.59481 14.8578 1.53139 12.6207 0.595574 10.2569C0.382889 9.66601 0.212741 9.03286 5.64641e-05 8.44192C5.64641e-05 8.14645 5.64641e-05 7.80877 -0.0424805 7.51331L29.8184 26.2967Z" fill="#A4C73D"/>
<path d="M29.7761 26.1701C29.7761 26.0012 29.7336 25.7902 29.7336 25.5791C29.5634 23.8485 29.2231 21.5692 29.3508 19.8808C29.4784 18.0236 29.691 16.4196 30.4992 14.689C30.9246 13.7604 31.6477 12.3253 32.3709 11.27C33.8171 8.77964 34.6679 8.06207 36.4544 6.37368C39.985 2.9969 45.0469 1.01304 49.8961 0L29.7761 26.1701Z" fill="#A4C73D"/>
<path d="M65.8471 9.70834H55.9785V6.5426H79.9693V9.70834H70.0582V35.2875H65.8471V9.70834Z" fill="#604848"/>
<path d="M85.2016 26.2546L81.8412 35.2875H77.5024L88.5195 6.5426H93.5814L104.641 35.2875H100.175L96.7291 26.2546H85.2016ZM95.8359 23.3421L92.6456 15.069C91.9225 13.2118 91.4546 11.4811 90.9441 9.83497H90.859C90.3911 11.5234 89.8382 13.2962 89.2426 15.0268L86.0524 23.3421H95.8359Z" fill="#604848"/>
<path d="M136.331 20.6406C136.331 30.5177 129.567 35.7939 121.273 35.7939C112.723 35.7939 106.725 29.9268 106.725 21.1894C106.725 12.072 113.106 6.07825 121.783 6.07825C130.631 6.07825 136.331 12.1142 136.331 20.6406ZM111.191 21.1049C111.191 27.2676 114.935 32.7548 121.528 32.7548C128.164 32.7548 131.907 27.352 131.907 20.8095C131.907 15.1111 128.547 9.11735 121.57 9.11735C114.68 9.11735 111.191 14.7735 111.191 21.1049Z" fill="#604848"/>
<path d="M66.9959 44.9113C67.2511 45.0802 67.6765 45.249 68.1019 45.249C68.6974 45.249 68.9951 44.9535 68.9951 44.5737C68.9951 44.1938 68.7399 43.9827 68.1444 43.7295C67.3362 43.434 66.9533 43.0119 66.9533 42.4632C66.9533 41.7456 67.5489 41.1547 68.5272 41.1547C68.9951 41.1547 69.378 41.2813 69.6332 41.4501L69.4205 42.0411C69.2503 41.9144 68.91 41.7878 68.4847 41.7878C68.0168 41.7878 67.719 42.0833 67.719 42.421C67.719 42.8008 67.9742 42.9697 68.5698 43.1807C69.3354 43.4762 69.7608 43.8561 69.7608 44.5314C69.7608 45.3334 69.1227 45.8822 68.0593 45.8822C67.5489 45.8822 67.1235 45.7555 66.7832 45.5867L66.9959 44.9113Z" fill="#604848"/>
<path d="M78.1831 43.434C78.1831 45.0801 77.0346 45.8399 75.9287 45.8399C74.6951 45.8399 73.7593 44.9535 73.7593 43.5184C73.7593 41.9988 74.7376 41.1124 76.0137 41.1124C77.3324 41.1546 78.1831 42.0833 78.1831 43.434ZM74.61 43.4762C74.61 44.447 75.163 45.2068 75.9712 45.2068C76.7369 45.2068 77.3324 44.4892 77.3324 43.4762C77.3324 42.7164 76.9496 41.7456 75.9712 41.7456C75.0354 41.7456 74.61 42.632 74.61 43.4762Z" fill="#604848"/>
<path d="M82.522 39.1285H83.3302V45.7133H82.522V39.1285Z" fill="#604848"/>
<path d="M91.7951 44.4892C91.7951 44.9535 91.7951 45.3756 91.8376 45.7133H91.1145L91.0719 44.9957C90.8593 45.3756 90.3914 45.8399 89.5831 45.8399C88.86 45.8399 88.0093 45.46 88.0093 43.856V41.239H88.8175V43.7294C88.8175 44.5736 89.0727 45.1645 89.8384 45.1645C90.3913 45.1645 90.7742 44.7846 90.9443 44.4047C90.9869 44.2781 91.0294 44.1515 91.0294 43.9827V41.239H91.8376V44.4892H91.7951Z" fill="#604848"/>
<path d="M97.4097 39.9305V41.239H98.6007V41.8722H97.4097V44.2782C97.4097 44.8269 97.5798 45.1646 98.0477 45.1646C98.2604 45.1646 98.4306 45.1223 98.5157 45.1223L98.5582 45.7555C98.388 45.8399 98.1328 45.8821 97.8351 45.8821C97.4522 45.8821 97.1545 45.7555 96.9418 45.5444C96.6866 45.2912 96.644 44.9113 96.644 44.3626V41.9144H95.9209V41.2813H96.644V40.1838L97.4097 39.9305Z" fill="#604848"/>
<path d="M103.705 39.9727C103.705 40.2682 103.493 40.4792 103.195 40.4792C102.897 40.4792 102.685 40.2682 102.685 39.9727C102.685 39.6772 102.897 39.4662 103.195 39.4662C103.535 39.4662 103.705 39.6772 103.705 39.9727ZM102.812 45.7132V41.239H103.62V45.7132H102.812Z" fill="#604848"/>
<path d="M112.383 43.434C112.383 45.0801 111.234 45.8399 110.128 45.8399C108.895 45.8399 107.959 44.9535 107.959 43.5184C107.959 41.9988 108.937 41.1124 110.213 41.1124C111.49 41.1546 112.383 42.0833 112.383 43.434ZM108.767 43.4762C108.767 44.447 109.32 45.2068 110.128 45.2068C110.894 45.2068 111.49 44.4892 111.49 43.4762C111.49 42.7164 111.107 41.7456 110.128 41.7456C109.193 41.7456 108.767 42.632 108.767 43.4762Z" fill="#604848"/>
<path d="M116.679 42.4632C116.679 41.9989 116.679 41.619 116.637 41.2391H117.36L117.402 41.9989C117.615 41.5768 118.168 41.1547 118.891 41.1547C119.529 41.1547 120.508 41.5346 120.508 43.0541V45.7555H119.699V43.1807C119.699 42.4632 119.444 41.8722 118.636 41.8722C118.083 41.8722 117.658 42.2521 117.53 42.7164C117.487 42.8008 117.487 42.9697 117.487 43.0963V45.7977H116.679V42.4632Z" fill="#604848"/>
<path d="M125.016 44.9113C125.272 45.0802 125.697 45.249 126.122 45.249C126.718 45.249 127.016 44.9535 127.016 44.5737C127.016 44.1938 126.803 43.9827 126.165 43.7295C125.357 43.434 124.974 43.0119 124.974 42.4632C124.974 41.7456 125.569 41.1547 126.548 41.1547C127.016 41.1547 127.398 41.2813 127.654 41.4501L127.441 42.0411C127.271 41.9144 126.931 41.7878 126.505 41.7878C126.037 41.7878 125.74 42.0833 125.74 42.421C125.74 42.8008 125.995 42.9697 126.59 43.1807C127.356 43.4762 127.781 43.8561 127.781 44.5314C127.781 45.3334 127.143 45.8822 126.08 45.8822C125.569 45.8822 125.144 45.7555 124.804 45.5867L125.016 44.9113Z" fill="#604848"/>
</g>
<defs>
<clipPath id="clip0_680_7511">
<rect width="167" height="68" fill="#604848"/>
</clipPath>
</defs>
</svg>
