<svg width="2036" height="2031" viewBox="0 0 2036 2031" fill="none" xmlns="http://www.w3.org/2000/svg">
<g clip-path="url(#clip0_1274_5055)">
<path d="M1018.43 2031.87C1580.9 2031.87 2036.87 1577.02 2036.87 1015.93C2036.87 454.85 1580.9 0 1018.43 0C455.969 0 0 454.85 0 1015.93C0 1577.02 455.969 2031.87 1018.43 2031.87Z" fill="#ED8F4A"/>
<path d="M1018.43 1905.75C1515.58 1905.75 1918.59 1507.36 1918.59 1015.93C1918.59 524.505 1515.58 126.122 1018.43 126.122C521.294 126.122 118.281 524.505 118.281 1015.93C118.281 1507.36 521.294 1905.75 1018.43 1905.75Z" fill="#F7B158"/>
<path d="M1018.43 1918.8C514.871 1918.8 105.235 1513.46 105.235 1015.94C105.235 518.405 514.871 113.075 1018.43 113.075C1522 113.075 1931.63 518.405 1931.63 1015.94C1931.63 1513.46 1522 1918.8 1018.43 1918.8ZM1018.43 138.3C529.656 138.3 131.327 531.452 131.327 1015.07C131.327 1498.68 529.656 1891.83 1018.43 1891.83C1507.21 1891.83 1905.54 1498.68 1905.54 1015.07C1905.54 531.452 1507.21 138.3 1018.43 138.3Z" fill="#A23916"/>
<path d="M864.495 1278.62C949.033 1278.62 1017.57 1210.86 1017.57 1127.27C1017.57 1043.68 949.033 975.924 864.495 975.924C779.957 975.924 711.426 1043.68 711.426 1127.27C711.426 1210.86 779.957 1278.62 864.495 1278.62Z" fill="#DE5C54"/>
<path d="M1278.48 1247.3C1352.93 1247.3 1413.29 1187.33 1413.29 1113.35C1413.29 1039.37 1352.93 979.403 1278.48 979.403C1204.03 979.403 1143.67 1039.37 1143.67 1113.35C1143.67 1187.33 1204.03 1247.3 1278.48 1247.3Z" fill="#DE5C54"/>
<path d="M1030.61 741.076C1115.15 741.076 1183.68 673.316 1183.68 589.729C1183.68 506.143 1115.15 438.383 1030.61 438.383C946.073 438.383 877.541 506.143 877.541 589.729C877.541 673.316 946.073 741.076 1030.61 741.076Z" fill="#DE5C54"/>
<path d="M393.98 1187.29C475.156 1187.29 540.962 1123.81 540.962 1045.51C540.962 967.206 475.156 903.729 393.98 903.729C312.804 903.729 246.999 967.206 246.999 1045.51C246.999 1123.81 312.804 1187.29 393.98 1187.29Z" fill="#DE5C54"/>
<path d="M628.803 1633.5C682.6 1633.5 726.211 1588.32 726.211 1532.6C726.211 1476.88 682.6 1431.7 628.803 1431.7C575.006 1431.7 531.395 1476.88 531.395 1532.6C531.395 1588.32 575.006 1633.5 628.803 1633.5Z" fill="#DE5C54"/>
<path d="M1050.61 1747.44C1111.62 1747.44 1161.07 1702.27 1161.07 1646.55C1161.07 1590.82 1111.62 1545.65 1050.61 1545.65C989.612 1545.65 940.161 1590.82 940.161 1646.55C940.161 1702.27 989.612 1747.44 1050.61 1747.44Z" fill="#DE5C54"/>
<path d="M1439.38 1582.18C1500.38 1582.18 1549.83 1535.45 1549.83 1477.8C1549.83 1420.16 1500.38 1373.43 1439.38 1373.43C1378.37 1373.43 1328.92 1420.16 1328.92 1477.8C1328.92 1535.45 1378.37 1582.18 1439.38 1582.18Z" fill="#DE5C54"/>
<path d="M1493.3 642.787C1556.22 642.787 1607.23 593.33 1607.23 532.322C1607.23 471.314 1556.22 421.856 1493.3 421.856C1430.38 421.856 1379.37 471.314 1379.37 532.322C1379.37 593.33 1430.38 642.787 1493.3 642.787Z" fill="#DE5C54"/>
<path d="M1720.29 1100.31C1789.46 1100.31 1845.53 1046.18 1845.53 979.403C1845.53 912.63 1789.46 858.5 1720.29 858.5C1651.13 858.5 1595.05 912.63 1595.05 979.403C1595.05 1046.18 1651.13 1100.31 1720.29 1100.31Z" fill="#DE5C54"/>
<path d="M777.524 1131.62C785.69 1131.62 792.309 1125.39 792.309 1117.7C792.309 1110.02 785.69 1103.79 777.524 1103.79C769.358 1103.79 762.739 1110.02 762.739 1117.7C762.739 1125.39 769.358 1131.62 777.524 1131.62Z" fill="#EE776C"/>
<path d="M607.06 1503.03C615.226 1503.03 621.845 1496.8 621.845 1489.11C621.845 1481.42 615.226 1475.19 607.06 1475.19C598.894 1475.19 592.275 1481.42 592.275 1489.11C592.275 1496.8 598.894 1503.03 607.06 1503.03Z" fill="#EE776C"/>
<path d="M654.895 1524.77C663.06 1524.77 669.68 1518.54 669.68 1510.86C669.68 1503.17 663.06 1496.94 654.895 1496.94C646.729 1496.94 640.109 1503.17 640.109 1510.86C640.109 1518.54 646.729 1524.77 654.895 1524.77Z" fill="#EE776C"/>
<path d="M592.275 1571.74C602.843 1571.74 611.409 1563.56 611.409 1553.48C611.409 1543.39 602.843 1535.21 592.275 1535.21C581.708 1535.21 573.142 1543.39 573.142 1553.48C573.142 1563.56 581.708 1571.74 592.275 1571.74Z" fill="#EE776C"/>
<path d="M987.125 1660.46C995.291 1660.46 1001.91 1654.23 1001.91 1646.54C1001.91 1638.86 995.291 1632.63 987.125 1632.63C978.959 1632.63 972.34 1638.86 972.34 1646.54C972.34 1654.23 978.959 1660.46 987.125 1660.46Z" fill="#EE776C"/>
<path d="M1375.89 1478.67C1384.05 1478.67 1390.67 1472.44 1390.67 1464.76C1390.67 1457.07 1384.05 1450.84 1375.89 1450.84C1367.72 1450.84 1361.1 1457.07 1361.1 1464.76C1361.1 1472.44 1367.72 1478.67 1375.89 1478.67Z" fill="#EE776C"/>
<path d="M1431.55 1456.93C1442.6 1456.93 1451.55 1448.36 1451.55 1437.79C1451.55 1427.22 1442.6 1418.66 1431.55 1418.66C1420.5 1418.66 1411.55 1427.22 1411.55 1437.79C1411.55 1448.36 1420.5 1456.93 1431.55 1456.93Z" fill="#EE776C"/>
<path d="M1435.03 1550C1448.96 1550 1460.25 1539.09 1460.25 1525.64C1460.25 1512.19 1448.96 1501.29 1435.03 1501.29C1421.1 1501.29 1409.81 1512.19 1409.81 1525.64C1409.81 1539.09 1421.1 1550 1435.03 1550Z" fill="#EE776C"/>
<path d="M1039.31 1622.19C1047.47 1622.19 1054.09 1615.96 1054.09 1608.27C1054.09 1600.59 1047.47 1594.36 1039.31 1594.36C1031.14 1594.36 1024.52 1600.59 1024.52 1608.27C1024.52 1615.96 1031.14 1622.19 1039.31 1622.19Z" fill="#EE776C"/>
<path d="M1046.27 1715.26C1056.83 1715.26 1065.4 1707.08 1065.4 1696.99C1065.4 1686.91 1056.83 1678.73 1046.27 1678.73C1035.7 1678.73 1027.13 1686.91 1027.13 1696.99C1027.13 1707.08 1035.7 1715.26 1046.27 1715.26Z" fill="#EE776C"/>
<path d="M847.971 1088.13C859.979 1088.13 869.714 1079.17 869.714 1068.12C869.714 1057.07 859.979 1048.12 847.971 1048.12C835.963 1048.12 826.228 1057.07 826.228 1068.12C826.228 1079.17 835.963 1088.13 847.971 1088.13Z" fill="#EE776C"/>
<path d="M848.841 1225.56C867.574 1225.56 882.76 1211.15 882.76 1193.38C882.76 1175.6 867.574 1161.19 848.841 1161.19C830.108 1161.19 814.922 1175.6 814.922 1193.38C814.922 1211.15 830.108 1225.56 848.841 1225.56Z" fill="#EE776C"/>
<path d="M1211.51 1109C1219.68 1109 1226.3 1102.77 1226.3 1095.09C1226.3 1087.4 1219.68 1081.17 1211.51 1081.17C1203.35 1081.17 1196.73 1087.4 1196.73 1095.09C1196.73 1102.77 1203.35 1109 1211.51 1109Z" fill="#EE776C"/>
<path d="M1281.96 1065.51C1293.97 1065.51 1303.7 1056.56 1303.7 1045.51C1303.7 1034.46 1293.97 1025.5 1281.96 1025.5C1269.95 1025.5 1260.22 1034.46 1260.22 1045.51C1260.22 1056.56 1269.95 1065.51 1281.96 1065.51Z" fill="#EE776C"/>
<path d="M1281.96 1202.94C1300.69 1202.94 1315.88 1188.54 1315.88 1170.76C1315.88 1152.99 1300.69 1138.58 1281.96 1138.58C1263.22 1138.58 1248.04 1152.99 1248.04 1170.76C1248.04 1188.54 1263.22 1202.94 1281.96 1202.94Z" fill="#EE776C"/>
<path d="M1648.98 985.492C1657.14 985.492 1663.76 979.261 1663.76 971.575C1663.76 963.889 1657.14 957.658 1648.98 957.658C1640.81 957.658 1634.19 963.889 1634.19 971.575C1634.19 979.261 1640.81 985.492 1648.98 985.492Z" fill="#EE776C"/>
<path d="M1719.42 942.001C1731.43 942.001 1741.17 933.045 1741.17 921.996C1741.17 910.947 1731.43 901.99 1719.42 901.99C1707.42 901.99 1697.68 910.947 1697.68 921.996C1697.68 933.045 1707.42 942.001 1719.42 942.001Z" fill="#EE776C"/>
<path d="M1752.98 1047.04C1755.27 1030.86 1742.86 1015.73 1725.26 1013.24C1707.66 1010.75 1691.54 1021.84 1689.25 1038.01C1686.96 1054.18 1699.37 1069.31 1716.97 1071.8C1734.57 1074.3 1750.69 1063.21 1752.98 1047.04Z" fill="#EE776C"/>
<path d="M948.858 383.585C1002.65 383.585 1046.27 341.527 1046.27 289.646C1046.27 237.765 1002.65 195.707 948.858 195.707C895.061 195.707 851.45 237.765 851.45 289.646C851.45 341.527 895.061 383.585 948.858 383.585Z" fill="#DE5C54"/>
<path d="M925.376 261.812C933.541 261.812 940.161 255.582 940.161 247.895C940.161 240.209 933.541 233.979 925.376 233.979C917.21 233.979 910.59 240.209 910.59 247.895C910.59 255.582 917.21 261.812 925.376 261.812Z" fill="#EE776C"/>
<path d="M972.34 273.99C980.025 273.99 986.255 268.148 986.255 260.943C986.255 253.737 980.025 247.896 972.34 247.896C964.655 247.896 958.424 253.737 958.424 260.943C958.424 268.148 964.655 273.99 972.34 273.99Z" fill="#EE776C"/>
<path d="M916.678 335.746C929.647 335.746 940.16 325.621 940.16 313.131C940.16 300.641 929.647 290.516 916.678 290.516C903.709 290.516 893.196 300.641 893.196 313.131C893.196 325.621 903.709 335.746 916.678 335.746Z" fill="#EE776C"/>
<path d="M333.97 1278.62C322.664 1278.62 314.836 1276.88 313.967 1276.88C307.009 1275.14 302.66 1268.18 304.4 1261.22C306.139 1254.26 313.097 1249.91 320.055 1251.65C320.924 1251.65 340.928 1256 358.322 1248.17C365.28 1244.69 380.934 1233.39 396.589 1221.21C425.29 1198.59 458.339 1173.37 482.691 1168.15C518.349 1159.45 564.444 1164.67 566.184 1165.54C573.141 1166.41 578.36 1172.5 577.49 1180.33C576.62 1187.29 569.662 1192.51 562.705 1191.64C562.705 1191.64 519.219 1186.42 487.909 1194.25C469.645 1198.59 436.596 1223.82 412.244 1242.95C393.11 1256.87 379.195 1268.18 368.759 1272.53C356.583 1276.88 344.407 1278.62 333.97 1278.62Z" fill="#F39447"/>
<path d="M296.573 847.193C294.833 847.193 293.963 847.193 292.224 846.323C285.266 843.713 281.787 836.755 284.397 829.796C288.745 817.619 327.882 714.982 389.632 732.378C435.727 745.425 484.431 716.721 484.431 716.721C490.519 713.242 498.346 714.982 502.695 721.071C506.174 727.159 504.434 734.987 498.346 739.336C495.737 741.076 439.206 774.129 382.674 757.602C349.625 748.904 317.446 815.01 308.749 838.495C307.009 844.583 301.791 847.193 296.573 847.193Z" fill="#F39447"/>
<path d="M358.322 637.569C332.23 637.569 305.269 617.563 300.921 614.084C294.833 609.735 293.963 601.907 298.312 595.818C302.66 589.73 310.488 588.86 316.576 593.209C329.621 602.777 353.973 614.954 364.41 609.735C371.368 606.256 373.977 590.599 372.237 568.854C371.368 561.896 376.586 554.937 384.413 554.937C391.371 554.067 398.329 559.286 398.329 567.115C400.938 601.907 393.98 623.652 376.586 633.22C371.368 635.829 365.28 637.569 358.322 637.569Z" fill="#F3944E"/>
<path d="M695.771 638.439C691.423 638.439 687.944 636.699 685.335 633.22C680.986 627.131 682.725 619.303 688.813 614.954C689.683 614.084 736.648 579.292 758.39 473.175C770.566 412.289 783.612 387.064 801.876 385.325C814.052 383.585 822.749 393.153 826.228 401.851C828.837 408.81 826.228 415.768 819.27 419.247C813.182 421.857 807.094 420.117 803.616 414.898C799.267 420.987 792.309 437.513 783.612 479.264C760.13 596.688 705.338 635.829 703.599 637.569C700.989 637.569 698.38 638.439 695.771 638.439Z" fill="#F39447"/>
<path d="M1265.43 730.638C1261.95 730.638 1257.61 728.899 1255 725.42C1250.65 719.331 1251.52 711.503 1256.74 707.154C1259.35 705.414 1319.36 655.835 1288.05 562.766C1252.39 454.04 1286.31 400.981 1287.18 399.242C1291.53 393.153 1299.35 391.413 1305.44 395.763C1311.53 400.112 1313.27 407.94 1308.92 414.028C1308.05 414.898 1281.09 460.998 1312.4 555.807C1348.93 667.142 1275 726.289 1272.39 728.899C1271.52 729.769 1268.91 730.638 1265.43 730.638Z" fill="#F39447"/>
<path d="M1163.68 1451.71C1161.94 1451.71 1159.33 1450.84 1157.59 1449.97C1151.5 1446.49 1148.89 1438.66 1151.5 1432.57C1152.37 1430.83 1174.98 1387.34 1241.08 1384.73C1264.56 1383.86 1286.31 1359.51 1309.79 1333.41C1336.75 1302.97 1368.06 1269.05 1409.81 1263.83C1416.76 1262.96 1423.72 1268.18 1424.59 1275.14C1425.46 1282.1 1420.24 1289.05 1413.29 1289.92C1381.11 1293.4 1355.01 1322.98 1329.79 1350.81C1302.83 1381.25 1276.74 1409.09 1242.82 1410.83C1191.51 1412.57 1175.85 1443.88 1175.85 1443.88C1173.24 1449.1 1168.9 1451.71 1163.68 1451.71Z" fill="#F39447"/>
<path d="M600.972 996.799C574.881 996.799 555.747 978.533 554.878 977.664C549.659 972.445 549.659 964.616 554.878 959.398C560.096 954.179 567.923 954.179 573.142 959.398C573.142 959.398 589.666 974.184 607.06 970.705C620.976 968.096 634.891 952.439 645.328 927.215C647.937 920.256 655.764 917.647 662.722 920.256C669.68 922.866 672.289 930.694 669.68 937.652C654.895 971.575 635.761 991.58 612.279 995.929C607.93 995.929 604.451 996.799 600.972 996.799Z" fill="#F39447"/>
<path d="M371.368 1435.18C366.15 1435.18 361.801 1432.57 359.192 1427.35C358.322 1426.48 347.016 1396.04 363.541 1373.43C376.586 1356.03 401.808 1349.07 438.336 1352.55C445.294 1353.42 450.512 1359.51 449.642 1366.47C448.772 1373.43 442.684 1378.64 435.727 1377.77C409.635 1375.17 391.371 1378.64 384.414 1388.21C376.586 1398.65 383.544 1416.05 383.544 1416.05C386.153 1423 383.544 1429.96 376.586 1433.44C374.847 1435.18 373.107 1435.18 371.368 1435.18Z" fill="#F39447"/>
<path d="M668.81 905.47C667.94 905.47 667.94 905.47 667.071 905.47C660.113 904.6 654.895 898.511 655.764 890.683C656.634 887.204 660.983 852.411 682.725 838.495C689.683 834.146 700.989 829.796 717.514 835.015C766.218 850.672 795.788 809.791 797.528 808.051C801.876 801.963 809.704 801.093 815.792 804.572C821.88 808.051 823.619 816.749 819.27 822.838C805.355 843.713 764.478 877.636 710.556 860.24C703.598 857.63 700.12 859.37 698.38 861.11C688.813 867.198 684.465 886.334 682.725 894.162C680.986 901.121 675.768 905.47 668.81 905.47Z" fill="#F39447"/>
<path d="M734.038 1383.86C720.993 1383.86 707.077 1381.25 692.292 1375.17C643.588 1354.29 597.493 1368.21 597.493 1369.08C590.535 1370.82 583.578 1367.34 580.969 1360.38C579.229 1353.42 582.708 1346.46 589.666 1343.85C592.275 1342.98 645.327 1326.46 702.729 1350.81C747.954 1369.95 783.612 1340.37 783.612 1340.37C788.83 1336.02 797.527 1336.02 801.876 1342.11C806.224 1347.33 806.224 1356.03 800.136 1360.38C799.267 1362.12 773.175 1383.86 734.038 1383.86Z" fill="#F39447"/>
<path d="M1341.97 310.521C1328.92 310.521 1315.01 307.912 1300.22 301.823C1251.52 280.948 1205.42 294.864 1205.42 295.734C1198.47 297.474 1191.51 293.995 1188.9 287.036C1187.16 280.078 1190.64 273.119 1197.6 270.51C1200.21 269.64 1253.26 253.114 1310.66 277.468C1355.88 296.604 1391.54 267.031 1391.54 267.031C1396.76 262.682 1405.46 262.682 1409.81 268.77C1414.15 273.989 1414.15 282.687 1408.07 287.036C1407.2 288.776 1380.24 310.521 1341.97 310.521Z" fill="#F39447"/>
<path d="M835.795 1531.73C829.707 1531.73 823.619 1526.51 822.749 1520.42C821.88 1516.07 818.401 1479.54 841.883 1462.15C856.668 1451.71 876.672 1452.58 901.893 1464.76C907.981 1468.23 911.46 1475.19 907.981 1482.15C904.502 1488.24 896.675 1491.72 890.587 1488.24C874.932 1480.41 862.756 1479.54 856.668 1483.89C847.971 1489.98 847.101 1509.12 847.971 1517.81C848.841 1524.77 843.622 1531.73 836.665 1532.6C836.665 1531.73 836.665 1531.73 835.795 1531.73Z" fill="#F39447"/>
<path d="M1116.71 265.291C1084.53 265.291 1060.18 225.28 1057.57 220.931C1054.09 214.842 1055.83 207.014 1061.92 202.665C1068.01 199.186 1075.84 200.925 1080.18 207.014C1086.27 217.452 1102.8 238.327 1116.71 238.327C1126.28 238.327 1134.11 227.019 1139.32 216.582C1142.8 210.493 1150.63 207.884 1156.72 211.363C1162.81 214.842 1165.42 222.67 1161.94 228.759C1150.63 253.114 1134.98 265.291 1116.71 265.291Z" fill="#F39447"/>
<path d="M1158.46 1819.64C1152.37 1819.64 1147.15 1815.29 1145.41 1809.2C1145.41 1807.46 1137.59 1772.67 1159.33 1750.92C1175.85 1735.27 1201.94 1731.79 1237.6 1740.48C1244.56 1742.22 1248.91 1749.18 1247.17 1756.14C1245.43 1763.1 1238.47 1767.45 1231.51 1765.71C1205.42 1759.62 1187.16 1760.49 1177.59 1770.06C1166.29 1781.36 1170.63 1803.98 1170.63 1803.98C1172.37 1810.94 1168.03 1817.9 1161.07 1819.64C1161.07 1819.64 1159.33 1819.64 1158.46 1819.64Z" fill="#F39447"/>
<path d="M1566.35 1210.77C1562.88 1210.77 1559.4 1209.9 1555.92 1209.03C1524.61 1200.33 1515.91 1155.97 1515.04 1150.76C1514.17 1143.8 1518.52 1136.84 1525.48 1135.97C1532.44 1135.1 1539.39 1139.45 1540.26 1146.41C1542 1156.84 1549.83 1180.33 1562.01 1183.81C1571.57 1186.42 1588.1 1175.98 1606.36 1155.1C1610.71 1149.89 1619.41 1149.02 1624.63 1153.36C1629.84 1157.71 1630.71 1166.41 1626.36 1171.63C1604.62 1198.59 1584.62 1210.77 1566.35 1210.77Z" fill="#F39447"/>
<path d="M1698.55 734.987C1671.59 734.987 1651.59 696.715 1648.11 688.887C1645.5 681.929 1648.11 674.97 1654.2 671.491C1660.28 668.012 1668.11 671.491 1671.59 677.58C1678.55 692.366 1691.59 708.023 1697.68 708.023C1701.16 708.023 1708.12 701.065 1715.94 678.45C1718.55 671.491 1725.51 668.012 1732.47 670.621C1739.43 673.231 1742.91 680.189 1740.3 687.148C1736.82 698.455 1724.64 733.247 1698.55 734.117C1699.42 734.987 1699.42 734.987 1698.55 734.987Z" fill="#F39447"/>
<path d="M1101.93 928.085C1074.1 928.085 1050.61 886.334 1044.53 873.287C1041.05 867.198 1043.66 859.37 1050.61 855.891C1056.7 852.411 1064.53 855.021 1068.01 861.979C1078.45 882.855 1095.84 902.86 1102.8 901.99C1105.41 901.99 1114.1 892.423 1120.19 857.63C1121.06 850.672 1128.02 845.453 1134.98 847.193C1141.93 848.062 1147.15 855.021 1145.41 861.979C1141.06 888.074 1131.5 923.736 1105.41 927.215C1104.54 928.085 1102.8 928.085 1101.93 928.085Z" fill="#F39447"/>
<path d="M1354.14 898.511C1352.4 898.511 1349.8 897.641 1348.06 896.771C1341.97 893.292 1339.36 885.463 1341.97 879.375C1342.84 876.765 1370.67 823.707 1416.76 820.228C1455.03 817.618 1510.69 788.045 1513.3 775.868C1514.17 768.909 1520.26 763.69 1527.22 763.69C1534.18 764.56 1539.39 770.649 1539.39 777.607C1536.78 810.66 1458.51 842.843 1418.5 846.322C1386.32 848.932 1365.45 890.682 1364.58 891.552C1363.71 895.031 1359.36 898.511 1354.14 898.511Z" fill="#F39447"/>
<path d="M1664.63 1471.71C1641.15 1471.71 1617.67 1443.88 1613.32 1437.79C1608.97 1431.7 1609.84 1423.87 1615.93 1419.53C1622.02 1415.18 1629.84 1416.05 1634.19 1422.13C1644.63 1436.05 1661.15 1448.23 1666.37 1446.49C1666.37 1446.49 1674.2 1443.01 1675.94 1409.96C1675.94 1403 1682.03 1396.91 1689.85 1397.78C1696.81 1397.78 1702.9 1403.87 1702.03 1411.7C1701.16 1424.74 1700.29 1463.89 1675.07 1471.71C1670.72 1470.84 1667.24 1471.71 1664.63 1471.71Z" fill="#F39447"/>
<path d="M1676.81 1376.04C1671.59 1376.04 1667.24 1373.43 1664.63 1368.21C1663.76 1366.47 1648.98 1332.55 1677.68 1295.14C1691.59 1276.88 1684.64 1253.39 1680.29 1236C1678.55 1228.17 1676.81 1222.08 1676.81 1216.86C1676.81 1197.72 1690.72 1160.32 1716.81 1160.32C1723.77 1160.32 1729.86 1166.41 1729.86 1173.37C1729.86 1180.33 1723.77 1186.42 1716.81 1186.42C1711.6 1187.29 1702.9 1205.55 1702.9 1216.86C1702.9 1218.6 1704.64 1224.69 1705.51 1229.04C1710.73 1249.04 1720.29 1282.97 1698.55 1311.67C1680.29 1336.02 1688.11 1356.9 1688.98 1357.77C1691.59 1364.73 1688.98 1371.69 1682.03 1375.17C1681.16 1375.17 1679.42 1376.04 1676.81 1376.04Z" fill="#F39447"/>
<path d="M1302.83 1757.88C1295.87 1757.88 1290.66 1752.66 1289.79 1745.7C1289.79 1743.09 1288.05 1719.61 1303.7 1701.34C1314.14 1690.04 1328.92 1683.08 1348.06 1683.08C1400.24 1681.34 1447.2 1677.86 1455.9 1648.28C1457.64 1641.33 1465.47 1636.98 1472.43 1639.59C1479.38 1641.33 1483.73 1649.15 1481.12 1656.11C1466.34 1706.56 1398.5 1708.3 1348.93 1710.04C1337.62 1710.04 1328.92 1713.52 1323.7 1719.61C1315.01 1729.18 1315.88 1743.96 1315.88 1743.96C1316.75 1750.92 1311.53 1757.88 1303.7 1757.88C1303.7 1757.88 1303.7 1757.88 1302.83 1757.88Z" fill="#F39447"/>
<path d="M961.903 1822.25C959.294 1822.25 955.815 1821.38 953.206 1818.77C948.858 1816.16 927.985 1813.55 910.59 1810.94C877.541 1805.72 836.665 1799.63 805.355 1786.58C778.394 1775.28 763.609 1763.1 761 1747.44C759.26 1736.14 764.478 1726.57 768.827 1722.22C774.045 1717 782.742 1717.87 787.091 1723.09C791.44 1728.31 791.44 1736.14 787.091 1741.35C787.091 1741.35 786.221 1742.22 786.221 1743.09C786.221 1743.96 788.83 1751.79 814.922 1762.23C844.492 1774.41 882.759 1779.63 914.939 1784.84C947.988 1790.06 962.773 1791.8 970.601 1798.76C975.819 1803.11 976.689 1811.81 972.34 1817.03C969.731 1820.51 965.382 1822.25 961.903 1822.25Z" fill="#F39447"/>
<path d="M578.36 562.765C640.803 562.765 691.422 514.087 691.422 454.039C691.422 393.992 640.803 345.313 578.36 345.313C515.917 345.313 465.297 393.992 465.297 454.039C465.297 514.087 515.917 562.765 578.36 562.765Z" fill="#DE5C54"/>
<path d="M521.828 464.477C529.994 464.477 536.613 458.247 536.613 450.56C536.613 442.874 529.994 436.644 521.828 436.644C513.663 436.644 507.043 442.874 507.043 450.56C507.043 458.247 513.663 464.477 521.828 464.477Z" fill="#EE776C"/>
<path d="M569.663 434.904C580.23 434.904 588.796 426.726 588.796 416.638C588.796 406.55 580.23 398.372 569.663 398.372C559.095 398.372 550.529 406.55 550.529 416.638C550.529 426.726 559.095 434.904 569.663 434.904Z" fill="#EE776C"/>
<path d="M571.402 523.624C584.371 523.624 594.884 513.498 594.884 501.009C594.884 488.519 584.371 478.394 571.402 478.394C558.433 478.394 547.92 488.519 547.92 501.009C547.92 513.498 558.433 523.624 571.402 523.624Z" fill="#EF7760"/>
<path d="M935.812 593.208C943.497 593.208 949.727 587.367 949.727 580.161C949.727 572.956 943.497 567.114 935.812 567.114C928.127 567.114 921.896 572.956 921.896 580.161C921.896 587.367 928.127 593.208 935.812 593.208Z" fill="#EE776C"/>
<path d="M1012.35 682.799C1027.72 682.799 1040.18 670.337 1040.18 654.965C1040.18 639.593 1027.72 627.131 1012.35 627.131C996.976 627.131 984.516 639.593 984.516 654.965C984.516 670.337 996.976 682.799 1012.35 682.799Z" fill="#EE776C"/>
<path d="M1031.2 545.506C1039.63 535.657 1038.49 520.831 1028.64 512.393C1018.79 503.954 1003.97 505.098 995.53 514.948C987.093 524.798 988.237 539.623 998.085 548.061C1007.93 556.5 1022.76 555.356 1031.2 545.506Z" fill="#EE776C"/>
<path d="M1423.72 547.109C1431.41 547.109 1437.64 541.267 1437.64 534.062C1437.64 526.856 1431.41 521.015 1423.72 521.015C1416.04 521.015 1409.81 526.856 1409.81 534.062C1409.81 541.267 1416.04 547.109 1423.72 547.109Z" fill="#EE776C"/>
<path d="M1500.87 505.544C1509.31 495.695 1508.16 480.869 1498.31 472.431C1488.47 463.992 1473.64 465.136 1465.2 474.986C1456.77 484.836 1457.91 499.661 1467.76 508.1C1477.61 516.538 1492.43 515.394 1500.87 505.544Z" fill="#EE776C"/>
<path d="M1506.91 600.154C1515.35 590.304 1514.21 575.479 1504.36 567.04C1494.51 558.602 1479.69 559.746 1471.25 569.595C1462.81 579.445 1463.95 594.27 1473.8 602.709C1483.65 611.147 1498.48 610.003 1506.91 600.154Z" fill="#EE776C"/>
<path d="M316.576 1053.34C324.741 1053.34 331.361 1047.11 331.361 1039.42C331.361 1031.73 324.741 1025.5 316.576 1025.5C308.41 1025.5 301.791 1031.73 301.791 1039.42C301.791 1047.11 308.41 1053.34 316.576 1053.34Z" fill="#EF7760"/>
<path d="M387.023 1009.85C399.031 1009.85 408.765 1000.89 408.765 989.841C408.765 978.792 399.031 969.835 387.023 969.835C375.014 969.835 365.28 978.792 365.28 989.841C365.28 1000.89 375.014 1009.85 387.023 1009.85Z" fill="#EF7760"/>
<path d="M384.413 1122.92C400.264 1122.92 413.114 1110.85 413.114 1095.96C413.114 1081.07 400.264 1068.99 384.413 1068.99C368.563 1068.99 355.713 1081.07 355.713 1095.96C355.713 1110.85 368.563 1122.92 384.413 1122.92Z" fill="#EF7760"/>
</g>
<defs>
<clipPath id="clip0_1274_5055">
<rect width="2036" height="2031" fill="white"/>
</clipPath>
</defs>
</svg>
