<svg width="5291" height="5541" viewBox="0 0 5291 5541" fill="none" xmlns="http://www.w3.org/2000/svg">
<path d="M1805.15 5379.92C1806.46 5343.25 1803.84 5305.27 1805.15 5268.6C1805.15 5252.88 1805.15 5235.86 1806.46 5218.83C1757.99 5234.55 1701.66 5238.48 1659.74 5235.86C1655.81 5235.86 1651.88 5234.55 1647.95 5234.55C1646.64 5259.43 1646.64 5284.31 1650.57 5309.2C1662.36 5391.7 1637.47 5453.25 1561.49 5492.54C1551.01 5497.78 1544.46 5509.57 1533.98 5520.04C1543.15 5523.97 1547.08 5526.59 1551.01 5526.59C1645.33 5530.52 1738.34 5537.07 1832.66 5538.38C1851 5538.38 1869.34 5523.97 1894.23 5513.5C1881.13 5504.33 1877.2 5499.09 1873.27 5497.78C1820.87 5474.21 1803.84 5433.61 1805.15 5379.92Z" fill="#7E503B"/>
<path d="M884.235 5119.3C865.895 5228 833.146 5331.46 770.267 5423.13C747.997 5455.87 725.727 5488.61 700.838 5526.59H1148.85C1139.68 5488.61 1131.82 5454.56 1125.27 5420.51C1110.86 5338.01 1097.76 5255.5 1085.97 5171.69L1072.87 4895.36C996.893 4860 983.793 4822.02 902.574 4801.06L884.235 5119.3C865.895 5228 833.146 5331.46 770.267 5423.13C747.997 5455.87 725.727 5488.61 700.838 5526.59H1148.85C1139.68 5488.61 1131.82 5454.56 1125.27 5420.51C1110.86 5338.01 1097.76 5255.5 1085.97 5171.69" fill="#7E503B"/>
<path d="M1805.15 5379.92C1806.46 5343.25 1803.84 5305.27 1805.15 5268.6C1805.15 5243.72 1806.46 5218.83 1807.77 5191.33C1799.91 5184.78 1793.36 5178.23 1786.81 5170.38C1743.58 5186.09 1701.66 5199.19 1653.19 5199.19C1651.88 5199.19 1649.26 5199.19 1647.95 5199.19C1647.95 5200.5 1647.95 5201.81 1647.95 5203.12C1646.64 5238.48 1644.02 5275.15 1649.26 5310.51C1661.05 5393.01 1636.16 5454.56 1560.18 5493.85C1549.7 5499.09 1543.15 5510.88 1532.67 5521.36C1541.84 5525.28 1545.77 5527.9 1549.7 5527.9C1644.02 5531.83 1737.03 5538.38 1831.35 5539.69C1849.69 5539.69 1868.03 5525.28 1892.92 5514.81C1879.82 5505.64 1875.89 5500.4 1871.96 5499.09C1820.87 5474.21 1803.84 5433.61 1805.15 5379.92Z" fill="#7E503B"/>
<path d="M3141.33 5500.4C3065.35 5432.3 3018.19 5347.18 3009.02 5247.64C2993.3 5086.56 2986.75 4925.48 2977.58 4764.39C2974.96 4763.08 2972.34 4763.09 2969.72 4761.78C2939.59 4768.32 2909.46 4776.18 2879.33 4780.11C2874.09 4786.66 2867.54 4793.21 2859.68 4797.13C2853.13 4801.06 2846.58 4803.68 2840.03 4804.99C2846.58 4824.64 2855.75 4844.28 2855.75 4865.24C2855.75 4975.24 2849.2 5085.25 2851.82 5195.26C2855.75 5338.01 2817.76 5404.8 2686.76 5463.73C2652.7 5479.45 2619.95 5496.47 2585.9 5513.5V5527.9C2602.93 5531.83 2619.95 5541 2638.29 5541C2705.1 5541 2771.91 5537.07 2837.41 5537.07C2931.73 5537.07 3024.74 5539.69 3119.06 5541C3133.47 5541 3147.88 5537.07 3170.15 5534.45C3157.05 5517.43 3149.19 5508.26 3141.33 5500.4Z" fill="#7E503B"/>
<path d="M3861.81 4562.71C3861.81 4567.95 3881.46 4761.78 3881.46 4765.7C3882.77 4782.73 3885.39 4798.44 3885.39 4814.16C3888.01 4967.39 3889.32 5121.92 3893.25 5275.15C3894.56 5313.12 3881.46 5339.32 3851.33 5361.58C3791.08 5406.11 3732.13 5453.25 3673.18 5500.4C3665.32 5506.95 3658.77 5517.43 3650.91 5526.59C3707.24 5543.62 4332.1 5544.93 4358.3 5529.21C4354.37 5523.97 4351.75 5518.74 4347.82 5513.5C4301.97 5451.94 4253.5 5390.39 4210.27 5327.53C4194.55 5303.96 4184.07 5272.53 4182.76 5243.72C4174.9 5086.56 4168.35 4929.41 4164.42 4772.25C4163.11 4731.65 4146.08 4569.26 4146.08 4529.97L3861.81 4562.71Z" fill="#7E503B"/>
<path d="M4377.95 2448.99C4377.95 2448.99 4557.41 3072.37 5242.53 3019.98C5254.32 3018.67 5174.41 3054.03 5187.51 3052.72C5187.51 3052.72 4973.99 3241.31 4901.94 3225.59C4829.89 3209.88 5182.27 3268.81 5153.45 3325.12C5124.63 3381.44 4880.98 3418.11 4880.98 3418.11C4880.98 3418.11 5038.17 3450.85 5026.38 3517.64C5014.6 3584.43 4727.71 3543.83 4727.71 3543.83C4727.71 3543.83 5077.47 3906.59 5289.69 3940.64C5289.69 3940.64 5039.48 4096.49 4950.41 4051.96C4861.33 4007.44 5118.08 4141.02 5245.15 4079.46C5372.22 4017.91 5162.62 4306.03 5089.26 4306.03C5015.9 4306.03 4486.67 4180.31 4486.67 4257.57C4486.67 4334.84 4609.81 4399.01 4543 4376.75C4476.19 4354.48 4353.06 4251.02 4307.21 4277.22C4224.68 4323.05 3977.09 4503.78 3994.12 4354.48C4011.15 4203.88 4037.35 3930.17 4037.35 3930.17C4037.35 3930.17 3783.22 4004.82 3877.53 3910.52C4050.45 3737.65 3965.3 3714.08 3965.3 3714.08C3965.3 3714.08 3425.59 4211.74 3458.34 4083.39C3491.09 3955.05 3227.79 2587.81 3227.79 2587.81L3940.41 2208.02L4377.95 2448.99Z" fill="#4C663C"/>
<path d="M3425.59 2573.4C3425.59 2573.4 3217.31 2750.2 3256.61 2789.49C3295.91 2828.78 3525.15 2894.26 3593.27 2845.8C3661.39 2797.35 3821.21 2725.32 3881.46 2697.82C3941.72 2670.31 3957.44 2581.26 3949.58 2528.87C3946.96 2509.23 3945.65 2481.73 3940.41 2455.54C3932.55 2412.32 3916.83 2373.03 3868.37 2388.75C3793.7 2413.63 3425.59 2573.4 3425.59 2573.4Z" fill="#365837"/>
<path d="M4262.67 2794.73C4269.22 2792.11 4281.01 2786.87 4275.77 2785.56C4218.13 2775.08 3996.74 2670.31 3986.26 2549.83C3974.47 2421.49 4030.8 2409.7 4134.29 2409.7C4237.78 2409.7 4319 2421.49 4346.51 2477.8C4374.02 2534.11 4414.63 2666.39 4402.84 2705.67C4391.05 2746.27 4262.67 2794.73 4262.67 2794.73Z" fill="#365837"/>
<path d="M4410.7 2658.53C4410.7 2658.53 4570.51 2987.24 4903.25 3006.89C4903.25 3006.89 4539.07 2874.61 4457.85 2637.57C4376.64 2400.53 4410.7 2658.53 4410.7 2658.53Z" fill="#365837"/>
<path d="M2065.83 4333.53C2065.83 4333.53 1653.19 4570.57 1668.91 4629.51C1684.63 4689.75 1700.35 4878.33 1828.73 4878.33C1957.11 4878.33 2081.55 4738.2 2081.55 4738.2C2081.55 4738.2 1888.99 4866.55 2029.16 4901.91C2169.32 4938.58 2398.57 4725.11 2398.57 4725.11C2398.57 4725.11 2238.75 4937.27 2350.1 4929.41C2461.45 4921.55 2578.04 4816.78 2578.04 4816.78C2578.04 4816.78 2426.08 5040.73 2546.6 5028.94C2667.11 5017.15 2807.28 4764.4 2807.28 4764.4C2807.28 4764.4 2855.75 4896.67 2906.84 4863.93C2959.24 4832.5 2982.82 4708.08 2982.82 4708.08C2982.82 4708.08 3050.94 4928.1 3087.62 4884.88C3124.3 4840.35 3196.35 4672.72 3196.35 4672.72C3196.35 4672.72 3328.65 4925.48 3428.21 4884.88C3527.77 4844.28 3379.74 4712.01 3379.74 4712.01C3379.74 4712.01 3628.64 4844.28 3652.22 4791.9C3675.8 4739.51 3523.84 4591.53 3523.84 4591.53C3523.84 4591.53 3792.39 4784.04 3832.99 4696.3C3873.6 4608.55 3753.09 4511.64 3753.09 4511.64C3753.09 4511.64 3937.79 4503.78 3949.58 4431.75C3961.37 4359.72 3789.77 4287.69 3780.6 4239.24C3771.43 4190.78 3753.09 4130.54 3804.18 4114.82C3856.57 4099.11 3903.73 4130.54 3903.73 4042.8C3903.73 3955.05 3967.92 3970.77 3963.99 3938.03C3960.06 3905.29 3847.4 3938.03 3791.08 3914.45C3734.75 3890.88 3586.72 3818.85 3627.33 3797.9C3667.94 3778.25 3715.1 3813.61 3683.66 3733.73C3652.22 3653.84 3479.3 3473.11 3479.3 3473.11C3479.3 3473.11 3218.62 3253.1 3078.45 3332.98C2939.59 3415.49 2065.83 4333.53 2065.83 4333.53Z" fill="#6D8639"/>
<path d="M2567.56 563.137C2567.56 563.137 2875.4 915.424 2851.82 944.236C2829.55 973.048 2754.88 973.048 2754.88 973.048C2754.88 973.048 2931.73 1166.87 2908.15 1177.35C2885.88 1189.13 2794.18 1165.56 2794.18 1165.56C2794.18 1165.56 3005.09 1318.79 2988.06 1359.39C2971.03 1399.98 2817.76 1388.2 2817.76 1388.2C2817.76 1388.2 3022.12 1643.57 3073.21 1638.33C3124.3 1633.1 3022.12 1747.03 2971.03 1730.01C2919.94 1712.98 3238.27 1985.38 3209.45 2054.79C3180.63 2122.89 3039.15 2094.08 3039.15 2094.08C3039.15 2094.08 3192.42 2384.82 3267.08 2378.27C3341.75 2371.72 3356.16 2524.95 3257.91 2500.06C3159.67 2475.18 3096.79 2441.13 3096.79 2441.13C3096.79 2441.13 3278.87 2538.04 3278.87 2555.07C3278.87 2572.09 3404.63 3391.91 3352.23 3402.39C3301.14 3414.18 2800.73 3970.77 2635.68 3982.55C2470.62 3994.34 1757.99 4357.1 1772.4 4172.45C1786.81 3987.79 2017.37 3399.77 2017.37 3399.77L2567.56 563.137Z" fill="#6D8639"/>
<path d="M1530.05 2945.33L1444.91 3035.7L1543.15 3112.97L1581.14 3052.72L1585.07 3137.85L1625.68 3156.18C1625.68 3156.18 1689.87 2984.62 1700.35 3023.91C1710.83 3063.2 1735.72 3127.37 1760.61 3082.84C1785.5 3038.32 1823.49 3084.15 1837.9 3048.79C1851 3013.43 1928.29 3093.32 1949.25 3042.25C1970.21 2991.17 2030.47 2947.95 2031.78 2964.98C2033.09 2982 2109.07 3098.56 2169.32 3077.61C2229.58 3056.65 2300.32 2822.23 2270.19 2782.94C2241.37 2743.65 2181.11 2667.7 2181.11 2667.7L1864.1 2672.93L1530.05 2945.33Z" fill="#899C43"/>
<path d="M1451.46 3232.14C1451.46 3232.14 1672.84 3268.81 1675.46 3356.55C1678.08 3444.3 1670.22 3520.26 1670.22 3520.26L1404.3 3376.2L1451.46 3232.14Z" fill="#B0C44E"/>
<path d="M1962.35 2917.83C1962.35 2917.83 1919.12 3019.98 1861.48 2991.17C1802.53 2962.36 1676.77 2934.86 1661.05 3016.05C1645.33 3098.56 1634.85 3166.66 1674.15 3213.81C1714.76 3262.26 1781.57 3440.37 1797.29 3384.06C1813.01 3327.74 1797.29 3203.33 1826.11 3222.97C1854.93 3242.62 1980.69 3361.79 2075 3254.4C2169.32 3147.02 2179.8 3016.05 2154.91 2982C2131.33 2949.26 1962.35 2917.83 1962.35 2917.83Z" fill="#485D30"/>
<path d="M1391.2 2712.22C1391.2 2712.22 1376.79 2751.51 1391.2 2765.92C1405.61 2780.32 1429.19 2789.49 1461.94 2788.18C1495.99 2785.56 1524.81 2818.3 1554.94 2807.82C1585.07 2797.35 1672.84 2717.46 1696.42 2741.03C1720 2764.61 1757.99 2799.97 1805.15 2779.01C1852.31 2756.75 1902.09 2760.68 1906.02 2798.66C1909.95 2836.64 1976.76 2896.88 1995.1 2816.99C2013.44 2735.8 2006.89 2708.29 2033.09 2716.15C2059.28 2724.01 2257.09 2708.29 2238.75 2625.79C2220.41 2543.28 1926.98 2460.78 1926.98 2460.78L1523.5 2433.27L1391.2 2712.22Z" fill="#67852F"/>
<path d="M1429.19 2767.23L1391.2 2840.57L1434.43 2874.62L1340.11 2923.07L1455.39 3014.74C1455.39 3014.74 1533.98 2971.53 1556.25 2991.17C1578.52 3009.51 1754.06 3014.74 1782.88 2771.16C1811.7 2527.57 1603.41 2705.67 1603.41 2705.67L1429.19 2767.23Z" fill="#B0C44E"/>
<path d="M1636.16 2376.96L1658.43 2515.78C1658.43 2515.78 1896.85 2695.2 1909.95 2641.5C1923.05 2587.81 1944.01 2500.06 1959.73 2538.04C1975.45 2576.02 2220.41 2641.5 2229.58 2598.28C2238.75 2553.76 2132.64 2407.08 2132.64 2407.08C2132.64 2407.08 2292.46 2413.63 2305.56 2362.55C2318.66 2312.79 2078.93 2297.07 2078.93 2297.07C2078.93 2277.43 1890.3 2344.22 1881.13 2312.79C1860.17 2246 1705.59 2256.47 1670.22 2341.6C1636.16 2424.11 1636.16 2376.96 1636.16 2376.96Z" fill="#829F41"/>
<path d="M1380.72 2232.9L1178.98 2276.12L1329.63 2472.56V2549.83L1214.35 2541.97L1391.2 2718.77C1391.2 2718.77 1482.89 2649.36 1475.03 2560.31L1561.49 2501.37C1561.49 2501.37 1561.49 2541.97 1585.07 2552.45C1608.65 2562.92 1725.24 2573.4 1654.5 2401.84C1585.07 2230.28 1670.22 2240.76 1670.22 2240.76L1380.72 2232.9Z" fill="#B0C44E"/>
<path d="M1473.72 2070.51C1473.72 2070.51 1252.34 2170.04 1181.6 2130.75C1110.86 2091.46 1163.26 2214.57 1262.82 2201.47C1362.38 2188.37 1473.73 2172.66 1418.71 2196.23C1363.69 2219.8 1262.82 2290.52 1292.95 2293.14C1321.77 2295.76 1514.33 2222.42 1506.47 2261.71C1498.61 2301 1480.27 2374.34 1522.19 2350.77C1564.11 2327.19 1655.81 2280.05 1632.23 2314.1C1608.65 2348.15 1587.69 2424.1 1621.75 2416.25C1655.81 2408.39 1777.64 2257.78 1816.94 2272.19C1856.24 2285.29 1879.82 2374.34 1913.88 2337.67C1947.94 2301 2132.64 2319.34 2132.64 2319.34C2132.64 2319.34 1999.03 2211.95 2030.47 2217.19C2061.91 2222.42 2223.03 2261.71 2249.23 2206.71C2275.43 2151.7 2069.76 2177.9 2027.85 1995.86C1984.62 1815.13 1473.72 2070.51 1473.72 2070.51Z" fill="#516633"/>
<path d="M1778.95 1080.44C1778.95 1080.44 1533.98 1464.15 1478.96 1472.01C1423.95 1479.87 1286.4 1547.97 1317.84 1579.4C1349.28 1610.83 1448.84 1592.5 1448.84 1592.5C1448.84 1592.5 1292.95 1660.6 1330.94 1689.41C1368.93 1718.22 1461.93 1747.03 1461.93 1747.03C1461.93 1747.03 1311.29 1807.27 1328.32 1836.09C1344.04 1864.9 1502.54 1864.9 1502.54 1864.9C1502.54 1864.9 1289.02 1969.67 1299.5 1985.38C1309.98 2001.1 1425.26 2090.15 1435.74 2069.2C1446.22 2048.24 1433.12 2027.29 1475.03 2027.29C1516.95 2027.29 1911.26 2006.34 1778.95 1080.44Z" fill="#B0C44E"/>
<path d="M1784.19 1080.44C1784.19 1080.44 1839.21 1925.14 1604.72 1980.14C1370.24 2035.15 1440.98 2098.01 1473.72 2098.01C1505.16 2098.01 1702.97 1985.38 1700.35 2022.05C1697.73 2058.72 1684.63 2084.91 1721.31 2063.96C1757.99 2043.01 1820.87 1956.57 1820.87 1956.57C1820.87 1956.57 1826.11 2082.29 1857.55 2040.39C1888.99 1998.48 1915.19 1993.24 1915.19 2019.43C1915.19 2045.63 1957.11 2063.96 1972.83 2045.63C1988.55 2027.29 2019.99 2069.2 2048.8 2069.2C2077.62 2069.2 2190.28 2056.1 2132.64 1982.76C2075 1909.42 1999.03 1854.42 1999.03 1854.42C1999.03 1854.42 2127.4 1885.85 2122.16 1833.47C2116.92 1781.08 1996.41 1664.53 2030.47 1675C2064.52 1685.48 2202.07 1695.96 2186.35 1651.43C2170.63 1606.9 2107.75 1549.28 2107.75 1549.28C2107.75 1549.28 2209.93 1512.61 2199.45 1468.08C2188.97 1423.56 2040.94 1557.14 2043.56 1499.51C2046.18 1441.89 2095.96 1376.41 2080.24 1343.67C2064.52 1312.24 1959.73 1456.3 1921.74 1367.24C1887.68 1278.19 1784.19 1080.44 1784.19 1080.44Z" fill="#829F41"/>
<path d="M1657.12 2919.14C1657.12 2919.14 1320.46 2963.67 1357.14 3160.11C1393.82 3356.55 1571.97 3275.36 1611.27 3327.74C1650.57 3380.13 1894.23 3564.78 1907.33 3545.14C1919.12 3525.5 1899.47 3292.38 1959.73 3260.95C2018.68 3226.9 1818.25 2862.83 1657.12 2919.14Z" fill="#67852F"/>
<path d="M1585.07 3119.51C1585.07 3119.51 1264.13 3224.28 1264.13 3288.45C1264.13 3352.63 1416.09 3833.26 1488.14 3841.11C1560.18 3848.97 1744.89 3921 1744.89 3921C1744.89 3921 1874.58 3511.09 1958.42 3435.13C2043.57 3356.55 1585.07 3119.51 1585.07 3119.51Z" fill="#B0C44E"/>
<path d="M1906.02 4185.54C1906.02 4185.54 1633.54 4417.35 1633.54 4442.23C1633.54 4467.11 1672.84 4540.45 1683.32 4515.57C1693.8 4490.68 1765.85 4454.01 1806.46 4454.01C1847.07 4454.01 1862.79 4442.23 1874.58 4405.56C1886.37 4368.89 1886.37 4393.77 1926.98 4337.46C1967.59 4281.15 1906.02 4185.54 1906.02 4185.54Z" fill="#6D8639"/>
<path d="M2054.05 4112.2C2054.05 4112.2 1617.82 4402.94 1612.58 4433.06C1607.34 4467.11 1657.12 4569.26 1737.03 4569.26C1816.94 4569.26 2042.26 4429.13 2046.19 4456.63C2050.12 4484.14 2038.33 4536.52 2126.09 4509.02C2213.86 4481.52 2490.27 4196.02 2406.43 4277.22C2322.59 4358.41 2106.44 4617.72 2242.68 4613.79C2378.92 4609.86 2555.77 4533.9 2575.42 4569.26C2595.07 4605.93 2752.26 4528.66 2767.98 4473.66C2783.7 4418.66 2695.93 4666.17 2756.19 4662.25C2816.45 4658.32 3073.21 4430.44 3036.53 4101.73C3036.53 4101.73 2956.62 4226.14 2919.94 4129.23C2883.26 4033.63 2791.56 3969.46 2703.79 3985.17C2616.03 4000.89 2047.5 4118.75 2047.5 4118.75" fill="#89A044"/>
<path d="M1275.92 4713.32C1275.92 4713.32 715.248 4954.29 799.087 5005.37C882.925 5056.44 1196.01 4997.51 1168.5 5021.08C1140.99 5044.65 975.934 5097.04 1080.73 5116.68C1185.53 5136.33 1372.86 5036.8 1365 5108.83C1357.14 5180.85 1296.88 5233.24 1353.21 5225.38C1409.54 5217.52 1607.34 5137.64 1653.19 5197.88C1697.73 5258.12 1839.21 5166.45 1830.04 5153.35C1822.18 5141.57 1845.76 5285.62 1909.95 5269.91C1974.14 5254.19 1966.28 5182.16 1966.28 5182.16C1966.28 5182.16 2038.33 5254.19 2071.08 5238.48C2102.51 5222.76 2043.57 5078.7 2043.57 5078.7C2043.57 5078.7 2207.31 5214.9 2232.2 5191.33C2255.78 5167.76 2164.08 5027.63 2164.08 5027.63C2164.08 5027.63 2268.88 5099.66 2284.6 5076.09C2300.32 5052.51 2192.9 4924.17 2192.9 4924.17C2192.9 4924.17 2344.86 5032.87 2397.26 5015.84C2449.66 4998.82 2449.66 4959.53 2449.66 4959.53C2449.66 4959.53 2554.46 4955.6 2549.22 4915C2545.29 4874.4 2432.63 4790.59 2317.35 4786.66C2198.14 4781.42 1275.92 4713.32 1275.92 4713.32Z" fill="#365837"/>
<path d="M3315.55 2801.28C3315.55 2801.28 3295.9 3190.23 3424.28 3226.9C3552.66 3263.57 3560.52 3154.87 3560.52 3154.87C3560.52 3154.87 3307.69 3487.52 3412.49 3467.87C3517.29 3448.23 3589.34 3372.27 3589.34 3372.27C3589.34 3372.27 3557.9 3588.36 3605.06 3564.78C3653.53 3541.21 3753.09 3428.58 3753.09 3428.58C3753.09 3428.58 3692.83 3753.37 3757.02 3761.23C3821.21 3769.09 4109.4 3391.91 4109.4 3391.91C4109.4 3391.91 4214.2 3615.86 4282.32 3572.64C4350.44 3528.11 4377.95 3387.99 4350.44 3315.96C4322.93 3243.93 4274.46 3199.4 4301.97 3179.76C4329.48 3160.11 4370.09 3127.37 4333.41 3115.58C4296.73 3103.8 4321.62 3095.94 4353.06 3071.06C4384.5 3047.48 4312.45 2843.18 4197.17 2839.26C4080.58 2835.33 4121.19 2938.79 4041.28 2915.21C3961.37 2891.64 3818.59 2700.44 3818.59 2700.44C3818.59 2700.44 3451.79 2950.57 3315.55 2801.28Z" fill="#698548"/>
<path d="M4274.46 2930.93C4274.46 2930.93 4178.83 2923.07 4169.66 2882.47C4161.8 2841.87 4132.98 2886.4 4138.22 2927C4142.15 2967.6 4110.71 2983.31 4110.71 2983.31C4110.71 2983.31 4062.24 3051.41 4098.92 3055.34C4135.6 3059.27 4207.65 3127.37 4219.44 3092.01C4231.23 3055.34 4163.11 3016.05 4203.72 3012.12C4243.02 3006.89 4270.53 2946.64 4274.46 2930.93Z" fill="#4D6543"/>
<path d="M4227.3 3779.56C4227.3 3779.56 4094.99 3606.69 4135.6 3602.76C4176.21 3598.83 4316.38 3775.63 4359.61 3750.75C4404.15 3727.18 4391.05 3659.08 4423.8 3674.79C4455.24 3690.51 4647.8 3810.99 4651.73 3871.23C4655.66 3931.48 4832.51 4003.51 4780.11 4034.94C4727.71 4068.99 4848.23 4224.83 4227.3 3779.56Z" fill="#365837"/>
<path d="M3774.05 4368.89C3774.05 4368.89 3633.88 4958.22 3721.65 4901.91C3809.42 4845.59 3982.33 4553.55 4034.73 4541.76C4087.13 4529.97 4322.93 4846.9 4347.82 4786.66C4371.4 4726.42 4351.75 4514.26 4384.5 4574.5C4415.94 4634.74 4656.97 4879.64 4660.9 4802.37C4664.83 4725.11 4653.04 4650.46 4653.04 4650.46C4653.04 4650.46 4913.73 4866.55 4937.31 4819.4C4960.89 4770.94 4656.97 4523.43 4656.97 4523.43C5069.61 4564.02 5174.41 4367.58 5174.41 4330.91C5174.41 4294.24 4701.51 4258.88 4674 4243.17C4646.49 4227.45 4625.53 4215.66 4545.62 4223.52C4465.71 4231.38 4481.43 4299.48 4481.43 4323.05C4481.43 4346.63 4421.18 4282.46 4304.59 4227.45C4188 4171.14 4135.6 4351.87 4067.48 4375.44C3999.36 4399.01 4019.01 4198.64 4075.34 4023.15C4131.67 3847.66 3979.71 3939.34 3919.45 3931.48C3859.2 3923.62 3971.85 3859.45 3991.5 3750.75C4011.15 3642.05 3767.5 3879.09 3767.5 3879.09L3774.05 4368.89Z" fill="#375335"/>
<path d="M3682.35 1944.78C3682.35 1944.78 3382.36 2335.05 3282.8 2328.5C3183.25 2321.96 3164.91 2498.75 3257.91 2498.75C3350.92 2498.75 3350.92 2498.75 3350.92 2498.75C3350.92 2498.75 3189.8 2576.02 3239.57 2616.62C3289.35 2657.22 3373.19 2591.74 3373.19 2591.74C3373.19 2591.74 3354.85 2684.72 3441.31 2648.05C3527.77 2611.38 3552.66 2573.4 3552.66 2573.4C3552.66 2573.4 3518.6 2632.33 3593.27 2625.79C3667.94 2619.24 3856.57 2350.77 3850.02 2424.11C3843.47 2498.75 3850.02 2680.79 3902.42 2665.08C3954.82 2649.36 4097.61 2467.32 4097.61 2365.17C4097.61 2263.02 4206.34 1881.92 4113.33 1881.92C4020.32 1883.23 3682.35 1944.78 3682.35 1944.78Z" fill="#65864A"/>
<path d="M4036.04 5.23848C4036.04 5.23848 3933.86 271.091 3720.34 460.986C3720.34 460.986 3726.89 560.517 3881.46 529.086C3881.46 529.086 3757.01 715.052 3643.05 736.006C3529.08 756.96 3772.73 853.872 3772.73 853.872C3772.73 853.872 3574.93 921.972 3580.17 992.692C3585.41 1063.41 3732.13 1060.79 3732.13 1060.79C3732.13 1060.79 3557.9 1152.47 3573.62 1204.85C3589.34 1257.23 3753.08 1232.35 3753.08 1232.35C3753.08 1232.35 3501.57 1393.44 3471.44 1393.44C3441.31 1393.44 3505.5 1523.09 3623.4 1464.15C3623.4 1464.15 3440 1640.95 3409.87 1650.12C3379.74 1659.29 3437.38 1777.15 3573.62 1702.51C3709.86 1627.86 3716.41 1643.57 3716.41 1643.57C3716.41 1643.57 3546.11 1854.42 3605.06 1857.04C3664.01 1859.66 3688.9 1798.11 3688.9 1798.11C3688.9 1798.11 3722.96 1940.86 3825.13 1884.54C3927.31 1828.23 4079.27 1714.29 4088.44 1633.1C4097.61 1553.21 4122.5 1115.8 4122.5 982.215C4122.5 848.633 4041.28 0 4041.28 0L4036.04 5.23848Z" fill="#65864A"/>
<path d="M4041.28 0C4041.28 0 4029.49 654.81 3978.4 739.935C3927.31 825.06 3916.83 881.374 3916.83 881.374C3916.83 881.374 4042.59 779.224 4047.83 886.612C4053.07 994.001 4127.74 1148.54 4087.13 1141.99C4047.83 1136.75 4081.89 1153.77 3990.19 1233.66C3898.49 1313.55 3813.35 1272.95 3853.96 1342.36C3893.25 1410.46 4036.04 1354.15 4047.83 1439.27C4059.62 1524.4 4093.68 1677.62 4059.62 1689.41C4025.56 1701.2 4020.32 1667.15 3962.68 1728.7C3906.35 1791.56 3746.54 1893.71 3729.51 1837.4C3712.48 1781.08 3729.51 1745.72 3729.51 1745.72C3729.51 1745.72 3637.81 1854.42 3644.36 1808.58C3650.91 1762.75 3632.57 1830.85 3530.39 1854.42C3428.21 1876.68 3411.18 1927.76 3445.24 1968.36C3479.3 2008.96 3615.54 2002.41 3615.54 2031.22C3615.54 2060.03 3717.72 2053.48 3741.3 2019.43C3763.57 1985.38 3814.66 2002.41 3867.05 2014.19C3918.14 2025.98 4054.38 1883.23 4071.41 1940.86C4088.44 1997.17 4025.56 2430.65 3998.05 2447.68C3970.54 2464.7 4089.75 2396.6 4083.2 2486.97C4076.65 2577.33 4151.32 2754.13 4163.11 2623.17C4174.9 2492.21 4197.17 2407.08 4214.2 2458.16C4231.23 2509.23 4328.17 2594.36 4328.17 2509.23C4328.17 2424.11 4714.61 2746.27 4755.22 2642.81C4794.52 2540.66 4607.19 2468.63 4607.19 2468.63C4607.19 2468.63 4810.24 2483.04 4793.21 2409.7C4776.18 2336.36 4472.26 2150.4 4518.11 2053.48C4563.96 1956.57 4687.1 2046.94 4709.37 1927.76C4731.64 1808.58 4380.57 1712.98 4414.63 1613.45C4452.61 1502.13 4683.17 1623.93 4729.02 1533.56C4774.87 1441.89 4320.31 1314.86 4366.16 1189.13C4412.01 1063.41 4609.81 1295.21 4626.84 1227.11C4643.87 1159.01 4307.21 983.524 4307.21 983.524C4307.21 983.524 4423.8 963.88 4423.8 924.591C4423.8 885.303 4270.53 783.152 4270.53 783.152C4270.53 783.152 4400.22 738.625 4354.37 687.55C4308.52 636.475 4211.58 619.45 4211.58 619.45C4211.58 619.45 4325.55 563.136 4303.28 510.752C4281.01 458.367 4430.35 578.852 4400.22 515.99C4346.51 408.601 4033.42 14.4058 4041.28 0Z" fill="#4C663C"/>
<path d="M2133.95 3460.01C2133.95 3460.01 1861.48 3551.69 1888.99 3608C1916.5 3664.32 1993.79 3695.75 1993.79 3695.75C1993.79 3695.75 1953.18 3715.39 1985.93 3723.25C2018.68 3731.11 2085.48 3715.39 2085.48 3715.39C2085.48 3715.39 1937.46 3875.16 1900.78 3879.09C1864.1 3883.02 1744.89 4155.42 1760.61 4219.59C1776.33 4283.77 1797.29 4324.36 1865.41 4307.34C1933.53 4291.62 2050.12 4046.72 2081.55 4079.46C2112.99 4112.21 1964.97 4295.55 2101.2 4307.34C2237.44 4319.12 2365.82 4122.68 2381.54 4186.85C2397.26 4251.02 2249.23 4486.76 2369.75 4463.18C2490.27 4439.61 2546.6 4358.41 2546.6 4387.23C2546.6 4416.04 2538.74 4459.25 2614.72 4439.61C2690.69 4419.97 3107.27 4050.65 2951.38 3750.75C2795.49 3452.16 2133.95 3460.01 2133.95 3460.01Z" fill="#ACC147"/>
<path d="M1906.02 3339.53C1906.02 3339.53 1913.88 3257.02 1865.41 3441.68C1816.94 3626.34 1581.14 3996.96 1717.38 4000.89C1853.62 4004.82 2022.61 3932.79 2126.09 3748.13C2126.09 3748.13 1874.58 3786.11 1958.42 3698.37C2042.26 3610.62 2050.12 3588.36 2065.84 3604.07C2081.56 3619.79 2097.27 3755.99 2186.35 3724.56C2274.12 3693.13 2274.12 3693.13 2274.12 3693.13C2274.12 3693.13 2161.46 3845.04 2217.79 3866C2274.12 3886.95 2338.31 3805.75 2338.31 3805.75C2338.31 3805.75 2274.12 3974.69 2334.38 3949.81C2394.64 3926.24 2450.97 3765.16 2450.97 3793.97C2450.97 3821.47 2454.9 3898.74 2482.41 3898.74C2509.92 3898.74 2513.85 3966.84 2505.99 4007.44C2498.13 4048.03 2566.25 4083.39 2610.79 4055.89C2655.33 4028.39 2779.77 3855.52 2791.56 3935.41C2803.35 4015.29 2731.3 4083.39 2803.35 4071.61C2875.4 4059.82 2887.19 3947.19 2887.19 3947.19L3019.5 4015.29C3019.5 4015.29 3067.97 3501.92 2710.34 3509.78C2710.34 3509.78 2702.48 3673.48 2654.02 3694.44C2605.55 3714.08 2613.41 3491.45 2581.97 3509.78C2418.22 3609.31 2433.94 3457.4 2365.82 3405.01C2297.7 3352.63 1941.39 3298.93 1906.02 3339.53Z" fill="#8DA24E"/>
<path d="M121.828 4916.31C121.828 4916.31 85.1484 5025.01 183.397 4970.01C281.645 4916.31 514.821 4793.21 514.821 4793.21C514.821 4793.21 457.182 4958.22 508.271 4955.6C559.36 4952.98 677.258 4807.61 681.188 4827.26C685.118 4846.9 717.868 4973.93 787.296 4935.96C858.035 4897.98 927.464 4815.47 927.464 4815.47C927.464 4815.47 1025.71 4967.39 1079.42 4925.48C1133.13 4883.57 1117.41 4815.47 1150.16 4828.57C1182.91 4842.97 1260.2 4985.72 1311.29 4938.57C1361.07 4892.74 1337.49 4829.88 1359.76 4833.8C1382.03 4837.73 1465.86 5030.25 1510.4 4973.93C1554.94 4917.62 1540.53 4823.33 1540.53 4823.33C1540.53 4823.33 1886.37 4993.58 1909.95 4955.6C1933.53 4917.62 1869.34 4807.61 1869.34 4807.61C1869.34 4807.61 1923.05 4882.26 1947.94 4835.11C1971.52 4789.28 1940.08 4752.61 1940.08 4752.61C1940.08 4752.61 2004.27 4827.26 2026.54 4789.28C2048.8 4751.3 1958.42 4691.06 1958.42 4691.06L844.935 4461.87L124.448 4912.38L121.828 4916.31Z" fill="#365837"/>
<path d="M305.225 4469.73C305.225 4469.73 39.2996 4664.86 18.3399 4683.2C-2.61972 4701.53 -7.85963 4736.89 26.1998 4735.58C61.5692 4734.27 127.068 4705.46 134.928 4739.51C142.788 4773.56 193.877 4759.16 209.597 4747.37C226.626 4735.58 301.295 4700.22 280.335 4729.03C258.066 4757.85 103.488 4912.38 146.718 4912.38C189.947 4912.38 499.102 4687.13 504.342 4714.63C509.582 4743.44 472.902 4891.43 510.892 4878.33C548.881 4865.24 679.879 4691.06 698.218 4736.89C716.558 4781.42 708.698 4901.9 770.267 4858.69C831.836 4815.47 872.445 4676.65 940.564 4714.63C1008.68 4752.61 1061.08 4878.33 1087.28 4836.42C1113.48 4794.52 1105.62 4697.6 1140.99 4714.63C1176.36 4731.65 1285.09 4912.38 1299.5 4871.78C1313.91 4831.19 1292.95 4748.68 1336.18 4764.39C1379.41 4780.11 1501.23 4938.57 1503.85 4896.67C1505.16 4854.76 1420.02 4738.2 1467.18 4731.65C1514.33 4725.11 1877.2 4924.17 1886.37 4890.12C1896.85 4856.07 1752.75 4725.11 1785.5 4726.42C1819.56 4727.73 2014.75 4806.3 2027.85 4764.39C2040.95 4722.49 1675.46 4473.66 1675.46 4473.66L1245.79 4239.24L1009.99 4063.75L305.225 4469.73Z" fill="#507844"/>
<path d="M400.854 4417.34C400.854 4417.34 96.9391 4696.29 75.9794 4696.29C55.0198 4696.29 153.268 4719.87 206.977 4670.1C260.686 4621.65 455.873 4408.18 455.873 4408.18L400.854 4417.34Z" fill="#779951"/>
<path d="M1617.82 4503.78C1617.82 4503.78 1887.68 4752.61 1951.87 4736.89C2016.06 4721.18 1683.32 4540.45 1683.32 4514.26C1683.32 4489.37 1617.82 4503.78 1617.82 4503.78Z" fill="#779951"/>
<path d="M133.618 4205.19C133.618 4205.19 128.379 4277.22 224.007 4248.41C319.635 4219.59 455.873 4179 455.873 4198.64C455.873 4218.28 248.897 4361.03 260.686 4396.39C272.476 4431.75 324.875 4501.16 365.485 4456.64C406.094 4412.11 451.943 4366.27 455.873 4409.49C461.113 4452.71 517.442 4509.02 569.841 4461.87C622.24 4414.73 746.688 4325.67 770.268 4354.49C793.847 4383.3 817.427 4412.11 856.726 4385.92C894.716 4359.72 969.384 4266.74 985.104 4290.31C1002.13 4313.89 1231.38 4433.06 1231.38 4433.06C1231.38 4433.06 1420.02 4602 1458.01 4552.24C1496 4502.47 1478.97 4497.23 1507.79 4499.85C1536.6 4502.47 1574.59 4490.69 1574.59 4456.64C1574.59 4423.89 1607.34 4540.45 1664.98 4494.61C1722.62 4448.78 1795.98 4277.22 1793.36 4244.48C1790.74 4211.74 1740.96 4172.45 1772.4 4172.45C1803.84 4172.45 1858.86 4192.09 1860.17 4139.71C1861.48 4087.32 1915.19 4122.68 1924.36 4092.56C1933.53 4061.13 1936.15 4006.13 1869.34 3982.55C1802.53 3958.98 466.353 3884.33 466.353 3884.33L311.775 4116.13L133.618 4205.19Z" fill="#365837"/>
<path d="M425.743 3848.97C425.743 3848.97 155.888 3944.57 116.588 3944.57C77.2891 3944.57 32.7498 3979.93 73.3591 3993.03C113.968 4006.13 231.866 4038.87 238.416 4045.41C244.966 4051.96 153.268 4020.53 176.847 4051.96C201.737 4083.39 261.996 4089.94 261.996 4100.42C261.996 4110.9 127.068 4148.87 142.788 4173.76C158.508 4198.64 478.142 4072.92 470.282 4114.82C461.113 4156.73 407.403 4173.76 419.193 4189.47C430.983 4205.19 445.393 4222.21 408.713 4245.79C372.034 4268.05 235.796 4378.06 273.786 4380.68C311.775 4383.3 471.592 4282.46 472.902 4317.82C474.212 4353.18 489.932 4410.8 542.331 4358.41C594.73 4306.03 653.679 4257.57 653.679 4257.57C653.679 4257.57 617 4329.6 657.609 4311.27C698.219 4294.24 803.017 4180.31 804.327 4202.57C805.637 4224.83 758.477 4306.03 803.017 4300.79C846.246 4295.55 907.815 4114.82 948.424 4117.44C989.034 4120.06 1089.9 4371.51 1121.34 4326.98C1152.78 4283.76 1105.62 4189.47 1135.75 4189.47C1165.88 4189.47 1296.88 4444.85 1329.63 4402.94C1362.38 4361.03 1344.04 4277.22 1344.04 4277.22C1344.04 4277.22 1460.63 4438.3 1510.4 4412.11C1558.87 4385.92 1520.88 4326.98 1520.88 4326.98C1520.88 4326.98 1662.36 4472.35 1720 4434.37C1777.64 4396.39 1847.07 4273.29 1823.49 4264.12C1799.91 4253.64 1315.22 4110.9 1399.06 4110.9C1482.9 4110.9 1785.5 4241.86 1781.57 4194.71C1777.64 4147.56 1658.43 4095.18 1701.66 4097.8C1744.89 4100.42 1830.04 4143.64 1813.01 4101.73C1794.67 4059.82 1757.99 4032.32 1813.01 4034.94C1868.03 4037.56 1929.6 4053.27 1928.29 4016.6C1925.67 3981.24 1570.66 3888.26 1530.05 3774.32C1488.14 3661.7 508.272 3773.01 508.272 3773.01L425.743 3848.97Z" fill="#507844"/>
<path d="M458.493 3859.45C458.493 3859.45 192.568 3951.12 243.657 3958.98C294.746 3966.84 379.894 3981.24 408.714 3944.57C437.533 3907.91 458.493 3859.45 458.493 3859.45Z" fill="#779951"/>
<path d="M1511.71 3860.76C1511.71 3860.76 1693.8 4010.05 1747.51 4010.05C1801.22 4010.05 1870.65 4028.39 1827.42 3994.34C1784.19 3960.29 1577.21 3858.14 1561.49 3855.52C1545.77 3852.9 1511.71 3860.76 1511.71 3860.76Z" fill="#779951"/>
<path d="M191.257 3535.97C191.257 3535.97 151.958 3602.76 197.807 3609.31C243.656 3615.86 381.204 3566.09 381.204 3566.09C381.204 3566.09 196.497 3800.52 261.996 3812.3C327.495 3824.09 415.263 3796.59 433.603 3810.99C453.253 3824.09 471.592 3859.45 499.102 3851.59C526.611 3843.73 572.461 3876.47 605.21 3867.31C637.96 3858.14 666.779 3871.24 683.809 3888.26C700.839 3905.29 809.567 3944.57 915.675 3828.02C915.675 3828.02 972.004 3901.36 1013.92 3869.93C1055.84 3838.49 1049.29 3804.44 1083.35 3813.61C1118.72 3822.78 1266.75 3936.72 1298.19 3906.59C1329.63 3875.16 1347.97 3858.14 1370.24 3864.69C1391.2 3869.93 1448.84 3889.57 1448.84 3859.45C1448.84 3829.33 1558.87 3900.05 1564.11 3855.52C1569.35 3810.99 1518.26 3757.3 1554.94 3762.54C1591.62 3767.78 1734.41 3867.31 1751.44 3818.85C1768.47 3770.39 1670.22 3644.67 1670.22 3644.67C1670.22 3644.67 1734.41 3664.32 1734.41 3619.79C1734.41 3575.26 472.902 3504.54 472.902 3504.54L178.157 3535.97H191.257Z" fill="#365837"/>
<path d="M442.773 3348.7C442.773 3348.7 176.848 3505.85 191.258 3535.97C205.667 3566.09 386.444 3533.35 381.204 3566.09C375.964 3598.83 242.347 3748.13 267.236 3755.99C292.126 3763.85 424.434 3783.49 487.313 3685.27C487.313 3685.27 454.563 3779.56 506.962 3771.7C559.361 3763.85 644.51 3636.81 641.89 3665.62C639.27 3693.13 617 3820.16 661.54 3812.3C707.389 3804.44 788.607 3642.05 788.607 3665.62C788.607 3689.2 753.238 3841.11 816.117 3807.06C878.996 3774.32 902.575 3647.29 919.605 3663.01C937.945 3678.72 954.975 3787.42 1003.44 3761.23C1051.91 3736.34 1008.68 3617.17 1038.81 3617.17C1068.94 3617.17 1144.92 3833.26 1173.74 3784.8C1201.25 3736.34 1143.61 3655.15 1178.98 3660.39C1214.35 3665.62 1303.43 3835.88 1341.42 3801.83C1379.41 3769.08 1321.77 3660.39 1321.77 3660.39C1321.77 3660.39 1481.59 3807.06 1497.31 3758.61C1513.03 3710.15 1513.03 3682.65 1513.03 3682.65C1513.03 3682.65 1702.97 3862.07 1740.96 3786.11C1778.95 3710.15 1634.85 3618.48 1634.85 3618.48C1634.85 3618.48 1764.54 3659.08 1754.06 3588.36C1743.58 3517.64 1429.19 3336.91 1429.19 3336.91L960.214 3171.9L442.773 3348.7Z" fill="#507844"/>
<path d="M475.522 3359.17C475.522 3359.17 224.007 3526.81 307.845 3533.35C343.215 3535.97 529.232 3346.08 529.232 3346.08L475.522 3359.17Z" fill="#779951"/>
<path d="M1463.25 3450.85C1463.25 3450.85 1410.85 3377.51 1439.67 3390.6C1468.49 3403.7 1721.31 3572.64 1708.21 3581.81C1693.8 3589.67 1497.31 3505.85 1463.25 3450.85Z" fill="#779951"/>
<path d="M347.144 3123.44C347.144 3123.44 337.974 3191.54 391.683 3192.85C445.392 3194.16 335.354 3267.5 361.554 3313.34C387.753 3359.17 503.031 3334.29 552.81 3329.05C601.28 3323.81 724.417 3384.06 746.687 3415.49C768.957 3446.92 934.014 3399.77 947.114 3319.89C960.214 3240 999.513 3335.6 1025.71 3344.77C1051.91 3353.94 1169.81 3457.39 1193.39 3422.04C1216.97 3386.68 1232.69 3368.34 1252.34 3377.51C1270.68 3386.68 1362.38 3382.75 1362.38 3360.48C1362.38 3338.22 1444.91 3393.22 1456.69 3365.72C1468.48 3338.22 1454.08 3309.41 1454.08 3309.41C1454.08 3309.41 1578.52 3357.86 1609.96 3327.74C1641.4 3297.62 1616.51 3257.02 1616.51 3257.02L1526.12 3166.66C1526.12 3166.66 1586.38 3204.64 1616.51 3187.61C1646.64 3170.59 1641.4 3105.11 1578.52 3097.25C1515.64 3089.39 1321.77 2896.88 1321.77 2896.88L598.66 2929.62L347.144 3123.44Z" fill="#365837"/>
<path d="M614.38 2903.43C614.38 2903.43 313.085 3097.25 345.834 3119.51C378.584 3141.78 506.962 3141.78 506.962 3141.78C506.962 3141.78 345.834 3232.14 365.484 3279.29C386.444 3326.43 615.69 3221.66 615.69 3221.66C615.69 3221.66 585.56 3287.14 623.55 3285.83C661.539 3284.52 730.968 3170.59 744.068 3186.3C757.167 3200.71 729.658 3298.93 761.097 3298.93C792.537 3298.93 864.586 3177.14 872.445 3203.33C880.305 3229.52 850.176 3329.05 889.475 3315.96C928.774 3302.86 964.144 3173.21 987.723 3187.61C1009.99 3202.02 1053.22 3318.58 1082.04 3292.38C1110.86 3266.19 1087.28 3174.52 1110.86 3179.76C1133.13 3184.99 1240.55 3327.74 1262.82 3295C1285.09 3260.95 1210.42 3178.45 1236.62 3179.76C1262.82 3181.07 1367.62 3314.65 1387.27 3297.62C1405.61 3280.6 1382.03 3220.35 1392.51 3225.59C1404.3 3230.83 1551.01 3356.55 1617.82 3283.22C1685.94 3209.88 1501.23 3162.73 1501.23 3162.73C1501.23 3162.73 1612.58 3191.54 1616.51 3145.71C1620.44 3101.18 1340.11 2904.74 1340.11 2904.74L614.38 2903.43Z" fill="#507844"/>
<path d="M1461.94 3162.73C1461.94 3162.73 1510.4 3241.31 1531.36 3245.24C1552.32 3249.17 1552.32 3216.42 1461.94 3162.73Z" fill="#779951"/>
<path d="M627.48 2925.69C627.48 2925.69 389.064 3090.7 423.123 3097.25C457.183 3102.49 561.981 3094.63 627.48 2925.69Z" fill="#779951"/>
<path d="M1300.81 2968.91C1300.81 2968.91 1464.56 3132.61 1531.36 3123.44C1599.48 3114.27 1328.32 2945.33 1328.32 2945.33L1300.81 2968.91Z" fill="#779951"/>
<path d="M517.441 2755.44C517.441 2755.44 457.182 2777.7 465.042 2815.68C474.212 2853.66 552.811 2839.25 552.811 2839.25C552.811 2839.25 482.072 2930.93 531.851 2933.55C581.63 2936.17 658.919 2896.88 658.919 2896.88C658.919 2896.88 635.339 2958.43 677.258 2962.36C720.488 2966.29 753.237 2980.69 776.817 2985.93C800.396 2991.17 1002.13 2947.95 1007.37 2906.05C1012.61 2864.14 1049.29 2991.17 1084.66 2970.22C1121.34 2949.26 1192.08 2959.74 1205.18 2970.22C1219.59 2980.69 1285.09 2964.98 1282.47 2947.95C1281.16 2930.93 1319.15 2920.45 1336.18 2921.76C1353.21 2923.07 1465.87 2917.83 1463.25 2889.02C1461.94 2860.21 1385.96 2809.13 1385.96 2809.13L969.383 2665.08L517.441 2755.44Z" fill="#365837"/>
<path d="M720.487 2555.07C720.487 2555.07 487.311 2763.3 496.481 2777.7C505.651 2792.11 571.15 2801.28 571.15 2801.28C571.15 2801.28 517.441 2840.56 539.711 2856.28C561.98 2872 677.258 2851.04 677.258 2851.04C677.258 2851.04 622.239 2898.19 640.579 2911.28C658.919 2925.69 797.776 2790.8 797.776 2790.8C797.776 2790.8 754.547 2930.93 796.466 2923.07C838.385 2916.52 893.405 2815.68 893.405 2815.68C893.405 2815.68 876.375 2903.43 907.814 2891.64C939.254 2879.85 982.483 2751.51 996.893 2760.68C1012.61 2769.85 1058.46 2900.81 1083.35 2882.47C1106.93 2865.45 1104.31 2810.44 1104.31 2810.44C1104.31 2810.44 1178.98 2929.62 1198.63 2904.74C1219.59 2881.16 1216.97 2792.11 1216.97 2792.11C1216.97 2792.11 1282.47 2889.02 1298.19 2868.07C1313.91 2847.11 1307.36 2813.06 1307.36 2813.06C1307.36 2813.06 1438.36 2899.5 1450.15 2877.23C1461.93 2854.97 1402.99 2816.99 1402.99 2816.99C1402.99 2816.99 1435.74 2823.54 1435.74 2796.04C1435.74 2768.54 1213.04 2540.66 1213.04 2540.66L1047.98 2500.06L725.727 2534.11L720.487 2555.07Z" fill="#507844"/>
<path d="M770.267 2556.38C770.267 2556.38 516.131 2768.54 529.231 2772.46C542.331 2776.39 618.309 2746.27 664.158 2712.22C700.838 2683.41 770.267 2556.38 770.267 2556.38Z" fill="#779951"/>
<path d="M1176.36 2562.93C1176.36 2562.93 1303.43 2752.82 1359.76 2752.82C1358.45 2752.82 1231.38 2527.57 1176.36 2562.93Z" fill="#779951"/>
<path d="M1258.89 2376.96C1290.33 2434.58 1344.04 2502.68 1334.87 2526.26C1302.12 2615.31 1143.61 2507.92 1143.61 2507.92C1143.61 2507.92 1143.61 2530.18 1078.11 2564.23C1012.61 2598.28 991.653 2501.37 991.653 2501.37C991.653 2501.37 948.424 2523.64 909.125 2560.31C869.826 2596.98 713.938 2534.11 713.938 2534.11C605.21 2564.23 623.55 2477.8 623.55 2477.8L689.049 2396.6C687.739 2396.6 1198.63 2434.58 1258.89 2376.96Z" fill="#305234"/>
<path d="M973.314 1909.42C973.314 1909.42 707.388 2396.6 672.019 2412.32C636.65 2428.03 617 2490.9 626.17 2490.9C635.34 2490.9 691.669 2468.63 691.669 2468.63C691.669 2468.63 708.698 2459.46 713.938 2479.11C717.868 2498.75 775.507 2443.75 775.507 2443.75C775.507 2443.75 745.378 2496.13 766.337 2494.82C788.607 2492.21 841.006 2448.99 841.006 2448.99C841.006 2448.99 856.726 2526.26 877.686 2526.26C898.645 2526.26 919.605 2421.49 919.605 2421.49C919.605 2421.49 922.225 2456.85 948.424 2454.23C974.624 2451.61 987.724 2417.56 987.724 2417.56C987.724 2417.56 1000.82 2483.04 1029.64 2479.11C1058.46 2475.18 1058.46 2434.58 1058.46 2434.58C1058.46 2434.58 1087.28 2486.97 1117.41 2480.42C1147.54 2473.87 1130.51 2405.77 1130.51 2405.77C1130.51 2405.77 1244.48 2523.64 1289.02 2509.23C1333.56 2493.52 1308.67 2454.23 1308.67 2454.23C1308.67 2454.23 977.244 1990.62 973.314 1909.42Z" fill="#507844"/>
<path d="M713.938 2404.46C713.938 2404.46 961.524 2050.86 964.144 2015.5C966.764 1980.14 1232.69 2405.77 1265.44 2445.06C1290.33 2475.18 1160.64 2366.48 1047.98 2218.49C884.236 2002.41 970.694 2069.2 970.694 2069.2C970.694 2069.2 846.246 2404.46 713.938 2404.46Z" fill="#779951"/>
<path d="M2581.97 711.123C2581.97 711.123 2769.29 1718.22 2778.46 1846.56C2787.63 1974.91 2906.84 2154.32 2906.84 2264.33C2906.84 2375.65 2974.96 2640.19 2950.07 2665.08C2923.87 2691.27 3027.36 2938.79 2984.13 2963.67C2940.9 2989.86 3069.28 3432.51 3001.16 3415.49C2933.04 3398.46 2916.01 3262.26 2881.95 3262.26C2847.89 3262.26 2745.71 3253.09 2719.51 3228.21C2693.31 3202.02 2796.8 3092.01 2685.45 3057.96C2574.11 3023.91 2318.66 3040.94 2343.55 2955.81C2368.44 2870.69 2564.94 2307.55 2599 2366.48C2633.06 2426.72 2650.08 2682.1 2676.28 2604.83C2702.48 2527.57 2727.37 2502.68 2761.43 2400.53C2795.49 2298.38 2957.93 2247.31 2838.72 2238.14C2719.51 2228.97 2600.31 2221.11 2591.14 2160.87C2581.97 2100.63 2642.23 1998.48 2564.94 2058.72C2487.65 2118.96 2487.65 2118.96 2487.65 2118.96C2487.65 2118.96 2564.94 1863.59 2606.86 1897.64C2650.08 1931.69 2616.03 2050.86 2650.08 1999.79C2684.14 1948.71 2761.43 1820.37 2684.14 1803.35C2606.86 1786.32 2564.94 1786.32 2581.97 1718.22C2599 1650.12 2530.88 1692.03 2496.82 1606.9C2462.76 1521.78 2419.53 1240.21 2453.59 1196.99C2487.65 1155.08 2581.97 711.123 2581.97 711.123Z" fill="#889E43"/>
<path d="M2629.12 1069.96C2629.12 1069.96 2651.39 1307 2678.9 1396.05C2706.41 1483.8 2833.48 1876.68 2850.51 1859.66C2867.54 1842.63 2773.22 1655.36 2800.73 1644.88C2828.24 1634.4 2773.22 1462.84 2740.47 1418.32C2707.72 1373.79 2735.23 1396.05 2750.95 1335.81C2766.67 1275.57 2811.21 1119.72 2629.12 1069.96Z" fill="#516633"/>
<path d="M2568.87 565.756C2568.87 565.756 2433.94 1240.21 2373.68 1275.57C2312.11 1310.93 2212.55 1523.09 2356.65 1523.09C2356.65 1523.09 2225.65 1710.36 2261.02 1706.43C2296.39 1702.51 2382.85 1663.22 2347.48 1697.27C2312.11 1732.63 2216.48 1871.45 2268.88 1871.45C2321.28 1871.45 2430.01 1828.23 2430.01 1828.23C2430.01 1828.23 2177.18 2176.59 2164.08 2236.83C2150.98 2298.38 2381.54 2145.16 2381.54 2145.16L2023.92 2815.68C2023.92 2815.68 2033.09 2907.36 2110.37 2841.87C2188.97 2776.39 2297.7 2671.62 2297.7 2671.62C2297.7 2671.62 1777.64 3304.17 1886.37 3378.82C1995.1 3453.47 2095.96 3509.78 2182.42 3465.25C2268.88 3422.04 2343.55 3281.91 2343.55 3281.91C2343.55 3281.91 2257.09 3478.35 2330.45 3456.09C2405.12 3433.82 2487.65 3312.03 2487.65 3312.03C2487.65 3312.03 2409.05 3442.99 2470.62 3420.73C2532.19 3398.46 2710.34 3242.62 2749.64 3164.04C2788.94 3085.46 2727.37 2785.56 2597.69 2819.61C2466.69 2854.97 2554.46 2336.36 2593.76 2424.11C2633.06 2510.54 2668.42 2733.18 2715.58 2680.79C2762.74 2628.41 2737.85 2510.54 2764.05 2555.07C2790.25 2598.29 2833.48 2616.62 2838.72 2559C2842.65 2502.68 2764.05 2463.39 2803.35 2371.72C2842.65 2280.05 2838.72 2071.82 2720.82 2162.18C2602.93 2253.86 2585.9 2087.53 2659.26 2053.48C2732.61 2019.43 2777.15 1870.14 2672.35 1692.03C2567.56 1513.92 2537.43 1547.97 2580.66 1487.73C2623.89 1426.18 2706.41 1369.86 2616.03 1283.43C2524.33 1196.99 2520.4 1113.18 2580.66 1100.08C2578.04 1101.39 2707.72 703.266 2568.87 565.756Z" fill="#ACC147"/>
<path d="M2999.85 2041.7C2999.85 2041.7 2897.67 2519.71 3016.88 2750.2C3136.09 2980.69 3067.97 3305.48 3077.14 3415.49C3086.31 3526.8 3137.4 3714.08 3179.32 3723.25C3222.55 3732.42 3341.75 4021.84 3349.61 4082.08C3357.47 4142.33 3392.84 4560.09 3349.61 4567.95C3306.38 4575.81 3247.44 4704.15 3375.81 4662.25C3504.19 4619.03 3597.2 4526.04 3614.23 4388.53C3631.26 4251.02 3546.11 3859.45 3409.87 3816.23C3409.87 3816.23 3453.1 3782.18 3443.93 3704.91C3434.76 3627.65 3409.87 3431.2 3366.64 3321.19C3323.41 3209.88 3204.21 2988.55 3162.29 2877.23C3119.06 2765.92 3239.58 2697.82 3153.12 2586.5C3067.97 2477.8 2914.7 2187.06 2999.85 2041.7Z" fill="#516631"/>
<path d="M3657.46 2016.81C3657.46 2016.81 3708.55 2094.08 3776.66 2077.06C3844.78 2060.03 3776.66 2137.3 3861.81 2145.16C3946.96 2154.32 4075.34 2060.03 4100.23 1999.79C4126.43 1939.55 4134.29 1956.57 4074.03 1914.66C4013.77 1871.45 4013.77 1863.59 3954.82 1897.64C3895.87 1931.69 3700.69 2007.65 3657.46 2016.81Z" fill="#3A5239"/>
</svg>
