<svg width="160" height="68" viewBox="0 0 160 68" fill="none" xmlns="http://www.w3.org/2000/svg">
<g clip-path="url(#clip0_661_6560)">
<path d="M78.9642 26.0998C77.5614 24.2909 75.7894 23.368 73.7221 23.368C72.7992 23.368 71.9501 23.5526 71.1749 23.8848C70.3996 24.254 69.7351 24.697 69.1445 25.3246C68.5907 25.9153 68.1477 26.6536 67.8155 27.5027C67.4832 28.3517 67.3356 29.2377 67.3356 30.1976C67.3356 31.1943 67.4832 32.1172 67.8155 32.9294C68.1477 33.7784 68.5907 34.4799 69.1445 35.1074C69.7351 35.735 70.3996 36.2149 71.1749 36.5472C71.9501 36.9163 72.7992 37.064 73.6852 37.064C75.6418 37.064 77.4137 36.178 78.9642 34.4429V42.0846L78.3366 42.3061C77.4137 42.6753 76.5277 42.9337 75.7156 43.0814C74.9034 43.229 74.0913 43.3398 73.316 43.3398C71.6917 43.3398 70.1412 43.0075 68.6276 42.38C67.151 41.7155 65.822 40.8295 64.6776 39.6482C63.5332 38.4668 62.6103 37.064 61.9458 35.4766C61.2444 33.8523 60.9121 32.0803 60.9121 30.1976C60.9121 28.2779 61.2444 26.5428 61.9458 24.9185C62.6103 23.3311 63.5332 21.9652 64.6776 20.7839C65.822 19.6395 67.151 18.7166 68.6276 18.089C70.1412 17.4245 71.6917 17.1292 73.3529 17.1292C74.2758 17.1292 75.1988 17.2399 76.1217 17.4245C77.0446 17.646 77.9675 17.9413 79.0011 18.3843V26.0998H78.9642Z" fill="white"/>
<path d="M95.7981 24.1802C95.1336 23.6265 94.4691 23.1835 93.8046 22.9251C93.1401 22.6667 92.4756 22.519 91.848 22.519C91.0728 22.519 90.4083 22.7036 89.8914 23.1097C89.3746 23.5157 89.1531 24.0326 89.1531 24.6601C89.1531 25.1031 89.2639 25.4723 89.5223 25.7307C89.7807 26.0261 90.1129 26.2476 90.519 26.469C90.9251 26.6905 91.3681 26.8751 91.8849 27.0228C92.4017 27.1705 92.9186 27.355 93.3985 27.5027C95.392 28.2041 96.8686 29.1639 97.7915 30.3084C98.7145 31.4897 99.1944 33.0033 99.1944 34.9229C99.1944 36.215 98.9729 37.3594 98.5668 38.393C98.1607 39.4267 97.5701 40.3127 96.7948 41.051C96.0196 41.7894 95.0597 42.3431 93.9153 42.7492C92.7709 43.1553 91.4788 43.3768 90.0391 43.3768C87.0489 43.3768 84.2801 42.4539 81.7329 40.5711L84.354 35.3659C85.2769 36.215 86.1629 36.8795 87.0858 37.2856C87.9718 37.6916 88.8578 37.9131 89.7438 37.9131C90.7405 37.9131 91.4788 37.6547 91.9957 37.1748C92.4756 36.6949 92.734 36.1411 92.734 35.5136C92.734 35.1444 92.6602 34.8122 92.5494 34.5537C92.4387 34.2953 92.2172 34.0369 91.9218 33.7785C91.6265 33.557 91.2573 33.3355 90.7774 33.1509C90.2975 32.9663 89.7438 32.7448 89.0793 32.4864C88.304 32.228 87.4919 31.9327 86.7535 31.6004C85.9783 31.2682 85.3138 30.8621 84.7231 30.3453C84.1325 29.8284 83.6526 29.1639 83.2834 28.3518C82.9142 27.5396 82.7297 26.5429 82.7297 25.2877C82.7297 24.0695 82.9142 22.9251 83.3203 21.9283C83.6895 20.9316 84.2432 20.0825 84.9446 19.3442C85.6461 18.6428 86.4951 18.089 87.4919 17.6829C88.4886 17.2769 89.633 17.0923 90.8882 17.0923C92.0695 17.0923 93.2877 17.2769 94.5429 17.6091C95.7981 17.9414 97.0532 18.4582 98.1976 19.1227L95.7981 24.1802Z" fill="white"/>
<path d="M102 42.6753L106.024 17.7937H112.078L116.803 31.0467L121.492 17.7937H127.546L131.57 42.6753H125.479L123.448 28.3518L117.874 42.6753H115.438L110.159 28.3518L108.128 42.6753H102Z" fill="white"/>
<path d="M142.239 29.4224L134.893 17.7937H142.461L145.635 24.2172L149.586 17.7937H157.153L149.364 29.4224L158.15 42.6753H150.656L145.931 34.5537L140.393 42.6753H132.973L142.239 29.4224Z" fill="white"/>
<path d="M7.93719 60.5798V61.9088C7.2727 61.3551 6.6082 61.0966 5.90679 61.0966C5.13155 61.0966 4.50397 61.392 3.95022 61.9088C3.43339 62.4626 3.13806 63.127 3.13806 63.9392C3.13806 64.7145 3.39648 65.3789 3.95022 65.9327C4.46705 66.4864 5.13155 66.7449 5.90679 66.7449C6.31287 66.7449 6.64512 66.671 6.90353 66.5603C7.0512 66.4864 7.23578 66.4126 7.38345 66.3019C7.56803 66.1911 7.71569 66.0434 7.90028 65.8958V67.2617C7.23578 67.6308 6.57129 67.8154 5.86987 67.8154C4.7993 67.8154 3.87639 67.4463 3.13806 66.7079C2.39973 65.9696 1.99365 65.0467 1.99365 63.9761C1.99365 63.0163 2.3259 62.1672 2.95348 61.4289C3.72872 60.506 4.72547 60.063 5.98062 60.063C6.64512 60.0261 7.30961 60.2107 7.93719 60.5798Z" fill="white"/>
<path d="M8.93408 65.2683C8.93408 64.6038 9.1925 64.0131 9.67241 63.5332C10.1523 63.0533 10.743 62.8318 11.4444 62.8318C12.1458 62.8318 12.7365 63.0902 13.2533 63.5701C13.7332 64.05 13.9916 64.6407 13.9916 65.3421C13.9916 66.0435 13.7332 66.6342 13.2533 67.1141C12.7734 67.594 12.1458 67.8155 11.4444 67.8155C10.743 67.8155 10.1523 67.5571 9.67241 67.0772C9.15558 66.5973 8.93408 65.9697 8.93408 65.2683ZM10.0416 65.2683C10.0416 65.7482 10.1523 66.1173 10.4107 66.3758C10.6692 66.6711 11.0014 66.7818 11.4444 66.7818C11.8874 66.7818 12.2196 66.6342 12.4781 66.3758C12.7365 66.1173 12.8472 65.7482 12.8472 65.2683C12.8472 64.8253 12.7365 64.4561 12.4781 64.1608C12.2196 63.8654 11.8874 63.7547 11.4444 63.7547C11.0383 63.7547 10.7061 63.9024 10.4477 64.1608C10.1892 64.493 10.0416 64.8253 10.0416 65.2683Z" fill="white"/>
<path d="M15.1357 62.9425H16.2432V63.3855C16.6124 63.0164 17.0554 62.8318 17.5353 62.8318C18.0891 62.8318 18.5321 63.0164 18.8274 63.3486C19.0858 63.644 19.2335 64.1239 19.2335 64.7884V67.6678H18.126V65.0099C18.126 64.5299 18.0521 64.2346 17.9414 64.05C17.8306 63.8654 17.5722 63.7916 17.24 63.7916C16.8708 63.7916 16.6124 63.9024 16.4647 64.1608C16.3171 64.3823 16.2432 64.8253 16.2432 65.4159V67.7048H15.1357V62.9425Z" fill="white"/>
<path d="M24.2544 63.1272V64.5669C23.996 64.2716 23.7745 64.0501 23.59 63.9393C23.4054 63.8286 23.1839 63.7547 22.8885 63.7547C22.4825 63.7547 22.1502 63.9024 21.8549 64.1977C21.5965 64.4931 21.4488 64.8622 21.4488 65.2683C21.4488 65.7113 21.5965 66.0805 21.8549 66.3758C22.1133 66.6711 22.4455 66.8188 22.8516 66.8188C23.11 66.8188 23.3315 66.745 23.553 66.6342C23.7376 66.5235 23.9591 66.302 24.2544 66.0066V67.4464C23.8114 67.6679 23.3685 67.7786 22.9255 67.7786C22.1871 67.7786 21.5965 67.5571 21.0796 67.0772C20.5997 66.5973 20.3413 66.0066 20.3413 65.3052C20.3413 64.6038 20.5997 64.0132 21.0796 63.5332C21.5595 63.0533 22.1871 62.7949 22.9255 62.7949C23.4054 62.7949 23.8484 62.9057 24.2544 63.1272Z" fill="white"/>
<path d="M25.325 62.9426H26.4325V63.3487C26.6171 63.1272 26.8017 62.9795 26.9493 62.9057C27.097 62.8318 27.2816 62.7949 27.5031 62.7949C27.7984 62.7949 28.0937 62.9057 28.3891 63.0902L27.8722 64.087C27.6507 63.9393 27.4662 63.8655 27.2816 63.8655C26.6909 63.8655 26.3956 64.3085 26.3956 65.2314V67.6679H25.2881V62.9426H25.325Z" fill="white"/>
<path d="M33.2617 65.5636H29.8654C29.9023 65.9696 30.0131 66.265 30.2346 66.4865C30.4561 66.708 30.7514 66.8187 31.0836 66.8187C31.3421 66.8187 31.5636 66.7449 31.7481 66.6341C31.9327 66.4865 32.1173 66.265 32.3388 65.9327L33.2617 66.4495C33.114 66.708 32.9664 66.8925 32.8187 67.0771C32.6711 67.2617 32.4865 67.4094 32.3019 67.5201C32.1173 67.6309 31.9327 67.7047 31.7112 67.7785C31.4897 67.8155 31.2682 67.8524 31.0098 67.8524C30.3084 67.8524 29.7547 67.6309 29.3117 67.1879C28.8687 66.7449 28.6841 66.1173 28.6841 65.379C28.6841 64.6406 28.9056 64.0131 29.3117 63.5701C29.7177 63.1271 30.2715 62.8687 30.9729 62.8687C31.6743 62.8687 32.2281 63.0902 32.6341 63.5331C33.0402 63.9761 33.2248 64.5668 33.2248 65.379L33.2617 65.5636ZM32.1542 64.6406C32.0066 64.05 31.6374 63.7546 31.0467 63.7546C30.8991 63.7546 30.7883 63.7916 30.6776 63.8285C30.5668 63.8654 30.4561 63.9392 30.3453 64.0131C30.2346 64.0869 30.1607 64.1976 30.0869 64.2715C30.0131 64.3453 29.9762 64.493 29.9392 64.6406H32.1542Z" fill="white"/>
<path d="M35.6616 63.9394V67.631H34.5541V63.9394H34.0742V62.9057H34.5541V61.1707H35.6616V62.9057H36.5107V63.9394H35.6616Z" fill="white"/>
<path d="M37.1011 65.2683C37.1011 64.6038 37.3595 64.0131 37.8394 63.5332C38.3193 63.0533 38.91 62.8318 39.6114 62.8318C40.3128 62.8318 40.9035 63.0902 41.4203 63.5701C41.9002 64.05 42.1586 64.6407 42.1586 65.3421C42.1586 66.0435 41.9002 66.6342 41.4203 67.1141C40.9404 67.594 40.3128 67.8155 39.6114 67.8155C38.91 67.8155 38.3193 67.5571 37.8394 67.0772C37.3595 66.5973 37.1011 65.9697 37.1011 65.2683ZM38.2455 65.2683C38.2455 65.7482 38.3562 66.1173 38.6146 66.3758C38.8731 66.6711 39.2053 66.7818 39.6483 66.7818C40.0913 66.7818 40.4235 66.6342 40.682 66.3758C40.9404 66.1173 41.0511 65.7482 41.0511 65.2683C41.0511 64.8253 40.9404 64.4561 40.682 64.1608C40.4235 63.8654 40.0913 63.7547 39.6483 63.7547C39.2422 63.7547 38.91 63.9024 38.6516 64.1608C38.3562 64.493 38.2455 64.8253 38.2455 65.2683Z" fill="white"/>
<path d="M46.0719 63.7178L45.1859 64.1977C45.0382 63.9024 44.8536 63.7547 44.6691 63.7547C44.5583 63.7547 44.4845 63.7917 44.4106 63.8655C44.3368 63.9393 44.2999 64.0132 44.2999 64.1239C44.2999 64.3085 44.5214 64.4931 44.9275 64.6777C45.5181 64.9361 45.8873 65.1576 46.1088 65.3791C46.2934 65.6006 46.4041 65.859 46.4041 66.2281C46.4041 66.6711 46.2195 67.0772 45.8873 67.3726C45.555 67.6679 45.149 67.8155 44.706 67.8155C43.9307 67.8155 43.3401 67.4464 43.0078 66.6711L43.9307 66.2281C44.0784 66.4496 44.1522 66.5973 44.2261 66.6711C44.3737 66.7819 44.5214 66.8557 44.706 66.8557C45.0751 66.8557 45.2597 66.6711 45.2597 66.3389C45.2597 66.1543 45.112 65.9697 44.8167 65.7851C44.706 65.7482 44.5952 65.6744 44.4845 65.6375C44.3737 65.6006 44.263 65.5267 44.1522 65.4898C43.82 65.3421 43.5985 65.1945 43.4877 65.0099C43.3401 64.8253 43.2293 64.5669 43.2293 64.2347C43.2293 63.8286 43.377 63.4963 43.6354 63.201C43.9307 62.9426 44.263 62.7949 44.6691 62.7949C45.2966 62.7949 45.7765 63.1272 46.0719 63.7178Z" fill="white"/>
<path d="M54.858 61.2814L53.9351 61.8352C53.7505 61.5398 53.6029 61.3553 53.4552 61.2445C53.3075 61.1338 53.086 61.0969 52.8276 61.0969C52.4954 61.0969 52.2369 61.1707 52.0524 61.3553C51.8309 61.5398 51.757 61.7613 51.757 62.0198C51.757 62.3889 52.0154 62.6843 52.5692 62.9058L53.3075 63.2011C53.8982 63.4595 54.3781 63.7548 54.6365 64.0871C54.9318 64.4562 55.0426 64.8623 55.0426 65.3792C55.0426 66.0806 54.8211 66.6343 54.3412 67.0773C53.8613 67.5203 53.3075 67.7418 52.6061 67.7418C51.9416 67.7418 51.4248 67.5572 50.9818 67.1511C50.5757 66.782 50.3173 66.2282 50.2065 65.5268L51.351 65.2684C51.3879 65.7114 51.4986 66.0067 51.6094 66.1913C51.8309 66.5236 52.2 66.6712 52.643 66.6712C53.0122 66.6712 53.2706 66.5605 53.529 66.3021C53.7874 66.0437 53.8613 65.7483 53.8613 65.4161C53.8613 65.2684 53.8243 65.1207 53.7874 65.01C53.7505 64.8992 53.6767 64.7885 53.6029 64.6777C53.529 64.567 53.4183 64.4932 53.2706 64.3824C53.1229 64.3086 52.9753 64.1978 52.7907 64.124L52.0524 63.8287C51.0187 63.3857 50.5019 62.7581 50.5019 61.909C50.5019 61.3553 50.7234 60.8754 51.1295 60.5062C51.5724 60.137 52.0893 59.9155 52.7538 59.9155C53.7136 60.0263 54.3781 60.4324 54.858 61.2814Z" fill="white"/>
<path d="M57.2945 62.9426V65.6375C57.2945 66.4128 57.5898 66.8188 58.2174 66.8188C58.845 66.8188 59.1403 66.4128 59.1403 65.6375V62.9426H60.2478V65.6744C60.2478 66.0436 60.2109 66.3759 60.1002 66.6712C60.0263 66.9296 59.8417 67.1511 59.6202 67.3357C59.2511 67.6679 58.7712 67.8156 58.2174 67.8156C57.6637 67.8156 57.1838 67.6679 56.8146 67.3357C56.5931 67.1511 56.4454 66.9296 56.3347 66.6712C56.2608 66.4497 56.187 66.1174 56.187 65.6744V62.9426H57.2945Z" fill="white"/>
<path d="M64.3824 63.7178L63.4964 64.1977C63.3488 63.9024 63.1642 63.7547 62.9796 63.7547C62.8688 63.7547 62.795 63.7917 62.7212 63.8655C62.6473 63.9393 62.6104 64.0132 62.6104 64.1239C62.6104 64.3085 62.8319 64.4931 63.238 64.6777C63.8287 64.9361 64.1978 65.1576 64.4193 65.3791C64.6039 65.6006 64.7147 65.859 64.7147 66.2281C64.7147 66.6711 64.5301 67.0772 64.1978 67.3726C63.8656 67.6679 63.4595 67.8155 63.0165 67.8155C62.2413 67.8155 61.6506 67.4464 61.3184 66.6711L62.2413 66.2281C62.3889 66.4496 62.4628 66.5973 62.5366 66.6711C62.6843 66.7819 62.8319 66.8557 63.0165 66.8557C63.3857 66.8557 63.5703 66.6711 63.5703 66.3389C63.5703 66.1543 63.4226 65.9697 63.1273 65.7851C63.0165 65.7482 62.9058 65.6744 62.795 65.6375C62.6843 65.6006 62.5735 65.5267 62.4628 65.4898C62.1305 65.3421 61.909 65.1945 61.7983 65.0099C61.6506 64.8253 61.5399 64.5669 61.5399 64.2347C61.5399 63.8286 61.6875 63.4963 61.9459 63.201C62.2413 62.9426 62.5735 62.7949 62.9796 62.7949C63.6072 62.7949 64.0871 63.1272 64.3824 63.7178Z" fill="white"/>
<path d="M66.7817 63.9394V67.631H65.6742V63.9394H65.1943V62.9057H65.6742V61.1707H66.7817V62.9057H67.6308V63.9394H66.7817Z" fill="white"/>
<path d="M72.7622 65.5636H69.3659C69.4028 65.9696 69.5136 66.265 69.7351 66.4865C69.9566 66.708 70.2519 66.8187 70.5841 66.8187C70.8426 66.8187 71.0641 66.7449 71.2486 66.6341C71.4332 66.4865 71.6178 66.265 71.8393 65.9327L72.7622 66.4495C72.6145 66.708 72.4669 66.8925 72.3192 67.0771C72.1715 67.2617 71.987 67.4094 71.8024 67.5201C71.6178 67.6309 71.4332 67.7047 71.2117 67.7785C70.9902 67.8155 70.7687 67.8524 70.5103 67.8524C69.8089 67.8524 69.2551 67.6309 68.8121 67.1879C68.3692 66.7449 68.1846 66.1173 68.1846 65.379C68.1846 64.6406 68.4061 64.0131 68.8121 63.5701C69.2182 63.1271 69.772 62.8687 70.4734 62.8687C71.1748 62.8687 71.7285 63.0902 72.1346 63.5331C72.5407 63.9761 72.7253 64.5668 72.7253 65.379L72.7622 65.5636ZM71.6547 64.6406C71.507 64.05 71.1379 63.7546 70.5472 63.7546C70.3996 63.7546 70.2888 63.7916 70.1781 63.8285C70.0673 63.8654 69.9566 63.9392 69.8458 64.0131C69.7351 64.0869 69.6612 64.1976 69.5874 64.2715C69.5136 64.3453 69.4766 64.493 69.4397 64.6406H71.6547Z" fill="white"/>
<path d="M73.9438 62.9425H75.0513V63.3855C75.4205 63.0164 75.8635 62.8318 76.3434 62.8318C76.8972 62.8318 77.3402 63.0164 77.6355 63.3486C77.8939 63.644 78.0416 64.1239 78.0416 64.7884V67.6678H76.9341V65.0099C76.9341 64.5299 76.8602 64.2346 76.7495 64.05C76.6387 63.8654 76.3803 63.7916 76.0481 63.7916C75.6789 63.7916 75.4205 63.9024 75.2728 64.1608C75.1252 64.3823 75.0513 64.8253 75.0513 65.4159V67.7048H73.9438V62.9425Z" fill="white"/>
<path d="M80.5518 63.9394V67.631H79.4443V63.9394H78.9644V62.9057H79.4443V61.1707H80.5518V62.9057H81.4008V63.9394H80.5518Z" fill="white"/>
<path d="M85.6833 62.9425H86.7908V67.6678H85.6833V67.1879C85.2403 67.594 84.7604 67.8155 84.2436 67.8155C83.5791 67.8155 83.0623 67.594 82.6193 67.1141C82.2132 66.6342 81.9917 66.0435 81.9917 65.3052C81.9917 64.6038 82.2132 64.0131 82.6193 63.5332C83.0254 63.0533 83.5791 62.8318 84.2067 62.8318C84.7604 62.8318 85.2403 63.0533 85.6833 63.4963V62.9425ZM83.0992 65.2683C83.0992 65.7113 83.2099 66.0804 83.4684 66.3758C83.7268 66.6711 84.0221 66.8188 84.4282 66.8188C84.8343 66.8188 85.1665 66.6711 85.4249 66.4127C85.6833 66.1173 85.7941 65.7482 85.7941 65.3052C85.7941 64.8622 85.6833 64.493 85.4249 64.1977C85.1665 63.9024 84.8343 63.7916 84.4651 63.7916C84.0959 63.7916 83.7637 63.9393 83.5053 64.2346C83.2469 64.493 83.0992 64.8622 83.0992 65.2683Z" fill="white"/>
<path d="M89.264 59.4724V63.4963C89.707 63.0533 90.1869 62.8318 90.7407 62.8318C91.3683 62.8318 91.922 63.0533 92.3281 63.5332C92.7342 64.0131 92.9557 64.6038 92.9557 65.3052C92.9557 66.0435 92.7342 66.6342 92.3281 67.1141C91.922 67.594 91.3683 67.8155 90.7038 67.8155C90.15 67.8155 89.6701 67.594 89.2271 67.1879V67.6679H88.1196V59.4724H89.264ZM91.8482 65.3421C91.8482 64.8991 91.7374 64.53 91.479 64.2346C91.2206 63.9393 90.9253 63.7916 90.5561 63.7916C90.15 63.7916 89.8178 63.9393 89.5594 64.1977C89.301 64.493 89.1902 64.8253 89.1902 65.2683C89.1902 65.7113 89.301 66.0804 89.5594 66.3758C89.8178 66.6711 90.1131 66.7819 90.5192 66.7819C90.8884 66.7819 91.2206 66.6342 91.4421 66.3758C91.7374 66.1174 91.8482 65.7482 91.8482 65.3421Z" fill="white"/>
<path d="M95.2076 59.4724V67.6679H94.1001V59.4724H95.2076Z" fill="white"/>
<path d="M100.93 65.5636H97.5334C97.5703 65.9696 97.681 66.265 97.9025 66.4865C98.124 66.708 98.4194 66.8187 98.7516 66.8187C99.01 66.8187 99.2315 66.7449 99.4161 66.6341C99.6007 66.4865 99.7853 66.265 100.007 65.9327L100.93 66.4495C100.782 66.708 100.634 66.8925 100.487 67.0771C100.339 67.2617 100.154 67.4094 99.9699 67.5201C99.7853 67.6309 99.6007 67.7047 99.3792 67.7785C99.1577 67.8155 98.9362 67.8524 98.6778 67.8524C97.9764 67.8524 97.4226 67.6309 96.9796 67.1879C96.5366 66.7449 96.3521 66.1173 96.3521 65.379C96.3521 64.6406 96.5736 64.0131 96.9796 63.5701C97.3857 63.1271 97.9395 62.8687 98.6409 62.8687C99.3423 62.8687 99.896 63.0902 100.302 63.5331C100.708 63.9761 100.893 64.5668 100.893 65.379L100.93 65.5636ZM99.7853 64.6406C99.6376 64.05 99.2684 63.7546 98.6778 63.7546C98.5301 63.7546 98.4194 63.7916 98.3086 63.8285C98.1979 63.8654 98.0871 63.9392 97.9764 64.0131C97.8656 64.0869 97.7918 64.1976 97.718 64.2715C97.6441 64.3822 97.6072 64.493 97.5703 64.6406H99.7853Z" fill="white"/>
<path d="M104.843 63.7178L103.957 64.1977C103.809 63.9024 103.625 63.7547 103.44 63.7547C103.329 63.7547 103.255 63.7917 103.182 63.8655C103.108 63.9393 103.071 64.0132 103.071 64.1239C103.071 64.3085 103.292 64.4931 103.698 64.6777C104.289 64.9361 104.658 65.1576 104.88 65.3791C105.064 65.6006 105.175 65.859 105.175 66.2281C105.175 66.6711 104.991 67.0772 104.658 67.3726C104.326 67.6679 103.92 67.8155 103.477 67.8155C102.702 67.8155 102.111 67.4464 101.779 66.6711L102.702 66.2281C102.812 66.4496 102.923 66.5973 102.997 66.6711C103.145 66.7819 103.292 66.8557 103.477 66.8557C103.846 66.8557 104.031 66.6711 104.031 66.3389C104.031 66.1543 103.883 65.9697 103.588 65.7851C103.477 65.7482 103.366 65.6744 103.255 65.6375C103.145 65.6006 103.034 65.5267 102.923 65.4898C102.591 65.3421 102.369 65.1945 102.259 65.0099C102.111 64.8253 102 64.5669 102 64.2347C102 63.8286 102.148 63.4963 102.406 63.201C102.702 62.9426 103.034 62.7949 103.44 62.7949C104.105 62.7949 104.548 63.1272 104.843 63.7178Z" fill="white"/>
<path d="M109.162 67.6679L110.75 59.6201L113.334 65.4529L115.992 59.6201L117.394 67.6679H116.25L115.512 63.1272L113.297 68.0001L111.119 63.1272L110.307 67.6679H109.162Z" fill="white"/>
<path d="M123.08 65.5636H119.683C119.72 65.9696 119.831 66.265 120.052 66.4865C120.274 66.708 120.569 66.8187 120.902 66.8187C121.16 66.8187 121.381 66.7449 121.566 66.6341C121.751 66.4865 121.935 66.265 122.157 65.9327L123.08 66.4495C122.932 66.708 122.784 66.8925 122.637 67.0771C122.489 67.2617 122.304 67.4094 122.12 67.5201C121.935 67.6309 121.751 67.7047 121.529 67.7785C121.308 67.8155 121.086 67.8524 120.828 67.8524C120.126 67.8524 119.573 67.6309 119.13 67.1879C118.687 66.7449 118.502 66.1173 118.502 65.379C118.502 64.6406 118.723 64.0131 119.13 63.5701C119.536 63.1271 120.089 62.8687 120.791 62.8687C121.492 62.8687 122.046 63.0902 122.452 63.5331C122.858 63.9761 123.043 64.5668 123.043 65.379L123.08 65.5636ZM121.935 64.6406C121.788 64.05 121.418 63.7546 120.828 63.7546C120.68 63.7546 120.569 63.7916 120.459 63.8285C120.348 63.8654 120.237 63.9392 120.126 64.0131C120.016 64.0869 119.942 64.1976 119.868 64.2715C119.794 64.3822 119.757 64.493 119.72 64.6406H121.935Z" fill="white"/>
<path d="M125.553 65.0836L123.855 62.9055H125.147L126.217 64.2714L127.288 62.9055H128.617L126.882 65.0836L128.912 67.6308H127.62L126.217 65.8588L124.778 67.6308H123.449L125.553 65.0836Z" fill="white"/>
<path d="M129.466 60.949C129.466 60.7644 129.54 60.5798 129.687 60.4691C129.835 60.3214 129.983 60.2476 130.204 60.2476C130.389 60.2476 130.573 60.3214 130.721 60.4691C130.869 60.6167 130.942 60.7644 130.942 60.9859C130.942 61.1705 130.869 61.3551 130.721 61.5027C130.573 61.6504 130.426 61.7242 130.204 61.7242C130.02 61.7242 129.835 61.6504 129.687 61.5027C129.54 61.3181 129.466 61.1705 129.466 60.949ZM130.721 62.9425V67.6678H129.613V62.9425H130.721Z" fill="white"/>
<path d="M135.779 63.1272V64.5669C135.52 64.2716 135.299 64.0501 135.114 63.9393C134.93 63.8286 134.708 63.7547 134.413 63.7547C134.007 63.7547 133.675 63.9024 133.379 64.1977C133.084 64.4931 132.973 64.8622 132.973 65.2683C132.973 65.7113 133.121 66.0805 133.379 66.3758C133.638 66.6711 133.97 66.8188 134.376 66.8188C134.634 66.8188 134.856 66.745 135.077 66.6342C135.262 66.5235 135.484 66.302 135.779 66.0066V67.4464C135.336 67.6679 134.893 67.7786 134.45 67.7786C133.712 67.7786 133.121 67.5571 132.604 67.0772C132.124 66.5973 131.866 66.0066 131.866 65.3052C131.866 64.6038 132.124 64.0132 132.604 63.5332C133.084 63.0533 133.712 62.7949 134.45 62.7949C134.93 62.7949 135.373 62.9057 135.779 63.1272Z" fill="white"/>
<path d="M140.32 62.9425H141.427V67.6678H140.32V67.1879C139.877 67.594 139.397 67.8155 138.88 67.8155C138.215 67.8155 137.698 67.594 137.256 67.1141C136.849 66.6342 136.628 66.0435 136.628 65.3052C136.628 64.6038 136.849 64.0131 137.256 63.5332C137.662 63.0533 138.215 62.8318 138.843 62.8318C139.397 62.8318 139.877 63.0533 140.32 63.4963V62.9425ZM137.735 65.2683C137.735 65.7113 137.846 66.0804 138.105 66.3758C138.363 66.6711 138.658 66.8188 139.064 66.8188C139.47 66.8188 139.803 66.6711 140.061 66.4127C140.32 66.1173 140.43 65.7482 140.43 65.3052C140.43 64.8622 140.32 64.493 140.061 64.1977C139.803 63.9024 139.47 63.7916 139.101 63.7916C138.732 63.7916 138.4 63.9393 138.178 64.2346C137.846 64.493 137.735 64.8622 137.735 65.2683Z" fill="white"/>
<path d="M142.793 62.9425H143.9V63.3855C144.27 63.0164 144.713 62.8318 145.193 62.8318C145.746 62.8318 146.189 63.0164 146.485 63.3486C146.743 63.644 146.891 64.1239 146.891 64.7884V67.6678H145.783V65.0099C145.783 64.5299 145.709 64.2346 145.599 64.05C145.488 63.8654 145.229 63.7916 144.897 63.7916C144.528 63.7916 144.27 63.9024 144.122 64.1608C143.974 64.3823 143.9 64.8253 143.9 65.4159V67.7048H142.793V62.9425Z" fill="white"/>
<path d="M147.998 65.2683C147.998 64.6038 148.256 64.0131 148.736 63.5332C149.216 63.0533 149.807 62.8318 150.508 62.8318C151.21 62.8318 151.8 63.0902 152.317 63.5701C152.797 64.05 153.056 64.6407 153.056 65.3421C153.056 66.0435 152.797 66.6342 152.317 67.1141C151.837 67.594 151.21 67.8155 150.508 67.8155C149.807 67.8155 149.216 67.5571 148.736 67.0772C148.256 66.5973 147.998 65.9697 147.998 65.2683ZM149.142 65.2683C149.142 65.7482 149.253 66.1173 149.512 66.3758C149.77 66.6711 150.102 66.7818 150.545 66.7818C150.988 66.7818 151.321 66.6342 151.579 66.3758C151.837 66.1173 151.948 65.7482 151.948 65.2683C151.948 64.8253 151.837 64.4561 151.579 64.1608C151.321 63.8654 150.988 63.7547 150.545 63.7547C150.139 63.7547 149.807 63.9024 149.549 64.1608C149.253 64.493 149.142 64.8253 149.142 65.2683Z" fill="white"/>
<path d="M156.969 63.7178L156.083 64.1977C155.935 63.9024 155.751 63.7547 155.566 63.7547C155.455 63.7547 155.381 63.7917 155.308 63.8655C155.234 63.9393 155.197 64.0132 155.197 64.1239C155.197 64.3085 155.418 64.4931 155.824 64.6777C156.415 64.9361 156.784 65.1576 157.006 65.3791C157.19 65.6006 157.301 65.859 157.301 66.2281C157.301 66.6711 157.117 67.0772 156.784 67.3726C156.452 67.6679 156.046 67.8155 155.603 67.8155C154.828 67.8155 154.237 67.4464 153.905 66.6711L154.828 66.2281C154.938 66.4496 155.049 66.5973 155.123 66.6711C155.271 66.7819 155.418 66.8557 155.603 66.8557C155.972 66.8557 156.157 66.6711 156.157 66.3389C156.157 66.1543 156.009 65.9697 155.714 65.7851C155.603 65.7482 155.492 65.6744 155.381 65.6375C155.271 65.6006 155.16 65.5267 155.049 65.4898C154.717 65.3421 154.495 65.1945 154.385 65.0099C154.237 64.8253 154.126 64.5669 154.126 64.2347C154.126 63.8286 154.274 63.4963 154.532 63.201C154.828 62.9426 155.16 62.7949 155.566 62.7949C156.231 62.7949 156.674 63.1272 156.969 63.7178Z" fill="white"/>
<path d="M0.18457 52.8643L2.36264 51.24H159.11L157.19 53.6765L0.18457 52.8643Z" fill="white"/>
<path d="M44.189 40.1282C42.417 40.4973 40.645 40.9772 38.8361 41.1618C28.1304 42.1955 18.4952 39.4637 10.0044 32.9295C5.42681 29.3855 2.10433 24.8448 0.184678 19.3812C-0.0368199 18.7536 -0.0368199 17.8676 0.184678 17.24C1.25525 14.5082 2.43658 11.7764 3.47024 9.30298C3.87632 11.7025 4.0609 14.3236 4.79923 16.797C6.7558 23.3312 11.2965 27.835 17.0555 31.2313C22.113 34.2215 27.5766 35.9935 33.4094 36.8795C36.5104 37.3594 39.5376 38.2454 42.6016 38.9838C43.1923 39.1314 43.7091 39.4637 44.2629 39.7221C44.189 39.8698 44.189 39.9805 44.189 40.1282Z" fill="white"/>
<path d="M46.1826 38.7622C46.1826 35.2552 46.1457 31.785 46.2195 28.278C46.2564 26.2476 46.6256 24.1803 46.6625 22.1499C46.8101 15.9848 45.8503 10.0413 42.6755 4.61458C42.5278 4.35617 42.3802 4.09775 42.3433 3.7655C47.6223 7.53098 52.4953 11.5918 54.6733 18.0152C55.0056 19.0489 55.0056 19.9718 54.5626 20.9685C52.1999 26.4691 49.8742 32.0065 47.5485 37.544C47.327 38.1347 47.2531 39.0207 46.1826 38.7622Z" fill="white"/>
<path d="M46.1826 38.7622C45.8134 39.0945 45.4811 39.3898 44.9643 39.8328C37.5441 23.848 27.5398 10.1151 13.1055 0C15.099 0.184582 19.049 1.88274 22.0392 3.76547C29.3487 8.41694 34.7016 14.9142 38.7254 22.4452C41.2727 27.2443 43.2292 32.3757 45.4811 37.3594C45.6657 37.8393 45.9611 38.3192 46.1826 38.7622Z" fill="white"/>
</g>
<defs>
<clipPath id="clip0_661_6560">
<rect width="159.11" height="68" fill="white"/>
</clipPath>
</defs>
</svg>
