<svg width="217" height="32" viewBox="0 0 217 32" fill="none" xmlns="http://www.w3.org/2000/svg">
<g clip-path="url(#clip0_670_6697)">
<path d="M12.7763 25.2528C8.71465 25.2528 5.63887 24.1874 3.35176 21.9383C1.18294 19.8076 -0.0394842 16.4932 -5.11437e-05 12.8237C-5.11437e-05 5.16893 5.36284 0 13.3677 0C16.3252 0 18.6518 0.631319 19.7165 1.18372L19.9925 1.3021L19.9531 8.95684L19.125 7.85203C18.3757 6.82614 15.6549 5.91862 13.3283 6.27374C9.46388 6.8656 7.72882 7.37855 7.17676 12.6264C6.90073 15.3884 7.25563 17.2824 8.24145 18.4661C9.06955 19.4525 10.4497 20.0049 12.3819 20.1628C13.7621 20.2417 13.9198 19.9655 14.1564 19.492C14.1564 19.4525 14.1958 19.4525 14.1958 19.4131L14.3141 15.9803L10.4497 15.783L10.5286 10.6535L20.7023 10.9297V23.7534L20.3868 23.8718C18.6912 24.5425 15.7732 25.2528 12.7763 25.2528ZM13.3677 0.946979C5.79661 0.946979 0.946342 5.60296 0.946342 12.8237C0.906909 16.2565 2.01103 19.3342 4.02212 21.2676C6.11207 23.3194 8.99068 24.3058 12.7763 24.3058C15.4577 24.3058 18.0997 23.7139 19.7953 23.1221V11.8372L11.4355 11.6005L11.3567 14.8755L15.2605 15.1122L15.1028 19.6893L15.0634 19.8076C15.0239 19.8471 15.0239 19.926 14.9845 19.9655C14.6296 20.6757 14.1564 21.2281 12.3425 21.1097C10.1342 20.9519 8.59635 20.3206 7.57109 19.0974C6.3881 17.6769 5.95434 15.5462 6.2698 12.5475C6.8613 6.94451 8.83295 6.03699 13.21 5.36621C15.2211 5.05056 17.6265 5.5635 19.0461 6.54994L19.0855 1.93342C17.9814 1.42047 15.9309 0.946979 13.3677 0.946979Z" fill="white"/>
<path d="M28.8651 25.016H22.6347V12.8631C22.6347 10.4167 22.5952 8.79897 22.4769 7.33904L22.4375 6.82609H27.9976L28.1159 9.233C29.4566 7.29958 31.7437 6.43152 33.6365 6.43152C34.1885 6.43152 34.504 6.47098 34.9772 6.54989L35.3715 6.62881V11.6794L34.8195 11.6004C34.3857 11.5215 33.9519 11.4821 33.3605 11.4821C31.1128 11.4821 29.5354 12.5869 29.0622 14.4019C28.9834 14.757 28.9045 15.1911 28.9045 15.6251V25.016H28.8651ZM23.5811 24.069H27.9581V15.6251C27.9581 15.0727 28.037 14.5598 28.1553 14.1652C28.7074 11.9161 30.679 10.4956 33.3605 10.4956C33.7942 10.4956 34.1097 10.5351 34.4251 10.5746V7.41796C34.1885 7.3785 33.9519 7.3785 33.6365 7.3785C31.7043 7.3785 29.3383 8.44385 28.3525 10.7718L28.2342 11.048H27.3272L27.1695 7.77307H23.5022C23.5811 9.11463 23.6205 10.6535 23.6205 12.8631V24.069H23.5811Z" fill="white"/>
<path d="M42.9429 25.3711C38.6841 25.3711 36.2393 22.4513 36.2393 17.4007V6.86556L43.4555 6.78665V16.6116C43.4555 19.7287 43.7315 20.2022 44.6779 20.2022C44.6779 20.2022 45.0723 20.1627 45.3877 19.8076C45.7821 19.3341 45.9792 18.5055 45.9004 17.4007V17.3612L45.9398 6.74719L53.2743 6.82611V19.3341C53.2743 21.3859 53.3532 23.0826 53.4321 24.4636L53.4715 24.9371L46.9256 25.0555V23.3982C46.2947 24.3847 45.2694 25.3711 42.9429 25.3711ZM37.1462 7.77309V17.4007C37.1462 20.0444 37.8954 24.4241 42.9034 24.4241C45.3089 24.4241 45.9004 23.2799 46.4918 22.1356C46.6101 21.8989 46.7284 21.6621 46.8862 21.4648L46.965 21.3465L47.8326 20.9124V24.069L52.4068 24.0296C52.3279 22.7275 52.2885 21.1492 52.2885 19.3341V7.77309L46.8467 7.69417L46.8073 17.3612C46.9256 18.7423 46.6496 19.7682 46.0581 20.4389C45.4666 21.1097 44.7568 21.1492 44.6779 21.1492C42.5091 21.1492 42.5091 18.9395 42.5091 16.6116V7.73363L37.1462 7.77309Z" fill="white"/>
<path d="M55.877 32V13.0604C55.877 10.7718 55.7981 8.91734 55.7587 7.33904L55.7192 6.86555L62.1863 6.74718V8.75951C63.2509 7.49687 64.6705 6.43152 66.9971 6.43152C71.0587 6.43152 73.5035 9.90378 73.5035 15.6646C73.5035 22.3329 69.2842 25.3711 65.3803 25.3711C63.7241 25.3711 62.896 24.7003 62.2651 23.8323L62.3834 32H55.877ZM56.7051 7.77307C56.7839 9.233 56.8234 10.9691 56.8234 13.0604V31.0924H61.437L61.2793 22.254L61.9102 21.6226L62.4229 22.4118C63.1721 23.635 63.6847 24.4636 65.3803 24.4636C70.3095 24.4636 72.5571 19.926 72.5571 15.704C72.5571 10.4956 70.4672 7.3785 66.9971 7.3785C64.9466 7.3785 63.527 8.28602 62.1468 10.4562L61.2793 11.7977V7.69416L56.7051 7.77307ZM64.2368 22.0172C62.9355 22.0172 61.8314 20.6757 61.5553 18.7817C61.4765 18.4266 61.4765 18.032 61.4765 17.598V15.1122C61.4765 14.6781 61.5553 14.2836 61.5948 14.0074C61.8708 11.995 62.9749 10.614 64.3156 10.614C66.1296 10.614 67.2731 12.8236 67.2731 16.2564C67.2337 19.8076 66.0901 22.0172 64.2368 22.0172ZM64.2762 11.5215C63.4481 11.5215 62.6594 12.6658 62.4623 14.1257C62.3834 14.4808 62.344 14.7965 62.344 15.0727V17.5585C62.344 17.9926 62.3834 18.3082 62.4229 18.6239C62.62 20.0443 63.3692 21.1097 64.1973 21.1097C65.4592 21.1097 66.2873 19.1368 66.2873 16.217C66.3267 13.4549 65.4592 11.5215 64.2762 11.5215Z" fill="white"/>
<path d="M83.7953 25.3711C78.5901 25.3711 74.9229 21.5437 74.9229 16.0197C74.9229 10.2983 78.5901 6.43152 84.0713 6.43152C89.237 6.43152 92.8649 10.2589 92.8649 15.7435C92.8649 22.4118 88.3301 25.3711 83.7953 25.3711ZM84.0713 7.41796C79.1028 7.41796 75.8692 10.8113 75.8692 16.0591C75.8692 21.0702 79.0633 24.4636 83.7953 24.4636C89.4342 24.4636 91.9185 20.0838 91.9185 15.7829C91.9185 10.7718 88.7638 7.41796 84.0713 7.41796ZM83.5981 22.254C81.7842 22.254 80.6406 19.9654 80.6406 16.4143C80.6406 12.1134 82.1785 10.5746 83.6376 10.5746C84.9783 10.5746 86.5556 12.0739 86.5556 16.3353C86.5162 19.8865 85.3332 22.254 83.5981 22.254ZM83.5981 11.5215C82.1785 11.5215 81.5476 14.0468 81.5476 16.4143C81.5476 19.2552 82.4151 21.307 83.5981 21.307C84.7417 21.307 85.6092 19.1763 85.6092 16.3353C85.5698 13.9284 84.8994 11.5215 83.5981 11.5215Z" fill="white"/>
<path d="M95.9014 19.7683C97.2815 20.5969 100.357 22.333 102.526 22.333C105.247 22.333 106.745 21.0309 106.745 19.0975C106.745 17.3219 105.562 16.2565 102.644 15.1517C98.8588 13.7313 96.414 11.6795 96.414 8.24667C96.414 4.37984 99.5686 1.42053 104.577 1.42053C107.061 1.42053 109.742 2.17022 110.965 2.80154L110.728 7.29969C109.9 6.8262 106.667 5.01116 104.498 5.01116C101.816 5.01116 100.673 6.47109 100.673 7.8521C100.673 9.66714 102.013 10.5352 105.089 11.7584C109.111 13.2972 111.044 15.3885 111.044 18.7818C111.044 22.5697 108.244 25.8842 102.29 25.8842C99.8447 25.8842 97.321 25.1739 96.0591 24.4242L95.9014 19.7683Z" fill="white"/>
<path d="M124.254 25.5685L123.978 23.6746H123.859C122.834 25.0161 121.099 25.9631 118.93 25.9631C115.578 25.9631 113.686 23.4773 113.686 20.8731C113.686 16.5328 117.432 14.3626 123.583 14.4021V14.1259C123.583 12.9816 123.149 11.1271 120.192 11.1271C118.536 11.1271 116.091 12.2319 114.947 12.9816L114.869 9.58825C116.091 8.7991 118.26 8.08887 120.902 8.08887C126.225 8.08887 127.803 11.5611 127.803 15.3096V21.5044C127.803 23.0432 127.881 24.5821 128.039 25.608H124.254V25.5685ZM123.702 17.2035C120.705 17.1246 117.865 17.7954 117.865 20.3996C117.865 22.0963 118.93 22.846 120.271 22.846C121.966 22.846 123.189 21.7017 123.544 20.4785C123.662 20.1629 123.662 19.8077 123.662 19.5315V17.2035H123.702Z" fill="white"/>
<path d="M132.258 13.534C132.258 11.5612 132.219 9.90394 132.14 8.44401H135.847L136.044 11.0087H136.162C136.872 9.66719 138.686 8.04944 141.486 8.04944C144.404 8.04944 147.401 9.98285 147.401 15.3885V25.5686H143.142V15.9015C143.142 13.4551 142.235 11.5612 139.948 11.5612C138.252 11.5612 137.109 12.7843 136.675 14.0864C136.557 14.481 136.517 14.994 136.517 15.5069V25.5686H132.258V13.534Z" fill="white"/>
<path d="M164.12 25.0161C163.213 25.4501 161.478 25.8841 159.388 25.8841C154.183 25.8841 150.792 22.4908 150.792 17.164C150.792 12.0345 154.223 8.00989 160.059 8.00989C161.597 8.00989 163.174 8.365 164.12 8.83849L163.371 12.074C162.701 11.7583 161.676 11.4032 160.177 11.4032C156.944 11.4032 155.051 13.8496 155.09 16.9667C155.09 20.4784 157.298 22.4908 160.177 22.4908C161.636 22.4908 162.661 22.1751 163.489 21.82L164.12 25.0161Z" fill="white"/>
<path d="M167.236 0.591919H171.495V10.7719H171.573C172.086 9.98279 172.756 9.31202 173.663 8.79907C174.492 8.32558 175.477 8.00992 176.542 8.00992C179.381 8.00992 182.378 9.94334 182.378 15.4279V25.529H178.159V15.9409C178.159 13.4551 177.252 11.5611 174.925 11.5611C173.269 11.5611 172.126 12.7054 171.652 14.0075C171.534 14.3626 171.495 14.7966 171.495 15.3096V25.529H167.236V0.591919Z" fill="white"/>
<path d="M189.792 18.2295C189.91 21.3071 192.276 22.6487 194.918 22.6487C196.89 22.6487 198.27 22.3725 199.532 21.8595L200.162 24.8583C198.743 25.4502 196.732 25.9237 194.326 25.9237C188.924 25.9237 185.73 22.5303 185.73 17.2825C185.73 12.5476 188.53 8.04944 193.893 8.04944C199.295 8.04944 201.069 12.6265 201.069 16.375C201.069 17.2036 200.991 17.8349 200.951 18.19H189.792V18.2295ZM197.126 15.1912C197.166 13.6129 196.456 11.0087 193.656 11.0087C191.053 11.0087 189.949 13.4551 189.792 15.1912H197.126Z" fill="white"/>
<path d="M202.923 23.0827L209.193 14.8361C210.06 13.7707 210.77 12.9421 211.677 11.9557V11.8768H203.554V8.44397H216.803V11.0876L210.691 19.1369C209.863 20.1628 209.074 21.1493 208.207 22.0568V22.0963H217V25.529H202.923V23.0827Z" fill="white"/>
<path d="M114.829 3.66966L123.701 1.85461L123.662 4.85338L114.79 6.43168L114.829 3.66966Z" fill="white"/>
</g>
<defs>
<clipPath id="clip0_670_6697">
<rect width="217" height="32" fill="white"/>
</clipPath>
</defs>
</svg>
