<svg width="79" height="79" viewBox="0 0 79 79" fill="none" xmlns="http://www.w3.org/2000/svg">
<path d="M79 37.1216C79 38.7019 79 40.2822 79 41.8625C78.8736 42.8581 78.7788 43.8379 78.6366 44.8335C76.2192 61.9958 63.279 75.3969 46.1676 78.4153C44.7456 78.6681 43.3078 78.8103 41.87 79C40.29 79 38.71 79 37.13 79C36.893 78.9526 36.6718 78.8735 36.4348 78.8577C30.4624 78.3994 24.885 76.6295 19.6868 73.6427C5.94079 65.7411 -1.83281 49.8905 0.379186 34.1822C3.38119 12.7373 22.6888 -2.22827 44.1452 0.268626C60.0716 2.1176 73.4068 13.5591 77.5622 29.062C78.2574 31.6853 78.526 34.4351 79 37.1216Z" fill="#88AE55"/>
<path d="M59.329 23.0094C60.6878 23.1358 61.541 23.9418 61.5568 25.3009C61.5884 30.2472 61.5884 35.1936 61.5568 40.14C61.541 41.5623 60.593 42.4315 59.1868 42.4631C57.9228 42.4947 56.6588 42.4473 55.3948 42.4789C54.8576 42.4947 54.6206 42.2734 54.6522 41.7361C54.668 41.262 54.6522 40.788 54.6522 40.3139C54.6364 38.5123 53.8464 37.6905 52.0452 37.6905C45.7094 37.6747 39.3578 37.6905 33.022 37.6905C29.8146 37.6905 26.6072 37.6905 23.384 37.6905C21.3932 37.6905 20.6506 38.4175 20.6348 40.3929C20.619 42.8266 20.8718 42.4473 18.5176 42.4789C17.7276 42.4947 16.9376 42.4947 16.1476 42.4789C14.6624 42.4473 13.746 41.5939 13.746 40.1242C13.7302 35.2094 13.7302 30.2788 13.746 25.3641C13.746 23.9102 14.5992 23.0568 16.0686 23.041C18.17 22.9936 20.2872 23.0252 22.3886 23.0252C27.4604 23.0252 32.548 23.0252 37.6198 23.0252C37.6198 23.0094 37.6198 23.0094 37.6198 22.9936" fill="white"/>
<path d="M37.5882 42.4789C32.6428 42.4789 27.6974 42.4789 22.752 42.4789C21.725 42.4789 21.6934 42.4314 21.6776 41.4042C21.646 38.8125 21.7092 38.7493 24.3004 38.7493C33.3222 38.7493 42.344 38.7493 51.3658 38.7493C51.7134 38.7493 52.0452 38.7335 52.3928 38.7651C53.088 38.8283 53.483 39.2076 53.5462 39.9345C53.7832 42.4947 53.7832 42.4947 51.2394 42.4947C46.689 42.4789 42.1386 42.4789 37.5882 42.4789ZM37.7146 41.1672C37.7146 41.1514 37.7146 41.1514 37.7146 41.1356C41.9806 41.1356 46.2308 41.1356 50.4968 41.1198C50.9392 41.1198 51.6818 41.341 51.6818 40.5983C51.6818 39.8555 50.9392 40.0926 50.4968 40.0926C41.9174 40.0768 33.3538 40.0768 24.7744 40.0768C24.5848 40.0768 24.3794 40.0294 24.2214 40.0926C23.9844 40.219 23.779 40.4244 23.5578 40.5983C23.779 40.7721 23.9844 41.025 24.2372 41.104C24.5532 41.1988 24.9166 41.1514 25.2642 41.1514C29.4038 41.1672 33.5592 41.1672 37.7146 41.1672Z" fill="white"/>
<path d="M61.9202 23.1358C63.753 22.5669 65.2698 23.5783 65.2698 25.3798C65.2856 30.2788 65.2856 35.162 65.2698 40.061C65.2698 41.8625 63.8636 42.8265 61.936 42.3366C62.8682 41.025 62.6154 39.5237 62.6154 38.0698C62.6312 34.3402 62.6312 30.5949 62.6154 26.8653C62.6154 25.5695 62.7734 24.2736 61.9202 23.1358Z" fill="white"/>
<path d="M28.045 48.7685C27.8554 47.7413 27.571 46.9038 26.7494 46.3822C26.5124 46.2242 25.9594 46.161 25.8014 46.319C25.4222 46.6509 25.8646 46.9038 26.07 47.204C26.386 47.6781 26.6862 48.247 26.7336 48.7843C26.7652 49.29 26.4808 49.8431 26.2912 50.3488C26.0226 51.0916 25.6118 51.7869 25.438 52.5455C25.1378 53.9046 25.5328 55.1688 26.4966 56.1802C26.6704 56.3698 27.1286 56.3066 27.4446 56.354C27.3814 56.0538 27.3656 55.7377 27.2392 55.4691C27.097 55.1372 26.8284 54.8527 26.6862 54.5209C26.2122 53.4147 26.4334 52.3716 26.9548 51.3286C27.3814 50.5227 27.6816 49.6219 28.045 48.7685ZM35.5026 48.7369C35.313 47.6465 34.9654 46.7931 34.0648 46.2716C33.8594 46.1452 33.5118 46.2716 33.2274 46.2874C33.2906 46.5561 33.2748 46.9354 33.4486 47.0618C34.365 47.7571 34.4124 48.6421 34.0648 49.6061C33.8436 50.2224 33.5118 50.7913 33.2274 51.3919C32.5164 52.8773 32.7218 54.2996 33.5276 55.6745C33.6856 55.9432 33.9068 56.2118 34.1754 56.3382C34.3808 56.4331 34.681 56.3224 34.9496 56.3066C34.918 56.0696 34.9496 55.8009 34.8548 55.5955C34.6968 55.2794 34.3966 55.0266 34.2386 54.6947C33.6856 53.5569 33.8594 52.4823 34.4124 51.376C34.839 50.5385 35.1392 49.6219 35.5026 48.7369ZM42.8338 49.0846C42.7706 47.7097 42.4862 46.8405 41.6172 46.3348C41.396 46.1926 41.0168 46.3032 40.7008 46.3032C40.7798 46.5877 40.7798 46.9828 40.9694 47.1408C41.7278 47.7729 41.8858 48.5315 41.6014 49.4007C41.3802 50.0486 41.0642 50.6491 40.764 51.2654C40.053 52.7035 40.1478 54.11 40.8746 55.5007C41.0484 55.8167 41.2854 56.1486 41.5698 56.3224C41.7752 56.4489 42.1228 56.3382 42.4072 56.3382C42.3598 56.0854 42.3756 55.8009 42.265 55.5797C42.107 55.2478 41.8226 54.995 41.6804 54.6631C41.1116 53.4621 41.4118 52.3242 41.9806 51.2022C42.3756 50.4121 42.6442 49.5587 42.8338 49.0846ZM47.7002 53.067C47.8582 54.4261 48.0794 55.5323 49.0274 56.3066C49.2012 56.4489 49.5488 56.3698 49.8016 56.3856C49.8016 56.1328 49.8964 55.7851 49.77 55.6271C48.5692 54.2364 48.6008 52.7983 49.4224 51.2496C49.7542 50.6333 50.0544 49.9696 50.1966 49.29C50.4494 48.1364 50.1492 47.0776 49.138 46.3664C48.9168 46.2084 48.4902 46.319 48.1742 46.3032C48.269 46.5877 48.2848 46.967 48.4902 47.1408C49.2486 47.7887 49.3434 48.5631 49.0748 49.4165C48.8852 50.017 48.5534 50.5701 48.3322 51.1548C48.0636 51.8501 47.8582 52.5455 47.7002 53.067Z" fill="white"/>
<path d="M20.461 33.1866C21.6303 33.1866 22.5782 32.2951 22.5782 31.1954C22.5782 30.0957 21.6303 29.2042 20.461 29.2042C19.2917 29.2042 18.3438 30.0957 18.3438 31.1954C18.3438 32.2951 19.2917 33.1866 20.461 33.1866Z" fill="#88AE55"/>
<path d="M26.0542 33.2498C27.2235 33.2498 28.1714 32.3583 28.1714 31.2586C28.1714 30.1589 27.2235 29.2674 26.0542 29.2674C24.8849 29.2674 23.937 30.1589 23.937 31.2586C23.937 32.3583 24.8849 33.2498 26.0542 33.2498Z" fill="#88AE55"/>
<path d="M56.4376 27.6555H19.3076C19.0706 27.6555 18.881 27.4659 18.881 27.2288V27.0708C18.881 26.8337 19.0706 26.6441 19.3076 26.6441H56.4376C56.6746 26.6441 56.8642 26.8337 56.8642 27.0708V27.2288C56.8642 27.4659 56.6746 27.6555 56.4376 27.6555Z" fill="#88AE55"/>
</svg>
