<svg width="24" height="24" viewBox="0 0 24 24" fill="none" xmlns="http://www.w3.org/2000/svg">
<path d="M22 7.844C21.9961 5.02374 19.9805 2.60581 17.2031 2.0941C16.8906 2.03551 16.5703 2.00816 16.2539 2.00816C13.418 2.00035 10.582 1.99645 7.74219 2.00426C5.05859 2.01207 2.625 4.03547 2.11719 6.66824C2.07812 6.88308 2.03906 7.09792 2 7.31666C2 10.4416 2 13.5666 2 16.6915C2.07812 17.0587 2.125 17.4337 2.23828 17.7891C2.97656 20.0743 4.53516 21.4531 6.89453 21.9219C7.03125 21.9492 7.17187 21.9727 7.3125 22C10.4375 22 13.5625 22 16.6875 22C17.0586 21.9219 17.4453 21.875 17.8047 21.7578C20.1523 20.9844 21.5273 19.3672 21.9492 16.9376C21.9922 16.6837 21.9961 16.4181 21.9961 16.1603C22 13.3908 22 10.6174 22 7.844ZM14.5273 17.0938C14.293 17.2032 14.0234 17.2423 13.7695 17.3126C13.293 17.2618 12.8906 17.1095 12.5586 16.7813C11.3594 15.586 10.1602 14.3947 8.97266 13.1916C8.30469 12.5158 8.30078 11.4416 8.97266 10.7658C10.1523 9.57053 11.3398 8.38305 12.5352 7.20729C13.0469 6.70339 13.6758 6.56668 14.3555 6.82058C15.0156 7.06667 15.3945 7.55885 15.4844 8.25805C15.5547 8.80883 15.3906 9.28929 15.0039 9.68381C14.3047 10.3947 13.5977 11.0939 12.8945 11.7971C12.7109 11.9806 12.7148 11.9806 12.8984 12.1642C13.6172 12.883 14.3437 13.59 15.0469 14.3204C15.8711 15.172 15.6055 16.5977 14.5273 17.0938Z" fill="#A4B46A"/>
</svg>
